solid
 facet normal -1.000000e+00 -0.000000e+00 -0.000000e+00
   outer loop
     vertex -2.000000e+00  2.000000e+00  6.000000e-01
     vertex -2.000000e+00  2.000000e+00  5.000000e-02
     vertex -2.000000e+00 -2.000000e+00  6.000000e-01
   endloop
 endfacet
 facet normal -1.000000e+00  0.000000e+00  0.000000e+00
   outer loop
     vertex -2.000000e+00  2.000000e+00  5.000000e-02
     vertex -2.000000e+00 -2.000000e+00  5.000000e-02
     vertex -2.000000e+00 -2.000000e+00  6.000000e-01
   endloop
 endfacet
 facet normal  0.000000e+00 -1.000000e+00  0.000000e+00
   outer loop
     vertex -2.000000e+00 -2.000000e+00  5.000000e-02
     vertex  2.000000e+00 -2.000000e+00  5.000000e-02
     vertex  2.000000e+00 -2.000000e+00  6.000000e-01
   endloop
 endfacet
 facet normal  0.000000e+00 -1.000000e+00  0.000000e+00
   outer loop
     vertex -2.000000e+00 -2.000000e+00  6.000000e-01
     vertex -2.000000e+00 -2.000000e+00  5.000000e-02
     vertex  2.000000e+00 -2.000000e+00  6.000000e-01
   endloop
 endfacet
 facet normal -3.221331e-17 -3.025031e-17  1.000000e+00
   outer loop
     vertex -1.702254e+00  1.353054e+00  6.000000e-01
     vertex -2.000000e+00 -2.000000e+00  6.000000e-01
     vertex -1.659356e+00  1.307372e+00  6.000000e-01
   endloop
 endfacet
 facet normal -1.999599e-17 -3.150864e-17  1.000000e+00
   outer loop
     vertex -1.606445e+00  1.273793e+00  6.000000e-01
     vertex -1.659356e+00  1.307372e+00  6.000000e-01
     vertex -2.000000e+00 -2.000000e+00  6.000000e-01
   endloop
 endfacet
 facet normal -5.185286e-17 -2.850635e-17  1.000000e+00
   outer loop
     vertex -1.732444e+00  1.407969e+00  6.000000e-01
     vertex -2.000000e+00 -2.000000e+00  6.000000e-01
     vertex -1.702254e+00  1.353054e+00  6.000000e-01
   endloop
 endfacet
 facet normal -1.060460e-17 -3.263762e-17  1.000000e+00
   outer loop
     vertex -1.546845e+00  1.254428e+00  6.000000e-01
     vertex -1.606445e+00  1.273793e+00  6.000000e-01
     vertex -2.000000e+00 -2.000000e+00  6.000000e-01
   endloop
 endfacet
 facet normal -2.127646e-18 -3.381797e-17  1.000000e+00
   outer loop
     vertex -1.484302e+00  1.250493e+00  6.000000e-01
     vertex -1.546845e+00  1.254428e+00  6.000000e-01
     vertex -2.000000e+00 -2.000000e+00  6.000000e-01
   endloop
 endfacet
 facet normal  6.718858e-18 -3.522148e-17  1.000000e+00
   outer loop
     vertex -1.422746e+00  1.262236e+00  6.000000e-01
     vertex -1.484302e+00  1.250493e+00  6.000000e-01
     vertex -2.000000e+00 -2.000000e+00  6.000000e-01
   endloop
 endfacet
 facet normal  1.746911e-17 -3.712375e-17  1.000000e+00
   outer loop
     vertex -1.366043e+00  1.288918e+00  6.000000e-01
     vertex -1.422746e+00  1.262236e+00  6.000000e-01
     vertex -2.000000e+00 -2.000000e+00  6.000000e-01
   endloop
 endfacet
 facet normal  0.000000e+00 -3.375648e-17  1.000000e+00
   outer loop
     vertex  2.000000e+00 -2.000000e+00  6.000000e-01
     vertex -1.366043e+00  1.288918e+00  6.000000e-01
     vertex -2.000000e+00 -2.000000e+00  6.000000e-01
   endloop
 endfacet
 facet normal -2.257291e-16  1.240956e-16  1.000000e+00
   outer loop
     vertex -2.000000e+00  2.000000e+00  6.000000e-01
     vertex -1.732444e+00  1.592031e+00  6.000000e-01
     vertex -1.702254e+00  1.646946e+00  6.000000e-01
   endloop
 endfacet
 facet normal -2.982030e-16  7.656551e-17  1.000000e+00
   outer loop
     vertex -2.000000e+00  2.000000e+00  6.000000e-01
     vertex -1.748029e+00  1.531333e+00  6.000000e-01
     vertex -1.732444e+00  1.592031e+00  6.000000e-01
   endloop
 endfacet
 facet normal -4.406148e-16  0.000000e+00  1.000000e+00
   outer loop
     vertex -2.000000e+00  2.000000e+00  6.000000e-01
     vertex -1.748029e+00  1.468667e+00  6.000000e-01
     vertex -1.748029e+00  1.531333e+00  6.000000e-01
   endloop
 endfacet
 facet normal -9.608318e-16 -2.466997e-16  1.000000e+00
   outer loop
     vertex -2.000000e+00  2.000000e+00  6.000000e-01
     vertex -1.732444e+00  1.407969e+00  6.000000e-01
     vertex -1.748029e+00  1.468667e+00  6.000000e-01
   endloop
 endfacet
 facet normal -4.149500e-16  0.000000e+00  1.000000e+00
   outer loop
     vertex -2.000000e+00  2.000000e+00  6.000000e-01
     vertex -2.000000e+00 -2.000000e+00  6.000000e-01
     vertex -1.732444e+00  1.407969e+00  6.000000e-01
   endloop
 endfacet
 facet normal  1.512223e-17 -1.827964e-17  1.000000e+00
   outer loop
     vertex -1.317758e+00  1.328863e+00  6.000000e-01
     vertex -1.366043e+00  1.288918e+00  6.000000e-01
     vertex  2.000000e+00 -2.000000e+00  6.000000e-01
   endloop
 endfacet
 facet normal -1.764260e-16  1.656751e-16  1.000000e+00
   outer loop
     vertex -1.659356e+00  1.692628e+00  6.000000e-01
     vertex -2.000000e+00  2.000000e+00  6.000000e-01
     vertex -1.702254e+00  1.646946e+00  6.000000e-01
   endloop
 endfacet
 facet normal  1.935428e-17 -1.406171e-17  1.000000e+00
   outer loop
     vertex -1.280923e+00  1.379562e+00  6.000000e-01
     vertex -1.317758e+00  1.328863e+00  6.000000e-01
     vertex  2.000000e+00 -2.000000e+00  6.000000e-01
   endloop
 endfacet
 facet normal -1.345751e-16  2.120563e-16  1.000000e+00
   outer loop
     vertex -1.606445e+00  1.726207e+00  6.000000e-01
     vertex -2.000000e+00  2.000000e+00  6.000000e-01
     vertex -1.659356e+00  1.692628e+00  6.000000e-01
   endloop
 endfacet
 facet normal -8.980904e-17  2.764038e-16  1.000000e+00
   outer loop
     vertex -1.546845e+00  1.745572e+00  6.000000e-01
     vertex -2.000000e+00  2.000000e+00  6.000000e-01
     vertex -1.606445e+00  1.726207e+00  6.000000e-01
   endloop
 endfacet
 facet normal -2.468712e-17  3.923906e-16  1.000000e+00
   outer loop
     vertex -1.484302e+00  1.749507e+00  6.000000e-01
     vertex -2.000000e+00  2.000000e+00  6.000000e-01
     vertex -1.546845e+00  1.745572e+00  6.000000e-01
   endloop
 endfacet
 facet normal  1.392244e-16  7.298398e-16  1.000000e+00
   outer loop
     vertex -1.422746e+00  1.737764e+00  6.000000e-01
     vertex -2.000000e+00  2.000000e+00  6.000000e-01
     vertex -1.484302e+00  1.749507e+00  6.000000e-01
   endloop
 endfacet
 facet normal  3.350944e-17  4.233227e-18  1.000000e+00
   outer loop
     vertex  2.000000e+00  2.000000e+00  6.000000e-01
     vertex -1.257854e+00  1.562172e+00  6.000000e-01
     vertex -1.250000e+00  1.500000e+00  6.000000e-01
   endloop
 endfacet
 facet normal  3.235668e-17  1.281091e-17  1.000000e+00
   outer loop
     vertex  2.000000e+00  2.000000e+00  6.000000e-01
     vertex -1.280923e+00  1.620438e+00  6.000000e-01
     vertex -1.257854e+00  1.562172e+00  6.000000e-01
   endloop
 endfacet
 facet normal  3.121505e-17  2.267906e-17  1.000000e+00
   outer loop
     vertex  2.000000e+00  2.000000e+00  6.000000e-01
     vertex -1.317758e+00  1.671137e+00  6.000000e-01
     vertex -1.280923e+00  1.620438e+00  6.000000e-01
   endloop
 endfacet
 facet normal  2.988258e-17  3.612183e-17  1.000000e+00
   outer loop
     vertex  2.000000e+00  2.000000e+00  6.000000e-01
     vertex -1.366043e+00  1.711082e+00  6.000000e-01
     vertex -1.317758e+00  1.671137e+00  6.000000e-01
   endloop
 endfacet
 facet normal  3.657735e-17 -1.448200e-17  1.000000e+00
   outer loop
     vertex  2.000000e+00  2.000000e+00  6.000000e-01
     vertex -1.257854e+00  1.437828e+00  6.000000e-01
     vertex -1.280923e+00  1.379562e+00  6.000000e-01
   endloop
 endfacet
 facet normal  3.483779e-17 -4.401036e-18  1.000000e+00
   outer loop
     vertex  2.000000e+00  2.000000e+00  6.000000e-01
     vertex -1.250000e+00  1.500000e+00  6.000000e-01
     vertex -1.257854e+00  1.437828e+00  6.000000e-01
   endloop
 endfacet
 facet normal  3.383874e-17  0.000000e+00  1.000000e+00
   outer loop
     vertex  2.000000e+00  2.000000e+00  6.000000e-01
     vertex -1.280923e+00  1.379562e+00  6.000000e-01
     vertex  2.000000e+00 -2.000000e+00  6.000000e-01
   endloop
 endfacet
 facet normal  0.000000e+00  4.233681e-16  1.000000e+00
   outer loop
     vertex  2.000000e+00  2.000000e+00  6.000000e-01
     vertex -2.000000e+00  2.000000e+00  6.000000e-01
     vertex -1.422746e+00  1.737764e+00  6.000000e-01
   endloop
 endfacet
 facet normal  2.789487e-17  5.927962e-17  1.000000e+00
   outer loop
     vertex  2.000000e+00  2.000000e+00  6.000000e-01
     vertex -1.422746e+00  1.737764e+00  6.000000e-01
     vertex -1.366043e+00  1.711082e+00  6.000000e-01
   endloop
 endfacet
 facet normal  0.000000e+00  1.000000e+00  0.000000e+00
   outer loop
     vertex  2.000000e+00  2.000000e+00  6.000000e-01
     vertex  2.000000e+00  2.000000e+00  5.000000e-02
     vertex -2.000000e+00  2.000000e+00  5.000000e-02
   endloop
 endfacet
 facet normal  0.000000e+00  1.000000e+00 -0.000000e+00
   outer loop
     vertex  2.000000e+00  2.000000e+00  6.000000e-01
     vertex -2.000000e+00  2.000000e+00  5.000000e-02
     vertex -2.000000e+00  2.000000e+00  6.000000e-01
   endloop
 endfacet
 facet normal  0.000000e+00  0.000000e+00 -1.000000e+00
   outer loop
     vertex -2.000000e+00 -2.000000e+00  5.000000e-02
     vertex -2.000000e+00  2.000000e+00  5.000000e-02
     vertex  2.000000e+00 -2.000000e+00  5.000000e-02
   endloop
 endfacet
 facet normal  0.000000e+00  0.000000e+00 -1.000000e+00
   outer loop
     vertex  2.000000e+00 -2.000000e+00  5.000000e-02
     vertex -2.000000e+00  2.000000e+00  5.000000e-02
     vertex  2.000000e+00  2.000000e+00  5.000000e-02
   endloop
 endfacet
 facet normal  1.000000e+00 -0.000000e+00  0.000000e+00
   outer loop
     vertex  2.000000e+00 -2.000000e+00  6.000000e-01
     vertex  2.000000e+00  2.000000e+00  5.000000e-02
     vertex  2.000000e+00  2.000000e+00  6.000000e-01
   endloop
 endfacet
 facet normal  1.000000e+00 -0.000000e+00  0.000000e+00
   outer loop
     vertex  2.000000e+00 -2.000000e+00  6.000000e-01
     vertex  2.000000e+00 -2.000000e+00  5.000000e-02
     vertex  2.000000e+00  2.000000e+00  5.000000e-02
   endloop
 endfacet
 facet normal -1.873813e-01  9.822873e-01  0.000000e+00
   outer loop
     vertex -1.422746e+00  1.262236e+00  5.400000e-01
     vertex -1.484302e+00  1.250493e+00  5.400000e-01
     vertex -1.422746e+00  1.262236e+00  6.000000e-01
   endloop
 endfacet
 facet normal -4.257793e-01  9.048271e-01  0.000000e+00
   outer loop
     vertex -1.366043e+00  1.288918e+00  5.400000e-01
     vertex -1.422746e+00  1.262236e+00  5.400000e-01
     vertex -1.422746e+00  1.262236e+00  6.000000e-01
   endloop
 endfacet
 facet normal -1.873813e-01  9.822873e-01  0.000000e+00
   outer loop
     vertex -1.484302e+00  1.250493e+00  5.400000e-01
     vertex -1.484302e+00  1.250493e+00  6.000000e-01
     vertex -1.422746e+00  1.262236e+00  6.000000e-01
   endloop
 endfacet
 facet normal -4.257793e-01  9.048271e-01  0.000000e+00
   outer loop
     vertex -1.366043e+00  1.288918e+00  5.400000e-01
     vertex -1.422746e+00  1.262236e+00  6.000000e-01
     vertex -1.366043e+00  1.288918e+00  6.000000e-01
   endloop
 endfacet
 facet normal -9.921147e-01 -1.253332e-01  0.000000e+00
   outer loop
     vertex -1.257854e+00  1.562172e+00  5.400000e-01
     vertex -1.250000e+00  1.500000e+00  5.400000e-01
     vertex -1.257854e+00  1.562172e+00  6.000000e-01
   endloop
 endfacet
 facet normal -9.921147e-01 -1.253332e-01  0.000000e+00
   outer loop
     vertex -1.250000e+00  1.500000e+00  5.400000e-01
     vertex -1.250000e+00  1.500000e+00  6.000000e-01
     vertex -1.257854e+00  1.562172e+00  6.000000e-01
   endloop
 endfacet
 facet normal -6.374240e-01  7.705132e-01  0.000000e+00
   outer loop
     vertex -1.317758e+00  1.328863e+00  5.400000e-01
     vertex -1.366043e+00  1.288918e+00  5.400000e-01
     vertex -1.317758e+00  1.328863e+00  6.000000e-01
   endloop
 endfacet
 facet normal -6.374240e-01  7.705132e-01  0.000000e+00
   outer loop
     vertex -1.366043e+00  1.288918e+00  5.400000e-01
     vertex -1.366043e+00  1.288918e+00  6.000000e-01
     vertex -1.317758e+00  1.328863e+00  6.000000e-01
   endloop
 endfacet
 facet normal -9.297765e-01 -3.681246e-01  0.000000e+00
   outer loop
     vertex -1.280923e+00  1.620438e+00  5.400000e-01
     vertex -1.257854e+00  1.562172e+00  5.400000e-01
     vertex -1.280923e+00  1.620438e+00  6.000000e-01
   endloop
 endfacet
 facet normal -8.090170e-01 -5.877853e-01  0.000000e+00
   outer loop
     vertex -1.317758e+00  1.671137e+00  5.400000e-01
     vertex -1.280923e+00  1.620438e+00  5.400000e-01
     vertex -1.280923e+00  1.620438e+00  6.000000e-01
   endloop
 endfacet
 facet normal -9.297765e-01 -3.681246e-01  0.000000e+00
   outer loop
     vertex -1.257854e+00  1.562172e+00  5.400000e-01
     vertex -1.257854e+00  1.562172e+00  6.000000e-01
     vertex -1.280923e+00  1.620438e+00  6.000000e-01
   endloop
 endfacet
 facet normal -8.090170e-01  5.877853e-01  0.000000e+00
   outer loop
     vertex -1.280923e+00  1.379562e+00  5.400000e-01
     vertex -1.317758e+00  1.328863e+00  5.400000e-01
     vertex -1.280923e+00  1.379562e+00  6.000000e-01
   endloop
 endfacet
 facet normal -8.090170e-01  5.877853e-01  0.000000e+00
   outer loop
     vertex -1.317758e+00  1.328863e+00  5.400000e-01
     vertex -1.317758e+00  1.328863e+00  6.000000e-01
     vertex -1.280923e+00  1.379562e+00  6.000000e-01
   endloop
 endfacet
 facet normal -8.090170e-01 -5.877853e-01  0.000000e+00
   outer loop
     vertex -1.317758e+00  1.671137e+00  5.400000e-01
     vertex -1.280923e+00  1.620438e+00  6.000000e-01
     vertex -1.317758e+00  1.671137e+00  6.000000e-01
   endloop
 endfacet
 facet normal -9.297765e-01  3.681246e-01  0.000000e+00
   outer loop
     vertex -1.257854e+00  1.437828e+00  5.400000e-01
     vertex -1.280923e+00  1.379562e+00  5.400000e-01
     vertex -1.257854e+00  1.437828e+00  6.000000e-01
   endloop
 endfacet
 facet normal -9.921147e-01  1.253332e-01  0.000000e+00
   outer loop
     vertex -1.250000e+00  1.500000e+00  5.400000e-01
     vertex -1.257854e+00  1.437828e+00  5.400000e-01
     vertex -1.257854e+00  1.437828e+00  6.000000e-01
   endloop
 endfacet
 facet normal -9.297765e-01  3.681246e-01  0.000000e+00
   outer loop
     vertex -1.280923e+00  1.379562e+00  5.400000e-01
     vertex -1.280923e+00  1.379562e+00  6.000000e-01
     vertex -1.257854e+00  1.437828e+00  6.000000e-01
   endloop
 endfacet
 facet normal -9.921147e-01  1.253332e-01  0.000000e+00
   outer loop
     vertex -1.250000e+00  1.500000e+00  5.400000e-01
     vertex -1.257854e+00  1.437828e+00  6.000000e-01
     vertex -1.250000e+00  1.500000e+00  6.000000e-01
   endloop
 endfacet
 facet normal -6.374240e-01 -7.705132e-01  0.000000e+00
   outer loop
     vertex -1.366043e+00  1.711082e+00  5.400000e-01
     vertex -1.317758e+00  1.671137e+00  5.400000e-01
     vertex -1.366043e+00  1.711082e+00  6.000000e-01
   endloop
 endfacet
 facet normal -6.374240e-01 -7.705132e-01  0.000000e+00
   outer loop
     vertex -1.317758e+00  1.671137e+00  5.400000e-01
     vertex -1.317758e+00  1.671137e+00  6.000000e-01
     vertex -1.366043e+00  1.711082e+00  6.000000e-01
   endloop
 endfacet
 facet normal -4.257793e-01 -9.048271e-01  0.000000e+00
   outer loop
     vertex -1.422746e+00  1.737764e+00  5.400000e-01
     vertex -1.366043e+00  1.711082e+00  5.400000e-01
     vertex -1.422746e+00  1.737764e+00  6.000000e-01
   endloop
 endfacet
 facet normal -4.257793e-01 -9.048271e-01  0.000000e+00
   outer loop
     vertex -1.366043e+00  1.711082e+00  5.400000e-01
     vertex -1.366043e+00  1.711082e+00  6.000000e-01
     vertex -1.422746e+00  1.737764e+00  6.000000e-01
   endloop
 endfacet
 facet normal -1.873813e-01 -9.822873e-01  0.000000e+00
   outer loop
     vertex -1.484302e+00  1.749507e+00  5.400000e-01
     vertex -1.422746e+00  1.737764e+00  5.400000e-01
     vertex -1.484302e+00  1.749507e+00  6.000000e-01
   endloop
 endfacet
 facet normal -1.873813e-01 -9.822873e-01  0.000000e+00
   outer loop
     vertex -1.422746e+00  1.737764e+00  5.400000e-01
     vertex -1.422746e+00  1.737764e+00  6.000000e-01
     vertex -1.484302e+00  1.749507e+00  6.000000e-01
   endloop
 endfacet
 facet normal  6.279052e-02 -9.980267e-01  0.000000e+00
   outer loop
     vertex -1.546845e+00  1.745572e+00  5.400000e-01
     vertex -1.484302e+00  1.749507e+00  5.400000e-01
     vertex -1.546845e+00  1.745572e+00  6.000000e-01
   endloop
 endfacet
 facet normal  6.279052e-02 -9.980267e-01  0.000000e+00
   outer loop
     vertex -1.484302e+00  1.749507e+00  5.400000e-01
     vertex -1.484302e+00  1.749507e+00  6.000000e-01
     vertex -1.546845e+00  1.745572e+00  6.000000e-01
   endloop
 endfacet
 facet normal  3.090170e-01 -9.510565e-01  0.000000e+00
   outer loop
     vertex -1.606445e+00  1.726207e+00  5.400000e-01
     vertex -1.546845e+00  1.745572e+00  5.400000e-01
     vertex -1.606445e+00  1.726207e+00  6.000000e-01
   endloop
 endfacet
 facet normal  3.090170e-01 -9.510565e-01  0.000000e+00
   outer loop
     vertex -1.546845e+00  1.745572e+00  5.400000e-01
     vertex -1.546845e+00  1.745572e+00  6.000000e-01
     vertex -1.606445e+00  1.726207e+00  6.000000e-01
   endloop
 endfacet
 facet normal  5.358268e-01 -8.443279e-01  0.000000e+00
   outer loop
     vertex -1.659356e+00  1.692628e+00  5.400000e-01
     vertex -1.606445e+00  1.726207e+00  5.400000e-01
     vertex -1.659356e+00  1.692628e+00  6.000000e-01
   endloop
 endfacet
 facet normal  5.358268e-01 -8.443279e-01  0.000000e+00
   outer loop
     vertex -1.606445e+00  1.726207e+00  5.400000e-01
     vertex -1.606445e+00  1.726207e+00  6.000000e-01
     vertex -1.659356e+00  1.692628e+00  6.000000e-01
   endloop
 endfacet
 facet normal  7.289686e-01 -6.845471e-01  0.000000e+00
   outer loop
     vertex -1.702254e+00  1.646946e+00  5.400000e-01
     vertex -1.659356e+00  1.692628e+00  5.400000e-01
     vertex -1.702254e+00  1.646946e+00  6.000000e-01
   endloop
 endfacet
 facet normal  7.289686e-01 -6.845471e-01  0.000000e+00
   outer loop
     vertex -1.659356e+00  1.692628e+00  5.400000e-01
     vertex -1.659356e+00  1.692628e+00  6.000000e-01
     vertex -1.702254e+00  1.646946e+00  6.000000e-01
   endloop
 endfacet
 facet normal  8.763067e-01 -4.817537e-01  0.000000e+00
   outer loop
     vertex -1.732444e+00  1.592031e+00  5.400000e-01
     vertex -1.702254e+00  1.646946e+00  5.400000e-01
     vertex -1.732444e+00  1.592031e+00  6.000000e-01
   endloop
 endfacet
 facet normal  8.763067e-01 -4.817537e-01  0.000000e+00
   outer loop
     vertex -1.702254e+00  1.646946e+00  5.400000e-01
     vertex -1.702254e+00  1.646946e+00  6.000000e-01
     vertex -1.732444e+00  1.592031e+00  6.000000e-01
   endloop
 endfacet
 facet normal  9.685832e-01 -2.486899e-01  0.000000e+00
   outer loop
     vertex -1.732444e+00  1.592031e+00  5.400000e-01
     vertex -1.732444e+00  1.592031e+00  6.000000e-01
     vertex -1.748029e+00  1.531333e+00  6.000000e-01
   endloop
 endfacet
 facet normal  9.685832e-01 -2.486899e-01  0.000000e+00
   outer loop
     vertex -1.748029e+00  1.531333e+00  5.400000e-01
     vertex -1.732444e+00  1.592031e+00  5.400000e-01
     vertex -1.748029e+00  1.531333e+00  6.000000e-01
   endloop
 endfacet
 facet normal  1.000000e+00  0.000000e+00  0.000000e+00
   outer loop
     vertex -1.748029e+00  1.468667e+00  5.400000e-01
     vertex -1.748029e+00  1.531333e+00  5.400000e-01
     vertex -1.748029e+00  1.531333e+00  6.000000e-01
   endloop
 endfacet
 facet normal  1.000000e+00  0.000000e+00 -0.000000e+00
   outer loop
     vertex -1.748029e+00  1.468667e+00  5.400000e-01
     vertex -1.748029e+00  1.531333e+00  6.000000e-01
     vertex -1.748029e+00  1.468667e+00  6.000000e-01
   endloop
 endfacet
 facet normal  9.685832e-01  2.486899e-01 -0.000000e+00
   outer loop
     vertex -1.732444e+00  1.407969e+00  5.400000e-01
     vertex -1.748029e+00  1.468667e+00  5.400000e-01
     vertex -1.748029e+00  1.468667e+00  6.000000e-01
   endloop
 endfacet
 facet normal  9.685832e-01  2.486899e-01  0.000000e+00
   outer loop
     vertex -1.732444e+00  1.407969e+00  5.400000e-01
     vertex -1.748029e+00  1.468667e+00  6.000000e-01
     vertex -1.732444e+00  1.407969e+00  6.000000e-01
   endloop
 endfacet
 facet normal  8.763067e-01  4.817537e-01  0.000000e+00
   outer loop
     vertex -1.702254e+00  1.353054e+00  5.400000e-01
     vertex -1.732444e+00  1.407969e+00  5.400000e-01
     vertex -1.702254e+00  1.353054e+00  6.000000e-01
   endloop
 endfacet
 facet normal  8.763067e-01  4.817537e-01 -0.000000e+00
   outer loop
     vertex -1.732444e+00  1.407969e+00  5.400000e-01
     vertex -1.732444e+00  1.407969e+00  6.000000e-01
     vertex -1.702254e+00  1.353054e+00  6.000000e-01
   endloop
 endfacet
 facet normal  7.289686e-01  6.845471e-01 -0.000000e+00
   outer loop
     vertex -1.659356e+00  1.307372e+00  5.400000e-01
     vertex -1.702254e+00  1.353054e+00  5.400000e-01
     vertex -1.702254e+00  1.353054e+00  6.000000e-01
   endloop
 endfacet
 facet normal  7.289686e-01  6.845471e-01  0.000000e+00
   outer loop
     vertex -1.659356e+00  1.307372e+00  5.400000e-01
     vertex -1.702254e+00  1.353054e+00  6.000000e-01
     vertex -1.659356e+00  1.307372e+00  6.000000e-01
   endloop
 endfacet
 facet normal  5.358268e-01  8.443279e-01  0.000000e+00
   outer loop
     vertex -1.606445e+00  1.273793e+00  5.400000e-01
     vertex -1.659356e+00  1.307372e+00  5.400000e-01
     vertex -1.606445e+00  1.273793e+00  6.000000e-01
   endloop
 endfacet
 facet normal  5.358268e-01  8.443279e-01 -0.000000e+00
   outer loop
     vertex -1.659356e+00  1.307372e+00  5.400000e-01
     vertex -1.659356e+00  1.307372e+00  6.000000e-01
     vertex -1.606445e+00  1.273793e+00  6.000000e-01
   endloop
 endfacet
 facet normal  3.090170e-01  9.510565e-01  0.000000e+00
   outer loop
     vertex -1.546845e+00  1.254428e+00  5.400000e-01
     vertex -1.606445e+00  1.273793e+00  5.400000e-01
     vertex -1.546845e+00  1.254428e+00  6.000000e-01
   endloop
 endfacet
 facet normal  3.090170e-01  9.510565e-01 -0.000000e+00
   outer loop
     vertex -1.606445e+00  1.273793e+00  5.400000e-01
     vertex -1.606445e+00  1.273793e+00  6.000000e-01
     vertex -1.546845e+00  1.254428e+00  6.000000e-01
   endloop
 endfacet
 facet normal  6.279052e-02  9.980267e-01  0.000000e+00
   outer loop
     vertex -1.484302e+00  1.250493e+00  5.400000e-01
     vertex -1.546845e+00  1.254428e+00  5.400000e-01
     vertex -1.484302e+00  1.250493e+00  6.000000e-01
   endloop
 endfacet
 facet normal  6.279052e-02  9.980267e-01 -0.000000e+00
   outer loop
     vertex -1.546845e+00  1.254428e+00  5.400000e-01
     vertex -1.546845e+00  1.254428e+00  6.000000e-01
     vertex -1.484302e+00  1.250493e+00  6.000000e-01
   endloop
 endfacet
 facet normal  0.000000e+00  0.000000e+00  1.000000e+00
   outer loop
     vertex -1.748029e+00  1.468667e+00  5.400000e-01
     vertex -1.732444e+00  1.407969e+00  5.400000e-01
     vertex -1.702254e+00  1.353054e+00  5.400000e-01
   endloop
 endfacet
 facet normal  0.000000e+00  0.000000e+00  1.000000e+00
   outer loop
     vertex -1.484302e+00  1.250493e+00  5.400000e-01
     vertex -1.702254e+00  1.353054e+00  5.400000e-01
     vertex -1.659356e+00  1.307372e+00  5.400000e-01
   endloop
 endfacet
 facet normal  0.000000e+00  0.000000e+00  1.000000e+00
   outer loop
     vertex -1.484302e+00  1.250493e+00  5.400000e-01
     vertex -1.659356e+00  1.307372e+00  5.400000e-01
     vertex -1.606445e+00  1.273793e+00  5.400000e-01
   endloop
 endfacet
 facet normal  0.000000e+00  0.000000e+00  1.000000e+00
   outer loop
     vertex -1.484302e+00  1.250493e+00  5.400000e-01
     vertex -1.606445e+00  1.273793e+00  5.400000e-01
     vertex -1.546845e+00  1.254428e+00  5.400000e-01
   endloop
 endfacet
 facet normal  0.000000e+00  0.000000e+00  1.000000e+00
   outer loop
     vertex -1.484302e+00  1.250493e+00  5.400000e-01
     vertex -1.748029e+00  1.468667e+00  5.400000e-01
     vertex -1.702254e+00  1.353054e+00  5.400000e-01
   endloop
 endfacet
 facet normal  0.000000e+00  0.000000e+00  1.000000e+00
   outer loop
     vertex -1.422746e+00  1.262236e+00  5.400000e-01
     vertex -1.748029e+00  1.468667e+00  5.400000e-01
     vertex -1.484302e+00  1.250493e+00  5.400000e-01
   endloop
 endfacet
 facet normal  0.000000e+00  0.000000e+00  1.000000e+00
   outer loop
     vertex -1.366043e+00  1.288918e+00  5.400000e-01
     vertex -1.732444e+00  1.592031e+00  5.400000e-01
     vertex -1.748029e+00  1.531333e+00  5.400000e-01
   endloop
 endfacet
 facet normal  0.000000e+00  0.000000e+00  1.000000e+00
   outer loop
     vertex -1.366043e+00  1.288918e+00  5.400000e-01
     vertex -1.748029e+00  1.531333e+00  5.400000e-01
     vertex -1.748029e+00  1.468667e+00  5.400000e-01
   endloop
 endfacet
 facet normal  0.000000e+00  0.000000e+00  1.000000e+00
   outer loop
     vertex -1.366043e+00  1.288918e+00  5.400000e-01
     vertex -1.748029e+00  1.468667e+00  5.400000e-01
     vertex -1.422746e+00  1.262236e+00  5.400000e-01
   endloop
 endfacet
 facet normal  0.000000e+00  0.000000e+00  1.000000e+00
   outer loop
     vertex -1.317758e+00  1.328863e+00  5.400000e-01
     vertex -1.732444e+00  1.592031e+00  5.400000e-01
     vertex -1.366043e+00  1.288918e+00  5.400000e-01
   endloop
 endfacet
 facet normal  0.000000e+00  0.000000e+00  1.000000e+00
   outer loop
     vertex -1.659356e+00  1.692628e+00  5.400000e-01
     vertex -1.702254e+00  1.646946e+00  5.400000e-01
     vertex -1.732444e+00  1.592031e+00  5.400000e-01
   endloop
 endfacet
 facet normal -0.000000e+00  0.000000e+00  1.000000e+00
   outer loop
     vertex -1.257854e+00  1.437828e+00  5.400000e-01
     vertex -1.317758e+00  1.328863e+00  5.400000e-01
     vertex -1.280923e+00  1.379562e+00  5.400000e-01
   endloop
 endfacet
 facet normal  0.000000e+00  0.000000e+00  1.000000e+00
   outer loop
     vertex -1.257854e+00  1.437828e+00  5.400000e-01
     vertex -1.659356e+00  1.692628e+00  5.400000e-01
     vertex -1.732444e+00  1.592031e+00  5.400000e-01
   endloop
 endfacet
 facet normal  0.000000e+00  0.000000e+00  1.000000e+00
   outer loop
     vertex -1.257854e+00  1.437828e+00  5.400000e-01
     vertex -1.732444e+00  1.592031e+00  5.400000e-01
     vertex -1.317758e+00  1.328863e+00  5.400000e-01
   endloop
 endfacet
 facet normal  0.000000e+00  0.000000e+00  1.000000e+00
   outer loop
     vertex -1.546845e+00  1.745572e+00  5.400000e-01
     vertex -1.606445e+00  1.726207e+00  5.400000e-01
     vertex -1.659356e+00  1.692628e+00  5.400000e-01
   endloop
 endfacet
 facet normal  0.000000e+00  0.000000e+00  1.000000e+00
   outer loop
     vertex -1.546845e+00  1.745572e+00  5.400000e-01
     vertex -1.659356e+00  1.692628e+00  5.400000e-01
     vertex -1.257854e+00  1.437828e+00  5.400000e-01
   endloop
 endfacet
 facet normal -0.000000e+00  0.000000e+00  1.000000e+00
   outer loop
     vertex -1.257854e+00  1.562172e+00  5.400000e-01
     vertex -1.257854e+00  1.437828e+00  5.400000e-01
     vertex -1.250000e+00  1.500000e+00  5.400000e-01
   endloop
 endfacet
 facet normal  0.000000e+00  0.000000e+00  1.000000e+00
   outer loop
     vertex -1.422746e+00  1.737764e+00  5.400000e-01
     vertex -1.484302e+00  1.749507e+00  5.400000e-01
     vertex -1.546845e+00  1.745572e+00  5.400000e-01
   endloop
 endfacet
 facet normal -0.000000e+00 -0.000000e+00  1.000000e+00
   outer loop
     vertex -1.280923e+00  1.620438e+00  5.400000e-01
     vertex -1.257854e+00  1.437828e+00  5.400000e-01
     vertex -1.257854e+00  1.562172e+00  5.400000e-01
   endloop
 endfacet
 facet normal  0.000000e+00  0.000000e+00  1.000000e+00
   outer loop
     vertex -1.366043e+00  1.711082e+00  5.400000e-01
     vertex -1.422746e+00  1.737764e+00  5.400000e-01
     vertex -1.546845e+00  1.745572e+00  5.400000e-01
   endloop
 endfacet
 facet normal  0.000000e+00  0.000000e+00  1.000000e+00
   outer loop
     vertex -1.317758e+00  1.671137e+00  5.400000e-01
     vertex -1.546845e+00  1.745572e+00  5.400000e-01
     vertex -1.257854e+00  1.437828e+00  5.400000e-01
   endloop
 endfacet
 facet normal -0.000000e+00 -0.000000e+00  1.000000e+00
   outer loop
     vertex -1.317758e+00  1.671137e+00  5.400000e-01
     vertex -1.257854e+00  1.437828e+00  5.400000e-01
     vertex -1.280923e+00  1.620438e+00  5.400000e-01
   endloop
 endfacet
 facet normal  0.000000e+00  0.000000e+00  1.000000e+00
   outer loop
     vertex -1.317758e+00  1.671137e+00  5.400000e-01
     vertex -1.366043e+00  1.711082e+00  5.400000e-01
     vertex -1.546845e+00  1.745572e+00  5.400000e-01
   endloop
 endfacet
 facet normal -1.000000e+00 -0.000000e+00 -0.000000e+00
   outer loop
     vertex -1.150000e+00  1.500000e+00  7.500000e-02
     vertex -1.150000e+00  1.500000e+00  0.000000e+00
     vertex -1.150000e+00 -1.500000e+00  7.500000e-02
   endloop
 endfacet
 facet normal -1.000000e+00  0.000000e+00  0.000000e+00
   outer loop
     vertex -1.150000e+00  1.500000e+00  0.000000e+00
     vertex -1.150000e+00 -1.500000e+00  0.000000e+00
     vertex -1.150000e+00 -1.500000e+00  7.500000e-02
   endloop
 endfacet
 facet normal  1.000000e+00 -0.000000e+00  0.000000e+00
   outer loop
     vertex  1.150000e+00 -1.500000e+00  7.500000e-02
     vertex  1.150000e+00  1.500000e+00  0.000000e+00
     vertex  1.150000e+00  1.500000e+00  7.500000e-02
   endloop
 endfacet
 facet normal  1.000000e+00 -0.000000e+00  0.000000e+00
   outer loop
     vertex  1.150000e+00 -1.500000e+00  7.500000e-02
     vertex  1.150000e+00 -1.500000e+00  0.000000e+00
     vertex  1.150000e+00  1.500000e+00  0.000000e+00
   endloop
 endfacet
 facet normal  0.000000e+00 -1.000000e+00  0.000000e+00
   outer loop
     vertex -1.150000e+00 -1.500000e+00  7.500000e-02
     vertex -1.150000e+00 -1.500000e+00  0.000000e+00
     vertex  1.150000e+00 -1.500000e+00  0.000000e+00
   endloop
 endfacet
 facet normal  0.000000e+00 -1.000000e+00  0.000000e+00
   outer loop
     vertex -1.150000e+00 -1.500000e+00  7.500000e-02
     vertex  1.150000e+00 -1.500000e+00  0.000000e+00
     vertex  1.150000e+00 -1.500000e+00  7.500000e-02
   endloop
 endfacet
 facet normal  0.000000e+00  1.000000e+00 -0.000000e+00
   outer loop
     vertex  1.150000e+00  1.500000e+00  0.000000e+00
     vertex -1.150000e+00  1.500000e+00  0.000000e+00
     vertex -1.150000e+00  1.500000e+00  7.500000e-02
   endloop
 endfacet
 facet normal  0.000000e+00  1.000000e+00  0.000000e+00
   outer loop
     vertex  1.150000e+00  1.500000e+00  7.500000e-02
     vertex  1.150000e+00  1.500000e+00  0.000000e+00
     vertex -1.150000e+00  1.500000e+00  7.500000e-02
   endloop
 endfacet
 facet normal  0.000000e+00  0.000000e+00 -1.000000e+00
   outer loop
     vertex -1.150000e+00 -1.500000e+00  0.000000e+00
     vertex -1.150000e+00  1.500000e+00  0.000000e+00
     vertex  1.150000e+00  1.500000e+00  0.000000e+00
   endloop
 endfacet
 facet normal  0.000000e+00  0.000000e+00 -1.000000e+00
   outer loop
     vertex  1.150000e+00 -1.500000e+00  0.000000e+00
     vertex -1.150000e+00 -1.500000e+00  0.000000e+00
     vertex  1.150000e+00  1.500000e+00  0.000000e+00
   endloop
 endfacet
 facet normal  0.000000e+00  0.000000e+00  1.000000e+00
   outer loop
     vertex  1.150000e+00  1.500000e+00  7.500000e-02
     vertex -1.150000e+00  1.500000e+00  7.500000e-02
     vertex -1.150000e+00 -1.500000e+00  7.500000e-02
   endloop
 endfacet
 facet normal -0.000000e+00  0.000000e+00  1.000000e+00
   outer loop
     vertex  1.150000e+00  1.500000e+00  7.500000e-02
     vertex -1.150000e+00 -1.500000e+00  7.500000e-02
     vertex  1.150000e+00 -1.500000e+00  7.500000e-02
   endloop
 endfacet
 facet normal -1.000000e+00 -0.000000e+00 -0.000000e+00
   outer loop
     vertex  1.600000e+00  1.350000e+00  7.500000e-02
     vertex  1.600000e+00  1.350000e+00  0.000000e+00
     vertex  1.600000e+00  1.050000e+00  0.000000e+00
   endloop
 endfacet
 facet normal -1.000000e+00 -0.000000e+00  0.000000e+00
   outer loop
     vertex  1.600000e+00  1.350000e+00  7.500000e-02
     vertex  1.600000e+00  1.050000e+00  0.000000e+00
     vertex  1.600000e+00  1.050000e+00  7.500000e-02
   endloop
 endfacet
 facet normal  1.000000e+00  0.000000e+00  0.000000e+00
   outer loop
     vertex  2.050000e+00  1.050000e+00  0.000000e+00
     vertex  2.050000e+00  1.350000e+00  0.000000e+00
     vertex  2.050000e+00  1.350000e+00  7.500000e-02
   endloop
 endfacet
 facet normal  1.000000e+00 -0.000000e+00  0.000000e+00
   outer loop
     vertex  2.050000e+00  1.050000e+00  7.500000e-02
     vertex  2.050000e+00  1.050000e+00  0.000000e+00
     vertex  2.050000e+00  1.350000e+00  7.500000e-02
   endloop
 endfacet
 facet normal  0.000000e+00 -1.000000e+00  0.000000e+00
   outer loop
     vertex  1.600000e+00  1.050000e+00  0.000000e+00
     vertex  2.050000e+00  1.050000e+00  0.000000e+00
     vertex  2.050000e+00  1.050000e+00  7.500000e-02
   endloop
 endfacet
 facet normal  0.000000e+00 -1.000000e+00  0.000000e+00
   outer loop
     vertex  1.600000e+00  1.050000e+00  7.500000e-02
     vertex  1.600000e+00  1.050000e+00  0.000000e+00
     vertex  2.050000e+00  1.050000e+00  7.500000e-02
   endloop
 endfacet
 facet normal  0.000000e+00  1.000000e+00  0.000000e+00
   outer loop
     vertex  2.050000e+00  1.350000e+00  7.500000e-02
     vertex  2.050000e+00  1.350000e+00  0.000000e+00
     vertex  1.600000e+00  1.350000e+00  0.000000e+00
   endloop
 endfacet
 facet normal  0.000000e+00  1.000000e+00 -0.000000e+00
   outer loop
     vertex  2.050000e+00  1.350000e+00  7.500000e-02
     vertex  1.600000e+00  1.350000e+00  0.000000e+00
     vertex  1.600000e+00  1.350000e+00  7.500000e-02
   endloop
 endfacet
 facet normal  0.000000e+00  0.000000e+00 -1.000000e+00
   outer loop
     vertex  1.600000e+00  1.050000e+00  0.000000e+00
     vertex  1.600000e+00  1.350000e+00  0.000000e+00
     vertex  2.050000e+00  1.050000e+00  0.000000e+00
   endloop
 endfacet
 facet normal  0.000000e+00  0.000000e+00 -1.000000e+00
   outer loop
     vertex  2.050000e+00  1.050000e+00  0.000000e+00
     vertex  1.600000e+00  1.350000e+00  0.000000e+00
     vertex  2.050000e+00  1.350000e+00  0.000000e+00
   endloop
 endfacet
 facet normal  0.000000e+00  0.000000e+00  1.000000e+00
   outer loop
     vertex  2.050000e+00  1.050000e+00  7.500000e-02
     vertex  1.600000e+00  1.350000e+00  7.500000e-02
     vertex  1.600000e+00  1.050000e+00  7.500000e-02
   endloop
 endfacet
 facet normal  0.000000e+00  0.000000e+00  1.000000e+00
   outer loop
     vertex  2.050000e+00  1.350000e+00  7.500000e-02
     vertex  1.600000e+00  1.350000e+00  7.500000e-02
     vertex  2.050000e+00  1.050000e+00  7.500000e-02
   endloop
 endfacet
 facet normal -1.000000e+00 -0.000000e+00 -0.000000e+00
   outer loop
     vertex -2.050000e+00  1.350000e+00  7.500000e-02
     vertex -2.050000e+00  1.350000e+00  0.000000e+00
     vertex -2.050000e+00  1.050000e+00  0.000000e+00
   endloop
 endfacet
 facet normal -1.000000e+00 -0.000000e+00  0.000000e+00
   outer loop
     vertex -2.050000e+00  1.350000e+00  7.500000e-02
     vertex -2.050000e+00  1.050000e+00  0.000000e+00
     vertex -2.050000e+00  1.050000e+00  7.500000e-02
   endloop
 endfacet
 facet normal  1.000000e+00  0.000000e+00  0.000000e+00
   outer loop
     vertex -1.600000e+00  1.050000e+00  0.000000e+00
     vertex -1.600000e+00  1.350000e+00  0.000000e+00
     vertex -1.600000e+00  1.350000e+00  7.500000e-02
   endloop
 endfacet
 facet normal  1.000000e+00 -0.000000e+00  0.000000e+00
   outer loop
     vertex -1.600000e+00  1.050000e+00  7.500000e-02
     vertex -1.600000e+00  1.050000e+00  0.000000e+00
     vertex -1.600000e+00  1.350000e+00  7.500000e-02
   endloop
 endfacet
 facet normal  0.000000e+00 -1.000000e+00  0.000000e+00
   outer loop
     vertex -2.050000e+00  1.050000e+00  0.000000e+00
     vertex -1.600000e+00  1.050000e+00  0.000000e+00
     vertex -1.600000e+00  1.050000e+00  7.500000e-02
   endloop
 endfacet
 facet normal  0.000000e+00 -1.000000e+00  0.000000e+00
   outer loop
     vertex -2.050000e+00  1.050000e+00  7.500000e-02
     vertex -2.050000e+00  1.050000e+00  0.000000e+00
     vertex -1.600000e+00  1.050000e+00  7.500000e-02
   endloop
 endfacet
 facet normal  0.000000e+00  1.000000e+00  0.000000e+00
   outer loop
     vertex -1.600000e+00  1.350000e+00  7.500000e-02
     vertex -1.600000e+00  1.350000e+00  0.000000e+00
     vertex -2.050000e+00  1.350000e+00  0.000000e+00
   endloop
 endfacet
 facet normal  0.000000e+00  1.000000e+00 -0.000000e+00
   outer loop
     vertex -1.600000e+00  1.350000e+00  7.500000e-02
     vertex -2.050000e+00  1.350000e+00  0.000000e+00
     vertex -2.050000e+00  1.350000e+00  7.500000e-02
   endloop
 endfacet
 facet normal  0.000000e+00  0.000000e+00 -1.000000e+00
   outer loop
     vertex -2.050000e+00  1.050000e+00  0.000000e+00
     vertex -2.050000e+00  1.350000e+00  0.000000e+00
     vertex -1.600000e+00  1.050000e+00  0.000000e+00
   endloop
 endfacet
 facet normal  0.000000e+00  0.000000e+00 -1.000000e+00
   outer loop
     vertex -1.600000e+00  1.050000e+00  0.000000e+00
     vertex -2.050000e+00  1.350000e+00  0.000000e+00
     vertex -1.600000e+00  1.350000e+00  0.000000e+00
   endloop
 endfacet
 facet normal  0.000000e+00  0.000000e+00  1.000000e+00
   outer loop
     vertex -1.600000e+00  1.050000e+00  7.500000e-02
     vertex -2.050000e+00  1.350000e+00  7.500000e-02
     vertex -2.050000e+00  1.050000e+00  7.500000e-02
   endloop
 endfacet
 facet normal  0.000000e+00  0.000000e+00  1.000000e+00
   outer loop
     vertex -1.600000e+00  1.350000e+00  7.500000e-02
     vertex -2.050000e+00  1.350000e+00  7.500000e-02
     vertex -1.600000e+00  1.050000e+00  7.500000e-02
   endloop
 endfacet
 facet normal -1.000000e+00 -0.000000e+00 -0.000000e+00
   outer loop
     vertex  1.600000e+00  5.500000e-01  7.500000e-02
     vertex  1.600000e+00  5.500000e-01  0.000000e+00
     vertex  1.600000e+00  2.500000e-01  0.000000e+00
   endloop
 endfacet
 facet normal -1.000000e+00 -0.000000e+00  0.000000e+00
   outer loop
     vertex  1.600000e+00  5.500000e-01  7.500000e-02
     vertex  1.600000e+00  2.500000e-01  0.000000e+00
     vertex  1.600000e+00  2.500000e-01  7.500000e-02
   endloop
 endfacet
 facet normal  1.000000e+00  0.000000e+00  0.000000e+00
   outer loop
     vertex  2.050000e+00  2.500000e-01  0.000000e+00
     vertex  2.050000e+00  5.500000e-01  0.000000e+00
     vertex  2.050000e+00  5.500000e-01  7.500000e-02
   endloop
 endfacet
 facet normal  1.000000e+00 -0.000000e+00  0.000000e+00
   outer loop
     vertex  2.050000e+00  2.500000e-01  7.500000e-02
     vertex  2.050000e+00  2.500000e-01  0.000000e+00
     vertex  2.050000e+00  5.500000e-01  7.500000e-02
   endloop
 endfacet
 facet normal  0.000000e+00 -1.000000e+00  0.000000e+00
   outer loop
     vertex  1.600000e+00  2.500000e-01  0.000000e+00
     vertex  2.050000e+00  2.500000e-01  0.000000e+00
     vertex  2.050000e+00  2.500000e-01  7.500000e-02
   endloop
 endfacet
 facet normal  0.000000e+00 -1.000000e+00  0.000000e+00
   outer loop
     vertex  1.600000e+00  2.500000e-01  7.500000e-02
     vertex  1.600000e+00  2.500000e-01  0.000000e+00
     vertex  2.050000e+00  2.500000e-01  7.500000e-02
   endloop
 endfacet
 facet normal  0.000000e+00  1.000000e+00  0.000000e+00
   outer loop
     vertex  2.050000e+00  5.500000e-01  7.500000e-02
     vertex  2.050000e+00  5.500000e-01  0.000000e+00
     vertex  1.600000e+00  5.500000e-01  0.000000e+00
   endloop
 endfacet
 facet normal  0.000000e+00  1.000000e+00 -0.000000e+00
   outer loop
     vertex  2.050000e+00  5.500000e-01  7.500000e-02
     vertex  1.600000e+00  5.500000e-01  0.000000e+00
     vertex  1.600000e+00  5.500000e-01  7.500000e-02
   endloop
 endfacet
 facet normal  0.000000e+00  0.000000e+00 -1.000000e+00
   outer loop
     vertex  1.600000e+00  2.500000e-01  0.000000e+00
     vertex  1.600000e+00  5.500000e-01  0.000000e+00
     vertex  2.050000e+00  5.500000e-01  0.000000e+00
   endloop
 endfacet
 facet normal  0.000000e+00  0.000000e+00 -1.000000e+00
   outer loop
     vertex  2.050000e+00  2.500000e-01  0.000000e+00
     vertex  1.600000e+00  2.500000e-01  0.000000e+00
     vertex  2.050000e+00  5.500000e-01  0.000000e+00
   endloop
 endfacet
 facet normal  0.000000e+00  0.000000e+00  1.000000e+00
   outer loop
     vertex  2.050000e+00  5.500000e-01  7.500000e-02
     vertex  1.600000e+00  5.500000e-01  7.500000e-02
     vertex  1.600000e+00  2.500000e-01  7.500000e-02
   endloop
 endfacet
 facet normal -0.000000e+00  0.000000e+00  1.000000e+00
   outer loop
     vertex  2.050000e+00  5.500000e-01  7.500000e-02
     vertex  1.600000e+00  2.500000e-01  7.500000e-02
     vertex  2.050000e+00  2.500000e-01  7.500000e-02
   endloop
 endfacet
 facet normal -1.000000e+00 -0.000000e+00 -0.000000e+00
   outer loop
     vertex -2.050000e+00  5.500000e-01  7.500000e-02
     vertex -2.050000e+00  5.500000e-01  0.000000e+00
     vertex -2.050000e+00  2.500000e-01  0.000000e+00
   endloop
 endfacet
 facet normal -1.000000e+00 -0.000000e+00  0.000000e+00
   outer loop
     vertex -2.050000e+00  5.500000e-01  7.500000e-02
     vertex -2.050000e+00  2.500000e-01  0.000000e+00
     vertex -2.050000e+00  2.500000e-01  7.500000e-02
   endloop
 endfacet
 facet normal  1.000000e+00  0.000000e+00  0.000000e+00
   outer loop
     vertex -1.600000e+00  2.500000e-01  0.000000e+00
     vertex -1.600000e+00  5.500000e-01  0.000000e+00
     vertex -1.600000e+00  5.500000e-01  7.500000e-02
   endloop
 endfacet
 facet normal  1.000000e+00 -0.000000e+00  0.000000e+00
   outer loop
     vertex -1.600000e+00  2.500000e-01  7.500000e-02
     vertex -1.600000e+00  2.500000e-01  0.000000e+00
     vertex -1.600000e+00  5.500000e-01  7.500000e-02
   endloop
 endfacet
 facet normal  0.000000e+00 -1.000000e+00  0.000000e+00
   outer loop
     vertex -2.050000e+00  2.500000e-01  0.000000e+00
     vertex -1.600000e+00  2.500000e-01  0.000000e+00
     vertex -1.600000e+00  2.500000e-01  7.500000e-02
   endloop
 endfacet
 facet normal  0.000000e+00 -1.000000e+00  0.000000e+00
   outer loop
     vertex -2.050000e+00  2.500000e-01  7.500000e-02
     vertex -2.050000e+00  2.500000e-01  0.000000e+00
     vertex -1.600000e+00  2.500000e-01  7.500000e-02
   endloop
 endfacet
 facet normal  0.000000e+00  1.000000e+00  0.000000e+00
   outer loop
     vertex -1.600000e+00  5.500000e-01  7.500000e-02
     vertex -1.600000e+00  5.500000e-01  0.000000e+00
     vertex -2.050000e+00  5.500000e-01  0.000000e+00
   endloop
 endfacet
 facet normal  0.000000e+00  1.000000e+00 -0.000000e+00
   outer loop
     vertex -1.600000e+00  5.500000e-01  7.500000e-02
     vertex -2.050000e+00  5.500000e-01  0.000000e+00
     vertex -2.050000e+00  5.500000e-01  7.500000e-02
   endloop
 endfacet
 facet normal  0.000000e+00  0.000000e+00 -1.000000e+00
   outer loop
     vertex -2.050000e+00  2.500000e-01  0.000000e+00
     vertex -2.050000e+00  5.500000e-01  0.000000e+00
     vertex -1.600000e+00  5.500000e-01  0.000000e+00
   endloop
 endfacet
 facet normal  0.000000e+00  0.000000e+00 -1.000000e+00
   outer loop
     vertex -1.600000e+00  2.500000e-01  0.000000e+00
     vertex -2.050000e+00  2.500000e-01  0.000000e+00
     vertex -1.600000e+00  5.500000e-01  0.000000e+00
   endloop
 endfacet
 facet normal  0.000000e+00  0.000000e+00  1.000000e+00
   outer loop
     vertex -1.600000e+00  5.500000e-01  7.500000e-02
     vertex -2.050000e+00  5.500000e-01  7.500000e-02
     vertex -2.050000e+00  2.500000e-01  7.500000e-02
   endloop
 endfacet
 facet normal -0.000000e+00  0.000000e+00  1.000000e+00
   outer loop
     vertex -1.600000e+00  5.500000e-01  7.500000e-02
     vertex -2.050000e+00  2.500000e-01  7.500000e-02
     vertex -1.600000e+00  2.500000e-01  7.500000e-02
   endloop
 endfacet
 facet normal -1.000000e+00 -0.000000e+00 -0.000000e+00
   outer loop
     vertex  1.600000e+00 -2.500000e-01  7.500000e-02
     vertex  1.600000e+00 -2.500000e-01  0.000000e+00
     vertex  1.600000e+00 -5.500000e-01  7.500000e-02
   endloop
 endfacet
 facet normal -1.000000e+00  0.000000e+00  0.000000e+00
   outer loop
     vertex  1.600000e+00 -2.500000e-01  0.000000e+00
     vertex  1.600000e+00 -5.500000e-01  0.000000e+00
     vertex  1.600000e+00 -5.500000e-01  7.500000e-02
   endloop
 endfacet
 facet normal  1.000000e+00 -0.000000e+00  0.000000e+00
   outer loop
     vertex  2.050000e+00 -5.500000e-01  7.500000e-02
     vertex  2.050000e+00 -2.500000e-01  0.000000e+00
     vertex  2.050000e+00 -2.500000e-01  7.500000e-02
   endloop
 endfacet
 facet normal  1.000000e+00 -0.000000e+00  0.000000e+00
   outer loop
     vertex  2.050000e+00 -5.500000e-01  7.500000e-02
     vertex  2.050000e+00 -5.500000e-01  0.000000e+00
     vertex  2.050000e+00 -2.500000e-01  0.000000e+00
   endloop
 endfacet
 facet normal  0.000000e+00 -1.000000e+00  0.000000e+00
   outer loop
     vertex  1.600000e+00 -5.500000e-01  0.000000e+00
     vertex  2.050000e+00 -5.500000e-01  0.000000e+00
     vertex  2.050000e+00 -5.500000e-01  7.500000e-02
   endloop
 endfacet
 facet normal  0.000000e+00 -1.000000e+00  0.000000e+00
   outer loop
     vertex  1.600000e+00 -5.500000e-01  7.500000e-02
     vertex  1.600000e+00 -5.500000e-01  0.000000e+00
     vertex  2.050000e+00 -5.500000e-01  7.500000e-02
   endloop
 endfacet
 facet normal  0.000000e+00  1.000000e+00  0.000000e+00
   outer loop
     vertex  2.050000e+00 -2.500000e-01  7.500000e-02
     vertex  2.050000e+00 -2.500000e-01  0.000000e+00
     vertex  1.600000e+00 -2.500000e-01  0.000000e+00
   endloop
 endfacet
 facet normal  0.000000e+00  1.000000e+00 -0.000000e+00
   outer loop
     vertex  2.050000e+00 -2.500000e-01  7.500000e-02
     vertex  1.600000e+00 -2.500000e-01  0.000000e+00
     vertex  1.600000e+00 -2.500000e-01  7.500000e-02
   endloop
 endfacet
 facet normal  0.000000e+00  0.000000e+00 -1.000000e+00
   outer loop
     vertex  1.600000e+00 -5.500000e-01  0.000000e+00
     vertex  1.600000e+00 -2.500000e-01  0.000000e+00
     vertex  2.050000e+00 -2.500000e-01  0.000000e+00
   endloop
 endfacet
 facet normal  0.000000e+00  0.000000e+00 -1.000000e+00
   outer loop
     vertex  2.050000e+00 -5.500000e-01  0.000000e+00
     vertex  1.600000e+00 -5.500000e-01  0.000000e+00
     vertex  2.050000e+00 -2.500000e-01  0.000000e+00
   endloop
 endfacet
 facet normal  0.000000e+00  0.000000e+00  1.000000e+00
   outer loop
     vertex  2.050000e+00 -2.500000e-01  7.500000e-02
     vertex  1.600000e+00 -2.500000e-01  7.500000e-02
     vertex  1.600000e+00 -5.500000e-01  7.500000e-02
   endloop
 endfacet
 facet normal -0.000000e+00  0.000000e+00  1.000000e+00
   outer loop
     vertex  2.050000e+00 -2.500000e-01  7.500000e-02
     vertex  1.600000e+00 -5.500000e-01  7.500000e-02
     vertex  2.050000e+00 -5.500000e-01  7.500000e-02
   endloop
 endfacet
 facet normal -1.000000e+00 -0.000000e+00 -0.000000e+00
   outer loop
     vertex -2.050000e+00 -2.500000e-01  7.500000e-02
     vertex -2.050000e+00 -2.500000e-01  0.000000e+00
     vertex -2.050000e+00 -5.500000e-01  7.500000e-02
   endloop
 endfacet
 facet normal -1.000000e+00  0.000000e+00  0.000000e+00
   outer loop
     vertex -2.050000e+00 -2.500000e-01  0.000000e+00
     vertex -2.050000e+00 -5.500000e-01  0.000000e+00
     vertex -2.050000e+00 -5.500000e-01  7.500000e-02
   endloop
 endfacet
 facet normal  1.000000e+00 -0.000000e+00  0.000000e+00
   outer loop
     vertex -1.600000e+00 -5.500000e-01  7.500000e-02
     vertex -1.600000e+00 -2.500000e-01  0.000000e+00
     vertex -1.600000e+00 -2.500000e-01  7.500000e-02
   endloop
 endfacet
 facet normal  1.000000e+00 -0.000000e+00  0.000000e+00
   outer loop
     vertex -1.600000e+00 -5.500000e-01  7.500000e-02
     vertex -1.600000e+00 -5.500000e-01  0.000000e+00
     vertex -1.600000e+00 -2.500000e-01  0.000000e+00
   endloop
 endfacet
 facet normal  0.000000e+00 -1.000000e+00  0.000000e+00
   outer loop
     vertex -2.050000e+00 -5.500000e-01  0.000000e+00
     vertex -1.600000e+00 -5.500000e-01  0.000000e+00
     vertex -1.600000e+00 -5.500000e-01  7.500000e-02
   endloop
 endfacet
 facet normal  0.000000e+00 -1.000000e+00  0.000000e+00
   outer loop
     vertex -2.050000e+00 -5.500000e-01  7.500000e-02
     vertex -2.050000e+00 -5.500000e-01  0.000000e+00
     vertex -1.600000e+00 -5.500000e-01  7.500000e-02
   endloop
 endfacet
 facet normal  0.000000e+00  1.000000e+00  0.000000e+00
   outer loop
     vertex -1.600000e+00 -2.500000e-01  7.500000e-02
     vertex -1.600000e+00 -2.500000e-01  0.000000e+00
     vertex -2.050000e+00 -2.500000e-01  0.000000e+00
   endloop
 endfacet
 facet normal  0.000000e+00  1.000000e+00 -0.000000e+00
   outer loop
     vertex -1.600000e+00 -2.500000e-01  7.500000e-02
     vertex -2.050000e+00 -2.500000e-01  0.000000e+00
     vertex -2.050000e+00 -2.500000e-01  7.500000e-02
   endloop
 endfacet
 facet normal  0.000000e+00  0.000000e+00 -1.000000e+00
   outer loop
     vertex -2.050000e+00 -5.500000e-01  0.000000e+00
     vertex -2.050000e+00 -2.500000e-01  0.000000e+00
     vertex -1.600000e+00 -2.500000e-01  0.000000e+00
   endloop
 endfacet
 facet normal  0.000000e+00  0.000000e+00 -1.000000e+00
   outer loop
     vertex -1.600000e+00 -5.500000e-01  0.000000e+00
     vertex -2.050000e+00 -5.500000e-01  0.000000e+00
     vertex -1.600000e+00 -2.500000e-01  0.000000e+00
   endloop
 endfacet
 facet normal  0.000000e+00  0.000000e+00  1.000000e+00
   outer loop
     vertex -1.600000e+00 -2.500000e-01  7.500000e-02
     vertex -2.050000e+00 -2.500000e-01  7.500000e-02
     vertex -2.050000e+00 -5.500000e-01  7.500000e-02
   endloop
 endfacet
 facet normal -0.000000e+00  0.000000e+00  1.000000e+00
   outer loop
     vertex -1.600000e+00 -2.500000e-01  7.500000e-02
     vertex -2.050000e+00 -5.500000e-01  7.500000e-02
     vertex -1.600000e+00 -5.500000e-01  7.500000e-02
   endloop
 endfacet
 facet normal -1.000000e+00 -0.000000e+00 -0.000000e+00
   outer loop
     vertex  1.600000e+00 -1.050000e+00  7.500000e-02
     vertex  1.600000e+00 -1.050000e+00  0.000000e+00
     vertex  1.600000e+00 -1.350000e+00  0.000000e+00
   endloop
 endfacet
 facet normal -1.000000e+00 -0.000000e+00  0.000000e+00
   outer loop
     vertex  1.600000e+00 -1.050000e+00  7.500000e-02
     vertex  1.600000e+00 -1.350000e+00  0.000000e+00
     vertex  1.600000e+00 -1.350000e+00  7.500000e-02
   endloop
 endfacet
 facet normal  1.000000e+00  0.000000e+00  0.000000e+00
   outer loop
     vertex  2.050000e+00 -1.350000e+00  0.000000e+00
     vertex  2.050000e+00 -1.050000e+00  0.000000e+00
     vertex  2.050000e+00 -1.050000e+00  7.500000e-02
   endloop
 endfacet
 facet normal  1.000000e+00 -0.000000e+00  0.000000e+00
   outer loop
     vertex  2.050000e+00 -1.350000e+00  7.500000e-02
     vertex  2.050000e+00 -1.350000e+00  0.000000e+00
     vertex  2.050000e+00 -1.050000e+00  7.500000e-02
   endloop
 endfacet
 facet normal  0.000000e+00 -1.000000e+00  0.000000e+00
   outer loop
     vertex  1.600000e+00 -1.350000e+00  0.000000e+00
     vertex  2.050000e+00 -1.350000e+00  0.000000e+00
     vertex  2.050000e+00 -1.350000e+00  7.500000e-02
   endloop
 endfacet
 facet normal  0.000000e+00 -1.000000e+00  0.000000e+00
   outer loop
     vertex  1.600000e+00 -1.350000e+00  7.500000e-02
     vertex  1.600000e+00 -1.350000e+00  0.000000e+00
     vertex  2.050000e+00 -1.350000e+00  7.500000e-02
   endloop
 endfacet
 facet normal  0.000000e+00  1.000000e+00  0.000000e+00
   outer loop
     vertex  2.050000e+00 -1.050000e+00  7.500000e-02
     vertex  2.050000e+00 -1.050000e+00  0.000000e+00
     vertex  1.600000e+00 -1.050000e+00  0.000000e+00
   endloop
 endfacet
 facet normal  0.000000e+00  1.000000e+00 -0.000000e+00
   outer loop
     vertex  2.050000e+00 -1.050000e+00  7.500000e-02
     vertex  1.600000e+00 -1.050000e+00  0.000000e+00
     vertex  1.600000e+00 -1.050000e+00  7.500000e-02
   endloop
 endfacet
 facet normal  0.000000e+00  0.000000e+00 -1.000000e+00
   outer loop
     vertex  1.600000e+00 -1.350000e+00  0.000000e+00
     vertex  1.600000e+00 -1.050000e+00  0.000000e+00
     vertex  2.050000e+00 -1.350000e+00  0.000000e+00
   endloop
 endfacet
 facet normal  0.000000e+00  0.000000e+00 -1.000000e+00
   outer loop
     vertex  2.050000e+00 -1.350000e+00  0.000000e+00
     vertex  1.600000e+00 -1.050000e+00  0.000000e+00
     vertex  2.050000e+00 -1.050000e+00  0.000000e+00
   endloop
 endfacet
 facet normal  0.000000e+00  0.000000e+00  1.000000e+00
   outer loop
     vertex  2.050000e+00 -1.350000e+00  7.500000e-02
     vertex  1.600000e+00 -1.050000e+00  7.500000e-02
     vertex  1.600000e+00 -1.350000e+00  7.500000e-02
   endloop
 endfacet
 facet normal  0.000000e+00  0.000000e+00  1.000000e+00
   outer loop
     vertex  2.050000e+00 -1.050000e+00  7.500000e-02
     vertex  1.600000e+00 -1.050000e+00  7.500000e-02
     vertex  2.050000e+00 -1.350000e+00  7.500000e-02
   endloop
 endfacet
 facet normal -1.000000e+00 -0.000000e+00 -0.000000e+00
   outer loop
     vertex -2.050000e+00 -1.050000e+00  7.500000e-02
     vertex -2.050000e+00 -1.050000e+00  0.000000e+00
     vertex -2.050000e+00 -1.350000e+00  0.000000e+00
   endloop
 endfacet
 facet normal -1.000000e+00 -0.000000e+00  0.000000e+00
   outer loop
     vertex -2.050000e+00 -1.050000e+00  7.500000e-02
     vertex -2.050000e+00 -1.350000e+00  0.000000e+00
     vertex -2.050000e+00 -1.350000e+00  7.500000e-02
   endloop
 endfacet
 facet normal  1.000000e+00  0.000000e+00  0.000000e+00
   outer loop
     vertex -1.600000e+00 -1.350000e+00  0.000000e+00
     vertex -1.600000e+00 -1.050000e+00  0.000000e+00
     vertex -1.600000e+00 -1.050000e+00  7.500000e-02
   endloop
 endfacet
 facet normal  1.000000e+00 -0.000000e+00  0.000000e+00
   outer loop
     vertex -1.600000e+00 -1.350000e+00  7.500000e-02
     vertex -1.600000e+00 -1.350000e+00  0.000000e+00
     vertex -1.600000e+00 -1.050000e+00  7.500000e-02
   endloop
 endfacet
 facet normal  0.000000e+00 -1.000000e+00  0.000000e+00
   outer loop
     vertex -2.050000e+00 -1.350000e+00  0.000000e+00
     vertex -1.600000e+00 -1.350000e+00  0.000000e+00
     vertex -1.600000e+00 -1.350000e+00  7.500000e-02
   endloop
 endfacet
 facet normal  0.000000e+00 -1.000000e+00  0.000000e+00
   outer loop
     vertex -2.050000e+00 -1.350000e+00  7.500000e-02
     vertex -2.050000e+00 -1.350000e+00  0.000000e+00
     vertex -1.600000e+00 -1.350000e+00  7.500000e-02
   endloop
 endfacet
 facet normal  0.000000e+00  1.000000e+00  0.000000e+00
   outer loop
     vertex -1.600000e+00 -1.050000e+00  7.500000e-02
     vertex -1.600000e+00 -1.050000e+00  0.000000e+00
     vertex -2.050000e+00 -1.050000e+00  0.000000e+00
   endloop
 endfacet
 facet normal  0.000000e+00  1.000000e+00 -0.000000e+00
   outer loop
     vertex -1.600000e+00 -1.050000e+00  7.500000e-02
     vertex -2.050000e+00 -1.050000e+00  0.000000e+00
     vertex -2.050000e+00 -1.050000e+00  7.500000e-02
   endloop
 endfacet
 facet normal  0.000000e+00  0.000000e+00 -1.000000e+00
   outer loop
     vertex -2.050000e+00 -1.350000e+00  0.000000e+00
     vertex -2.050000e+00 -1.050000e+00  0.000000e+00
     vertex -1.600000e+00 -1.350000e+00  0.000000e+00
   endloop
 endfacet
 facet normal  0.000000e+00  0.000000e+00 -1.000000e+00
   outer loop
     vertex -1.600000e+00 -1.350000e+00  0.000000e+00
     vertex -2.050000e+00 -1.050000e+00  0.000000e+00
     vertex -1.600000e+00 -1.050000e+00  0.000000e+00
   endloop
 endfacet
 facet normal  0.000000e+00  0.000000e+00  1.000000e+00
   outer loop
     vertex -1.600000e+00 -1.350000e+00  7.500000e-02
     vertex -2.050000e+00 -1.050000e+00  7.500000e-02
     vertex -2.050000e+00 -1.350000e+00  7.500000e-02
   endloop
 endfacet
 facet normal  0.000000e+00  0.000000e+00  1.000000e+00
   outer loop
     vertex -1.600000e+00 -1.050000e+00  7.500000e-02
     vertex -2.050000e+00 -1.050000e+00  7.500000e-02
     vertex -1.600000e+00 -1.350000e+00  7.500000e-02
   endloop
 endfacet
endsolid
