M48
; DRILL file {KiCad 5.1.4-3.fc30} date Wed 04 Dec 2019 09:12:20 AM CET
; FORMAT={-:-/ absolute / inch / decimal}
; #@! TF.CreationDate,2019-12-04T09:12:20+01:00
; #@! TF.GenerationSoftware,Kicad,Pcbnew,5.1.4-3.fc30
; #@! TF.FileFunction,Plated,1,2,PTH
FMAT,2
INCH
T1C0.0118
T2C0.0157
T3C0.0295
T4C0.0315
T5C0.0394
T6C0.0551
T7C0.1181
T8C0.1260
%
G90
G05
T1
X3.6535Y-2.94
X3.6594Y-3.0719
X3.6673Y-3.2195
X4.0059Y-4.8996
X4.3091Y-4.1181
X4.3574Y-3.6751
X4.4912Y-3.7866
X4.495Y-3.8336
X4.5177Y-3.81
T2
X3.5874Y-3.8429
X3.8126Y-3.965
X3.8425Y-4.1453
X3.9131Y-5.0601
X3.9256Y-3.7134
X4.0083Y-4.1508
X4.0138Y-3.7106
X4.0275Y-3.1024
X4.0669Y-3.7854
X4.0669Y-4.0049
X4.1004Y-3.6742
X4.3669Y-4.1705
X4.4319Y-4.2217
X4.6033Y-3.9921
X4.7169Y-4.2283
X4.8146Y-3.0453
X4.8209Y-2.5992
X4.9134Y-3.837
X4.9441Y-3.9807
X5.2398Y-2.6165
X5.3697Y-2.5142
X5.6173Y-2.7886
T3
X3.7933Y-3.7209
X3.8643Y-3.6504
X3.935Y-3.5797
X4.0058Y-3.509
X4.0765Y-3.4383
T4
X5.4913Y-3.5161
X5.4913Y-3.9098
X6.4756Y-3.3193
X6.4756Y-4.1067
T5
X4.1031Y-5.3138
X4.2031Y-5.3138
X4.3031Y-5.3138
X4.4031Y-5.3138
X4.5031Y-5.3138
X4.6031Y-5.3138
X4.7031Y-5.3138
X3.3748Y-3.3925
X3.4748Y-3.3925
X3.5748Y-3.3925
T6
X6.2118Y-4.7693
X6.2118Y-5.1693
X6.6118Y-4.7693
X6.6118Y-5.1693
X6.2134Y-2.2524
X6.2134Y-2.6524
X6.6134Y-2.2524
X6.6134Y-2.6524
T7
X4.2992Y-3.8898
T8
X3.2028Y-5.202
X5.5201Y-2.1953
X3.2028Y-2.1953
X5.5201Y-5.202
T0
M30
