G04 #@! TF.GenerationSoftware,KiCad,Pcbnew,5.1.4-3.fc30*
G04 #@! TF.CreationDate,2019-10-13T11:13:18+02:00*
G04 #@! TF.ProjectId,WattFred,57617474-4672-4656-942e-6b696361645f,rev?*
G04 #@! TF.SameCoordinates,Original*
G04 #@! TF.FileFunction,Other,ECO2*
%FSLAX46Y46*%
G04 Gerber Fmt 4.6, Leading zero omitted, Abs format (unit mm)*
G04 Created by KiCad (PCBNEW 5.1.4-3.fc30) date 2019-10-13 11:13:18*
%MOMM*%
%LPD*%
G04 APERTURE LIST*
%ADD10C,0.150000*%
%ADD11C,0.010000*%
G04 APERTURE END LIST*
D10*
X165685714Y-120078571D02*
X165828571Y-120126190D01*
X165876190Y-120173809D01*
X165923809Y-120269047D01*
X165923809Y-120411904D01*
X165876190Y-120507142D01*
X165828571Y-120554761D01*
X165733333Y-120602380D01*
X165352380Y-120602380D01*
X165352380Y-119602380D01*
X165685714Y-119602380D01*
X165780952Y-119650000D01*
X165828571Y-119697619D01*
X165876190Y-119792857D01*
X165876190Y-119888095D01*
X165828571Y-119983333D01*
X165780952Y-120030952D01*
X165685714Y-120078571D01*
X165352380Y-120078571D01*
X166733333Y-120554761D02*
X166638095Y-120602380D01*
X166447619Y-120602380D01*
X166352380Y-120554761D01*
X166304761Y-120459523D01*
X166304761Y-120078571D01*
X166352380Y-119983333D01*
X166447619Y-119935714D01*
X166638095Y-119935714D01*
X166733333Y-119983333D01*
X166780952Y-120078571D01*
X166780952Y-120173809D01*
X166304761Y-120269047D01*
X167590476Y-120554761D02*
X167495238Y-120602380D01*
X167304761Y-120602380D01*
X167209523Y-120554761D01*
X167161904Y-120459523D01*
X167161904Y-120078571D01*
X167209523Y-119983333D01*
X167304761Y-119935714D01*
X167495238Y-119935714D01*
X167590476Y-119983333D01*
X167638095Y-120078571D01*
X167638095Y-120173809D01*
X167161904Y-120269047D01*
X168066666Y-120602380D02*
X168066666Y-119602380D01*
X168400000Y-120316666D01*
X168733333Y-119602380D01*
X168733333Y-120602380D01*
X169638095Y-120602380D02*
X169638095Y-120078571D01*
X169590476Y-119983333D01*
X169495238Y-119935714D01*
X169304761Y-119935714D01*
X169209523Y-119983333D01*
X169638095Y-120554761D02*
X169542857Y-120602380D01*
X169304761Y-120602380D01*
X169209523Y-120554761D01*
X169161904Y-120459523D01*
X169161904Y-120364285D01*
X169209523Y-120269047D01*
X169304761Y-120221428D01*
X169542857Y-120221428D01*
X169638095Y-120173809D01*
X170114285Y-120602380D02*
X170114285Y-119602380D01*
X170209523Y-120221428D02*
X170495238Y-120602380D01*
X170495238Y-119935714D02*
X170114285Y-120316666D01*
X171304761Y-120554761D02*
X171209523Y-120602380D01*
X171019047Y-120602380D01*
X170923809Y-120554761D01*
X170876190Y-120459523D01*
X170876190Y-120078571D01*
X170923809Y-119983333D01*
X171019047Y-119935714D01*
X171209523Y-119935714D01*
X171304761Y-119983333D01*
X171352380Y-120078571D01*
X171352380Y-120173809D01*
X170876190Y-120269047D01*
X171780952Y-120602380D02*
X171780952Y-119935714D01*
X171780952Y-120126190D02*
X171828571Y-120030952D01*
X171876190Y-119983333D01*
X171971428Y-119935714D01*
X172066666Y-119935714D01*
X173161904Y-120221428D02*
X173923809Y-120221428D01*
X175066666Y-119602380D02*
X175304761Y-120602380D01*
X175495238Y-119888095D01*
X175685714Y-120602380D01*
X175923809Y-119602380D01*
X176257142Y-120316666D02*
X176733333Y-120316666D01*
X176161904Y-120602380D02*
X176495238Y-119602380D01*
X176828571Y-120602380D01*
X177019047Y-119602380D02*
X177590476Y-119602380D01*
X177304761Y-120602380D02*
X177304761Y-119602380D01*
X177780952Y-119602380D02*
X178352380Y-119602380D01*
X178066666Y-120602380D02*
X178066666Y-119602380D01*
X179019047Y-120078571D02*
X178685714Y-120078571D01*
X178685714Y-120602380D02*
X178685714Y-119602380D01*
X179161904Y-119602380D01*
X180114285Y-120602380D02*
X179780952Y-120126190D01*
X179542857Y-120602380D02*
X179542857Y-119602380D01*
X179923809Y-119602380D01*
X180019047Y-119650000D01*
X180066666Y-119697619D01*
X180114285Y-119792857D01*
X180114285Y-119935714D01*
X180066666Y-120030952D01*
X180019047Y-120078571D01*
X179923809Y-120126190D01*
X179542857Y-120126190D01*
X180542857Y-120602380D02*
X180542857Y-119602380D01*
X181019047Y-120078571D02*
X181352380Y-120078571D01*
X181495238Y-120602380D02*
X181019047Y-120602380D01*
X181019047Y-119602380D01*
X181495238Y-119602380D01*
X181923809Y-120602380D02*
X181923809Y-119602380D01*
X182161904Y-119602380D01*
X182304761Y-119650000D01*
X182399999Y-119745238D01*
X182447619Y-119840476D01*
X182495238Y-120030952D01*
X182495238Y-120173809D01*
X182447619Y-120364285D01*
X182399999Y-120459523D01*
X182304761Y-120554761D01*
X182161904Y-120602380D01*
X181923809Y-120602380D01*
X171280952Y-121252380D02*
X171614285Y-122252380D01*
X171947619Y-121252380D01*
X173233333Y-121252380D02*
X173328571Y-121252380D01*
X173423809Y-121300000D01*
X173471428Y-121347619D01*
X173519047Y-121442857D01*
X173566666Y-121633333D01*
X173566666Y-121871428D01*
X173519047Y-122061904D01*
X173471428Y-122157142D01*
X173423809Y-122204761D01*
X173328571Y-122252380D01*
X173233333Y-122252380D01*
X173138095Y-122204761D01*
X173090476Y-122157142D01*
X173042857Y-122061904D01*
X172995238Y-121871428D01*
X172995238Y-121633333D01*
X173042857Y-121442857D01*
X173090476Y-121347619D01*
X173138095Y-121300000D01*
X173233333Y-121252380D01*
X173995238Y-122157142D02*
X174042857Y-122204761D01*
X173995238Y-122252380D01*
X173947619Y-122204761D01*
X173995238Y-122157142D01*
X173995238Y-122252380D01*
X174661904Y-121252380D02*
X174757142Y-121252380D01*
X174852380Y-121300000D01*
X174900000Y-121347619D01*
X174947619Y-121442857D01*
X174995238Y-121633333D01*
X174995238Y-121871428D01*
X174947619Y-122061904D01*
X174900000Y-122157142D01*
X174852380Y-122204761D01*
X174757142Y-122252380D01*
X174661904Y-122252380D01*
X174566666Y-122204761D01*
X174519047Y-122157142D01*
X174471428Y-122061904D01*
X174423809Y-121871428D01*
X174423809Y-121633333D01*
X174471428Y-121442857D01*
X174519047Y-121347619D01*
X174566666Y-121300000D01*
X174661904Y-121252380D01*
X175423809Y-122157142D02*
X175471428Y-122204761D01*
X175423809Y-122252380D01*
X175376190Y-122204761D01*
X175423809Y-122157142D01*
X175423809Y-122252380D01*
X176423809Y-122252380D02*
X175852380Y-122252380D01*
X176138095Y-122252380D02*
X176138095Y-121252380D01*
X176042857Y-121395238D01*
X175947619Y-121490476D01*
X175852380Y-121538095D01*
D11*
G36*
X174879000Y-127281334D02*
G01*
X174836667Y-127323667D01*
X174794334Y-127281334D01*
X174836667Y-127239000D01*
X174879000Y-127281334D01*
X174879000Y-127281334D01*
G37*
X174879000Y-127281334D02*
X174836667Y-127323667D01*
X174794334Y-127281334D01*
X174836667Y-127239000D01*
X174879000Y-127281334D01*
G36*
X174709667Y-127281334D02*
G01*
X174667334Y-127323667D01*
X174625000Y-127281334D01*
X174667334Y-127239000D01*
X174709667Y-127281334D01*
X174709667Y-127281334D01*
G37*
X174709667Y-127281334D02*
X174667334Y-127323667D01*
X174625000Y-127281334D01*
X174667334Y-127239000D01*
X174709667Y-127281334D01*
G36*
X174455667Y-133885334D02*
G01*
X174413334Y-133927667D01*
X174371000Y-133885334D01*
X174413334Y-133843000D01*
X174455667Y-133885334D01*
X174455667Y-133885334D01*
G37*
X174455667Y-133885334D02*
X174413334Y-133927667D01*
X174371000Y-133885334D01*
X174413334Y-133843000D01*
X174455667Y-133885334D01*
G36*
X166412334Y-124402667D02*
G01*
X166370000Y-124445000D01*
X166327667Y-124402667D01*
X166370000Y-124360334D01*
X166412334Y-124402667D01*
X166412334Y-124402667D01*
G37*
X166412334Y-124402667D02*
X166370000Y-124445000D01*
X166327667Y-124402667D01*
X166370000Y-124360334D01*
X166412334Y-124402667D01*
G36*
X182245000Y-124656667D02*
G01*
X182202667Y-124699000D01*
X182160334Y-124656667D01*
X182202667Y-124614334D01*
X182245000Y-124656667D01*
X182245000Y-124656667D01*
G37*
X182245000Y-124656667D02*
X182202667Y-124699000D01*
X182160334Y-124656667D01*
X182202667Y-124614334D01*
X182245000Y-124656667D01*
G36*
X181285445Y-124896556D02*
G01*
X181273822Y-124946890D01*
X181229000Y-124953000D01*
X181159310Y-124922022D01*
X181172556Y-124896556D01*
X181273035Y-124886423D01*
X181285445Y-124896556D01*
X181285445Y-124896556D01*
G37*
X181285445Y-124896556D02*
X181273822Y-124946890D01*
X181229000Y-124953000D01*
X181159310Y-124922022D01*
X181172556Y-124896556D01*
X181273035Y-124886423D01*
X181285445Y-124896556D01*
G36*
X181813758Y-124715864D02*
G01*
X181793741Y-124782076D01*
X181659574Y-124921065D01*
X181566659Y-125006317D01*
X181370792Y-125198962D01*
X181293777Y-125326370D01*
X181316699Y-125421765D01*
X181324480Y-125431696D01*
X181386673Y-125551409D01*
X181378525Y-125593698D01*
X181316807Y-125568583D01*
X181284998Y-125508412D01*
X181179674Y-125420670D01*
X181084038Y-125436267D01*
X181049065Y-125421476D01*
X181126198Y-125320902D01*
X181217836Y-125231271D01*
X181376311Y-125057185D01*
X181450032Y-124917427D01*
X181446271Y-124877402D01*
X181451084Y-124821752D01*
X181534825Y-124841358D01*
X181633948Y-124855614D01*
X181618893Y-124798055D01*
X181629276Y-124717510D01*
X181732247Y-124699000D01*
X181813758Y-124715864D01*
X181813758Y-124715864D01*
G37*
X181813758Y-124715864D02*
X181793741Y-124782076D01*
X181659574Y-124921065D01*
X181566659Y-125006317D01*
X181370792Y-125198962D01*
X181293777Y-125326370D01*
X181316699Y-125421765D01*
X181324480Y-125431696D01*
X181386673Y-125551409D01*
X181378525Y-125593698D01*
X181316807Y-125568583D01*
X181284998Y-125508412D01*
X181179674Y-125420670D01*
X181084038Y-125436267D01*
X181049065Y-125421476D01*
X181126198Y-125320902D01*
X181217836Y-125231271D01*
X181376311Y-125057185D01*
X181450032Y-124917427D01*
X181446271Y-124877402D01*
X181451084Y-124821752D01*
X181534825Y-124841358D01*
X181633948Y-124855614D01*
X181618893Y-124798055D01*
X181629276Y-124717510D01*
X181732247Y-124699000D01*
X181813758Y-124715864D01*
G36*
X180777445Y-125573889D02*
G01*
X180765822Y-125624223D01*
X180721000Y-125630334D01*
X180651310Y-125599355D01*
X180664556Y-125573889D01*
X180765035Y-125563756D01*
X180777445Y-125573889D01*
X180777445Y-125573889D01*
G37*
X180777445Y-125573889D02*
X180765822Y-125624223D01*
X180721000Y-125630334D01*
X180651310Y-125599355D01*
X180664556Y-125573889D01*
X180765035Y-125563756D01*
X180777445Y-125573889D01*
G36*
X177691399Y-123446484D02*
G01*
X177757667Y-123513667D01*
X177710306Y-123585520D01*
X177694167Y-123584892D01*
X177567080Y-123600720D01*
X177503667Y-123621753D01*
X177377155Y-123664816D01*
X177124365Y-123745722D01*
X176781067Y-123853174D01*
X176383031Y-123975880D01*
X176352836Y-123985118D01*
X175847864Y-124148822D01*
X175494575Y-124288862D01*
X175278804Y-124415753D01*
X175186388Y-124540012D01*
X175203161Y-124672158D01*
X175278751Y-124782623D01*
X175425753Y-124911320D01*
X175530865Y-124953000D01*
X175660777Y-125023938D01*
X175788717Y-125191621D01*
X175872301Y-125388355D01*
X175880843Y-125511986D01*
X175804913Y-125614427D01*
X175666513Y-125681484D01*
X175532990Y-125693764D01*
X175471694Y-125631876D01*
X175471667Y-125629802D01*
X175398257Y-125570087D01*
X175224722Y-125545667D01*
X175033809Y-125513106D01*
X174935073Y-125439834D01*
X174896857Y-125385964D01*
X174885684Y-125450200D01*
X174855957Y-125522498D01*
X174755862Y-125464194D01*
X174752000Y-125461000D01*
X174649730Y-125406334D01*
X174624525Y-125429467D01*
X174547628Y-125473245D01*
X174349722Y-125508757D01*
X174156879Y-125523845D01*
X173855293Y-125558555D01*
X173596347Y-125624817D01*
X173494429Y-125672309D01*
X173333971Y-125747611D01*
X173242408Y-125743519D01*
X173180657Y-125575137D01*
X173229304Y-125351741D01*
X173363644Y-125120395D01*
X173373921Y-125110281D01*
X173778334Y-125110281D01*
X173845613Y-125212090D01*
X174015019Y-125228837D01*
X174187414Y-125177419D01*
X174321336Y-125117337D01*
X175471667Y-125117337D01*
X175533127Y-125203555D01*
X175556334Y-125207000D01*
X175638799Y-125178113D01*
X175641000Y-125169664D01*
X175581671Y-125097378D01*
X175556334Y-125080000D01*
X175478315Y-125086713D01*
X175471667Y-125117337D01*
X174321336Y-125117337D01*
X174384827Y-125088853D01*
X174188928Y-125016385D01*
X174016569Y-124989083D01*
X173963116Y-125033653D01*
X173883355Y-125086337D01*
X173855769Y-125075531D01*
X173782914Y-125085188D01*
X173778334Y-125110281D01*
X173373921Y-125110281D01*
X173558971Y-124928168D01*
X173714834Y-124843515D01*
X173853629Y-124753679D01*
X173846303Y-124635665D01*
X173688296Y-124484465D01*
X173375050Y-124295073D01*
X173079834Y-124146136D01*
X172735845Y-123987430D01*
X172437032Y-123861568D01*
X172223353Y-123784739D01*
X172148500Y-123768757D01*
X172022720Y-123737772D01*
X172000386Y-123704167D01*
X171924576Y-123673267D01*
X171730602Y-123663711D01*
X171577053Y-123670005D01*
X171297115Y-123672951D01*
X171167025Y-123630340D01*
X171153667Y-123595627D01*
X171204244Y-123542766D01*
X171370636Y-123519282D01*
X171674831Y-123523021D01*
X171819719Y-123530467D01*
X172172003Y-123560705D01*
X172461306Y-123616913D01*
X172751653Y-123717687D01*
X173107068Y-123881623D01*
X173216719Y-123936225D01*
X173530352Y-124102586D01*
X173777244Y-124250283D01*
X173924107Y-124358484D01*
X173950360Y-124395380D01*
X173993163Y-124409395D01*
X174077360Y-124322985D01*
X174168865Y-124235740D01*
X174201667Y-124262463D01*
X174247545Y-124323523D01*
X174351021Y-124286359D01*
X174576265Y-124260120D01*
X174767529Y-124318756D01*
X174961201Y-124384373D01*
X175083255Y-124359937D01*
X175184332Y-124265724D01*
X175334032Y-124156382D01*
X175445158Y-124143024D01*
X175544386Y-124141704D01*
X175556334Y-124114102D01*
X175627487Y-124043222D01*
X175809720Y-123939546D01*
X175958500Y-123870979D01*
X176400227Y-123699339D01*
X176821942Y-123565595D01*
X177196084Y-123475223D01*
X177495090Y-123433694D01*
X177691399Y-123446484D01*
X177691399Y-123446484D01*
G37*
X177691399Y-123446484D02*
X177757667Y-123513667D01*
X177710306Y-123585520D01*
X177694167Y-123584892D01*
X177567080Y-123600720D01*
X177503667Y-123621753D01*
X177377155Y-123664816D01*
X177124365Y-123745722D01*
X176781067Y-123853174D01*
X176383031Y-123975880D01*
X176352836Y-123985118D01*
X175847864Y-124148822D01*
X175494575Y-124288862D01*
X175278804Y-124415753D01*
X175186388Y-124540012D01*
X175203161Y-124672158D01*
X175278751Y-124782623D01*
X175425753Y-124911320D01*
X175530865Y-124953000D01*
X175660777Y-125023938D01*
X175788717Y-125191621D01*
X175872301Y-125388355D01*
X175880843Y-125511986D01*
X175804913Y-125614427D01*
X175666513Y-125681484D01*
X175532990Y-125693764D01*
X175471694Y-125631876D01*
X175471667Y-125629802D01*
X175398257Y-125570087D01*
X175224722Y-125545667D01*
X175033809Y-125513106D01*
X174935073Y-125439834D01*
X174896857Y-125385964D01*
X174885684Y-125450200D01*
X174855957Y-125522498D01*
X174755862Y-125464194D01*
X174752000Y-125461000D01*
X174649730Y-125406334D01*
X174624525Y-125429467D01*
X174547628Y-125473245D01*
X174349722Y-125508757D01*
X174156879Y-125523845D01*
X173855293Y-125558555D01*
X173596347Y-125624817D01*
X173494429Y-125672309D01*
X173333971Y-125747611D01*
X173242408Y-125743519D01*
X173180657Y-125575137D01*
X173229304Y-125351741D01*
X173363644Y-125120395D01*
X173373921Y-125110281D01*
X173778334Y-125110281D01*
X173845613Y-125212090D01*
X174015019Y-125228837D01*
X174187414Y-125177419D01*
X174321336Y-125117337D01*
X175471667Y-125117337D01*
X175533127Y-125203555D01*
X175556334Y-125207000D01*
X175638799Y-125178113D01*
X175641000Y-125169664D01*
X175581671Y-125097378D01*
X175556334Y-125080000D01*
X175478315Y-125086713D01*
X175471667Y-125117337D01*
X174321336Y-125117337D01*
X174384827Y-125088853D01*
X174188928Y-125016385D01*
X174016569Y-124989083D01*
X173963116Y-125033653D01*
X173883355Y-125086337D01*
X173855769Y-125075531D01*
X173782914Y-125085188D01*
X173778334Y-125110281D01*
X173373921Y-125110281D01*
X173558971Y-124928168D01*
X173714834Y-124843515D01*
X173853629Y-124753679D01*
X173846303Y-124635665D01*
X173688296Y-124484465D01*
X173375050Y-124295073D01*
X173079834Y-124146136D01*
X172735845Y-123987430D01*
X172437032Y-123861568D01*
X172223353Y-123784739D01*
X172148500Y-123768757D01*
X172022720Y-123737772D01*
X172000386Y-123704167D01*
X171924576Y-123673267D01*
X171730602Y-123663711D01*
X171577053Y-123670005D01*
X171297115Y-123672951D01*
X171167025Y-123630340D01*
X171153667Y-123595627D01*
X171204244Y-123542766D01*
X171370636Y-123519282D01*
X171674831Y-123523021D01*
X171819719Y-123530467D01*
X172172003Y-123560705D01*
X172461306Y-123616913D01*
X172751653Y-123717687D01*
X173107068Y-123881623D01*
X173216719Y-123936225D01*
X173530352Y-124102586D01*
X173777244Y-124250283D01*
X173924107Y-124358484D01*
X173950360Y-124395380D01*
X173993163Y-124409395D01*
X174077360Y-124322985D01*
X174168865Y-124235740D01*
X174201667Y-124262463D01*
X174247545Y-124323523D01*
X174351021Y-124286359D01*
X174576265Y-124260120D01*
X174767529Y-124318756D01*
X174961201Y-124384373D01*
X175083255Y-124359937D01*
X175184332Y-124265724D01*
X175334032Y-124156382D01*
X175445158Y-124143024D01*
X175544386Y-124141704D01*
X175556334Y-124114102D01*
X175627487Y-124043222D01*
X175809720Y-123939546D01*
X175958500Y-123870979D01*
X176400227Y-123699339D01*
X176821942Y-123565595D01*
X177196084Y-123475223D01*
X177495090Y-123433694D01*
X177691399Y-123446484D01*
G36*
X168613667Y-125757334D02*
G01*
X168571334Y-125799667D01*
X168529000Y-125757334D01*
X168571334Y-125715000D01*
X168613667Y-125757334D01*
X168613667Y-125757334D01*
G37*
X168613667Y-125757334D02*
X168571334Y-125799667D01*
X168529000Y-125757334D01*
X168571334Y-125715000D01*
X168613667Y-125757334D01*
G36*
X180721000Y-125926667D02*
G01*
X180678667Y-125969000D01*
X180636334Y-125926667D01*
X180678667Y-125884334D01*
X180721000Y-125926667D01*
X180721000Y-125926667D01*
G37*
X180721000Y-125926667D02*
X180678667Y-125969000D01*
X180636334Y-125926667D01*
X180678667Y-125884334D01*
X180721000Y-125926667D01*
G36*
X168891877Y-125861275D02*
G01*
X168910000Y-125884334D01*
X168939801Y-125960483D01*
X168859697Y-125931803D01*
X168783000Y-125884334D01*
X168717910Y-125816365D01*
X168756837Y-125800963D01*
X168891877Y-125861275D01*
X168891877Y-125861275D01*
G37*
X168891877Y-125861275D02*
X168910000Y-125884334D01*
X168939801Y-125960483D01*
X168859697Y-125931803D01*
X168783000Y-125884334D01*
X168717910Y-125816365D01*
X168756837Y-125800963D01*
X168891877Y-125861275D01*
G36*
X181991000Y-126011334D02*
G01*
X181948667Y-126053667D01*
X181906334Y-126011334D01*
X181948667Y-125969000D01*
X181991000Y-126011334D01*
X181991000Y-126011334D01*
G37*
X181991000Y-126011334D02*
X181948667Y-126053667D01*
X181906334Y-126011334D01*
X181948667Y-125969000D01*
X181991000Y-126011334D01*
G36*
X181821667Y-126011334D02*
G01*
X181779334Y-126053667D01*
X181737000Y-126011334D01*
X181779334Y-125969000D01*
X181821667Y-126011334D01*
X181821667Y-126011334D01*
G37*
X181821667Y-126011334D02*
X181779334Y-126053667D01*
X181737000Y-126011334D01*
X181779334Y-125969000D01*
X181821667Y-126011334D01*
G36*
X181652334Y-126011334D02*
G01*
X181610000Y-126053667D01*
X181567667Y-126011334D01*
X181610000Y-125969000D01*
X181652334Y-126011334D01*
X181652334Y-126011334D01*
G37*
X181652334Y-126011334D02*
X181610000Y-126053667D01*
X181567667Y-126011334D01*
X181610000Y-125969000D01*
X181652334Y-126011334D01*
G36*
X169121667Y-126011334D02*
G01*
X169079334Y-126053667D01*
X169037000Y-126011334D01*
X169079334Y-125969000D01*
X169121667Y-126011334D01*
X169121667Y-126011334D01*
G37*
X169121667Y-126011334D02*
X169079334Y-126053667D01*
X169037000Y-126011334D01*
X169079334Y-125969000D01*
X169121667Y-126011334D01*
G36*
X170228184Y-126014949D02*
G01*
X170302123Y-126084448D01*
X170215009Y-126109608D01*
X170183725Y-126110111D01*
X170098812Y-126072748D01*
X170104908Y-126038175D01*
X170203081Y-126003832D01*
X170228184Y-126014949D01*
X170228184Y-126014949D01*
G37*
X170228184Y-126014949D02*
X170302123Y-126084448D01*
X170215009Y-126109608D01*
X170183725Y-126110111D01*
X170098812Y-126072748D01*
X170104908Y-126038175D01*
X170203081Y-126003832D01*
X170228184Y-126014949D01*
G36*
X179851843Y-126126430D02*
G01*
X179908542Y-126190023D01*
X179938581Y-126289662D01*
X179935176Y-126299227D01*
X179849803Y-126272693D01*
X179705000Y-126230946D01*
X179560029Y-126184491D01*
X179571335Y-126153099D01*
X179678365Y-126121742D01*
X179851843Y-126126430D01*
X179851843Y-126126430D01*
G37*
X179851843Y-126126430D02*
X179908542Y-126190023D01*
X179938581Y-126289662D01*
X179935176Y-126299227D01*
X179849803Y-126272693D01*
X179705000Y-126230946D01*
X179560029Y-126184491D01*
X179571335Y-126153099D01*
X179678365Y-126121742D01*
X179851843Y-126126430D01*
G36*
X169696393Y-125894156D02*
G01*
X169799000Y-125942306D01*
X170010667Y-126051171D01*
X169805667Y-126052419D01*
X169581685Y-126106787D01*
X169456295Y-126184322D01*
X169340739Y-126269262D01*
X169281251Y-126230174D01*
X169263440Y-126188634D01*
X169264501Y-126099494D01*
X169337100Y-126109161D01*
X169464601Y-126081640D01*
X169523288Y-125994737D01*
X169589036Y-125888259D01*
X169696393Y-125894156D01*
X169696393Y-125894156D01*
G37*
X169696393Y-125894156D02*
X169799000Y-125942306D01*
X170010667Y-126051171D01*
X169805667Y-126052419D01*
X169581685Y-126106787D01*
X169456295Y-126184322D01*
X169340739Y-126269262D01*
X169281251Y-126230174D01*
X169263440Y-126188634D01*
X169264501Y-126099494D01*
X169337100Y-126109161D01*
X169464601Y-126081640D01*
X169523288Y-125994737D01*
X169589036Y-125888259D01*
X169696393Y-125894156D01*
G36*
X181567667Y-126350000D02*
G01*
X181525334Y-126392334D01*
X181483000Y-126350000D01*
X181525334Y-126307667D01*
X181567667Y-126350000D01*
X181567667Y-126350000D01*
G37*
X181567667Y-126350000D02*
X181525334Y-126392334D01*
X181483000Y-126350000D01*
X181525334Y-126307667D01*
X181567667Y-126350000D01*
G36*
X170290019Y-123990783D02*
G01*
X170304075Y-124016200D01*
X170425474Y-124153801D01*
X170521646Y-124191000D01*
X170632500Y-124229905D01*
X170645667Y-124261360D01*
X170712209Y-124348074D01*
X170857334Y-124445000D01*
X171012015Y-124563749D01*
X171069000Y-124670974D01*
X171139269Y-124763667D01*
X171231278Y-124783667D01*
X171379552Y-124813730D01*
X171421778Y-124850225D01*
X171506479Y-124949488D01*
X171658044Y-125065329D01*
X171825001Y-125166168D01*
X171955877Y-125220430D01*
X172000334Y-125205163D01*
X172046933Y-125215329D01*
X172169362Y-125335104D01*
X172341566Y-125538843D01*
X172349380Y-125548705D01*
X172552468Y-125782591D01*
X172738438Y-125957731D01*
X172857380Y-126031849D01*
X172989301Y-126117154D01*
X173016334Y-126187884D01*
X172957402Y-126263843D01*
X172889334Y-126253618D01*
X172780597Y-126257343D01*
X172762334Y-126298608D01*
X172724013Y-126382280D01*
X172598670Y-126355511D01*
X172370734Y-126214224D01*
X172330354Y-126185508D01*
X172060540Y-126007241D01*
X171782222Y-125845545D01*
X171753241Y-125830428D01*
X171638359Y-125757334D01*
X172085000Y-125757334D01*
X172127334Y-125799667D01*
X172169667Y-125757334D01*
X172127334Y-125715000D01*
X172085000Y-125757334D01*
X171638359Y-125757334D01*
X171595885Y-125730310D01*
X171552484Y-125659269D01*
X171568932Y-125647134D01*
X171588541Y-125588000D01*
X172000334Y-125588000D01*
X172042667Y-125630334D01*
X172085000Y-125588000D01*
X172042667Y-125545667D01*
X172000334Y-125588000D01*
X171588541Y-125588000D01*
X171592403Y-125576355D01*
X171520491Y-125451502D01*
X171394094Y-125319005D01*
X171254110Y-125225295D01*
X171181242Y-125207000D01*
X171084690Y-125169297D01*
X171079026Y-125143500D01*
X171070398Y-124950784D01*
X170982049Y-124868801D01*
X170972392Y-124868334D01*
X170866737Y-124811519D01*
X170687973Y-124663555D01*
X170502917Y-124484690D01*
X170298215Y-124293419D01*
X170132845Y-124173741D01*
X170049192Y-124151020D01*
X169975523Y-124161052D01*
X169981866Y-124082851D01*
X170057670Y-123971263D01*
X170089429Y-123941901D01*
X170198767Y-123894670D01*
X170290019Y-123990783D01*
X170290019Y-123990783D01*
G37*
X170290019Y-123990783D02*
X170304075Y-124016200D01*
X170425474Y-124153801D01*
X170521646Y-124191000D01*
X170632500Y-124229905D01*
X170645667Y-124261360D01*
X170712209Y-124348074D01*
X170857334Y-124445000D01*
X171012015Y-124563749D01*
X171069000Y-124670974D01*
X171139269Y-124763667D01*
X171231278Y-124783667D01*
X171379552Y-124813730D01*
X171421778Y-124850225D01*
X171506479Y-124949488D01*
X171658044Y-125065329D01*
X171825001Y-125166168D01*
X171955877Y-125220430D01*
X172000334Y-125205163D01*
X172046933Y-125215329D01*
X172169362Y-125335104D01*
X172341566Y-125538843D01*
X172349380Y-125548705D01*
X172552468Y-125782591D01*
X172738438Y-125957731D01*
X172857380Y-126031849D01*
X172989301Y-126117154D01*
X173016334Y-126187884D01*
X172957402Y-126263843D01*
X172889334Y-126253618D01*
X172780597Y-126257343D01*
X172762334Y-126298608D01*
X172724013Y-126382280D01*
X172598670Y-126355511D01*
X172370734Y-126214224D01*
X172330354Y-126185508D01*
X172060540Y-126007241D01*
X171782222Y-125845545D01*
X171753241Y-125830428D01*
X171638359Y-125757334D01*
X172085000Y-125757334D01*
X172127334Y-125799667D01*
X172169667Y-125757334D01*
X172127334Y-125715000D01*
X172085000Y-125757334D01*
X171638359Y-125757334D01*
X171595885Y-125730310D01*
X171552484Y-125659269D01*
X171568932Y-125647134D01*
X171588541Y-125588000D01*
X172000334Y-125588000D01*
X172042667Y-125630334D01*
X172085000Y-125588000D01*
X172042667Y-125545667D01*
X172000334Y-125588000D01*
X171588541Y-125588000D01*
X171592403Y-125576355D01*
X171520491Y-125451502D01*
X171394094Y-125319005D01*
X171254110Y-125225295D01*
X171181242Y-125207000D01*
X171084690Y-125169297D01*
X171079026Y-125143500D01*
X171070398Y-124950784D01*
X170982049Y-124868801D01*
X170972392Y-124868334D01*
X170866737Y-124811519D01*
X170687973Y-124663555D01*
X170502917Y-124484690D01*
X170298215Y-124293419D01*
X170132845Y-124173741D01*
X170049192Y-124151020D01*
X169975523Y-124161052D01*
X169981866Y-124082851D01*
X170057670Y-123971263D01*
X170089429Y-123941901D01*
X170198767Y-123894670D01*
X170290019Y-123990783D01*
G36*
X168263649Y-125618578D02*
G01*
X168395862Y-125657428D01*
X168364848Y-125689498D01*
X168338500Y-125695836D01*
X168212552Y-125782420D01*
X168190334Y-125853205D01*
X168236593Y-125933579D01*
X168288082Y-125918582D01*
X168346146Y-125908639D01*
X168326500Y-125954169D01*
X168315412Y-126097547D01*
X168358730Y-126221250D01*
X168413845Y-126353035D01*
X168407958Y-126392334D01*
X168340603Y-126327136D01*
X168268684Y-126211199D01*
X168168834Y-125985041D01*
X168106188Y-125801483D01*
X168073966Y-125641541D01*
X168134950Y-125598922D01*
X168263649Y-125618578D01*
X168263649Y-125618578D01*
G37*
X168263649Y-125618578D02*
X168395862Y-125657428D01*
X168364848Y-125689498D01*
X168338500Y-125695836D01*
X168212552Y-125782420D01*
X168190334Y-125853205D01*
X168236593Y-125933579D01*
X168288082Y-125918582D01*
X168346146Y-125908639D01*
X168326500Y-125954169D01*
X168315412Y-126097547D01*
X168358730Y-126221250D01*
X168413845Y-126353035D01*
X168407958Y-126392334D01*
X168340603Y-126327136D01*
X168268684Y-126211199D01*
X168168834Y-125985041D01*
X168106188Y-125801483D01*
X168073966Y-125641541D01*
X168134950Y-125598922D01*
X168263649Y-125618578D01*
G36*
X179959000Y-126434667D02*
G01*
X179916667Y-126477000D01*
X179874334Y-126434667D01*
X179916667Y-126392334D01*
X179959000Y-126434667D01*
X179959000Y-126434667D01*
G37*
X179959000Y-126434667D02*
X179916667Y-126477000D01*
X179874334Y-126434667D01*
X179916667Y-126392334D01*
X179959000Y-126434667D01*
G36*
X168613667Y-126434667D02*
G01*
X168571334Y-126477000D01*
X168529000Y-126434667D01*
X168571334Y-126392334D01*
X168613667Y-126434667D01*
X168613667Y-126434667D01*
G37*
X168613667Y-126434667D02*
X168571334Y-126477000D01*
X168529000Y-126434667D01*
X168571334Y-126392334D01*
X168613667Y-126434667D01*
G36*
X179186198Y-124115294D02*
G01*
X179128310Y-124177208D01*
X179070000Y-124210641D01*
X178892486Y-124334851D01*
X178724836Y-124492717D01*
X178607823Y-124640064D01*
X178582220Y-124732719D01*
X178584997Y-124736108D01*
X178559607Y-124776212D01*
X178491445Y-124783667D01*
X178369981Y-124824361D01*
X178350334Y-124866280D01*
X178285144Y-124989490D01*
X178121468Y-125158538D01*
X177907148Y-125334045D01*
X177690024Y-125476628D01*
X177524999Y-125545667D01*
X177348275Y-125621131D01*
X177271373Y-125715000D01*
X177271556Y-125786143D01*
X177306721Y-125757334D01*
X177443070Y-125672781D01*
X177546000Y-125643284D01*
X177628435Y-125644677D01*
X177581714Y-125709340D01*
X177461334Y-125805496D01*
X177233304Y-125988096D01*
X176977889Y-126207149D01*
X176911000Y-126267265D01*
X176713638Y-126429627D01*
X176530819Y-126552058D01*
X176396216Y-126616585D01*
X176343501Y-126605234D01*
X176361266Y-126560697D01*
X176348304Y-126483873D01*
X176312963Y-126477000D01*
X176264820Y-126437577D01*
X176329133Y-126333748D01*
X176401427Y-126233524D01*
X176357390Y-126237791D01*
X176318334Y-126257684D01*
X176299784Y-126252502D01*
X176393663Y-126164605D01*
X176487667Y-126087033D01*
X176738549Y-125874913D01*
X177011408Y-125628954D01*
X177095690Y-125549263D01*
X177295208Y-125371221D01*
X177457608Y-125250511D01*
X177513079Y-125223093D01*
X177717017Y-125124293D01*
X177999935Y-124920265D01*
X178331056Y-124634723D01*
X178550708Y-124423504D01*
X178824320Y-124175927D01*
X179015636Y-124065280D01*
X179101041Y-124064425D01*
X179186198Y-124115294D01*
X179186198Y-124115294D01*
G37*
X179186198Y-124115294D02*
X179128310Y-124177208D01*
X179070000Y-124210641D01*
X178892486Y-124334851D01*
X178724836Y-124492717D01*
X178607823Y-124640064D01*
X178582220Y-124732719D01*
X178584997Y-124736108D01*
X178559607Y-124776212D01*
X178491445Y-124783667D01*
X178369981Y-124824361D01*
X178350334Y-124866280D01*
X178285144Y-124989490D01*
X178121468Y-125158538D01*
X177907148Y-125334045D01*
X177690024Y-125476628D01*
X177524999Y-125545667D01*
X177348275Y-125621131D01*
X177271373Y-125715000D01*
X177271556Y-125786143D01*
X177306721Y-125757334D01*
X177443070Y-125672781D01*
X177546000Y-125643284D01*
X177628435Y-125644677D01*
X177581714Y-125709340D01*
X177461334Y-125805496D01*
X177233304Y-125988096D01*
X176977889Y-126207149D01*
X176911000Y-126267265D01*
X176713638Y-126429627D01*
X176530819Y-126552058D01*
X176396216Y-126616585D01*
X176343501Y-126605234D01*
X176361266Y-126560697D01*
X176348304Y-126483873D01*
X176312963Y-126477000D01*
X176264820Y-126437577D01*
X176329133Y-126333748D01*
X176401427Y-126233524D01*
X176357390Y-126237791D01*
X176318334Y-126257684D01*
X176299784Y-126252502D01*
X176393663Y-126164605D01*
X176487667Y-126087033D01*
X176738549Y-125874913D01*
X177011408Y-125628954D01*
X177095690Y-125549263D01*
X177295208Y-125371221D01*
X177457608Y-125250511D01*
X177513079Y-125223093D01*
X177717017Y-125124293D01*
X177999935Y-124920265D01*
X178331056Y-124634723D01*
X178550708Y-124423504D01*
X178824320Y-124175927D01*
X179015636Y-124065280D01*
X179101041Y-124064425D01*
X179186198Y-124115294D01*
G36*
X170194111Y-126589889D02*
G01*
X170182489Y-126640223D01*
X170137667Y-126646334D01*
X170067977Y-126615355D01*
X170081222Y-126589889D01*
X170181702Y-126579756D01*
X170194111Y-126589889D01*
X170194111Y-126589889D01*
G37*
X170194111Y-126589889D02*
X170182489Y-126640223D01*
X170137667Y-126646334D01*
X170067977Y-126615355D01*
X170081222Y-126589889D01*
X170181702Y-126579756D01*
X170194111Y-126589889D01*
G36*
X169860736Y-126595181D02*
G01*
X169835485Y-126633663D01*
X169749611Y-126639649D01*
X169659269Y-126618972D01*
X169698459Y-126588497D01*
X169830782Y-126578403D01*
X169860736Y-126595181D01*
X169860736Y-126595181D01*
G37*
X169860736Y-126595181D02*
X169835485Y-126633663D01*
X169749611Y-126639649D01*
X169659269Y-126618972D01*
X169698459Y-126588497D01*
X169830782Y-126578403D01*
X169860736Y-126595181D01*
G36*
X169545000Y-126604000D02*
G01*
X169502667Y-126646334D01*
X169460334Y-126604000D01*
X169502667Y-126561667D01*
X169545000Y-126604000D01*
X169545000Y-126604000D01*
G37*
X169545000Y-126604000D02*
X169502667Y-126646334D01*
X169460334Y-126604000D01*
X169502667Y-126561667D01*
X169545000Y-126604000D01*
G36*
X179558445Y-126760131D02*
G01*
X179561259Y-126787926D01*
X179428717Y-126799277D01*
X179408667Y-126799161D01*
X179277353Y-126786953D01*
X179289888Y-126761183D01*
X179304445Y-126756994D01*
X179488875Y-126744599D01*
X179558445Y-126760131D01*
X179558445Y-126760131D01*
G37*
X179558445Y-126760131D02*
X179561259Y-126787926D01*
X179428717Y-126799277D01*
X179408667Y-126799161D01*
X179277353Y-126786953D01*
X179289888Y-126761183D01*
X179304445Y-126756994D01*
X179488875Y-126744599D01*
X179558445Y-126760131D01*
G36*
X170554982Y-126274454D02*
G01*
X170728181Y-126390653D01*
X170730334Y-126392334D01*
X170909336Y-126509761D01*
X171042731Y-126559782D01*
X171042837Y-126559784D01*
X171176004Y-126624882D01*
X171204893Y-126660722D01*
X171209040Y-126724810D01*
X171130693Y-126707811D01*
X170995462Y-126711969D01*
X170954154Y-126756923D01*
X170916538Y-126809478D01*
X170906351Y-126752167D01*
X170826950Y-126675951D01*
X170641540Y-126634629D01*
X170624500Y-126633648D01*
X170444398Y-126623721D01*
X170427675Y-126611840D01*
X170568550Y-126588384D01*
X170594947Y-126584457D01*
X170840561Y-126547953D01*
X170594947Y-126386034D01*
X170455854Y-126281200D01*
X170423492Y-126227385D01*
X170434000Y-126225441D01*
X170554982Y-126274454D01*
X170554982Y-126274454D01*
G37*
X170554982Y-126274454D02*
X170728181Y-126390653D01*
X170730334Y-126392334D01*
X170909336Y-126509761D01*
X171042731Y-126559782D01*
X171042837Y-126559784D01*
X171176004Y-126624882D01*
X171204893Y-126660722D01*
X171209040Y-126724810D01*
X171130693Y-126707811D01*
X170995462Y-126711969D01*
X170954154Y-126756923D01*
X170916538Y-126809478D01*
X170906351Y-126752167D01*
X170826950Y-126675951D01*
X170641540Y-126634629D01*
X170624500Y-126633648D01*
X170444398Y-126623721D01*
X170427675Y-126611840D01*
X170568550Y-126588384D01*
X170594947Y-126584457D01*
X170840561Y-126547953D01*
X170594947Y-126386034D01*
X170455854Y-126281200D01*
X170423492Y-126227385D01*
X170434000Y-126225441D01*
X170554982Y-126274454D01*
G36*
X178914778Y-126843889D02*
G01*
X178903156Y-126894223D01*
X178858334Y-126900334D01*
X178788643Y-126869355D01*
X178801889Y-126843889D01*
X178902369Y-126833756D01*
X178914778Y-126843889D01*
X178914778Y-126843889D01*
G37*
X178914778Y-126843889D02*
X178903156Y-126894223D01*
X178858334Y-126900334D01*
X178788643Y-126869355D01*
X178801889Y-126843889D01*
X178902369Y-126833756D01*
X178914778Y-126843889D01*
G36*
X179874334Y-126942667D02*
G01*
X179832000Y-126985000D01*
X179789667Y-126942667D01*
X179832000Y-126900334D01*
X179874334Y-126942667D01*
X179874334Y-126942667D01*
G37*
X179874334Y-126942667D02*
X179832000Y-126985000D01*
X179789667Y-126942667D01*
X179832000Y-126900334D01*
X179874334Y-126942667D01*
G36*
X169545000Y-126809266D02*
G01*
X169477688Y-126899432D01*
X169418000Y-126930951D01*
X169308763Y-126937013D01*
X169291000Y-126906735D01*
X169358312Y-126816568D01*
X169418000Y-126785049D01*
X169527238Y-126778988D01*
X169545000Y-126809266D01*
X169545000Y-126809266D01*
G37*
X169545000Y-126809266D02*
X169477688Y-126899432D01*
X169418000Y-126930951D01*
X169308763Y-126937013D01*
X169291000Y-126906735D01*
X169358312Y-126816568D01*
X169418000Y-126785049D01*
X169527238Y-126778988D01*
X169545000Y-126809266D01*
G36*
X179705000Y-127027334D02*
G01*
X179662667Y-127069667D01*
X179620334Y-127027334D01*
X179662667Y-126985000D01*
X179705000Y-127027334D01*
X179705000Y-127027334D01*
G37*
X179705000Y-127027334D02*
X179662667Y-127069667D01*
X179620334Y-127027334D01*
X179662667Y-126985000D01*
X179705000Y-127027334D01*
G36*
X180988602Y-125052590D02*
G01*
X180799830Y-125156138D01*
X180529983Y-125289884D01*
X180445834Y-125329615D01*
X179832000Y-125616416D01*
X180213000Y-125630059D01*
X180409975Y-125646638D01*
X180487366Y-125673683D01*
X180467000Y-125690399D01*
X180303254Y-125779394D01*
X180172126Y-125874215D01*
X180057879Y-125963762D01*
X180059744Y-125941637D01*
X180118993Y-125863167D01*
X180177971Y-125765194D01*
X180127510Y-125723685D01*
X179938024Y-125715001D01*
X179933530Y-125715000D01*
X179711641Y-125753686D01*
X179488697Y-125851350D01*
X179302460Y-125980404D01*
X179190694Y-126113260D01*
X179191161Y-126222330D01*
X179212244Y-126241956D01*
X179274578Y-126297586D01*
X179197000Y-126284234D01*
X179060859Y-126313936D01*
X178865781Y-126431257D01*
X178779202Y-126500592D01*
X178484614Y-126717411D01*
X178154524Y-126901003D01*
X177844930Y-127024068D01*
X177630667Y-127060530D01*
X177536554Y-127048516D01*
X177596362Y-127014983D01*
X177673000Y-126990324D01*
X178006224Y-126860778D01*
X178358663Y-126680425D01*
X178675038Y-126481441D01*
X178900074Y-126296004D01*
X178935833Y-126255214D01*
X179047384Y-126095057D01*
X179085771Y-126001317D01*
X179083420Y-125996531D01*
X179000329Y-126020089D01*
X178793649Y-126106244D01*
X178491574Y-126242521D01*
X178122298Y-126416444D01*
X177987047Y-126481645D01*
X177574849Y-126674489D01*
X177193268Y-126840300D01*
X176879546Y-126963766D01*
X176670923Y-127029574D01*
X176641314Y-127034998D01*
X176360667Y-127071951D01*
X176614667Y-126953702D01*
X176766819Y-126884189D01*
X177046319Y-126757760D01*
X177425956Y-126586672D01*
X177878517Y-126383185D01*
X178376792Y-126159558D01*
X178519667Y-126095508D01*
X178927796Y-125912556D01*
X179140556Y-125912556D01*
X179152178Y-125962890D01*
X179197000Y-125969000D01*
X179266690Y-125938022D01*
X179253445Y-125912556D01*
X179152965Y-125902423D01*
X179140556Y-125912556D01*
X178927796Y-125912556D01*
X179041433Y-125861616D01*
X179539769Y-125638140D01*
X179983517Y-125439060D01*
X180341521Y-125278354D01*
X180582622Y-125170001D01*
X180615167Y-125155350D01*
X180853030Y-125055061D01*
X181014332Y-125000163D01*
X181059667Y-124998974D01*
X180988602Y-125052590D01*
X180988602Y-125052590D01*
G37*
X180988602Y-125052590D02*
X180799830Y-125156138D01*
X180529983Y-125289884D01*
X180445834Y-125329615D01*
X179832000Y-125616416D01*
X180213000Y-125630059D01*
X180409975Y-125646638D01*
X180487366Y-125673683D01*
X180467000Y-125690399D01*
X180303254Y-125779394D01*
X180172126Y-125874215D01*
X180057879Y-125963762D01*
X180059744Y-125941637D01*
X180118993Y-125863167D01*
X180177971Y-125765194D01*
X180127510Y-125723685D01*
X179938024Y-125715001D01*
X179933530Y-125715000D01*
X179711641Y-125753686D01*
X179488697Y-125851350D01*
X179302460Y-125980404D01*
X179190694Y-126113260D01*
X179191161Y-126222330D01*
X179212244Y-126241956D01*
X179274578Y-126297586D01*
X179197000Y-126284234D01*
X179060859Y-126313936D01*
X178865781Y-126431257D01*
X178779202Y-126500592D01*
X178484614Y-126717411D01*
X178154524Y-126901003D01*
X177844930Y-127024068D01*
X177630667Y-127060530D01*
X177536554Y-127048516D01*
X177596362Y-127014983D01*
X177673000Y-126990324D01*
X178006224Y-126860778D01*
X178358663Y-126680425D01*
X178675038Y-126481441D01*
X178900074Y-126296004D01*
X178935833Y-126255214D01*
X179047384Y-126095057D01*
X179085771Y-126001317D01*
X179083420Y-125996531D01*
X179000329Y-126020089D01*
X178793649Y-126106244D01*
X178491574Y-126242521D01*
X178122298Y-126416444D01*
X177987047Y-126481645D01*
X177574849Y-126674489D01*
X177193268Y-126840300D01*
X176879546Y-126963766D01*
X176670923Y-127029574D01*
X176641314Y-127034998D01*
X176360667Y-127071951D01*
X176614667Y-126953702D01*
X176766819Y-126884189D01*
X177046319Y-126757760D01*
X177425956Y-126586672D01*
X177878517Y-126383185D01*
X178376792Y-126159558D01*
X178519667Y-126095508D01*
X178927796Y-125912556D01*
X179140556Y-125912556D01*
X179152178Y-125962890D01*
X179197000Y-125969000D01*
X179266690Y-125938022D01*
X179253445Y-125912556D01*
X179152965Y-125902423D01*
X179140556Y-125912556D01*
X178927796Y-125912556D01*
X179041433Y-125861616D01*
X179539769Y-125638140D01*
X179983517Y-125439060D01*
X180341521Y-125278354D01*
X180582622Y-125170001D01*
X180615167Y-125155350D01*
X180853030Y-125055061D01*
X181014332Y-125000163D01*
X181059667Y-124998974D01*
X180988602Y-125052590D01*
G36*
X177390778Y-127097889D02*
G01*
X177379156Y-127148223D01*
X177334334Y-127154334D01*
X177264643Y-127123355D01*
X177277889Y-127097889D01*
X177378369Y-127087756D01*
X177390778Y-127097889D01*
X177390778Y-127097889D01*
G37*
X177390778Y-127097889D02*
X177379156Y-127148223D01*
X177334334Y-127154334D01*
X177264643Y-127123355D01*
X177277889Y-127097889D01*
X177378369Y-127087756D01*
X177390778Y-127097889D01*
G36*
X170927560Y-127020235D02*
G01*
X170926694Y-127118139D01*
X170797871Y-127148105D01*
X170748843Y-127147649D01*
X170619603Y-127129869D01*
X170641527Y-127094239D01*
X170645667Y-127092621D01*
X170790321Y-127003394D01*
X170824384Y-126965206D01*
X170890787Y-126959709D01*
X170927560Y-127020235D01*
X170927560Y-127020235D01*
G37*
X170927560Y-127020235D02*
X170926694Y-127118139D01*
X170797871Y-127148105D01*
X170748843Y-127147649D01*
X170619603Y-127129869D01*
X170641527Y-127094239D01*
X170645667Y-127092621D01*
X170790321Y-127003394D01*
X170824384Y-126965206D01*
X170890787Y-126959709D01*
X170927560Y-127020235D01*
G36*
X170476334Y-127112000D02*
G01*
X170434000Y-127154334D01*
X170391667Y-127112000D01*
X170434000Y-127069667D01*
X170476334Y-127112000D01*
X170476334Y-127112000D01*
G37*
X170476334Y-127112000D02*
X170434000Y-127154334D01*
X170391667Y-127112000D01*
X170434000Y-127069667D01*
X170476334Y-127112000D01*
G36*
X179705000Y-127196667D02*
G01*
X179662667Y-127239000D01*
X179620334Y-127196667D01*
X179662667Y-127154334D01*
X179705000Y-127196667D01*
X179705000Y-127196667D01*
G37*
X179705000Y-127196667D02*
X179662667Y-127239000D01*
X179620334Y-127196667D01*
X179662667Y-127154334D01*
X179705000Y-127196667D01*
G36*
X177136778Y-127182556D02*
G01*
X177125156Y-127232890D01*
X177080334Y-127239000D01*
X177010643Y-127208022D01*
X177023889Y-127182556D01*
X177124369Y-127172423D01*
X177136778Y-127182556D01*
X177136778Y-127182556D01*
G37*
X177136778Y-127182556D02*
X177125156Y-127232890D01*
X177080334Y-127239000D01*
X177010643Y-127208022D01*
X177023889Y-127182556D01*
X177124369Y-127172423D01*
X177136778Y-127182556D01*
G36*
X171464111Y-127182556D02*
G01*
X171452489Y-127232890D01*
X171407667Y-127239000D01*
X171337977Y-127208022D01*
X171351222Y-127182556D01*
X171451702Y-127172423D01*
X171464111Y-127182556D01*
X171464111Y-127182556D01*
G37*
X171464111Y-127182556D02*
X171452489Y-127232890D01*
X171407667Y-127239000D01*
X171337977Y-127208022D01*
X171351222Y-127182556D01*
X171451702Y-127172423D01*
X171464111Y-127182556D01*
G36*
X171238334Y-127196667D02*
G01*
X171196000Y-127239000D01*
X171153667Y-127196667D01*
X171196000Y-127154334D01*
X171238334Y-127196667D01*
X171238334Y-127196667D01*
G37*
X171238334Y-127196667D02*
X171196000Y-127239000D01*
X171153667Y-127196667D01*
X171196000Y-127154334D01*
X171238334Y-127196667D01*
G36*
X176741667Y-127281334D02*
G01*
X176699334Y-127323667D01*
X176657000Y-127281334D01*
X176699334Y-127239000D01*
X176741667Y-127281334D01*
X176741667Y-127281334D01*
G37*
X176741667Y-127281334D02*
X176699334Y-127323667D01*
X176657000Y-127281334D01*
X176699334Y-127239000D01*
X176741667Y-127281334D01*
G36*
X172062070Y-127272514D02*
G01*
X172036819Y-127310996D01*
X171950945Y-127316983D01*
X171860602Y-127296305D01*
X171899792Y-127265830D01*
X172032116Y-127255736D01*
X172062070Y-127272514D01*
X172062070Y-127272514D01*
G37*
X172062070Y-127272514D02*
X172036819Y-127310996D01*
X171950945Y-127316983D01*
X171860602Y-127296305D01*
X171899792Y-127265830D01*
X172032116Y-127255736D01*
X172062070Y-127272514D01*
G36*
X179705000Y-127366000D02*
G01*
X179662667Y-127408334D01*
X179620334Y-127366000D01*
X179662667Y-127323667D01*
X179705000Y-127366000D01*
X179705000Y-127366000D01*
G37*
X179705000Y-127366000D02*
X179662667Y-127408334D01*
X179620334Y-127366000D01*
X179662667Y-127323667D01*
X179705000Y-127366000D01*
G36*
X178920070Y-127441847D02*
G01*
X178894819Y-127480329D01*
X178808945Y-127486316D01*
X178718602Y-127465639D01*
X178757792Y-127435163D01*
X178890116Y-127425070D01*
X178920070Y-127441847D01*
X178920070Y-127441847D01*
G37*
X178920070Y-127441847D02*
X178894819Y-127480329D01*
X178808945Y-127486316D01*
X178718602Y-127465639D01*
X178757792Y-127435163D01*
X178890116Y-127425070D01*
X178920070Y-127441847D01*
G36*
X177863500Y-127521594D02*
G01*
X177874136Y-127552496D01*
X177757667Y-127564298D01*
X177637471Y-127550993D01*
X177651834Y-127521594D01*
X177825176Y-127510411D01*
X177863500Y-127521594D01*
X177863500Y-127521594D01*
G37*
X177863500Y-127521594D02*
X177874136Y-127552496D01*
X177757667Y-127564298D01*
X177637471Y-127550993D01*
X177651834Y-127521594D01*
X177825176Y-127510411D01*
X177863500Y-127521594D01*
G36*
X170476334Y-127704667D02*
G01*
X170434000Y-127747000D01*
X170391667Y-127704667D01*
X170434000Y-127662334D01*
X170476334Y-127704667D01*
X170476334Y-127704667D01*
G37*
X170476334Y-127704667D02*
X170434000Y-127747000D01*
X170391667Y-127704667D01*
X170434000Y-127662334D01*
X170476334Y-127704667D01*
G36*
X178773667Y-127874000D02*
G01*
X178731334Y-127916334D01*
X178689000Y-127874000D01*
X178731334Y-127831667D01*
X178773667Y-127874000D01*
X178773667Y-127874000D01*
G37*
X178773667Y-127874000D02*
X178731334Y-127916334D01*
X178689000Y-127874000D01*
X178731334Y-127831667D01*
X178773667Y-127874000D01*
G36*
X179253445Y-127944556D02*
G01*
X179241822Y-127994890D01*
X179197000Y-128001000D01*
X179127310Y-127970022D01*
X179140556Y-127944556D01*
X179241035Y-127934423D01*
X179253445Y-127944556D01*
X179253445Y-127944556D01*
G37*
X179253445Y-127944556D02*
X179241822Y-127994890D01*
X179197000Y-128001000D01*
X179127310Y-127970022D01*
X179140556Y-127944556D01*
X179241035Y-127934423D01*
X179253445Y-127944556D01*
G36*
X170280170Y-127815792D02*
G01*
X170290264Y-127948116D01*
X170273486Y-127978070D01*
X170235004Y-127952819D01*
X170229018Y-127866945D01*
X170249695Y-127776602D01*
X170280170Y-127815792D01*
X170280170Y-127815792D01*
G37*
X170280170Y-127815792D02*
X170290264Y-127948116D01*
X170273486Y-127978070D01*
X170235004Y-127952819D01*
X170229018Y-127866945D01*
X170249695Y-127776602D01*
X170280170Y-127815792D01*
G36*
X178858334Y-128128000D02*
G01*
X178816000Y-128170334D01*
X178773667Y-128128000D01*
X178816000Y-128085667D01*
X178858334Y-128128000D01*
X178858334Y-128128000D01*
G37*
X178858334Y-128128000D02*
X178816000Y-128170334D01*
X178773667Y-128128000D01*
X178816000Y-128085667D01*
X178858334Y-128128000D01*
G36*
X172339000Y-128128000D02*
G01*
X172296667Y-128170334D01*
X172254334Y-128128000D01*
X172296667Y-128085667D01*
X172339000Y-128128000D01*
X172339000Y-128128000D01*
G37*
X172339000Y-128128000D02*
X172296667Y-128170334D01*
X172254334Y-128128000D01*
X172296667Y-128085667D01*
X172339000Y-128128000D01*
G36*
X172184786Y-127761233D02*
G01*
X172413789Y-127771383D01*
X172480807Y-127783707D01*
X172393191Y-127800632D01*
X172326954Y-127808133D01*
X172124450Y-127844916D01*
X172052804Y-127914841D01*
X172061662Y-128005567D01*
X172074955Y-128138592D01*
X172052542Y-128170334D01*
X172001187Y-128105865D01*
X172000334Y-128091714D01*
X171946301Y-127974533D01*
X171867286Y-127880048D01*
X171806487Y-127804060D01*
X171840073Y-127766535D01*
X171995923Y-127757040D01*
X172184786Y-127761233D01*
X172184786Y-127761233D01*
G37*
X172184786Y-127761233D02*
X172413789Y-127771383D01*
X172480807Y-127783707D01*
X172393191Y-127800632D01*
X172326954Y-127808133D01*
X172124450Y-127844916D01*
X172052804Y-127914841D01*
X172061662Y-128005567D01*
X172074955Y-128138592D01*
X172052542Y-128170334D01*
X172001187Y-128105865D01*
X172000334Y-128091714D01*
X171946301Y-127974533D01*
X171867286Y-127880048D01*
X171806487Y-127804060D01*
X171840073Y-127766535D01*
X171995923Y-127757040D01*
X172184786Y-127761233D01*
G36*
X179112334Y-128212667D02*
G01*
X179070000Y-128255000D01*
X179027667Y-128212667D01*
X179070000Y-128170334D01*
X179112334Y-128212667D01*
X179112334Y-128212667D01*
G37*
X179112334Y-128212667D02*
X179070000Y-128255000D01*
X179027667Y-128212667D01*
X179070000Y-128170334D01*
X179112334Y-128212667D01*
G36*
X177983445Y-128452556D02*
G01*
X177971822Y-128502890D01*
X177927000Y-128509000D01*
X177857310Y-128478022D01*
X177870556Y-128452556D01*
X177971035Y-128442423D01*
X177983445Y-128452556D01*
X177983445Y-128452556D01*
G37*
X177983445Y-128452556D02*
X177971822Y-128502890D01*
X177927000Y-128509000D01*
X177857310Y-128478022D01*
X177870556Y-128452556D01*
X177971035Y-128442423D01*
X177983445Y-128452556D01*
G36*
X170645667Y-132192000D02*
G01*
X170603334Y-132234334D01*
X170561000Y-132192000D01*
X170603334Y-132149667D01*
X170645667Y-132192000D01*
X170645667Y-132192000D01*
G37*
X170645667Y-132192000D02*
X170603334Y-132234334D01*
X170561000Y-132192000D01*
X170603334Y-132149667D01*
X170645667Y-132192000D01*
G36*
X177731818Y-132617992D02*
G01*
X177683506Y-132680245D01*
X177612318Y-132733749D01*
X177630083Y-132648911D01*
X177636110Y-132632849D01*
X177703183Y-132529171D01*
X177741315Y-132528426D01*
X177731818Y-132617992D01*
X177731818Y-132617992D01*
G37*
X177731818Y-132617992D02*
X177683506Y-132680245D01*
X177612318Y-132733749D01*
X177630083Y-132648911D01*
X177636110Y-132632849D01*
X177703183Y-132529171D01*
X177741315Y-132528426D01*
X177731818Y-132617992D01*
G36*
X175048334Y-133800667D02*
G01*
X175006000Y-133843000D01*
X174963667Y-133800667D01*
X175006000Y-133758334D01*
X175048334Y-133800667D01*
X175048334Y-133800667D01*
G37*
X175048334Y-133800667D02*
X175006000Y-133843000D01*
X174963667Y-133800667D01*
X175006000Y-133758334D01*
X175048334Y-133800667D01*
G36*
X174879000Y-133970000D02*
G01*
X174836667Y-134012334D01*
X174794334Y-133970000D01*
X174836667Y-133927667D01*
X174879000Y-133970000D01*
X174879000Y-133970000D01*
G37*
X174879000Y-133970000D02*
X174836667Y-134012334D01*
X174794334Y-133970000D01*
X174836667Y-133927667D01*
X174879000Y-133970000D01*
G36*
X176149000Y-134054667D02*
G01*
X176106667Y-134097000D01*
X176064334Y-134054667D01*
X176106667Y-134012334D01*
X176149000Y-134054667D01*
X176149000Y-134054667D01*
G37*
X176149000Y-134054667D02*
X176106667Y-134097000D01*
X176064334Y-134054667D01*
X176106667Y-134012334D01*
X176149000Y-134054667D01*
G36*
X175515251Y-134076517D02*
G01*
X175711965Y-134135341D01*
X175751691Y-134195794D01*
X175631009Y-134241021D01*
X175550476Y-134250115D01*
X175354492Y-134230102D01*
X175302334Y-134152419D01*
X175367119Y-134070870D01*
X175515251Y-134076517D01*
X175515251Y-134076517D01*
G37*
X175515251Y-134076517D02*
X175711965Y-134135341D01*
X175751691Y-134195794D01*
X175631009Y-134241021D01*
X175550476Y-134250115D01*
X175354492Y-134230102D01*
X175302334Y-134152419D01*
X175367119Y-134070870D01*
X175515251Y-134076517D01*
G36*
X175387000Y-134816667D02*
G01*
X175344667Y-134859000D01*
X175302334Y-134816667D01*
X175344667Y-134774334D01*
X175387000Y-134816667D01*
X175387000Y-134816667D01*
G37*
X175387000Y-134816667D02*
X175344667Y-134859000D01*
X175302334Y-134816667D01*
X175344667Y-134774334D01*
X175387000Y-134816667D01*
G36*
X175039095Y-134758284D02*
G01*
X175048334Y-134816667D01*
X175030219Y-134929630D01*
X175015059Y-134943667D01*
X174960465Y-134877461D01*
X174933049Y-134816667D01*
X174931289Y-134707645D01*
X174966324Y-134689667D01*
X175039095Y-134758284D01*
X175039095Y-134758284D01*
G37*
X175039095Y-134758284D02*
X175048334Y-134816667D01*
X175030219Y-134929630D01*
X175015059Y-134943667D01*
X174960465Y-134877461D01*
X174933049Y-134816667D01*
X174931289Y-134707645D01*
X174966324Y-134689667D01*
X175039095Y-134758284D01*
G36*
X167379829Y-124132692D02*
G01*
X167665466Y-124190033D01*
X167993539Y-124301500D01*
X168384623Y-124476003D01*
X168859291Y-124722453D01*
X169438116Y-125049760D01*
X169926000Y-125337555D01*
X170494995Y-125672597D01*
X171048536Y-125989923D01*
X171560976Y-126275482D01*
X172006669Y-126515218D01*
X172359969Y-126695080D01*
X172595230Y-126801014D01*
X172600056Y-126802850D01*
X172761018Y-126844841D01*
X172816546Y-126794119D01*
X172818778Y-126762229D01*
X172760603Y-126676855D01*
X172705889Y-126682366D01*
X172601393Y-126704350D01*
X172621207Y-126657072D01*
X172750746Y-126568135D01*
X172772551Y-126556199D01*
X172888277Y-126512577D01*
X172900503Y-126543594D01*
X172926646Y-126626806D01*
X173022125Y-126672380D01*
X173138843Y-126688549D01*
X173116608Y-126623706D01*
X173095472Y-126597339D01*
X173050024Y-126505945D01*
X173143714Y-126470858D01*
X173196467Y-126467179D01*
X173314343Y-126452098D01*
X173267780Y-126423717D01*
X173249167Y-126418637D01*
X173123609Y-126348895D01*
X173101000Y-126301459D01*
X173115542Y-126250391D01*
X173185808Y-126219717D01*
X173351760Y-126200004D01*
X173594337Y-126185016D01*
X173810601Y-126140431D01*
X173949228Y-126053490D01*
X173952874Y-126048141D01*
X174017236Y-125984904D01*
X174031037Y-126011334D01*
X174109521Y-126055528D01*
X174316311Y-126082745D01*
X174561500Y-126088147D01*
X174852737Y-126093554D01*
X175077604Y-126115515D01*
X175175334Y-126143602D01*
X175325794Y-126210691D01*
X175429334Y-126236122D01*
X175621011Y-126311519D01*
X175818607Y-126487144D01*
X176052149Y-126789999D01*
X176063531Y-126806394D01*
X176184794Y-126991816D01*
X176212921Y-127095847D01*
X176152904Y-127175098D01*
X176099735Y-127216799D01*
X176005709Y-127296475D01*
X176037655Y-127314501D01*
X176212500Y-127282845D01*
X176421232Y-127261026D01*
X176479498Y-127309979D01*
X176383688Y-127424673D01*
X176339500Y-127459807D01*
X176237662Y-127546237D01*
X176273228Y-127572425D01*
X176339500Y-127574974D01*
X176465259Y-127614933D01*
X176487667Y-127657337D01*
X176434025Y-127770717D01*
X176290605Y-127760934D01*
X176116618Y-127655035D01*
X175968667Y-127552674D01*
X175896411Y-127530196D01*
X175895000Y-127535236D01*
X175956928Y-127648174D01*
X176090885Y-127770216D01*
X176219131Y-127831452D01*
X176224640Y-127831667D01*
X176324434Y-127898285D01*
X176429355Y-128046464D01*
X176486489Y-128198689D01*
X176487667Y-128216976D01*
X176419017Y-128243634D01*
X176300291Y-128225750D01*
X176203605Y-128211765D01*
X176223365Y-128261809D01*
X176368230Y-128394621D01*
X176384957Y-128408934D01*
X176554754Y-128578703D01*
X176649727Y-128721895D01*
X176657000Y-128754002D01*
X176724232Y-128832026D01*
X176906529Y-128830263D01*
X177067041Y-128824600D01*
X177114211Y-128861018D01*
X177112584Y-128863981D01*
X177153641Y-128926306D01*
X177312178Y-128982774D01*
X177328722Y-128986245D01*
X177508956Y-129041327D01*
X177588166Y-129103221D01*
X177588334Y-129105684D01*
X177660213Y-129173951D01*
X177837059Y-129254675D01*
X177875739Y-129268054D01*
X178108938Y-129395640D01*
X178211047Y-129546089D01*
X178267906Y-129667253D01*
X178313742Y-129674481D01*
X178404427Y-129689408D01*
X178557860Y-129796403D01*
X178591401Y-129826345D01*
X178775248Y-129967399D01*
X178929051Y-130038130D01*
X178942135Y-130039684D01*
X179012150Y-130060341D01*
X178964923Y-130088821D01*
X178902329Y-130149396D01*
X178964923Y-130246181D01*
X179136519Y-130444199D01*
X179311181Y-130661671D01*
X179457607Y-130857408D01*
X179544499Y-130990224D01*
X179554987Y-131022641D01*
X179585097Y-131102651D01*
X179686248Y-131284078D01*
X179830154Y-131517492D01*
X179982533Y-131761077D01*
X180090009Y-131943157D01*
X180128334Y-132021671D01*
X180171207Y-132105210D01*
X180285550Y-132295139D01*
X180449942Y-132556266D01*
X180519737Y-132664767D01*
X180715451Y-132982733D01*
X180815602Y-133188764D01*
X180829158Y-133304146D01*
X180802861Y-133336734D01*
X180688937Y-133320967D01*
X180553231Y-133142032D01*
X180538458Y-133115327D01*
X180385262Y-132832293D01*
X180228819Y-132543097D01*
X180222620Y-132531634D01*
X180058946Y-132272076D01*
X179854244Y-132000379D01*
X179806758Y-131944531D01*
X179636189Y-131725564D01*
X179515394Y-131526060D01*
X179493560Y-131473047D01*
X179373524Y-131304202D01*
X179235227Y-131216772D01*
X179064484Y-131099319D01*
X178879661Y-130897528D01*
X178824343Y-130819456D01*
X178478742Y-130355838D01*
X178125959Y-130002346D01*
X177884667Y-129833768D01*
X177627731Y-129673920D01*
X177397603Y-129507736D01*
X177196573Y-129387931D01*
X177078890Y-129407910D01*
X177077344Y-129520597D01*
X177211334Y-129724125D01*
X177337085Y-129869113D01*
X177563965Y-130142881D01*
X177769184Y-130433472D01*
X177857672Y-130583334D01*
X177975329Y-130796971D01*
X178065128Y-130939264D01*
X178086540Y-130964334D01*
X178151821Y-131075877D01*
X178170044Y-131133667D01*
X178209659Y-131286365D01*
X178275207Y-131532220D01*
X178314334Y-131677190D01*
X178371752Y-131927326D01*
X178394158Y-132107903D01*
X178387410Y-132158173D01*
X178409016Y-132252444D01*
X178446701Y-132283898D01*
X178505322Y-132295988D01*
X178477333Y-132234333D01*
X178454898Y-132163563D01*
X178510696Y-132186456D01*
X178568464Y-132273807D01*
X178515946Y-132365817D01*
X178472716Y-132478509D01*
X178482839Y-132673566D01*
X178548891Y-132986046D01*
X178566742Y-133056780D01*
X178642991Y-133366139D01*
X178700851Y-133623527D01*
X178727678Y-133772437D01*
X178791673Y-133955405D01*
X178852471Y-134047603D01*
X178918328Y-134153729D01*
X178858334Y-134181667D01*
X178797041Y-134212855D01*
X178847232Y-134295290D01*
X178907179Y-134412529D01*
X178898861Y-134451584D01*
X178895206Y-134553185D01*
X178941343Y-134749904D01*
X179017644Y-134984884D01*
X179104484Y-135201272D01*
X179182237Y-135342214D01*
X179214858Y-135367000D01*
X179253391Y-135419633D01*
X179239334Y-135451667D01*
X179123212Y-135542980D01*
X179005880Y-135487268D01*
X178916152Y-135304156D01*
X178897463Y-135218834D01*
X178809429Y-134816324D01*
X178679185Y-134360505D01*
X178533643Y-133941446D01*
X178469887Y-133787871D01*
X178386293Y-133551257D01*
X178350360Y-133350262D01*
X178350334Y-133346506D01*
X178320351Y-133167153D01*
X178244144Y-132908131D01*
X178192889Y-132766635D01*
X178109249Y-132514301D01*
X178069831Y-132318334D01*
X178072945Y-132255500D01*
X178079869Y-132158450D01*
X177992432Y-132192124D01*
X177886534Y-132286895D01*
X177789860Y-132371604D01*
X177777247Y-132321625D01*
X177800339Y-132220793D01*
X177811143Y-131985720D01*
X177766977Y-131655233D01*
X177678864Y-131289861D01*
X177577459Y-130996628D01*
X177499886Y-130793197D01*
X177457391Y-130657571D01*
X177410206Y-130524640D01*
X177318222Y-130312844D01*
X177289793Y-130251974D01*
X177181693Y-130054325D01*
X177071729Y-129976592D01*
X176896688Y-129980861D01*
X176849666Y-129988003D01*
X176643223Y-130002752D01*
X176544115Y-129946106D01*
X176513931Y-129870291D01*
X176446624Y-129745152D01*
X176420499Y-129722556D01*
X176600556Y-129722556D01*
X176612178Y-129772890D01*
X176657000Y-129779000D01*
X176726690Y-129748022D01*
X176713445Y-129722556D01*
X176612965Y-129712423D01*
X176600556Y-129722556D01*
X176420499Y-129722556D01*
X176348695Y-129660454D01*
X176269953Y-129646224D01*
X176255849Y-129714699D01*
X176210226Y-129808719D01*
X176172912Y-129817485D01*
X176033876Y-129871622D01*
X175904901Y-129962545D01*
X175770934Y-130057107D01*
X175707719Y-130071496D01*
X175615023Y-130073296D01*
X175411021Y-130112308D01*
X175234896Y-130155455D01*
X174963049Y-130216277D01*
X174824051Y-130216571D01*
X174791759Y-130173503D01*
X174756947Y-130153898D01*
X174700258Y-130228195D01*
X174604886Y-130329603D01*
X174491166Y-130281328D01*
X174394972Y-130229233D01*
X174371000Y-130315988D01*
X174438493Y-130459295D01*
X174540334Y-130541000D01*
X174670878Y-130590549D01*
X174709667Y-130575945D01*
X174761242Y-130572166D01*
X174823290Y-130614565D01*
X174946748Y-130668275D01*
X174992624Y-130653154D01*
X175042880Y-130664337D01*
X175048334Y-130705281D01*
X175108864Y-130774869D01*
X175172622Y-130765423D01*
X175310769Y-130769397D01*
X175350519Y-130804470D01*
X175464610Y-130859031D01*
X175512247Y-130849722D01*
X175661233Y-130864214D01*
X175727771Y-130907450D01*
X175798392Y-130960097D01*
X175764515Y-130880287D01*
X175764169Y-130879667D01*
X175728623Y-130797803D01*
X175794492Y-130835270D01*
X175831002Y-130864376D01*
X175990826Y-130932030D01*
X176143588Y-130882563D01*
X176276718Y-130832582D01*
X176318334Y-130849113D01*
X176370860Y-130839847D01*
X176499637Y-130738469D01*
X176522923Y-130716982D01*
X176677365Y-130499582D01*
X176689371Y-130314444D01*
X176679145Y-130162782D01*
X176719850Y-130147771D01*
X176795457Y-130250530D01*
X176889940Y-130452175D01*
X176953204Y-130625277D01*
X177017197Y-130898353D01*
X177062115Y-131246207D01*
X177086326Y-131621003D01*
X177088198Y-131974903D01*
X177066100Y-132260070D01*
X177018398Y-132428666D01*
X177014901Y-132433740D01*
X176963559Y-132590811D01*
X176958258Y-132725876D01*
X176941518Y-132865652D01*
X176844881Y-132871861D01*
X176838747Y-132869568D01*
X176753459Y-132852798D01*
X176763183Y-132876739D01*
X176770363Y-132988170D01*
X176688322Y-133157654D01*
X176553936Y-133330225D01*
X176404083Y-133450921D01*
X176367143Y-133467020D01*
X175978178Y-133567856D01*
X175746834Y-133604909D01*
X175644057Y-133675648D01*
X175635049Y-133708945D01*
X175604491Y-133718562D01*
X175556334Y-133631334D01*
X175498990Y-133541664D01*
X175477618Y-133572830D01*
X175420000Y-133638837D01*
X175373984Y-133623289D01*
X175211716Y-133565954D01*
X175013024Y-133546259D01*
X174837534Y-133562432D01*
X174744875Y-133612698D01*
X174744385Y-133642018D01*
X174728754Y-133714056D01*
X174663022Y-133702630D01*
X174556945Y-133708702D01*
X174540334Y-133749275D01*
X174602943Y-133838614D01*
X174629997Y-133843000D01*
X174680563Y-133894870D01*
X174667334Y-133927667D01*
X174682658Y-134011003D01*
X174725837Y-134025229D01*
X174893239Y-134051783D01*
X174921334Y-134057797D01*
X175083645Y-134084278D01*
X175111834Y-134087234D01*
X175210422Y-134156063D01*
X175217667Y-134190725D01*
X175155828Y-134246667D01*
X175087462Y-134234486D01*
X174949499Y-134254643D01*
X174907203Y-134314960D01*
X174806995Y-134405285D01*
X174741075Y-134400857D01*
X174638900Y-134404863D01*
X174625000Y-134438324D01*
X174562312Y-134501331D01*
X174528103Y-134499167D01*
X174457065Y-134558937D01*
X174412280Y-134740122D01*
X174409141Y-134774334D01*
X174404229Y-134917551D01*
X174418754Y-134915525D01*
X174420680Y-134907515D01*
X174552239Y-134907515D01*
X174594136Y-135042494D01*
X174655212Y-135112945D01*
X174656750Y-135113000D01*
X174668341Y-135044465D01*
X174648654Y-134940309D01*
X174596723Y-134820325D01*
X174561454Y-134809657D01*
X174552239Y-134907515D01*
X174420680Y-134907515D01*
X174427260Y-134880167D01*
X174490519Y-134731551D01*
X174552270Y-134689667D01*
X174680063Y-134741647D01*
X174788966Y-134854890D01*
X174823239Y-134965350D01*
X174811468Y-134987495D01*
X174839495Y-135018770D01*
X174987901Y-135008461D01*
X175004390Y-135005577D01*
X175169026Y-134980989D01*
X175185727Y-135005822D01*
X175094041Y-135078669D01*
X174882216Y-135169237D01*
X174628839Y-135190542D01*
X174379500Y-135152746D01*
X174179790Y-135066008D01*
X174075300Y-134940489D01*
X174076895Y-134851981D01*
X174069367Y-134697686D01*
X174022696Y-134641377D01*
X173961191Y-134627918D01*
X173981915Y-134676585D01*
X174002030Y-134826168D01*
X173985596Y-134866126D01*
X173900192Y-134860946D01*
X173730617Y-134738794D01*
X173589921Y-134605000D01*
X174201667Y-134605000D01*
X174232645Y-134674690D01*
X174258111Y-134661445D01*
X174268244Y-134560965D01*
X174258111Y-134548556D01*
X174207777Y-134560178D01*
X174201667Y-134605000D01*
X173589921Y-134605000D01*
X173536099Y-134553819D01*
X173373444Y-134393334D01*
X174286334Y-134393334D01*
X174328667Y-134435667D01*
X174371000Y-134393334D01*
X174328667Y-134351000D01*
X174286334Y-134393334D01*
X173373444Y-134393334D01*
X173332365Y-134352804D01*
X173177077Y-134215567D01*
X173104306Y-134171958D01*
X173048256Y-134125230D01*
X173016334Y-134054667D01*
X172940238Y-133949264D01*
X172894119Y-133942568D01*
X172817867Y-133888995D01*
X172758248Y-133800667D01*
X173693667Y-133800667D01*
X173736000Y-133843000D01*
X173778334Y-133800667D01*
X173863000Y-133800667D01*
X173905334Y-133843000D01*
X173925584Y-133822750D01*
X174210123Y-133822750D01*
X174249959Y-133922087D01*
X174307500Y-133951519D01*
X174460048Y-133958898D01*
X174501489Y-133854525D01*
X174487296Y-133803301D01*
X174383708Y-133722843D01*
X174321660Y-133730405D01*
X174210123Y-133822750D01*
X173925584Y-133822750D01*
X173947667Y-133800667D01*
X173905334Y-133758334D01*
X173863000Y-133800667D01*
X173778334Y-133800667D01*
X173736000Y-133758334D01*
X173693667Y-133800667D01*
X172758248Y-133800667D01*
X172702977Y-133718781D01*
X172569943Y-133473958D01*
X172439257Y-133196560D01*
X172331415Y-132928618D01*
X172266910Y-132712166D01*
X172257315Y-132636500D01*
X172235186Y-132467392D01*
X172190834Y-132403662D01*
X172163262Y-132325333D01*
X172159482Y-132279265D01*
X175478978Y-132279265D01*
X175528111Y-132347222D01*
X175678231Y-132402015D01*
X175815027Y-132324316D01*
X175840951Y-132276667D01*
X175830406Y-132178573D01*
X175680676Y-132149667D01*
X175507617Y-132185199D01*
X175478978Y-132279265D01*
X172159482Y-132279265D01*
X172146008Y-132115059D01*
X172138922Y-131809906D01*
X172141853Y-131446940D01*
X172145712Y-131331222D01*
X175584556Y-131331222D01*
X175596178Y-131381557D01*
X175641000Y-131387667D01*
X175710690Y-131356689D01*
X175697445Y-131331222D01*
X175596965Y-131321089D01*
X175584556Y-131331222D01*
X172145712Y-131331222D01*
X172154650Y-131063225D01*
X172177163Y-130695827D01*
X172177578Y-130691427D01*
X173953241Y-130691427D01*
X173983553Y-130743797D01*
X174117000Y-130690685D01*
X174248917Y-130584200D01*
X174286334Y-130520634D01*
X174233770Y-130458817D01*
X174111732Y-130505016D01*
X174049267Y-130557934D01*
X173953241Y-130691427D01*
X172177578Y-130691427D01*
X172191767Y-130541000D01*
X173778334Y-130541000D01*
X173809312Y-130610690D01*
X173834778Y-130597445D01*
X173844911Y-130496965D01*
X173834778Y-130484556D01*
X173784444Y-130496178D01*
X173778334Y-130541000D01*
X172191767Y-130541000D01*
X172198699Y-130467521D01*
X172221736Y-130329334D01*
X173355000Y-130329334D01*
X173397334Y-130371667D01*
X173417576Y-130351425D01*
X174069055Y-130351425D01*
X174152278Y-130364983D01*
X174262092Y-130349416D01*
X174263403Y-130320514D01*
X174150086Y-130300303D01*
X174101125Y-130313830D01*
X174069055Y-130351425D01*
X173417576Y-130351425D01*
X173439667Y-130329334D01*
X173397334Y-130287000D01*
X173355000Y-130329334D01*
X172221736Y-130329334D01*
X172242908Y-130202334D01*
X173693667Y-130202334D01*
X173724645Y-130272024D01*
X173750111Y-130258778D01*
X173760072Y-130160000D01*
X174540334Y-130160000D01*
X174582667Y-130202334D01*
X174625000Y-130160000D01*
X174582667Y-130117667D01*
X174540334Y-130160000D01*
X173760072Y-130160000D01*
X173760244Y-130158298D01*
X173750111Y-130145889D01*
X173699777Y-130157511D01*
X173693667Y-130202334D01*
X172242908Y-130202334D01*
X172245136Y-130188974D01*
X172307942Y-129971072D01*
X172347282Y-129896021D01*
X172387774Y-129810852D01*
X172293535Y-129780731D01*
X172222367Y-129779000D01*
X172047831Y-129815581D01*
X171986255Y-129948597D01*
X171994013Y-130096500D01*
X171953964Y-130194134D01*
X171922036Y-130202334D01*
X171872268Y-130264245D01*
X171885049Y-130329334D01*
X171884156Y-130438218D01*
X171846131Y-130456334D01*
X171783051Y-130532029D01*
X171709026Y-130728308D01*
X171653750Y-130943167D01*
X171587418Y-131220756D01*
X171524707Y-131432756D01*
X171489668Y-131514667D01*
X171449075Y-131657332D01*
X171442667Y-131825633D01*
X171427476Y-131973584D01*
X171376662Y-132003505D01*
X171337729Y-132035277D01*
X171361692Y-132208731D01*
X171446359Y-132509223D01*
X171457520Y-132543968D01*
X171471638Y-132626285D01*
X171409759Y-132577340D01*
X171347999Y-132504614D01*
X171187901Y-132309228D01*
X170939757Y-133097281D01*
X170835574Y-133440207D01*
X170757162Y-133721676D01*
X170714794Y-133903449D01*
X170710973Y-133948834D01*
X170667284Y-134010083D01*
X170645667Y-134012334D01*
X170573614Y-134082242D01*
X170560479Y-134160500D01*
X170521885Y-134345048D01*
X170448286Y-134522636D01*
X170318337Y-134823111D01*
X170280197Y-135039257D01*
X170337155Y-135144590D01*
X170344672Y-135176757D01*
X170243500Y-135190983D01*
X170094736Y-135145464D01*
X170055780Y-134988912D01*
X170125616Y-134712806D01*
X170172292Y-134594173D01*
X170256573Y-134382101D01*
X170307154Y-134235635D01*
X170310072Y-134224000D01*
X170429782Y-133827162D01*
X170447442Y-133779500D01*
X170489395Y-133625609D01*
X170491600Y-133573307D01*
X170511062Y-133465186D01*
X170573691Y-133259112D01*
X170611589Y-133149974D01*
X170698041Y-132900014D01*
X170759690Y-132703776D01*
X170771808Y-132657667D01*
X170826108Y-132472632D01*
X170865897Y-132361334D01*
X170901225Y-132246512D01*
X170848733Y-132258394D01*
X170767352Y-132319000D01*
X170656219Y-132400382D01*
X170661479Y-132373141D01*
X170708432Y-132311210D01*
X170767588Y-132172020D01*
X170750766Y-132107136D01*
X170745054Y-132073819D01*
X170778910Y-132089533D01*
X170852968Y-132046993D01*
X170935783Y-131863278D01*
X170978362Y-131717708D01*
X171072698Y-131422685D01*
X171215367Y-131057473D01*
X171374285Y-130703696D01*
X171510634Y-130416950D01*
X171611976Y-130191291D01*
X171660049Y-130067713D01*
X171661667Y-130058595D01*
X171711649Y-129960721D01*
X171809834Y-129834810D01*
X171902857Y-129718057D01*
X171880362Y-129696566D01*
X171821092Y-129715333D01*
X171732177Y-129729578D01*
X171741159Y-129647368D01*
X171776007Y-129567334D01*
X176572334Y-129567334D01*
X176614667Y-129609667D01*
X176657000Y-129567334D01*
X176614667Y-129525000D01*
X176572334Y-129567334D01*
X171776007Y-129567334D01*
X171778759Y-129561016D01*
X171892914Y-129406854D01*
X172000334Y-129353635D01*
X172165099Y-129302401D01*
X172291682Y-129225974D01*
X172504984Y-129125576D01*
X172651516Y-129101667D01*
X172802763Y-129073606D01*
X172847000Y-129025467D01*
X172776084Y-128967120D01*
X172606211Y-128949709D01*
X172401691Y-128969255D01*
X172226835Y-129021781D01*
X172162640Y-129067800D01*
X172026047Y-129170231D01*
X171960755Y-129186334D01*
X171830430Y-129239729D01*
X171703463Y-129360904D01*
X171630026Y-129491337D01*
X171640315Y-129560093D01*
X171646102Y-129603185D01*
X171619334Y-129598304D01*
X171496215Y-129615629D01*
X171287072Y-129689362D01*
X171196000Y-129729172D01*
X170985664Y-129869182D01*
X170725686Y-130103112D01*
X170448442Y-130393786D01*
X170186309Y-130704032D01*
X169971664Y-130996675D01*
X169836884Y-131234542D01*
X169809617Y-131320972D01*
X169779879Y-131448317D01*
X169744086Y-131417827D01*
X169722129Y-131361614D01*
X169675899Y-131302862D01*
X169597216Y-131341596D01*
X169464819Y-131494954D01*
X169330512Y-131677289D01*
X169153191Y-131912949D01*
X169009942Y-132081873D01*
X168931517Y-132147824D01*
X168931167Y-132147841D01*
X168874706Y-132218523D01*
X168867667Y-132276667D01*
X168826348Y-132389402D01*
X168791283Y-132403667D01*
X168707733Y-132473179D01*
X168616959Y-132636500D01*
X168459425Y-132985286D01*
X168340337Y-133182470D01*
X168249691Y-133238703D01*
X168177483Y-133164638D01*
X168159716Y-133123334D01*
X168151482Y-133013989D01*
X168179400Y-132996334D01*
X168252052Y-132929214D01*
X168346324Y-132776001D01*
X168423750Y-132608918D01*
X168445864Y-132500186D01*
X168444931Y-132497800D01*
X168484294Y-132426325D01*
X168500602Y-132413133D01*
X168593317Y-132304668D01*
X168677884Y-132170834D01*
X168739556Y-132026765D01*
X168696382Y-131980868D01*
X168682869Y-131980334D01*
X168647864Y-131942845D01*
X168713510Y-131874500D01*
X168878767Y-131724181D01*
X169052806Y-131538843D01*
X169208649Y-131352188D01*
X169319320Y-131197915D01*
X169357842Y-131109723D01*
X169330040Y-131104313D01*
X169243885Y-131125869D01*
X169276462Y-131067035D01*
X169360968Y-130979032D01*
X169491146Y-130828872D01*
X169545000Y-130727232D01*
X169600914Y-130640943D01*
X169750702Y-130466547D01*
X169967430Y-130234592D01*
X170089573Y-130109512D01*
X170333879Y-129852802D01*
X170527961Y-129630065D01*
X170642828Y-129475438D01*
X170661073Y-129436625D01*
X170747287Y-129336425D01*
X170936470Y-129205830D01*
X171173604Y-129075378D01*
X171403668Y-128975610D01*
X171560830Y-128937214D01*
X171605649Y-128912375D01*
X176176766Y-128912375D01*
X176253207Y-129035718D01*
X176387514Y-129179323D01*
X176497994Y-129228667D01*
X176645599Y-129292261D01*
X176682374Y-129334500D01*
X176817509Y-129429528D01*
X176973675Y-129415915D01*
X177035772Y-129359273D01*
X177000453Y-129270086D01*
X176828074Y-129147390D01*
X176543605Y-129006873D01*
X176349288Y-128928007D01*
X176195593Y-128876403D01*
X176176766Y-128912375D01*
X171605649Y-128912375D01*
X171637410Y-128894773D01*
X171630546Y-128865810D01*
X171662067Y-128802914D01*
X171731383Y-128784959D01*
X171958002Y-128755716D01*
X172170926Y-128718696D01*
X172303430Y-128686006D01*
X172317834Y-128678556D01*
X172402500Y-128642422D01*
X172672848Y-128549207D01*
X172824813Y-128434082D01*
X172842974Y-128317843D01*
X172714162Y-128222142D01*
X172621035Y-128112167D01*
X172623860Y-128085667D01*
X173143334Y-128085667D01*
X173147204Y-128163810D01*
X173175673Y-128170334D01*
X173295365Y-128108548D01*
X173312667Y-128085667D01*
X173308797Y-128007523D01*
X173280327Y-128001000D01*
X173160636Y-128062786D01*
X173143334Y-128085667D01*
X172623860Y-128085667D01*
X172631652Y-128012600D01*
X172638062Y-127891163D01*
X172899864Y-127891163D01*
X173016334Y-127902965D01*
X173136529Y-127889660D01*
X173129002Y-127874250D01*
X173376839Y-127874250D01*
X173457549Y-127975459D01*
X173529330Y-128001000D01*
X173607415Y-127937134D01*
X173609000Y-127921330D01*
X173602883Y-127909707D01*
X175597164Y-127909707D01*
X175725667Y-127985975D01*
X175919467Y-128062427D01*
X175976982Y-128063857D01*
X175915759Y-127986020D01*
X175879125Y-127948839D01*
X175726222Y-127857139D01*
X175628149Y-127854515D01*
X175597164Y-127909707D01*
X173602883Y-127909707D01*
X173552755Y-127814465D01*
X173442309Y-127758206D01*
X173383222Y-127775222D01*
X173376839Y-127874250D01*
X173129002Y-127874250D01*
X173122167Y-127860260D01*
X172948825Y-127849078D01*
X172910500Y-127860260D01*
X172899864Y-127891163D01*
X172638062Y-127891163D01*
X172643455Y-127789019D01*
X172566874Y-127575222D01*
X172431758Y-127433288D01*
X172388902Y-127421492D01*
X172955880Y-127421492D01*
X172982088Y-127468951D01*
X173016334Y-127493000D01*
X173197075Y-127563201D01*
X173270334Y-127570420D01*
X173320964Y-127546245D01*
X173228000Y-127493000D01*
X173439667Y-127493000D01*
X173508243Y-127568115D01*
X173566667Y-127577667D01*
X173679339Y-127531949D01*
X173693667Y-127493000D01*
X173625090Y-127417886D01*
X173566667Y-127408334D01*
X173453995Y-127454051D01*
X173439667Y-127493000D01*
X173228000Y-127493000D01*
X173048496Y-127429508D01*
X172955880Y-127421492D01*
X172388902Y-127421492D01*
X172341096Y-127408334D01*
X172202353Y-127375072D01*
X172169667Y-127328071D01*
X172239032Y-127293534D01*
X172421868Y-127335726D01*
X172630825Y-127387963D01*
X172776075Y-127389642D01*
X172746475Y-127349280D01*
X172585233Y-127267579D01*
X172320981Y-127157849D01*
X172097801Y-127074283D01*
X171771232Y-126952128D01*
X171519127Y-126849371D01*
X171373784Y-126779679D01*
X171351812Y-126758633D01*
X171441663Y-126769506D01*
X171646893Y-126829968D01*
X171925381Y-126927419D01*
X171962507Y-126941296D01*
X172256423Y-127043879D01*
X172491822Y-127111286D01*
X172621582Y-127130197D01*
X172626620Y-127129016D01*
X172613924Y-127110125D01*
X174497276Y-127110125D01*
X174527536Y-127217816D01*
X174550149Y-127269064D01*
X174682727Y-127431145D01*
X174803011Y-127448996D01*
X174957544Y-127460074D01*
X175009217Y-127498204D01*
X175088265Y-127575043D01*
X175100660Y-127577667D01*
X175106335Y-127522911D01*
X175090612Y-127493000D01*
X175556334Y-127493000D01*
X175620763Y-127575207D01*
X175641000Y-127577667D01*
X175723207Y-127513238D01*
X175725667Y-127493000D01*
X175661238Y-127410794D01*
X175641000Y-127408334D01*
X175558794Y-127472763D01*
X175556334Y-127493000D01*
X175090612Y-127493000D01*
X175090297Y-127492402D01*
X175107086Y-127394459D01*
X175161616Y-127359548D01*
X175258308Y-127252610D01*
X175234660Y-127092768D01*
X175106466Y-126943750D01*
X175012859Y-126842538D01*
X175012961Y-126794595D01*
X175006402Y-126756815D01*
X174902658Y-126762221D01*
X174764919Y-126799643D01*
X174656775Y-126857555D01*
X174597145Y-127001409D01*
X174607664Y-127061944D01*
X174607983Y-127139400D01*
X174554079Y-127120495D01*
X174497276Y-127110125D01*
X172613924Y-127110125D01*
X172593102Y-127079146D01*
X172436500Y-126965326D01*
X172182387Y-126804691D01*
X171870499Y-126622378D01*
X171459979Y-126387882D01*
X171036324Y-126142159D01*
X170660739Y-125920872D01*
X170476334Y-125810048D01*
X170210270Y-125654901D01*
X170004842Y-125547822D01*
X169897587Y-125508070D01*
X169891241Y-125509873D01*
X169912840Y-125592093D01*
X170010752Y-125735648D01*
X170033830Y-125775613D01*
X169955482Y-125708768D01*
X169792340Y-125549695D01*
X169749177Y-125506255D01*
X169320167Y-125149614D01*
X168728589Y-124783803D01*
X168452156Y-124637655D01*
X168103522Y-124465557D01*
X167812364Y-124331681D01*
X167609889Y-124249704D01*
X167527878Y-124232567D01*
X167519909Y-124302433D01*
X167520056Y-124302545D01*
X167599675Y-124363436D01*
X167777906Y-124499836D01*
X168018906Y-124684314D01*
X168063334Y-124718326D01*
X168354287Y-124917739D01*
X168655608Y-125086520D01*
X168928426Y-125207045D01*
X169133873Y-125261689D01*
X169224814Y-125244964D01*
X169249409Y-125288533D01*
X169254714Y-125372458D01*
X169238328Y-125477713D01*
X169158792Y-125460006D01*
X169084685Y-125410760D01*
X168905452Y-125307468D01*
X168809112Y-125330463D01*
X168758086Y-125482167D01*
X168731068Y-125597281D01*
X168716824Y-125555621D01*
X168709864Y-125445539D01*
X168640822Y-125235641D01*
X168483032Y-125151409D01*
X168269353Y-125200677D01*
X168119630Y-125304842D01*
X167894000Y-125503334D01*
X168098945Y-125270834D01*
X168223347Y-125113687D01*
X168271345Y-125019622D01*
X168268278Y-125012146D01*
X168190358Y-124948708D01*
X168018415Y-124806100D01*
X167788172Y-124613961D01*
X167765206Y-124594745D01*
X167436066Y-124347517D01*
X167161988Y-124212198D01*
X166960873Y-124169165D01*
X166806307Y-124149889D01*
X166799746Y-124136419D01*
X166949405Y-124126182D01*
X167116055Y-124120566D01*
X167379829Y-124132692D01*
X167379829Y-124132692D01*
G37*
X167379829Y-124132692D02*
X167665466Y-124190033D01*
X167993539Y-124301500D01*
X168384623Y-124476003D01*
X168859291Y-124722453D01*
X169438116Y-125049760D01*
X169926000Y-125337555D01*
X170494995Y-125672597D01*
X171048536Y-125989923D01*
X171560976Y-126275482D01*
X172006669Y-126515218D01*
X172359969Y-126695080D01*
X172595230Y-126801014D01*
X172600056Y-126802850D01*
X172761018Y-126844841D01*
X172816546Y-126794119D01*
X172818778Y-126762229D01*
X172760603Y-126676855D01*
X172705889Y-126682366D01*
X172601393Y-126704350D01*
X172621207Y-126657072D01*
X172750746Y-126568135D01*
X172772551Y-126556199D01*
X172888277Y-126512577D01*
X172900503Y-126543594D01*
X172926646Y-126626806D01*
X173022125Y-126672380D01*
X173138843Y-126688549D01*
X173116608Y-126623706D01*
X173095472Y-126597339D01*
X173050024Y-126505945D01*
X173143714Y-126470858D01*
X173196467Y-126467179D01*
X173314343Y-126452098D01*
X173267780Y-126423717D01*
X173249167Y-126418637D01*
X173123609Y-126348895D01*
X173101000Y-126301459D01*
X173115542Y-126250391D01*
X173185808Y-126219717D01*
X173351760Y-126200004D01*
X173594337Y-126185016D01*
X173810601Y-126140431D01*
X173949228Y-126053490D01*
X173952874Y-126048141D01*
X174017236Y-125984904D01*
X174031037Y-126011334D01*
X174109521Y-126055528D01*
X174316311Y-126082745D01*
X174561500Y-126088147D01*
X174852737Y-126093554D01*
X175077604Y-126115515D01*
X175175334Y-126143602D01*
X175325794Y-126210691D01*
X175429334Y-126236122D01*
X175621011Y-126311519D01*
X175818607Y-126487144D01*
X176052149Y-126789999D01*
X176063531Y-126806394D01*
X176184794Y-126991816D01*
X176212921Y-127095847D01*
X176152904Y-127175098D01*
X176099735Y-127216799D01*
X176005709Y-127296475D01*
X176037655Y-127314501D01*
X176212500Y-127282845D01*
X176421232Y-127261026D01*
X176479498Y-127309979D01*
X176383688Y-127424673D01*
X176339500Y-127459807D01*
X176237662Y-127546237D01*
X176273228Y-127572425D01*
X176339500Y-127574974D01*
X176465259Y-127614933D01*
X176487667Y-127657337D01*
X176434025Y-127770717D01*
X176290605Y-127760934D01*
X176116618Y-127655035D01*
X175968667Y-127552674D01*
X175896411Y-127530196D01*
X175895000Y-127535236D01*
X175956928Y-127648174D01*
X176090885Y-127770216D01*
X176219131Y-127831452D01*
X176224640Y-127831667D01*
X176324434Y-127898285D01*
X176429355Y-128046464D01*
X176486489Y-128198689D01*
X176487667Y-128216976D01*
X176419017Y-128243634D01*
X176300291Y-128225750D01*
X176203605Y-128211765D01*
X176223365Y-128261809D01*
X176368230Y-128394621D01*
X176384957Y-128408934D01*
X176554754Y-128578703D01*
X176649727Y-128721895D01*
X176657000Y-128754002D01*
X176724232Y-128832026D01*
X176906529Y-128830263D01*
X177067041Y-128824600D01*
X177114211Y-128861018D01*
X177112584Y-128863981D01*
X177153641Y-128926306D01*
X177312178Y-128982774D01*
X177328722Y-128986245D01*
X177508956Y-129041327D01*
X177588166Y-129103221D01*
X177588334Y-129105684D01*
X177660213Y-129173951D01*
X177837059Y-129254675D01*
X177875739Y-129268054D01*
X178108938Y-129395640D01*
X178211047Y-129546089D01*
X178267906Y-129667253D01*
X178313742Y-129674481D01*
X178404427Y-129689408D01*
X178557860Y-129796403D01*
X178591401Y-129826345D01*
X178775248Y-129967399D01*
X178929051Y-130038130D01*
X178942135Y-130039684D01*
X179012150Y-130060341D01*
X178964923Y-130088821D01*
X178902329Y-130149396D01*
X178964923Y-130246181D01*
X179136519Y-130444199D01*
X179311181Y-130661671D01*
X179457607Y-130857408D01*
X179544499Y-130990224D01*
X179554987Y-131022641D01*
X179585097Y-131102651D01*
X179686248Y-131284078D01*
X179830154Y-131517492D01*
X179982533Y-131761077D01*
X180090009Y-131943157D01*
X180128334Y-132021671D01*
X180171207Y-132105210D01*
X180285550Y-132295139D01*
X180449942Y-132556266D01*
X180519737Y-132664767D01*
X180715451Y-132982733D01*
X180815602Y-133188764D01*
X180829158Y-133304146D01*
X180802861Y-133336734D01*
X180688937Y-133320967D01*
X180553231Y-133142032D01*
X180538458Y-133115327D01*
X180385262Y-132832293D01*
X180228819Y-132543097D01*
X180222620Y-132531634D01*
X180058946Y-132272076D01*
X179854244Y-132000379D01*
X179806758Y-131944531D01*
X179636189Y-131725564D01*
X179515394Y-131526060D01*
X179493560Y-131473047D01*
X179373524Y-131304202D01*
X179235227Y-131216772D01*
X179064484Y-131099319D01*
X178879661Y-130897528D01*
X178824343Y-130819456D01*
X178478742Y-130355838D01*
X178125959Y-130002346D01*
X177884667Y-129833768D01*
X177627731Y-129673920D01*
X177397603Y-129507736D01*
X177196573Y-129387931D01*
X177078890Y-129407910D01*
X177077344Y-129520597D01*
X177211334Y-129724125D01*
X177337085Y-129869113D01*
X177563965Y-130142881D01*
X177769184Y-130433472D01*
X177857672Y-130583334D01*
X177975329Y-130796971D01*
X178065128Y-130939264D01*
X178086540Y-130964334D01*
X178151821Y-131075877D01*
X178170044Y-131133667D01*
X178209659Y-131286365D01*
X178275207Y-131532220D01*
X178314334Y-131677190D01*
X178371752Y-131927326D01*
X178394158Y-132107903D01*
X178387410Y-132158173D01*
X178409016Y-132252444D01*
X178446701Y-132283898D01*
X178505322Y-132295988D01*
X178477333Y-132234333D01*
X178454898Y-132163563D01*
X178510696Y-132186456D01*
X178568464Y-132273807D01*
X178515946Y-132365817D01*
X178472716Y-132478509D01*
X178482839Y-132673566D01*
X178548891Y-132986046D01*
X178566742Y-133056780D01*
X178642991Y-133366139D01*
X178700851Y-133623527D01*
X178727678Y-133772437D01*
X178791673Y-133955405D01*
X178852471Y-134047603D01*
X178918328Y-134153729D01*
X178858334Y-134181667D01*
X178797041Y-134212855D01*
X178847232Y-134295290D01*
X178907179Y-134412529D01*
X178898861Y-134451584D01*
X178895206Y-134553185D01*
X178941343Y-134749904D01*
X179017644Y-134984884D01*
X179104484Y-135201272D01*
X179182237Y-135342214D01*
X179214858Y-135367000D01*
X179253391Y-135419633D01*
X179239334Y-135451667D01*
X179123212Y-135542980D01*
X179005880Y-135487268D01*
X178916152Y-135304156D01*
X178897463Y-135218834D01*
X178809429Y-134816324D01*
X178679185Y-134360505D01*
X178533643Y-133941446D01*
X178469887Y-133787871D01*
X178386293Y-133551257D01*
X178350360Y-133350262D01*
X178350334Y-133346506D01*
X178320351Y-133167153D01*
X178244144Y-132908131D01*
X178192889Y-132766635D01*
X178109249Y-132514301D01*
X178069831Y-132318334D01*
X178072945Y-132255500D01*
X178079869Y-132158450D01*
X177992432Y-132192124D01*
X177886534Y-132286895D01*
X177789860Y-132371604D01*
X177777247Y-132321625D01*
X177800339Y-132220793D01*
X177811143Y-131985720D01*
X177766977Y-131655233D01*
X177678864Y-131289861D01*
X177577459Y-130996628D01*
X177499886Y-130793197D01*
X177457391Y-130657571D01*
X177410206Y-130524640D01*
X177318222Y-130312844D01*
X177289793Y-130251974D01*
X177181693Y-130054325D01*
X177071729Y-129976592D01*
X176896688Y-129980861D01*
X176849666Y-129988003D01*
X176643223Y-130002752D01*
X176544115Y-129946106D01*
X176513931Y-129870291D01*
X176446624Y-129745152D01*
X176420499Y-129722556D01*
X176600556Y-129722556D01*
X176612178Y-129772890D01*
X176657000Y-129779000D01*
X176726690Y-129748022D01*
X176713445Y-129722556D01*
X176612965Y-129712423D01*
X176600556Y-129722556D01*
X176420499Y-129722556D01*
X176348695Y-129660454D01*
X176269953Y-129646224D01*
X176255849Y-129714699D01*
X176210226Y-129808719D01*
X176172912Y-129817485D01*
X176033876Y-129871622D01*
X175904901Y-129962545D01*
X175770934Y-130057107D01*
X175707719Y-130071496D01*
X175615023Y-130073296D01*
X175411021Y-130112308D01*
X175234896Y-130155455D01*
X174963049Y-130216277D01*
X174824051Y-130216571D01*
X174791759Y-130173503D01*
X174756947Y-130153898D01*
X174700258Y-130228195D01*
X174604886Y-130329603D01*
X174491166Y-130281328D01*
X174394972Y-130229233D01*
X174371000Y-130315988D01*
X174438493Y-130459295D01*
X174540334Y-130541000D01*
X174670878Y-130590549D01*
X174709667Y-130575945D01*
X174761242Y-130572166D01*
X174823290Y-130614565D01*
X174946748Y-130668275D01*
X174992624Y-130653154D01*
X175042880Y-130664337D01*
X175048334Y-130705281D01*
X175108864Y-130774869D01*
X175172622Y-130765423D01*
X175310769Y-130769397D01*
X175350519Y-130804470D01*
X175464610Y-130859031D01*
X175512247Y-130849722D01*
X175661233Y-130864214D01*
X175727771Y-130907450D01*
X175798392Y-130960097D01*
X175764515Y-130880287D01*
X175764169Y-130879667D01*
X175728623Y-130797803D01*
X175794492Y-130835270D01*
X175831002Y-130864376D01*
X175990826Y-130932030D01*
X176143588Y-130882563D01*
X176276718Y-130832582D01*
X176318334Y-130849113D01*
X176370860Y-130839847D01*
X176499637Y-130738469D01*
X176522923Y-130716982D01*
X176677365Y-130499582D01*
X176689371Y-130314444D01*
X176679145Y-130162782D01*
X176719850Y-130147771D01*
X176795457Y-130250530D01*
X176889940Y-130452175D01*
X176953204Y-130625277D01*
X177017197Y-130898353D01*
X177062115Y-131246207D01*
X177086326Y-131621003D01*
X177088198Y-131974903D01*
X177066100Y-132260070D01*
X177018398Y-132428666D01*
X177014901Y-132433740D01*
X176963559Y-132590811D01*
X176958258Y-132725876D01*
X176941518Y-132865652D01*
X176844881Y-132871861D01*
X176838747Y-132869568D01*
X176753459Y-132852798D01*
X176763183Y-132876739D01*
X176770363Y-132988170D01*
X176688322Y-133157654D01*
X176553936Y-133330225D01*
X176404083Y-133450921D01*
X176367143Y-133467020D01*
X175978178Y-133567856D01*
X175746834Y-133604909D01*
X175644057Y-133675648D01*
X175635049Y-133708945D01*
X175604491Y-133718562D01*
X175556334Y-133631334D01*
X175498990Y-133541664D01*
X175477618Y-133572830D01*
X175420000Y-133638837D01*
X175373984Y-133623289D01*
X175211716Y-133565954D01*
X175013024Y-133546259D01*
X174837534Y-133562432D01*
X174744875Y-133612698D01*
X174744385Y-133642018D01*
X174728754Y-133714056D01*
X174663022Y-133702630D01*
X174556945Y-133708702D01*
X174540334Y-133749275D01*
X174602943Y-133838614D01*
X174629997Y-133843000D01*
X174680563Y-133894870D01*
X174667334Y-133927667D01*
X174682658Y-134011003D01*
X174725837Y-134025229D01*
X174893239Y-134051783D01*
X174921334Y-134057797D01*
X175083645Y-134084278D01*
X175111834Y-134087234D01*
X175210422Y-134156063D01*
X175217667Y-134190725D01*
X175155828Y-134246667D01*
X175087462Y-134234486D01*
X174949499Y-134254643D01*
X174907203Y-134314960D01*
X174806995Y-134405285D01*
X174741075Y-134400857D01*
X174638900Y-134404863D01*
X174625000Y-134438324D01*
X174562312Y-134501331D01*
X174528103Y-134499167D01*
X174457065Y-134558937D01*
X174412280Y-134740122D01*
X174409141Y-134774334D01*
X174404229Y-134917551D01*
X174418754Y-134915525D01*
X174420680Y-134907515D01*
X174552239Y-134907515D01*
X174594136Y-135042494D01*
X174655212Y-135112945D01*
X174656750Y-135113000D01*
X174668341Y-135044465D01*
X174648654Y-134940309D01*
X174596723Y-134820325D01*
X174561454Y-134809657D01*
X174552239Y-134907515D01*
X174420680Y-134907515D01*
X174427260Y-134880167D01*
X174490519Y-134731551D01*
X174552270Y-134689667D01*
X174680063Y-134741647D01*
X174788966Y-134854890D01*
X174823239Y-134965350D01*
X174811468Y-134987495D01*
X174839495Y-135018770D01*
X174987901Y-135008461D01*
X175004390Y-135005577D01*
X175169026Y-134980989D01*
X175185727Y-135005822D01*
X175094041Y-135078669D01*
X174882216Y-135169237D01*
X174628839Y-135190542D01*
X174379500Y-135152746D01*
X174179790Y-135066008D01*
X174075300Y-134940489D01*
X174076895Y-134851981D01*
X174069367Y-134697686D01*
X174022696Y-134641377D01*
X173961191Y-134627918D01*
X173981915Y-134676585D01*
X174002030Y-134826168D01*
X173985596Y-134866126D01*
X173900192Y-134860946D01*
X173730617Y-134738794D01*
X173589921Y-134605000D01*
X174201667Y-134605000D01*
X174232645Y-134674690D01*
X174258111Y-134661445D01*
X174268244Y-134560965D01*
X174258111Y-134548556D01*
X174207777Y-134560178D01*
X174201667Y-134605000D01*
X173589921Y-134605000D01*
X173536099Y-134553819D01*
X173373444Y-134393334D01*
X174286334Y-134393334D01*
X174328667Y-134435667D01*
X174371000Y-134393334D01*
X174328667Y-134351000D01*
X174286334Y-134393334D01*
X173373444Y-134393334D01*
X173332365Y-134352804D01*
X173177077Y-134215567D01*
X173104306Y-134171958D01*
X173048256Y-134125230D01*
X173016334Y-134054667D01*
X172940238Y-133949264D01*
X172894119Y-133942568D01*
X172817867Y-133888995D01*
X172758248Y-133800667D01*
X173693667Y-133800667D01*
X173736000Y-133843000D01*
X173778334Y-133800667D01*
X173863000Y-133800667D01*
X173905334Y-133843000D01*
X173925584Y-133822750D01*
X174210123Y-133822750D01*
X174249959Y-133922087D01*
X174307500Y-133951519D01*
X174460048Y-133958898D01*
X174501489Y-133854525D01*
X174487296Y-133803301D01*
X174383708Y-133722843D01*
X174321660Y-133730405D01*
X174210123Y-133822750D01*
X173925584Y-133822750D01*
X173947667Y-133800667D01*
X173905334Y-133758334D01*
X173863000Y-133800667D01*
X173778334Y-133800667D01*
X173736000Y-133758334D01*
X173693667Y-133800667D01*
X172758248Y-133800667D01*
X172702977Y-133718781D01*
X172569943Y-133473958D01*
X172439257Y-133196560D01*
X172331415Y-132928618D01*
X172266910Y-132712166D01*
X172257315Y-132636500D01*
X172235186Y-132467392D01*
X172190834Y-132403662D01*
X172163262Y-132325333D01*
X172159482Y-132279265D01*
X175478978Y-132279265D01*
X175528111Y-132347222D01*
X175678231Y-132402015D01*
X175815027Y-132324316D01*
X175840951Y-132276667D01*
X175830406Y-132178573D01*
X175680676Y-132149667D01*
X175507617Y-132185199D01*
X175478978Y-132279265D01*
X172159482Y-132279265D01*
X172146008Y-132115059D01*
X172138922Y-131809906D01*
X172141853Y-131446940D01*
X172145712Y-131331222D01*
X175584556Y-131331222D01*
X175596178Y-131381557D01*
X175641000Y-131387667D01*
X175710690Y-131356689D01*
X175697445Y-131331222D01*
X175596965Y-131321089D01*
X175584556Y-131331222D01*
X172145712Y-131331222D01*
X172154650Y-131063225D01*
X172177163Y-130695827D01*
X172177578Y-130691427D01*
X173953241Y-130691427D01*
X173983553Y-130743797D01*
X174117000Y-130690685D01*
X174248917Y-130584200D01*
X174286334Y-130520634D01*
X174233770Y-130458817D01*
X174111732Y-130505016D01*
X174049267Y-130557934D01*
X173953241Y-130691427D01*
X172177578Y-130691427D01*
X172191767Y-130541000D01*
X173778334Y-130541000D01*
X173809312Y-130610690D01*
X173834778Y-130597445D01*
X173844911Y-130496965D01*
X173834778Y-130484556D01*
X173784444Y-130496178D01*
X173778334Y-130541000D01*
X172191767Y-130541000D01*
X172198699Y-130467521D01*
X172221736Y-130329334D01*
X173355000Y-130329334D01*
X173397334Y-130371667D01*
X173417576Y-130351425D01*
X174069055Y-130351425D01*
X174152278Y-130364983D01*
X174262092Y-130349416D01*
X174263403Y-130320514D01*
X174150086Y-130300303D01*
X174101125Y-130313830D01*
X174069055Y-130351425D01*
X173417576Y-130351425D01*
X173439667Y-130329334D01*
X173397334Y-130287000D01*
X173355000Y-130329334D01*
X172221736Y-130329334D01*
X172242908Y-130202334D01*
X173693667Y-130202334D01*
X173724645Y-130272024D01*
X173750111Y-130258778D01*
X173760072Y-130160000D01*
X174540334Y-130160000D01*
X174582667Y-130202334D01*
X174625000Y-130160000D01*
X174582667Y-130117667D01*
X174540334Y-130160000D01*
X173760072Y-130160000D01*
X173760244Y-130158298D01*
X173750111Y-130145889D01*
X173699777Y-130157511D01*
X173693667Y-130202334D01*
X172242908Y-130202334D01*
X172245136Y-130188974D01*
X172307942Y-129971072D01*
X172347282Y-129896021D01*
X172387774Y-129810852D01*
X172293535Y-129780731D01*
X172222367Y-129779000D01*
X172047831Y-129815581D01*
X171986255Y-129948597D01*
X171994013Y-130096500D01*
X171953964Y-130194134D01*
X171922036Y-130202334D01*
X171872268Y-130264245D01*
X171885049Y-130329334D01*
X171884156Y-130438218D01*
X171846131Y-130456334D01*
X171783051Y-130532029D01*
X171709026Y-130728308D01*
X171653750Y-130943167D01*
X171587418Y-131220756D01*
X171524707Y-131432756D01*
X171489668Y-131514667D01*
X171449075Y-131657332D01*
X171442667Y-131825633D01*
X171427476Y-131973584D01*
X171376662Y-132003505D01*
X171337729Y-132035277D01*
X171361692Y-132208731D01*
X171446359Y-132509223D01*
X171457520Y-132543968D01*
X171471638Y-132626285D01*
X171409759Y-132577340D01*
X171347999Y-132504614D01*
X171187901Y-132309228D01*
X170939757Y-133097281D01*
X170835574Y-133440207D01*
X170757162Y-133721676D01*
X170714794Y-133903449D01*
X170710973Y-133948834D01*
X170667284Y-134010083D01*
X170645667Y-134012334D01*
X170573614Y-134082242D01*
X170560479Y-134160500D01*
X170521885Y-134345048D01*
X170448286Y-134522636D01*
X170318337Y-134823111D01*
X170280197Y-135039257D01*
X170337155Y-135144590D01*
X170344672Y-135176757D01*
X170243500Y-135190983D01*
X170094736Y-135145464D01*
X170055780Y-134988912D01*
X170125616Y-134712806D01*
X170172292Y-134594173D01*
X170256573Y-134382101D01*
X170307154Y-134235635D01*
X170310072Y-134224000D01*
X170429782Y-133827162D01*
X170447442Y-133779500D01*
X170489395Y-133625609D01*
X170491600Y-133573307D01*
X170511062Y-133465186D01*
X170573691Y-133259112D01*
X170611589Y-133149974D01*
X170698041Y-132900014D01*
X170759690Y-132703776D01*
X170771808Y-132657667D01*
X170826108Y-132472632D01*
X170865897Y-132361334D01*
X170901225Y-132246512D01*
X170848733Y-132258394D01*
X170767352Y-132319000D01*
X170656219Y-132400382D01*
X170661479Y-132373141D01*
X170708432Y-132311210D01*
X170767588Y-132172020D01*
X170750766Y-132107136D01*
X170745054Y-132073819D01*
X170778910Y-132089533D01*
X170852968Y-132046993D01*
X170935783Y-131863278D01*
X170978362Y-131717708D01*
X171072698Y-131422685D01*
X171215367Y-131057473D01*
X171374285Y-130703696D01*
X171510634Y-130416950D01*
X171611976Y-130191291D01*
X171660049Y-130067713D01*
X171661667Y-130058595D01*
X171711649Y-129960721D01*
X171809834Y-129834810D01*
X171902857Y-129718057D01*
X171880362Y-129696566D01*
X171821092Y-129715333D01*
X171732177Y-129729578D01*
X171741159Y-129647368D01*
X171776007Y-129567334D01*
X176572334Y-129567334D01*
X176614667Y-129609667D01*
X176657000Y-129567334D01*
X176614667Y-129525000D01*
X176572334Y-129567334D01*
X171776007Y-129567334D01*
X171778759Y-129561016D01*
X171892914Y-129406854D01*
X172000334Y-129353635D01*
X172165099Y-129302401D01*
X172291682Y-129225974D01*
X172504984Y-129125576D01*
X172651516Y-129101667D01*
X172802763Y-129073606D01*
X172847000Y-129025467D01*
X172776084Y-128967120D01*
X172606211Y-128949709D01*
X172401691Y-128969255D01*
X172226835Y-129021781D01*
X172162640Y-129067800D01*
X172026047Y-129170231D01*
X171960755Y-129186334D01*
X171830430Y-129239729D01*
X171703463Y-129360904D01*
X171630026Y-129491337D01*
X171640315Y-129560093D01*
X171646102Y-129603185D01*
X171619334Y-129598304D01*
X171496215Y-129615629D01*
X171287072Y-129689362D01*
X171196000Y-129729172D01*
X170985664Y-129869182D01*
X170725686Y-130103112D01*
X170448442Y-130393786D01*
X170186309Y-130704032D01*
X169971664Y-130996675D01*
X169836884Y-131234542D01*
X169809617Y-131320972D01*
X169779879Y-131448317D01*
X169744086Y-131417827D01*
X169722129Y-131361614D01*
X169675899Y-131302862D01*
X169597216Y-131341596D01*
X169464819Y-131494954D01*
X169330512Y-131677289D01*
X169153191Y-131912949D01*
X169009942Y-132081873D01*
X168931517Y-132147824D01*
X168931167Y-132147841D01*
X168874706Y-132218523D01*
X168867667Y-132276667D01*
X168826348Y-132389402D01*
X168791283Y-132403667D01*
X168707733Y-132473179D01*
X168616959Y-132636500D01*
X168459425Y-132985286D01*
X168340337Y-133182470D01*
X168249691Y-133238703D01*
X168177483Y-133164638D01*
X168159716Y-133123334D01*
X168151482Y-133013989D01*
X168179400Y-132996334D01*
X168252052Y-132929214D01*
X168346324Y-132776001D01*
X168423750Y-132608918D01*
X168445864Y-132500186D01*
X168444931Y-132497800D01*
X168484294Y-132426325D01*
X168500602Y-132413133D01*
X168593317Y-132304668D01*
X168677884Y-132170834D01*
X168739556Y-132026765D01*
X168696382Y-131980868D01*
X168682869Y-131980334D01*
X168647864Y-131942845D01*
X168713510Y-131874500D01*
X168878767Y-131724181D01*
X169052806Y-131538843D01*
X169208649Y-131352188D01*
X169319320Y-131197915D01*
X169357842Y-131109723D01*
X169330040Y-131104313D01*
X169243885Y-131125869D01*
X169276462Y-131067035D01*
X169360968Y-130979032D01*
X169491146Y-130828872D01*
X169545000Y-130727232D01*
X169600914Y-130640943D01*
X169750702Y-130466547D01*
X169967430Y-130234592D01*
X170089573Y-130109512D01*
X170333879Y-129852802D01*
X170527961Y-129630065D01*
X170642828Y-129475438D01*
X170661073Y-129436625D01*
X170747287Y-129336425D01*
X170936470Y-129205830D01*
X171173604Y-129075378D01*
X171403668Y-128975610D01*
X171560830Y-128937214D01*
X171605649Y-128912375D01*
X176176766Y-128912375D01*
X176253207Y-129035718D01*
X176387514Y-129179323D01*
X176497994Y-129228667D01*
X176645599Y-129292261D01*
X176682374Y-129334500D01*
X176817509Y-129429528D01*
X176973675Y-129415915D01*
X177035772Y-129359273D01*
X177000453Y-129270086D01*
X176828074Y-129147390D01*
X176543605Y-129006873D01*
X176349288Y-128928007D01*
X176195593Y-128876403D01*
X176176766Y-128912375D01*
X171605649Y-128912375D01*
X171637410Y-128894773D01*
X171630546Y-128865810D01*
X171662067Y-128802914D01*
X171731383Y-128784959D01*
X171958002Y-128755716D01*
X172170926Y-128718696D01*
X172303430Y-128686006D01*
X172317834Y-128678556D01*
X172402500Y-128642422D01*
X172672848Y-128549207D01*
X172824813Y-128434082D01*
X172842974Y-128317843D01*
X172714162Y-128222142D01*
X172621035Y-128112167D01*
X172623860Y-128085667D01*
X173143334Y-128085667D01*
X173147204Y-128163810D01*
X173175673Y-128170334D01*
X173295365Y-128108548D01*
X173312667Y-128085667D01*
X173308797Y-128007523D01*
X173280327Y-128001000D01*
X173160636Y-128062786D01*
X173143334Y-128085667D01*
X172623860Y-128085667D01*
X172631652Y-128012600D01*
X172638062Y-127891163D01*
X172899864Y-127891163D01*
X173016334Y-127902965D01*
X173136529Y-127889660D01*
X173129002Y-127874250D01*
X173376839Y-127874250D01*
X173457549Y-127975459D01*
X173529330Y-128001000D01*
X173607415Y-127937134D01*
X173609000Y-127921330D01*
X173602883Y-127909707D01*
X175597164Y-127909707D01*
X175725667Y-127985975D01*
X175919467Y-128062427D01*
X175976982Y-128063857D01*
X175915759Y-127986020D01*
X175879125Y-127948839D01*
X175726222Y-127857139D01*
X175628149Y-127854515D01*
X175597164Y-127909707D01*
X173602883Y-127909707D01*
X173552755Y-127814465D01*
X173442309Y-127758206D01*
X173383222Y-127775222D01*
X173376839Y-127874250D01*
X173129002Y-127874250D01*
X173122167Y-127860260D01*
X172948825Y-127849078D01*
X172910500Y-127860260D01*
X172899864Y-127891163D01*
X172638062Y-127891163D01*
X172643455Y-127789019D01*
X172566874Y-127575222D01*
X172431758Y-127433288D01*
X172388902Y-127421492D01*
X172955880Y-127421492D01*
X172982088Y-127468951D01*
X173016334Y-127493000D01*
X173197075Y-127563201D01*
X173270334Y-127570420D01*
X173320964Y-127546245D01*
X173228000Y-127493000D01*
X173439667Y-127493000D01*
X173508243Y-127568115D01*
X173566667Y-127577667D01*
X173679339Y-127531949D01*
X173693667Y-127493000D01*
X173625090Y-127417886D01*
X173566667Y-127408334D01*
X173453995Y-127454051D01*
X173439667Y-127493000D01*
X173228000Y-127493000D01*
X173048496Y-127429508D01*
X172955880Y-127421492D01*
X172388902Y-127421492D01*
X172341096Y-127408334D01*
X172202353Y-127375072D01*
X172169667Y-127328071D01*
X172239032Y-127293534D01*
X172421868Y-127335726D01*
X172630825Y-127387963D01*
X172776075Y-127389642D01*
X172746475Y-127349280D01*
X172585233Y-127267579D01*
X172320981Y-127157849D01*
X172097801Y-127074283D01*
X171771232Y-126952128D01*
X171519127Y-126849371D01*
X171373784Y-126779679D01*
X171351812Y-126758633D01*
X171441663Y-126769506D01*
X171646893Y-126829968D01*
X171925381Y-126927419D01*
X171962507Y-126941296D01*
X172256423Y-127043879D01*
X172491822Y-127111286D01*
X172621582Y-127130197D01*
X172626620Y-127129016D01*
X172613924Y-127110125D01*
X174497276Y-127110125D01*
X174527536Y-127217816D01*
X174550149Y-127269064D01*
X174682727Y-127431145D01*
X174803011Y-127448996D01*
X174957544Y-127460074D01*
X175009217Y-127498204D01*
X175088265Y-127575043D01*
X175100660Y-127577667D01*
X175106335Y-127522911D01*
X175090612Y-127493000D01*
X175556334Y-127493000D01*
X175620763Y-127575207D01*
X175641000Y-127577667D01*
X175723207Y-127513238D01*
X175725667Y-127493000D01*
X175661238Y-127410794D01*
X175641000Y-127408334D01*
X175558794Y-127472763D01*
X175556334Y-127493000D01*
X175090612Y-127493000D01*
X175090297Y-127492402D01*
X175107086Y-127394459D01*
X175161616Y-127359548D01*
X175258308Y-127252610D01*
X175234660Y-127092768D01*
X175106466Y-126943750D01*
X175012859Y-126842538D01*
X175012961Y-126794595D01*
X175006402Y-126756815D01*
X174902658Y-126762221D01*
X174764919Y-126799643D01*
X174656775Y-126857555D01*
X174597145Y-127001409D01*
X174607664Y-127061944D01*
X174607983Y-127139400D01*
X174554079Y-127120495D01*
X174497276Y-127110125D01*
X172613924Y-127110125D01*
X172593102Y-127079146D01*
X172436500Y-126965326D01*
X172182387Y-126804691D01*
X171870499Y-126622378D01*
X171459979Y-126387882D01*
X171036324Y-126142159D01*
X170660739Y-125920872D01*
X170476334Y-125810048D01*
X170210270Y-125654901D01*
X170004842Y-125547822D01*
X169897587Y-125508070D01*
X169891241Y-125509873D01*
X169912840Y-125592093D01*
X170010752Y-125735648D01*
X170033830Y-125775613D01*
X169955482Y-125708768D01*
X169792340Y-125549695D01*
X169749177Y-125506255D01*
X169320167Y-125149614D01*
X168728589Y-124783803D01*
X168452156Y-124637655D01*
X168103522Y-124465557D01*
X167812364Y-124331681D01*
X167609889Y-124249704D01*
X167527878Y-124232567D01*
X167519909Y-124302433D01*
X167520056Y-124302545D01*
X167599675Y-124363436D01*
X167777906Y-124499836D01*
X168018906Y-124684314D01*
X168063334Y-124718326D01*
X168354287Y-124917739D01*
X168655608Y-125086520D01*
X168928426Y-125207045D01*
X169133873Y-125261689D01*
X169224814Y-125244964D01*
X169249409Y-125288533D01*
X169254714Y-125372458D01*
X169238328Y-125477713D01*
X169158792Y-125460006D01*
X169084685Y-125410760D01*
X168905452Y-125307468D01*
X168809112Y-125330463D01*
X168758086Y-125482167D01*
X168731068Y-125597281D01*
X168716824Y-125555621D01*
X168709864Y-125445539D01*
X168640822Y-125235641D01*
X168483032Y-125151409D01*
X168269353Y-125200677D01*
X168119630Y-125304842D01*
X167894000Y-125503334D01*
X168098945Y-125270834D01*
X168223347Y-125113687D01*
X168271345Y-125019622D01*
X168268278Y-125012146D01*
X168190358Y-124948708D01*
X168018415Y-124806100D01*
X167788172Y-124613961D01*
X167765206Y-124594745D01*
X167436066Y-124347517D01*
X167161988Y-124212198D01*
X166960873Y-124169165D01*
X166806307Y-124149889D01*
X166799746Y-124136419D01*
X166949405Y-124126182D01*
X167116055Y-124120566D01*
X167379829Y-124132692D01*
M02*
