G04 #@! TF.GenerationSoftware,KiCad,Pcbnew,5.1.4-3.fc30*
G04 #@! TF.CreationDate,2019-12-04T09:12:17+01:00*
G04 #@! TF.ProjectId,WattFred,57617474-4672-4656-942e-6b696361645f,rev?*
G04 #@! TF.SameCoordinates,Original*
G04 #@! TF.FileFunction,Soldermask,Top*
G04 #@! TF.FilePolarity,Negative*
%FSLAX46Y46*%
G04 Gerber Fmt 4.6, Leading zero omitted, Abs format (unit mm)*
G04 Created by KiCad (PCBNEW 5.1.4-3.fc30) date 2019-12-04 09:12:17*
%MOMM*%
%LPD*%
G04 APERTURE LIST*
%ADD10C,0.100000*%
G04 APERTURE END LIST*
D10*
G36*
X114490443Y-134075519D02*
G01*
X114556627Y-134082037D01*
X114726466Y-134133557D01*
X114882991Y-134217222D01*
X114918729Y-134246552D01*
X115020186Y-134329814D01*
X115103448Y-134431271D01*
X115132778Y-134467009D01*
X115216443Y-134623534D01*
X115267963Y-134793373D01*
X115285359Y-134970000D01*
X115267963Y-135146627D01*
X115216443Y-135316466D01*
X115132778Y-135472991D01*
X115103448Y-135508729D01*
X115020186Y-135610186D01*
X114918729Y-135693448D01*
X114882991Y-135722778D01*
X114726466Y-135806443D01*
X114556627Y-135857963D01*
X114490443Y-135864481D01*
X114424260Y-135871000D01*
X114335740Y-135871000D01*
X114269557Y-135864481D01*
X114203373Y-135857963D01*
X114033534Y-135806443D01*
X113877009Y-135722778D01*
X113841271Y-135693448D01*
X113739814Y-135610186D01*
X113656552Y-135508729D01*
X113627222Y-135472991D01*
X113543557Y-135316466D01*
X113492037Y-135146627D01*
X113474641Y-134970000D01*
X113492037Y-134793373D01*
X113543557Y-134623534D01*
X113627222Y-134467009D01*
X113656552Y-134431271D01*
X113739814Y-134329814D01*
X113841271Y-134246552D01*
X113877009Y-134217222D01*
X114033534Y-134133557D01*
X114203373Y-134082037D01*
X114269557Y-134075519D01*
X114335740Y-134069000D01*
X114424260Y-134069000D01*
X114490443Y-134075519D01*
X114490443Y-134075519D01*
G37*
G36*
X117030443Y-134075519D02*
G01*
X117096627Y-134082037D01*
X117266466Y-134133557D01*
X117422991Y-134217222D01*
X117458729Y-134246552D01*
X117560186Y-134329814D01*
X117643448Y-134431271D01*
X117672778Y-134467009D01*
X117756443Y-134623534D01*
X117807963Y-134793373D01*
X117825359Y-134970000D01*
X117807963Y-135146627D01*
X117756443Y-135316466D01*
X117672778Y-135472991D01*
X117643448Y-135508729D01*
X117560186Y-135610186D01*
X117458729Y-135693448D01*
X117422991Y-135722778D01*
X117266466Y-135806443D01*
X117096627Y-135857963D01*
X117030443Y-135864481D01*
X116964260Y-135871000D01*
X116875740Y-135871000D01*
X116809557Y-135864481D01*
X116743373Y-135857963D01*
X116573534Y-135806443D01*
X116417009Y-135722778D01*
X116381271Y-135693448D01*
X116279814Y-135610186D01*
X116196552Y-135508729D01*
X116167222Y-135472991D01*
X116083557Y-135316466D01*
X116032037Y-135146627D01*
X116014641Y-134970000D01*
X116032037Y-134793373D01*
X116083557Y-134623534D01*
X116167222Y-134467009D01*
X116196552Y-134431271D01*
X116279814Y-134329814D01*
X116381271Y-134246552D01*
X116417009Y-134217222D01*
X116573534Y-134133557D01*
X116743373Y-134082037D01*
X116809557Y-134075519D01*
X116875740Y-134069000D01*
X116964260Y-134069000D01*
X117030443Y-134075519D01*
X117030443Y-134075519D01*
G37*
G36*
X119570443Y-134075519D02*
G01*
X119636627Y-134082037D01*
X119806466Y-134133557D01*
X119962991Y-134217222D01*
X119998729Y-134246552D01*
X120100186Y-134329814D01*
X120183448Y-134431271D01*
X120212778Y-134467009D01*
X120296443Y-134623534D01*
X120347963Y-134793373D01*
X120365359Y-134970000D01*
X120347963Y-135146627D01*
X120296443Y-135316466D01*
X120212778Y-135472991D01*
X120183448Y-135508729D01*
X120100186Y-135610186D01*
X119998729Y-135693448D01*
X119962991Y-135722778D01*
X119806466Y-135806443D01*
X119636627Y-135857963D01*
X119570443Y-135864481D01*
X119504260Y-135871000D01*
X119415740Y-135871000D01*
X119349557Y-135864481D01*
X119283373Y-135857963D01*
X119113534Y-135806443D01*
X118957009Y-135722778D01*
X118921271Y-135693448D01*
X118819814Y-135610186D01*
X118736552Y-135508729D01*
X118707222Y-135472991D01*
X118623557Y-135316466D01*
X118572037Y-135146627D01*
X118554641Y-134970000D01*
X118572037Y-134793373D01*
X118623557Y-134623534D01*
X118707222Y-134467009D01*
X118736552Y-134431271D01*
X118819814Y-134329814D01*
X118921271Y-134246552D01*
X118957009Y-134217222D01*
X119113534Y-134133557D01*
X119283373Y-134082037D01*
X119349557Y-134075519D01*
X119415740Y-134069000D01*
X119504260Y-134069000D01*
X119570443Y-134075519D01*
X119570443Y-134075519D01*
G37*
G36*
X105121000Y-135871000D02*
G01*
X103319000Y-135871000D01*
X103319000Y-134069000D01*
X105121000Y-134069000D01*
X105121000Y-135871000D01*
X105121000Y-135871000D01*
G37*
G36*
X109410443Y-134075519D02*
G01*
X109476627Y-134082037D01*
X109646466Y-134133557D01*
X109802991Y-134217222D01*
X109838729Y-134246552D01*
X109940186Y-134329814D01*
X110023448Y-134431271D01*
X110052778Y-134467009D01*
X110136443Y-134623534D01*
X110187963Y-134793373D01*
X110205359Y-134970000D01*
X110187963Y-135146627D01*
X110136443Y-135316466D01*
X110052778Y-135472991D01*
X110023448Y-135508729D01*
X109940186Y-135610186D01*
X109838729Y-135693448D01*
X109802991Y-135722778D01*
X109646466Y-135806443D01*
X109476627Y-135857963D01*
X109410443Y-135864481D01*
X109344260Y-135871000D01*
X109255740Y-135871000D01*
X109189557Y-135864481D01*
X109123373Y-135857963D01*
X108953534Y-135806443D01*
X108797009Y-135722778D01*
X108761271Y-135693448D01*
X108659814Y-135610186D01*
X108576552Y-135508729D01*
X108547222Y-135472991D01*
X108463557Y-135316466D01*
X108412037Y-135146627D01*
X108394641Y-134970000D01*
X108412037Y-134793373D01*
X108463557Y-134623534D01*
X108547222Y-134467009D01*
X108576552Y-134431271D01*
X108659814Y-134329814D01*
X108761271Y-134246552D01*
X108797009Y-134217222D01*
X108953534Y-134133557D01*
X109123373Y-134082037D01*
X109189557Y-134075519D01*
X109255740Y-134069000D01*
X109344260Y-134069000D01*
X109410443Y-134075519D01*
X109410443Y-134075519D01*
G37*
G36*
X106870443Y-134075519D02*
G01*
X106936627Y-134082037D01*
X107106466Y-134133557D01*
X107262991Y-134217222D01*
X107298729Y-134246552D01*
X107400186Y-134329814D01*
X107483448Y-134431271D01*
X107512778Y-134467009D01*
X107596443Y-134623534D01*
X107647963Y-134793373D01*
X107665359Y-134970000D01*
X107647963Y-135146627D01*
X107596443Y-135316466D01*
X107512778Y-135472991D01*
X107483448Y-135508729D01*
X107400186Y-135610186D01*
X107298729Y-135693448D01*
X107262991Y-135722778D01*
X107106466Y-135806443D01*
X106936627Y-135857963D01*
X106870443Y-135864481D01*
X106804260Y-135871000D01*
X106715740Y-135871000D01*
X106649557Y-135864481D01*
X106583373Y-135857963D01*
X106413534Y-135806443D01*
X106257009Y-135722778D01*
X106221271Y-135693448D01*
X106119814Y-135610186D01*
X106036552Y-135508729D01*
X106007222Y-135472991D01*
X105923557Y-135316466D01*
X105872037Y-135146627D01*
X105854641Y-134970000D01*
X105872037Y-134793373D01*
X105923557Y-134623534D01*
X106007222Y-134467009D01*
X106036552Y-134431271D01*
X106119814Y-134329814D01*
X106221271Y-134246552D01*
X106257009Y-134217222D01*
X106413534Y-134133557D01*
X106583373Y-134082037D01*
X106649557Y-134075519D01*
X106715740Y-134069000D01*
X106804260Y-134069000D01*
X106870443Y-134075519D01*
X106870443Y-134075519D01*
G37*
G36*
X111950443Y-134075519D02*
G01*
X112016627Y-134082037D01*
X112186466Y-134133557D01*
X112342991Y-134217222D01*
X112378729Y-134246552D01*
X112480186Y-134329814D01*
X112563448Y-134431271D01*
X112592778Y-134467009D01*
X112676443Y-134623534D01*
X112727963Y-134793373D01*
X112745359Y-134970000D01*
X112727963Y-135146627D01*
X112676443Y-135316466D01*
X112592778Y-135472991D01*
X112563448Y-135508729D01*
X112480186Y-135610186D01*
X112378729Y-135693448D01*
X112342991Y-135722778D01*
X112186466Y-135806443D01*
X112016627Y-135857963D01*
X111950443Y-135864481D01*
X111884260Y-135871000D01*
X111795740Y-135871000D01*
X111729557Y-135864481D01*
X111663373Y-135857963D01*
X111493534Y-135806443D01*
X111337009Y-135722778D01*
X111301271Y-135693448D01*
X111199814Y-135610186D01*
X111116552Y-135508729D01*
X111087222Y-135472991D01*
X111003557Y-135316466D01*
X110952037Y-135146627D01*
X110934641Y-134970000D01*
X110952037Y-134793373D01*
X111003557Y-134623534D01*
X111087222Y-134467009D01*
X111116552Y-134431271D01*
X111199814Y-134329814D01*
X111301271Y-134246552D01*
X111337009Y-134217222D01*
X111493534Y-134133557D01*
X111663373Y-134082037D01*
X111729557Y-134075519D01*
X111795740Y-134069000D01*
X111884260Y-134069000D01*
X111950443Y-134075519D01*
X111950443Y-134075519D01*
G37*
G36*
X81984239Y-128941467D02*
G01*
X82298282Y-129003934D01*
X82889926Y-129249001D01*
X83422392Y-129604784D01*
X83875216Y-130057608D01*
X84230999Y-130590074D01*
X84476066Y-131181718D01*
X84601000Y-131809804D01*
X84601000Y-132450196D01*
X84476066Y-133078282D01*
X84230999Y-133669926D01*
X83964346Y-134069000D01*
X83921210Y-134133558D01*
X83875216Y-134202392D01*
X83422392Y-134655216D01*
X82889926Y-135010999D01*
X82298282Y-135256066D01*
X81994620Y-135316468D01*
X81670197Y-135381000D01*
X81029803Y-135381000D01*
X80705380Y-135316468D01*
X80401718Y-135256066D01*
X79810074Y-135010999D01*
X79277608Y-134655216D01*
X78824784Y-134202392D01*
X78778791Y-134133558D01*
X78735654Y-134069000D01*
X78469001Y-133669926D01*
X78223934Y-133078282D01*
X78099000Y-132450196D01*
X78099000Y-131809804D01*
X78223934Y-131181718D01*
X78469001Y-130590074D01*
X78824784Y-130057608D01*
X79277608Y-129604784D01*
X79810074Y-129249001D01*
X80401718Y-129003934D01*
X80715761Y-128941467D01*
X81029803Y-128879000D01*
X81670197Y-128879000D01*
X81984239Y-128941467D01*
X81984239Y-128941467D01*
G37*
G36*
X140844239Y-128941467D02*
G01*
X141158282Y-129003934D01*
X141749926Y-129249001D01*
X142282392Y-129604784D01*
X142735216Y-130057608D01*
X143090999Y-130590074D01*
X143336066Y-131181718D01*
X143461000Y-131809804D01*
X143461000Y-132450196D01*
X143336066Y-133078282D01*
X143090999Y-133669926D01*
X142824346Y-134069000D01*
X142781210Y-134133558D01*
X142735216Y-134202392D01*
X142282392Y-134655216D01*
X141749926Y-135010999D01*
X141158282Y-135256066D01*
X140854620Y-135316468D01*
X140530197Y-135381000D01*
X139889803Y-135381000D01*
X139565380Y-135316468D01*
X139261718Y-135256066D01*
X138670074Y-135010999D01*
X138137608Y-134655216D01*
X137684784Y-134202392D01*
X137638791Y-134133558D01*
X137595654Y-134069000D01*
X137329001Y-133669926D01*
X137083934Y-133078282D01*
X136959000Y-132450196D01*
X136959000Y-131809804D01*
X137083934Y-131181718D01*
X137329001Y-130590074D01*
X137684784Y-130057608D01*
X138137608Y-129604784D01*
X138670074Y-129249001D01*
X139261718Y-129003934D01*
X139575761Y-128941467D01*
X139889803Y-128879000D01*
X140530197Y-128879000D01*
X140844239Y-128941467D01*
X140844239Y-128941467D01*
G37*
G36*
X157994795Y-130220156D02*
G01*
X158101150Y-130241311D01*
X158201334Y-130282809D01*
X158301520Y-130324307D01*
X158481844Y-130444795D01*
X158635205Y-130598156D01*
X158755693Y-130778480D01*
X158838689Y-130978851D01*
X158881000Y-131191560D01*
X158881000Y-131408440D01*
X158838689Y-131621149D01*
X158755693Y-131821520D01*
X158635205Y-132001844D01*
X158481844Y-132155205D01*
X158301520Y-132275693D01*
X158101150Y-132358689D01*
X157994795Y-132379844D01*
X157888440Y-132401000D01*
X157671560Y-132401000D01*
X157565205Y-132379844D01*
X157458850Y-132358689D01*
X157258480Y-132275693D01*
X157078156Y-132155205D01*
X156924795Y-132001844D01*
X156804307Y-131821520D01*
X156721311Y-131621149D01*
X156679000Y-131408440D01*
X156679000Y-131191560D01*
X156721311Y-130978851D01*
X156804307Y-130778480D01*
X156924795Y-130598156D01*
X157078156Y-130444795D01*
X157258480Y-130324307D01*
X157358666Y-130282809D01*
X157458850Y-130241311D01*
X157565205Y-130220156D01*
X157671560Y-130199000D01*
X157888440Y-130199000D01*
X157994795Y-130220156D01*
X157994795Y-130220156D01*
G37*
G36*
X168154795Y-130220156D02*
G01*
X168261150Y-130241311D01*
X168361334Y-130282809D01*
X168461520Y-130324307D01*
X168641844Y-130444795D01*
X168795205Y-130598156D01*
X168915693Y-130778480D01*
X168998689Y-130978851D01*
X169041000Y-131191560D01*
X169041000Y-131408440D01*
X168998689Y-131621149D01*
X168915693Y-131821520D01*
X168795205Y-132001844D01*
X168641844Y-132155205D01*
X168461520Y-132275693D01*
X168261150Y-132358689D01*
X168154795Y-132379844D01*
X168048440Y-132401000D01*
X167831560Y-132401000D01*
X167725205Y-132379844D01*
X167618850Y-132358689D01*
X167418480Y-132275693D01*
X167238156Y-132155205D01*
X167084795Y-132001844D01*
X166964307Y-131821520D01*
X166881311Y-131621149D01*
X166839000Y-131408440D01*
X166839000Y-131191560D01*
X166881311Y-130978851D01*
X166964307Y-130778480D01*
X167084795Y-130598156D01*
X167238156Y-130444795D01*
X167418480Y-130324307D01*
X167518666Y-130282809D01*
X167618850Y-130241311D01*
X167725205Y-130220156D01*
X167831560Y-130199000D01*
X168048440Y-130199000D01*
X168154795Y-130220156D01*
X168154795Y-130220156D01*
G37*
G36*
X96129468Y-124898565D02*
G01*
X96168138Y-124910296D01*
X96203777Y-124929346D01*
X96235017Y-124954983D01*
X96260654Y-124986223D01*
X96279704Y-125021862D01*
X96291435Y-125060532D01*
X96296000Y-125106888D01*
X96296000Y-126183112D01*
X96291435Y-126229468D01*
X96279704Y-126268138D01*
X96260654Y-126303777D01*
X96235017Y-126335017D01*
X96203777Y-126360654D01*
X96168138Y-126379704D01*
X96129468Y-126391435D01*
X96083112Y-126396000D01*
X95431888Y-126396000D01*
X95385532Y-126391435D01*
X95346862Y-126379704D01*
X95311223Y-126360654D01*
X95279983Y-126335017D01*
X95254346Y-126303777D01*
X95235296Y-126268138D01*
X95223565Y-126229468D01*
X95219000Y-126183112D01*
X95219000Y-125106888D01*
X95223565Y-125060532D01*
X95235296Y-125021862D01*
X95254346Y-124986223D01*
X95279983Y-124954983D01*
X95311223Y-124929346D01*
X95346862Y-124910296D01*
X95385532Y-124898565D01*
X95431888Y-124894000D01*
X96083112Y-124894000D01*
X96129468Y-124898565D01*
X96129468Y-124898565D01*
G37*
G36*
X94254468Y-124898565D02*
G01*
X94293138Y-124910296D01*
X94328777Y-124929346D01*
X94360017Y-124954983D01*
X94385654Y-124986223D01*
X94404704Y-125021862D01*
X94416435Y-125060532D01*
X94421000Y-125106888D01*
X94421000Y-126183112D01*
X94416435Y-126229468D01*
X94404704Y-126268138D01*
X94385654Y-126303777D01*
X94360017Y-126335017D01*
X94328777Y-126360654D01*
X94293138Y-126379704D01*
X94254468Y-126391435D01*
X94208112Y-126396000D01*
X93556888Y-126396000D01*
X93510532Y-126391435D01*
X93471862Y-126379704D01*
X93436223Y-126360654D01*
X93404983Y-126335017D01*
X93379346Y-126303777D01*
X93360296Y-126268138D01*
X93348565Y-126229468D01*
X93344000Y-126183112D01*
X93344000Y-125106888D01*
X93348565Y-125060532D01*
X93360296Y-125021862D01*
X93379346Y-124986223D01*
X93404983Y-124954983D01*
X93436223Y-124929346D01*
X93471862Y-124910296D01*
X93510532Y-124898565D01*
X93556888Y-124894000D01*
X94208112Y-124894000D01*
X94254468Y-124898565D01*
X94254468Y-124898565D01*
G37*
G36*
X100014468Y-123921065D02*
G01*
X100053138Y-123932796D01*
X100088777Y-123951846D01*
X100120017Y-123977483D01*
X100145654Y-124008723D01*
X100164704Y-124044362D01*
X100176435Y-124083032D01*
X100181000Y-124129388D01*
X100181000Y-124780612D01*
X100176435Y-124826968D01*
X100164704Y-124865638D01*
X100145654Y-124901277D01*
X100120017Y-124932517D01*
X100088777Y-124958154D01*
X100053138Y-124977204D01*
X100014468Y-124988935D01*
X99968112Y-124993500D01*
X98891888Y-124993500D01*
X98845532Y-124988935D01*
X98806862Y-124977204D01*
X98771223Y-124958154D01*
X98739983Y-124932517D01*
X98714346Y-124901277D01*
X98695296Y-124865638D01*
X98683565Y-124826968D01*
X98679000Y-124780612D01*
X98679000Y-124129388D01*
X98683565Y-124083032D01*
X98695296Y-124044362D01*
X98714346Y-124008723D01*
X98739983Y-123977483D01*
X98771223Y-123951846D01*
X98806862Y-123932796D01*
X98845532Y-123921065D01*
X98891888Y-123916500D01*
X99968112Y-123916500D01*
X100014468Y-123921065D01*
X100014468Y-123921065D01*
G37*
G36*
X94254468Y-121898565D02*
G01*
X94293138Y-121910296D01*
X94328777Y-121929346D01*
X94360017Y-121954983D01*
X94385654Y-121986223D01*
X94404704Y-122021862D01*
X94416435Y-122060532D01*
X94421000Y-122106888D01*
X94421000Y-123183112D01*
X94416435Y-123229468D01*
X94404704Y-123268138D01*
X94385654Y-123303777D01*
X94360017Y-123335017D01*
X94328777Y-123360654D01*
X94293138Y-123379704D01*
X94254468Y-123391435D01*
X94208112Y-123396000D01*
X93556888Y-123396000D01*
X93510532Y-123391435D01*
X93471862Y-123379704D01*
X93436223Y-123360654D01*
X93404983Y-123335017D01*
X93379346Y-123303777D01*
X93360296Y-123268138D01*
X93348565Y-123229468D01*
X93344000Y-123183112D01*
X93344000Y-122106888D01*
X93348565Y-122060532D01*
X93360296Y-122021862D01*
X93379346Y-121986223D01*
X93404983Y-121954983D01*
X93436223Y-121929346D01*
X93471862Y-121910296D01*
X93510532Y-121898565D01*
X93556888Y-121894000D01*
X94208112Y-121894000D01*
X94254468Y-121898565D01*
X94254468Y-121898565D01*
G37*
G36*
X96129468Y-121898565D02*
G01*
X96168138Y-121910296D01*
X96203777Y-121929346D01*
X96235017Y-121954983D01*
X96260654Y-121986223D01*
X96279704Y-122021862D01*
X96291435Y-122060532D01*
X96296000Y-122106888D01*
X96296000Y-123183112D01*
X96291435Y-123229468D01*
X96279704Y-123268138D01*
X96260654Y-123303777D01*
X96235017Y-123335017D01*
X96203777Y-123360654D01*
X96168138Y-123379704D01*
X96129468Y-123391435D01*
X96083112Y-123396000D01*
X95431888Y-123396000D01*
X95385532Y-123391435D01*
X95346862Y-123379704D01*
X95311223Y-123360654D01*
X95279983Y-123335017D01*
X95254346Y-123303777D01*
X95235296Y-123268138D01*
X95223565Y-123229468D01*
X95219000Y-123183112D01*
X95219000Y-122106888D01*
X95223565Y-122060532D01*
X95235296Y-122021862D01*
X95254346Y-121986223D01*
X95279983Y-121954983D01*
X95311223Y-121929346D01*
X95346862Y-121910296D01*
X95385532Y-121898565D01*
X95431888Y-121894000D01*
X96083112Y-121894000D01*
X96129468Y-121898565D01*
X96129468Y-121898565D01*
G37*
G36*
X100014468Y-122046065D02*
G01*
X100053138Y-122057796D01*
X100088777Y-122076846D01*
X100120017Y-122102483D01*
X100145654Y-122133723D01*
X100164704Y-122169362D01*
X100176435Y-122208032D01*
X100181000Y-122254388D01*
X100181000Y-122905612D01*
X100176435Y-122951968D01*
X100164704Y-122990638D01*
X100145654Y-123026277D01*
X100120017Y-123057517D01*
X100088777Y-123083154D01*
X100053138Y-123102204D01*
X100014468Y-123113935D01*
X99968112Y-123118500D01*
X98891888Y-123118500D01*
X98845532Y-123113935D01*
X98806862Y-123102204D01*
X98771223Y-123083154D01*
X98739983Y-123057517D01*
X98714346Y-123026277D01*
X98695296Y-122990638D01*
X98683565Y-122951968D01*
X98679000Y-122905612D01*
X98679000Y-122254388D01*
X98683565Y-122208032D01*
X98695296Y-122169362D01*
X98714346Y-122133723D01*
X98739983Y-122102483D01*
X98771223Y-122076846D01*
X98806862Y-122057796D01*
X98845532Y-122046065D01*
X98891888Y-122041500D01*
X99968112Y-122041500D01*
X100014468Y-122046065D01*
X100014468Y-122046065D01*
G37*
G36*
X157994794Y-120060155D02*
G01*
X158101150Y-120081311D01*
X158301520Y-120164307D01*
X158481844Y-120284795D01*
X158635205Y-120438156D01*
X158755693Y-120618480D01*
X158838689Y-120818851D01*
X158881000Y-121031560D01*
X158881000Y-121248440D01*
X158838689Y-121461149D01*
X158755693Y-121661520D01*
X158635205Y-121841844D01*
X158481844Y-121995205D01*
X158301520Y-122115693D01*
X158201334Y-122157191D01*
X158101150Y-122198689D01*
X157994795Y-122219844D01*
X157888440Y-122241000D01*
X157671560Y-122241000D01*
X157565205Y-122219844D01*
X157458850Y-122198689D01*
X157358666Y-122157191D01*
X157258480Y-122115693D01*
X157078156Y-121995205D01*
X156924795Y-121841844D01*
X156804307Y-121661520D01*
X156721311Y-121461149D01*
X156679000Y-121248440D01*
X156679000Y-121031560D01*
X156721311Y-120818851D01*
X156804307Y-120618480D01*
X156924795Y-120438156D01*
X157078156Y-120284795D01*
X157258480Y-120164307D01*
X157458850Y-120081311D01*
X157565206Y-120060155D01*
X157671560Y-120039000D01*
X157888440Y-120039000D01*
X157994794Y-120060155D01*
X157994794Y-120060155D01*
G37*
G36*
X168154794Y-120060155D02*
G01*
X168261150Y-120081311D01*
X168461520Y-120164307D01*
X168641844Y-120284795D01*
X168795205Y-120438156D01*
X168915693Y-120618480D01*
X168998689Y-120818851D01*
X169041000Y-121031560D01*
X169041000Y-121248440D01*
X168998689Y-121461149D01*
X168915693Y-121661520D01*
X168795205Y-121841844D01*
X168641844Y-121995205D01*
X168461520Y-122115693D01*
X168361334Y-122157191D01*
X168261150Y-122198689D01*
X168154795Y-122219844D01*
X168048440Y-122241000D01*
X167831560Y-122241000D01*
X167725205Y-122219844D01*
X167618850Y-122198689D01*
X167518666Y-122157191D01*
X167418480Y-122115693D01*
X167238156Y-121995205D01*
X167084795Y-121841844D01*
X166964307Y-121661520D01*
X166881311Y-121461149D01*
X166839000Y-121248440D01*
X166839000Y-121031560D01*
X166881311Y-120818851D01*
X166964307Y-120618480D01*
X167084795Y-120438156D01*
X167238156Y-120284795D01*
X167418480Y-120164307D01*
X167618850Y-120081311D01*
X167725206Y-120060155D01*
X167831560Y-120039000D01*
X168048440Y-120039000D01*
X168154794Y-120060155D01*
X168154794Y-120060155D01*
G37*
G36*
X94646000Y-117169001D02*
G01*
X94648402Y-117193387D01*
X94655515Y-117216836D01*
X94667066Y-117238447D01*
X94682611Y-117257389D01*
X94701553Y-117272934D01*
X94723164Y-117284485D01*
X94746613Y-117291598D01*
X94770999Y-117294000D01*
X95371000Y-117294000D01*
X95371000Y-118996000D01*
X94770999Y-118996000D01*
X94746613Y-118998402D01*
X94723164Y-119005515D01*
X94701553Y-119017066D01*
X94682611Y-119032611D01*
X94667066Y-119051553D01*
X94655515Y-119073164D01*
X94648402Y-119096613D01*
X94646000Y-119120999D01*
X94646000Y-119446000D01*
X94244000Y-119446000D01*
X94244000Y-119120999D01*
X94241598Y-119096613D01*
X94234485Y-119073164D01*
X94222934Y-119051553D01*
X94207389Y-119032611D01*
X94188447Y-119017066D01*
X94166836Y-119005515D01*
X94143387Y-118998402D01*
X94119001Y-118996000D01*
X93519000Y-118996000D01*
X93519000Y-117570999D01*
X94121000Y-117570999D01*
X94121000Y-118719001D01*
X94123402Y-118743387D01*
X94130515Y-118766836D01*
X94142066Y-118788447D01*
X94157611Y-118807389D01*
X94176553Y-118822934D01*
X94198164Y-118834485D01*
X94221613Y-118841598D01*
X94245999Y-118844000D01*
X94644001Y-118844000D01*
X94668387Y-118841598D01*
X94691836Y-118834485D01*
X94713447Y-118822934D01*
X94732389Y-118807389D01*
X94747934Y-118788447D01*
X94759485Y-118766836D01*
X94766598Y-118743387D01*
X94769000Y-118719001D01*
X94769000Y-117570999D01*
X94766598Y-117546613D01*
X94759485Y-117523164D01*
X94747934Y-117501553D01*
X94732389Y-117482611D01*
X94713447Y-117467066D01*
X94691836Y-117455515D01*
X94668387Y-117448402D01*
X94644001Y-117446000D01*
X94245999Y-117446000D01*
X94221613Y-117448402D01*
X94198164Y-117455515D01*
X94176553Y-117467066D01*
X94157611Y-117482611D01*
X94142066Y-117501553D01*
X94130515Y-117523164D01*
X94123402Y-117546613D01*
X94121000Y-117570999D01*
X93519000Y-117570999D01*
X93519000Y-117294000D01*
X94119001Y-117294000D01*
X94143387Y-117291598D01*
X94166836Y-117284485D01*
X94188447Y-117272934D01*
X94207389Y-117257389D01*
X94222934Y-117238447D01*
X94234485Y-117216836D01*
X94241598Y-117193387D01*
X94244000Y-117169001D01*
X94244000Y-116844000D01*
X94646000Y-116844000D01*
X94646000Y-117169001D01*
X94646000Y-117169001D01*
G37*
G36*
X101134468Y-110996065D02*
G01*
X101173138Y-111007796D01*
X101208777Y-111026846D01*
X101240017Y-111052483D01*
X101265654Y-111083723D01*
X101284704Y-111119362D01*
X101296435Y-111158032D01*
X101301000Y-111204388D01*
X101301000Y-111855612D01*
X101296435Y-111901968D01*
X101284704Y-111940638D01*
X101265654Y-111976277D01*
X101240017Y-112007517D01*
X101208777Y-112033154D01*
X101173138Y-112052204D01*
X101134468Y-112063935D01*
X101088112Y-112068500D01*
X100011888Y-112068500D01*
X99965532Y-112063935D01*
X99926862Y-112052204D01*
X99891223Y-112033154D01*
X99859983Y-112007517D01*
X99834346Y-111976277D01*
X99815296Y-111940638D01*
X99803565Y-111901968D01*
X99799000Y-111855612D01*
X99799000Y-111204388D01*
X99803565Y-111158032D01*
X99815296Y-111119362D01*
X99834346Y-111083723D01*
X99859983Y-111052483D01*
X99891223Y-111026846D01*
X99926862Y-111007796D01*
X99965532Y-110996065D01*
X100011888Y-110991500D01*
X101088112Y-110991500D01*
X101134468Y-110996065D01*
X101134468Y-110996065D01*
G37*
G36*
X98854468Y-110981065D02*
G01*
X98893138Y-110992796D01*
X98928777Y-111011846D01*
X98960017Y-111037483D01*
X98985654Y-111068723D01*
X99004704Y-111104362D01*
X99016435Y-111143032D01*
X99021000Y-111189388D01*
X99021000Y-111840612D01*
X99016435Y-111886968D01*
X99004704Y-111925638D01*
X98985654Y-111961277D01*
X98960017Y-111992517D01*
X98928777Y-112018154D01*
X98893138Y-112037204D01*
X98854468Y-112048935D01*
X98808112Y-112053500D01*
X97731888Y-112053500D01*
X97685532Y-112048935D01*
X97646862Y-112037204D01*
X97611223Y-112018154D01*
X97579983Y-111992517D01*
X97554346Y-111961277D01*
X97535296Y-111925638D01*
X97523565Y-111886968D01*
X97519000Y-111840612D01*
X97519000Y-111189388D01*
X97523565Y-111143032D01*
X97535296Y-111104362D01*
X97554346Y-111068723D01*
X97579983Y-111037483D01*
X97611223Y-111011846D01*
X97646862Y-110992796D01*
X97685532Y-110981065D01*
X97731888Y-110976500D01*
X98808112Y-110976500D01*
X98854468Y-110981065D01*
X98854468Y-110981065D01*
G37*
G36*
X101134468Y-109121065D02*
G01*
X101173138Y-109132796D01*
X101208777Y-109151846D01*
X101240017Y-109177483D01*
X101265654Y-109208723D01*
X101284704Y-109244362D01*
X101296435Y-109283032D01*
X101301000Y-109329388D01*
X101301000Y-109980612D01*
X101296435Y-110026968D01*
X101284704Y-110065638D01*
X101265654Y-110101277D01*
X101240017Y-110132517D01*
X101208777Y-110158154D01*
X101173138Y-110177204D01*
X101134468Y-110188935D01*
X101088112Y-110193500D01*
X100011888Y-110193500D01*
X99965532Y-110188935D01*
X99926862Y-110177204D01*
X99891223Y-110158154D01*
X99859983Y-110132517D01*
X99834346Y-110101277D01*
X99815296Y-110065638D01*
X99803565Y-110026968D01*
X99799000Y-109980612D01*
X99799000Y-109329388D01*
X99803565Y-109283032D01*
X99815296Y-109244362D01*
X99834346Y-109208723D01*
X99859983Y-109177483D01*
X99891223Y-109151846D01*
X99926862Y-109132796D01*
X99965532Y-109121065D01*
X100011888Y-109116500D01*
X101088112Y-109116500D01*
X101134468Y-109121065D01*
X101134468Y-109121065D01*
G37*
G36*
X98854468Y-109106065D02*
G01*
X98893138Y-109117796D01*
X98928777Y-109136846D01*
X98960017Y-109162483D01*
X98985654Y-109193723D01*
X99004704Y-109229362D01*
X99016435Y-109268032D01*
X99021000Y-109314388D01*
X99021000Y-109965612D01*
X99016435Y-110011968D01*
X99004704Y-110050638D01*
X98985654Y-110086277D01*
X98960017Y-110117517D01*
X98928777Y-110143154D01*
X98893138Y-110162204D01*
X98854468Y-110173935D01*
X98808112Y-110178500D01*
X97731888Y-110178500D01*
X97685532Y-110173935D01*
X97646862Y-110162204D01*
X97611223Y-110143154D01*
X97579983Y-110117517D01*
X97554346Y-110086277D01*
X97535296Y-110050638D01*
X97523565Y-110011968D01*
X97519000Y-109965612D01*
X97519000Y-109314388D01*
X97523565Y-109268032D01*
X97535296Y-109229362D01*
X97554346Y-109193723D01*
X97579983Y-109162483D01*
X97611223Y-109136846D01*
X97646862Y-109117796D01*
X97685532Y-109106065D01*
X97731888Y-109101500D01*
X98808112Y-109101500D01*
X98854468Y-109106065D01*
X98854468Y-109106065D01*
G37*
G36*
X115134468Y-107758565D02*
G01*
X115173138Y-107770296D01*
X115208777Y-107789346D01*
X115240017Y-107814983D01*
X115265654Y-107846223D01*
X115284704Y-107881862D01*
X115296435Y-107920532D01*
X115301000Y-107966888D01*
X115301000Y-108618112D01*
X115296435Y-108664468D01*
X115284704Y-108703138D01*
X115265654Y-108738777D01*
X115240017Y-108770017D01*
X115208777Y-108795654D01*
X115173138Y-108814704D01*
X115134468Y-108826435D01*
X115088112Y-108831000D01*
X114011888Y-108831000D01*
X113965532Y-108826435D01*
X113926862Y-108814704D01*
X113891223Y-108795654D01*
X113859983Y-108770017D01*
X113834346Y-108738777D01*
X113815296Y-108703138D01*
X113803565Y-108664468D01*
X113799000Y-108618112D01*
X113799000Y-107966888D01*
X113803565Y-107920532D01*
X113815296Y-107881862D01*
X113834346Y-107846223D01*
X113859983Y-107814983D01*
X113891223Y-107789346D01*
X113926862Y-107770296D01*
X113965532Y-107758565D01*
X114011888Y-107754000D01*
X115088112Y-107754000D01*
X115134468Y-107758565D01*
X115134468Y-107758565D01*
G37*
G36*
X118134468Y-107758565D02*
G01*
X118173138Y-107770296D01*
X118208777Y-107789346D01*
X118240017Y-107814983D01*
X118265654Y-107846223D01*
X118284704Y-107881862D01*
X118296435Y-107920532D01*
X118301000Y-107966888D01*
X118301000Y-108618112D01*
X118296435Y-108664468D01*
X118284704Y-108703138D01*
X118265654Y-108738777D01*
X118240017Y-108770017D01*
X118208777Y-108795654D01*
X118173138Y-108814704D01*
X118134468Y-108826435D01*
X118088112Y-108831000D01*
X117011888Y-108831000D01*
X116965532Y-108826435D01*
X116926862Y-108814704D01*
X116891223Y-108795654D01*
X116859983Y-108770017D01*
X116834346Y-108738777D01*
X116815296Y-108703138D01*
X116803565Y-108664468D01*
X116799000Y-108618112D01*
X116799000Y-107966888D01*
X116803565Y-107920532D01*
X116815296Y-107881862D01*
X116834346Y-107846223D01*
X116859983Y-107814983D01*
X116891223Y-107789346D01*
X116926862Y-107770296D01*
X116965532Y-107758565D01*
X117011888Y-107754000D01*
X118088112Y-107754000D01*
X118134468Y-107758565D01*
X118134468Y-107758565D01*
G37*
G36*
X99481000Y-107871000D02*
G01*
X98779000Y-107871000D01*
X98779000Y-106669000D01*
X99481000Y-106669000D01*
X99481000Y-107871000D01*
X99481000Y-107871000D01*
G37*
G36*
X100881000Y-107871000D02*
G01*
X100179000Y-107871000D01*
X100179000Y-106669000D01*
X100881000Y-106669000D01*
X100881000Y-107871000D01*
X100881000Y-107871000D01*
G37*
G36*
X118134468Y-105883565D02*
G01*
X118173138Y-105895296D01*
X118208777Y-105914346D01*
X118240017Y-105939983D01*
X118265654Y-105971223D01*
X118284704Y-106006862D01*
X118296435Y-106045532D01*
X118301000Y-106091888D01*
X118301000Y-106743112D01*
X118296435Y-106789468D01*
X118284704Y-106828138D01*
X118265654Y-106863777D01*
X118240017Y-106895017D01*
X118208777Y-106920654D01*
X118173138Y-106939704D01*
X118134468Y-106951435D01*
X118088112Y-106956000D01*
X117011888Y-106956000D01*
X116965532Y-106951435D01*
X116926862Y-106939704D01*
X116891223Y-106920654D01*
X116859983Y-106895017D01*
X116834346Y-106863777D01*
X116815296Y-106828138D01*
X116803565Y-106789468D01*
X116799000Y-106743112D01*
X116799000Y-106091888D01*
X116803565Y-106045532D01*
X116815296Y-106006862D01*
X116834346Y-105971223D01*
X116859983Y-105939983D01*
X116891223Y-105914346D01*
X116926862Y-105895296D01*
X116965532Y-105883565D01*
X117011888Y-105879000D01*
X118088112Y-105879000D01*
X118134468Y-105883565D01*
X118134468Y-105883565D01*
G37*
G36*
X115134468Y-105883565D02*
G01*
X115173138Y-105895296D01*
X115208777Y-105914346D01*
X115240017Y-105939983D01*
X115265654Y-105971223D01*
X115284704Y-106006862D01*
X115296435Y-106045532D01*
X115301000Y-106091888D01*
X115301000Y-106743112D01*
X115296435Y-106789468D01*
X115284704Y-106828138D01*
X115265654Y-106863777D01*
X115240017Y-106895017D01*
X115208777Y-106920654D01*
X115173138Y-106939704D01*
X115134468Y-106951435D01*
X115088112Y-106956000D01*
X114011888Y-106956000D01*
X113965532Y-106951435D01*
X113926862Y-106939704D01*
X113891223Y-106920654D01*
X113859983Y-106895017D01*
X113834346Y-106863777D01*
X113815296Y-106828138D01*
X113803565Y-106789468D01*
X113799000Y-106743112D01*
X113799000Y-106091888D01*
X113803565Y-106045532D01*
X113815296Y-106006862D01*
X113834346Y-105971223D01*
X113859983Y-105939983D01*
X113891223Y-105914346D01*
X113926862Y-105895296D01*
X113965532Y-105883565D01*
X114011888Y-105879000D01*
X115088112Y-105879000D01*
X115134468Y-105883565D01*
X115134468Y-105883565D01*
G37*
G36*
X164684473Y-103635938D02*
G01*
X164812049Y-103688782D01*
X164926859Y-103765495D01*
X165024505Y-103863141D01*
X165101218Y-103977951D01*
X165154062Y-104105527D01*
X165181000Y-104240956D01*
X165181000Y-104379044D01*
X165154062Y-104514473D01*
X165101218Y-104642049D01*
X165024505Y-104756859D01*
X164926859Y-104854505D01*
X164812049Y-104931218D01*
X164684473Y-104984062D01*
X164549044Y-105011000D01*
X164410956Y-105011000D01*
X164275527Y-104984062D01*
X164147951Y-104931218D01*
X164033141Y-104854505D01*
X163935495Y-104756859D01*
X163858782Y-104642049D01*
X163805938Y-104514473D01*
X163779000Y-104379044D01*
X163779000Y-104240956D01*
X163805938Y-104105527D01*
X163858782Y-103977951D01*
X163935495Y-103863141D01*
X164033141Y-103765495D01*
X164147951Y-103688782D01*
X164275527Y-103635938D01*
X164410956Y-103609000D01*
X164549044Y-103609000D01*
X164684473Y-103635938D01*
X164684473Y-103635938D01*
G37*
G36*
X102109468Y-102328565D02*
G01*
X102148138Y-102340296D01*
X102183777Y-102359346D01*
X102215017Y-102384983D01*
X102240654Y-102416223D01*
X102259704Y-102451862D01*
X102271435Y-102490532D01*
X102276000Y-102536888D01*
X102276000Y-103613112D01*
X102271435Y-103659468D01*
X102259704Y-103698138D01*
X102240654Y-103733777D01*
X102215017Y-103765017D01*
X102183777Y-103790654D01*
X102148138Y-103809704D01*
X102109468Y-103821435D01*
X102063112Y-103826000D01*
X101411888Y-103826000D01*
X101365532Y-103821435D01*
X101326862Y-103809704D01*
X101291223Y-103790654D01*
X101259983Y-103765017D01*
X101234346Y-103733777D01*
X101215296Y-103698138D01*
X101203565Y-103659468D01*
X101199000Y-103613112D01*
X101199000Y-102536888D01*
X101203565Y-102490532D01*
X101215296Y-102451862D01*
X101234346Y-102416223D01*
X101259983Y-102384983D01*
X101291223Y-102359346D01*
X101326862Y-102340296D01*
X101365532Y-102328565D01*
X101411888Y-102324000D01*
X102063112Y-102324000D01*
X102109468Y-102328565D01*
X102109468Y-102328565D01*
G37*
G36*
X100234468Y-102328565D02*
G01*
X100273138Y-102340296D01*
X100308777Y-102359346D01*
X100340017Y-102384983D01*
X100365654Y-102416223D01*
X100384704Y-102451862D01*
X100396435Y-102490532D01*
X100401000Y-102536888D01*
X100401000Y-103613112D01*
X100396435Y-103659468D01*
X100384704Y-103698138D01*
X100365654Y-103733777D01*
X100340017Y-103765017D01*
X100308777Y-103790654D01*
X100273138Y-103809704D01*
X100234468Y-103821435D01*
X100188112Y-103826000D01*
X99536888Y-103826000D01*
X99490532Y-103821435D01*
X99451862Y-103809704D01*
X99416223Y-103790654D01*
X99384983Y-103765017D01*
X99359346Y-103733777D01*
X99340296Y-103698138D01*
X99328565Y-103659468D01*
X99324000Y-103613112D01*
X99324000Y-102536888D01*
X99328565Y-102490532D01*
X99340296Y-102451862D01*
X99359346Y-102416223D01*
X99384983Y-102384983D01*
X99416223Y-102359346D01*
X99451862Y-102340296D01*
X99490532Y-102328565D01*
X99536888Y-102324000D01*
X100188112Y-102324000D01*
X100234468Y-102328565D01*
X100234468Y-102328565D01*
G37*
G36*
X112549840Y-95325001D02*
G01*
X112552242Y-95349387D01*
X112559355Y-95372836D01*
X112570906Y-95394447D01*
X112586451Y-95413389D01*
X112605393Y-95428934D01*
X112627004Y-95440485D01*
X112650453Y-95447598D01*
X112674839Y-95450000D01*
X113674840Y-95450000D01*
X113674840Y-102152000D01*
X112674839Y-102152000D01*
X112650453Y-102154402D01*
X112627004Y-102161515D01*
X112605393Y-102173066D01*
X112586451Y-102188611D01*
X112570906Y-102207553D01*
X112559355Y-102229164D01*
X112552242Y-102252613D01*
X112549840Y-102276999D01*
X112549840Y-103277000D01*
X105847840Y-103277000D01*
X105847840Y-102276999D01*
X105845438Y-102252613D01*
X105838325Y-102229164D01*
X105826774Y-102207553D01*
X105811229Y-102188611D01*
X105792287Y-102173066D01*
X105770676Y-102161515D01*
X105747227Y-102154402D01*
X105722841Y-102152000D01*
X104722840Y-102152000D01*
X104722840Y-95450000D01*
X105722841Y-95450000D01*
X105747227Y-95447598D01*
X105770676Y-95440485D01*
X105792287Y-95428934D01*
X105811229Y-95413389D01*
X105826774Y-95394447D01*
X105838325Y-95372836D01*
X105845438Y-95349387D01*
X105847840Y-95325001D01*
X105847840Y-94325000D01*
X112549840Y-94325000D01*
X112549840Y-95325001D01*
X112549840Y-95325001D01*
G37*
G36*
X120401000Y-101776000D02*
G01*
X118499000Y-101776000D01*
X118499000Y-100824000D01*
X120401000Y-100824000D01*
X120401000Y-101776000D01*
X120401000Y-101776000D01*
G37*
G36*
X100234468Y-100178565D02*
G01*
X100273138Y-100190296D01*
X100308777Y-100209346D01*
X100340017Y-100234983D01*
X100365654Y-100266223D01*
X100384704Y-100301862D01*
X100396435Y-100340532D01*
X100401000Y-100386888D01*
X100401000Y-101463112D01*
X100396435Y-101509468D01*
X100384704Y-101548138D01*
X100365654Y-101583777D01*
X100340017Y-101615017D01*
X100308777Y-101640654D01*
X100273138Y-101659704D01*
X100234468Y-101671435D01*
X100188112Y-101676000D01*
X99536888Y-101676000D01*
X99490532Y-101671435D01*
X99451862Y-101659704D01*
X99416223Y-101640654D01*
X99384983Y-101615017D01*
X99359346Y-101583777D01*
X99340296Y-101548138D01*
X99328565Y-101509468D01*
X99324000Y-101463112D01*
X99324000Y-100386888D01*
X99328565Y-100340532D01*
X99340296Y-100301862D01*
X99359346Y-100266223D01*
X99384983Y-100234983D01*
X99416223Y-100209346D01*
X99451862Y-100190296D01*
X99490532Y-100178565D01*
X99536888Y-100174000D01*
X100188112Y-100174000D01*
X100234468Y-100178565D01*
X100234468Y-100178565D01*
G37*
G36*
X102109468Y-100178565D02*
G01*
X102148138Y-100190296D01*
X102183777Y-100209346D01*
X102215017Y-100234983D01*
X102240654Y-100266223D01*
X102259704Y-100301862D01*
X102271435Y-100340532D01*
X102276000Y-100386888D01*
X102276000Y-101463112D01*
X102271435Y-101509468D01*
X102259704Y-101548138D01*
X102240654Y-101583777D01*
X102215017Y-101615017D01*
X102183777Y-101640654D01*
X102148138Y-101659704D01*
X102109468Y-101671435D01*
X102063112Y-101676000D01*
X101411888Y-101676000D01*
X101365532Y-101671435D01*
X101326862Y-101659704D01*
X101291223Y-101640654D01*
X101259983Y-101615017D01*
X101234346Y-101583777D01*
X101215296Y-101548138D01*
X101203565Y-101509468D01*
X101199000Y-101463112D01*
X101199000Y-100386888D01*
X101203565Y-100340532D01*
X101215296Y-100301862D01*
X101234346Y-100266223D01*
X101259983Y-100234983D01*
X101291223Y-100209346D01*
X101326862Y-100190296D01*
X101365532Y-100178565D01*
X101411888Y-100174000D01*
X102063112Y-100174000D01*
X102109468Y-100178565D01*
X102109468Y-100178565D01*
G37*
G36*
X83976000Y-100481000D02*
G01*
X82824000Y-100481000D01*
X82824000Y-98929000D01*
X83976000Y-98929000D01*
X83976000Y-100481000D01*
X83976000Y-100481000D01*
G37*
G36*
X82076000Y-100481000D02*
G01*
X80924000Y-100481000D01*
X80924000Y-98929000D01*
X82076000Y-98929000D01*
X82076000Y-100481000D01*
X82076000Y-100481000D01*
G37*
G36*
X88311968Y-98958565D02*
G01*
X88350638Y-98970296D01*
X88386277Y-98989346D01*
X88417517Y-99014983D01*
X88443154Y-99046223D01*
X88462204Y-99081862D01*
X88473935Y-99120532D01*
X88478500Y-99166888D01*
X88478500Y-100243112D01*
X88473935Y-100289468D01*
X88462204Y-100328138D01*
X88443154Y-100363777D01*
X88417517Y-100395017D01*
X88386277Y-100420654D01*
X88350638Y-100439704D01*
X88311968Y-100451435D01*
X88265612Y-100456000D01*
X87614388Y-100456000D01*
X87568032Y-100451435D01*
X87529362Y-100439704D01*
X87493723Y-100420654D01*
X87462483Y-100395017D01*
X87436846Y-100363777D01*
X87417796Y-100328138D01*
X87406065Y-100289468D01*
X87401500Y-100243112D01*
X87401500Y-99166888D01*
X87406065Y-99120532D01*
X87417796Y-99081862D01*
X87436846Y-99046223D01*
X87462483Y-99014983D01*
X87493723Y-98989346D01*
X87529362Y-98970296D01*
X87568032Y-98958565D01*
X87614388Y-98954000D01*
X88265612Y-98954000D01*
X88311968Y-98958565D01*
X88311968Y-98958565D01*
G37*
G36*
X90186968Y-98958565D02*
G01*
X90225638Y-98970296D01*
X90261277Y-98989346D01*
X90292517Y-99014983D01*
X90318154Y-99046223D01*
X90337204Y-99081862D01*
X90348935Y-99120532D01*
X90353500Y-99166888D01*
X90353500Y-100243112D01*
X90348935Y-100289468D01*
X90337204Y-100328138D01*
X90318154Y-100363777D01*
X90292517Y-100395017D01*
X90261277Y-100420654D01*
X90225638Y-100439704D01*
X90186968Y-100451435D01*
X90140612Y-100456000D01*
X89489388Y-100456000D01*
X89443032Y-100451435D01*
X89404362Y-100439704D01*
X89368723Y-100420654D01*
X89337483Y-100395017D01*
X89311846Y-100363777D01*
X89292796Y-100328138D01*
X89281065Y-100289468D01*
X89276500Y-100243112D01*
X89276500Y-99166888D01*
X89281065Y-99120532D01*
X89292796Y-99081862D01*
X89311846Y-99046223D01*
X89337483Y-99014983D01*
X89368723Y-98989346D01*
X89404362Y-98970296D01*
X89443032Y-98958565D01*
X89489388Y-98954000D01*
X90140612Y-98954000D01*
X90186968Y-98958565D01*
X90186968Y-98958565D01*
G37*
G36*
X120401000Y-100426000D02*
G01*
X118499000Y-100426000D01*
X118499000Y-99474000D01*
X120401000Y-99474000D01*
X120401000Y-100426000D01*
X120401000Y-100426000D01*
G37*
G36*
X139684473Y-98635938D02*
G01*
X139812049Y-98688782D01*
X139926859Y-98765495D01*
X140024505Y-98863141D01*
X140101218Y-98977951D01*
X140154062Y-99105527D01*
X140181000Y-99240956D01*
X140181000Y-99379044D01*
X140154062Y-99514473D01*
X140101218Y-99642049D01*
X140024505Y-99756859D01*
X139926859Y-99854505D01*
X139812049Y-99931218D01*
X139684473Y-99984062D01*
X139549044Y-100011000D01*
X139410956Y-100011000D01*
X139275527Y-99984062D01*
X139147951Y-99931218D01*
X139033141Y-99854505D01*
X138935495Y-99756859D01*
X138858782Y-99642049D01*
X138805938Y-99514473D01*
X138779000Y-99379044D01*
X138779000Y-99240956D01*
X138805938Y-99105527D01*
X138858782Y-98977951D01*
X138935495Y-98863141D01*
X139033141Y-98765495D01*
X139147951Y-98688782D01*
X139275527Y-98635938D01*
X139410956Y-98609000D01*
X139549044Y-98609000D01*
X139684473Y-98635938D01*
X139684473Y-98635938D01*
G37*
G36*
X82076000Y-96900000D02*
G01*
X80924000Y-96900000D01*
X80924000Y-95348000D01*
X82076000Y-95348000D01*
X82076000Y-96900000D01*
X82076000Y-96900000D01*
G37*
G36*
X83976000Y-96900000D02*
G01*
X82824000Y-96900000D01*
X82824000Y-95348000D01*
X83976000Y-95348000D01*
X83976000Y-96900000D01*
X83976000Y-96900000D01*
G37*
G36*
X90186968Y-95377565D02*
G01*
X90225638Y-95389296D01*
X90261277Y-95408346D01*
X90292517Y-95433983D01*
X90318154Y-95465223D01*
X90337204Y-95500862D01*
X90348935Y-95539532D01*
X90353500Y-95585888D01*
X90353500Y-96662112D01*
X90348935Y-96708468D01*
X90337204Y-96747138D01*
X90318154Y-96782777D01*
X90292517Y-96814017D01*
X90261277Y-96839654D01*
X90225638Y-96858704D01*
X90186968Y-96870435D01*
X90140612Y-96875000D01*
X89489388Y-96875000D01*
X89443032Y-96870435D01*
X89404362Y-96858704D01*
X89368723Y-96839654D01*
X89337483Y-96814017D01*
X89311846Y-96782777D01*
X89292796Y-96747138D01*
X89281065Y-96708468D01*
X89276500Y-96662112D01*
X89276500Y-95585888D01*
X89281065Y-95539532D01*
X89292796Y-95500862D01*
X89311846Y-95465223D01*
X89337483Y-95433983D01*
X89368723Y-95408346D01*
X89404362Y-95389296D01*
X89443032Y-95377565D01*
X89489388Y-95373000D01*
X90140612Y-95373000D01*
X90186968Y-95377565D01*
X90186968Y-95377565D01*
G37*
G36*
X88311968Y-95377565D02*
G01*
X88350638Y-95389296D01*
X88386277Y-95408346D01*
X88417517Y-95433983D01*
X88443154Y-95465223D01*
X88462204Y-95500862D01*
X88473935Y-95539532D01*
X88478500Y-95585888D01*
X88478500Y-96662112D01*
X88473935Y-96708468D01*
X88462204Y-96747138D01*
X88443154Y-96782777D01*
X88417517Y-96814017D01*
X88386277Y-96839654D01*
X88350638Y-96858704D01*
X88311968Y-96870435D01*
X88265612Y-96875000D01*
X87614388Y-96875000D01*
X87568032Y-96870435D01*
X87529362Y-96858704D01*
X87493723Y-96839654D01*
X87462483Y-96814017D01*
X87436846Y-96782777D01*
X87417796Y-96747138D01*
X87406065Y-96708468D01*
X87401500Y-96662112D01*
X87401500Y-95585888D01*
X87406065Y-95539532D01*
X87417796Y-95500862D01*
X87436846Y-95465223D01*
X87462483Y-95433983D01*
X87493723Y-95408346D01*
X87529362Y-95389296D01*
X87568032Y-95377565D01*
X87614388Y-95373000D01*
X88265612Y-95373000D01*
X88311968Y-95377565D01*
X88311968Y-95377565D01*
G37*
G36*
X96587968Y-93728273D02*
G01*
X96735927Y-93789560D01*
X96869081Y-93878530D01*
X96982327Y-93991776D01*
X97071297Y-94124930D01*
X97132584Y-94272889D01*
X97163826Y-94429956D01*
X97163826Y-94590106D01*
X97132584Y-94747173D01*
X97071297Y-94895132D01*
X96982327Y-95028286D01*
X96869081Y-95141532D01*
X96735927Y-95230502D01*
X96587968Y-95291789D01*
X96430901Y-95323031D01*
X96270751Y-95323031D01*
X96113684Y-95291789D01*
X95965725Y-95230502D01*
X95832571Y-95141532D01*
X95719325Y-95028286D01*
X95630355Y-94895132D01*
X95569068Y-94747173D01*
X95537826Y-94590106D01*
X95537826Y-94429956D01*
X95569068Y-94272889D01*
X95630355Y-94124930D01*
X95719325Y-93991776D01*
X95832571Y-93878530D01*
X95965725Y-93789560D01*
X96113684Y-93728273D01*
X96270751Y-93697031D01*
X96430901Y-93697031D01*
X96587968Y-93728273D01*
X96587968Y-93728273D01*
G37*
G36*
X125834468Y-93278565D02*
G01*
X125873138Y-93290296D01*
X125908777Y-93309346D01*
X125940017Y-93334983D01*
X125965654Y-93366223D01*
X125984704Y-93401862D01*
X125996435Y-93440532D01*
X126001000Y-93486888D01*
X126001000Y-94563112D01*
X125996435Y-94609468D01*
X125984704Y-94648138D01*
X125965654Y-94683777D01*
X125940017Y-94715017D01*
X125908777Y-94740654D01*
X125873138Y-94759704D01*
X125834468Y-94771435D01*
X125788112Y-94776000D01*
X125136888Y-94776000D01*
X125090532Y-94771435D01*
X125051862Y-94759704D01*
X125016223Y-94740654D01*
X124984983Y-94715017D01*
X124959346Y-94683777D01*
X124940296Y-94648138D01*
X124928565Y-94609468D01*
X124924000Y-94563112D01*
X124924000Y-93486888D01*
X124928565Y-93440532D01*
X124940296Y-93401862D01*
X124959346Y-93366223D01*
X124984983Y-93334983D01*
X125016223Y-93309346D01*
X125051862Y-93290296D01*
X125090532Y-93278565D01*
X125136888Y-93274000D01*
X125788112Y-93274000D01*
X125834468Y-93278565D01*
X125834468Y-93278565D01*
G37*
G36*
X123959468Y-93278565D02*
G01*
X123998138Y-93290296D01*
X124033777Y-93309346D01*
X124065017Y-93334983D01*
X124090654Y-93366223D01*
X124109704Y-93401862D01*
X124121435Y-93440532D01*
X124126000Y-93486888D01*
X124126000Y-94563112D01*
X124121435Y-94609468D01*
X124109704Y-94648138D01*
X124090654Y-94683777D01*
X124065017Y-94715017D01*
X124033777Y-94740654D01*
X123998138Y-94759704D01*
X123959468Y-94771435D01*
X123913112Y-94776000D01*
X123261888Y-94776000D01*
X123215532Y-94771435D01*
X123176862Y-94759704D01*
X123141223Y-94740654D01*
X123109983Y-94715017D01*
X123084346Y-94683777D01*
X123065296Y-94648138D01*
X123053565Y-94609468D01*
X123049000Y-94563112D01*
X123049000Y-93486888D01*
X123053565Y-93440532D01*
X123065296Y-93401862D01*
X123084346Y-93366223D01*
X123109983Y-93334983D01*
X123141223Y-93309346D01*
X123176862Y-93290296D01*
X123215532Y-93278565D01*
X123261888Y-93274000D01*
X123913112Y-93274000D01*
X123959468Y-93278565D01*
X123959468Y-93278565D01*
G37*
G36*
X98391091Y-91939293D02*
G01*
X98539050Y-92000580D01*
X98672204Y-92089550D01*
X98785450Y-92202796D01*
X98874420Y-92335950D01*
X98935707Y-92483909D01*
X98966949Y-92640976D01*
X98966949Y-92801126D01*
X98935707Y-92958193D01*
X98874420Y-93106152D01*
X98785450Y-93239306D01*
X98672204Y-93352552D01*
X98539050Y-93441522D01*
X98391091Y-93502809D01*
X98234024Y-93534051D01*
X98073874Y-93534051D01*
X97916807Y-93502809D01*
X97768848Y-93441522D01*
X97635694Y-93352552D01*
X97522448Y-93239306D01*
X97433478Y-93106152D01*
X97372191Y-92958193D01*
X97340949Y-92801126D01*
X97340949Y-92640976D01*
X97372191Y-92483909D01*
X97433478Y-92335950D01*
X97522448Y-92202796D01*
X97635694Y-92089550D01*
X97768848Y-92000580D01*
X97916807Y-91939293D01*
X98073874Y-91908051D01*
X98234024Y-91908051D01*
X98391091Y-91939293D01*
X98391091Y-91939293D01*
G37*
G36*
X82026000Y-93229000D02*
G01*
X80874000Y-93229000D01*
X80874000Y-91677000D01*
X82026000Y-91677000D01*
X82026000Y-93229000D01*
X82026000Y-93229000D01*
G37*
G36*
X83926000Y-93229000D02*
G01*
X82774000Y-93229000D01*
X82774000Y-91677000D01*
X83926000Y-91677000D01*
X83926000Y-93229000D01*
X83926000Y-93229000D01*
G37*
G36*
X88261968Y-91706565D02*
G01*
X88300638Y-91718296D01*
X88336277Y-91737346D01*
X88367517Y-91762983D01*
X88393154Y-91794223D01*
X88412204Y-91829862D01*
X88423935Y-91868532D01*
X88428500Y-91914888D01*
X88428500Y-92991112D01*
X88423935Y-93037468D01*
X88412204Y-93076138D01*
X88393154Y-93111777D01*
X88367517Y-93143017D01*
X88336277Y-93168654D01*
X88300638Y-93187704D01*
X88261968Y-93199435D01*
X88215612Y-93204000D01*
X87564388Y-93204000D01*
X87518032Y-93199435D01*
X87479362Y-93187704D01*
X87443723Y-93168654D01*
X87412483Y-93143017D01*
X87386846Y-93111777D01*
X87367796Y-93076138D01*
X87356065Y-93037468D01*
X87351500Y-92991112D01*
X87351500Y-91914888D01*
X87356065Y-91868532D01*
X87367796Y-91829862D01*
X87386846Y-91794223D01*
X87412483Y-91762983D01*
X87443723Y-91737346D01*
X87479362Y-91718296D01*
X87518032Y-91706565D01*
X87564388Y-91702000D01*
X88215612Y-91702000D01*
X88261968Y-91706565D01*
X88261968Y-91706565D01*
G37*
G36*
X90136968Y-91706565D02*
G01*
X90175638Y-91718296D01*
X90211277Y-91737346D01*
X90242517Y-91762983D01*
X90268154Y-91794223D01*
X90287204Y-91829862D01*
X90298935Y-91868532D01*
X90303500Y-91914888D01*
X90303500Y-92991112D01*
X90298935Y-93037468D01*
X90287204Y-93076138D01*
X90268154Y-93111777D01*
X90242517Y-93143017D01*
X90211277Y-93168654D01*
X90175638Y-93187704D01*
X90136968Y-93199435D01*
X90090612Y-93204000D01*
X89439388Y-93204000D01*
X89393032Y-93199435D01*
X89354362Y-93187704D01*
X89318723Y-93168654D01*
X89287483Y-93143017D01*
X89261846Y-93111777D01*
X89242796Y-93076138D01*
X89231065Y-93037468D01*
X89226500Y-92991112D01*
X89226500Y-91914888D01*
X89231065Y-91868532D01*
X89242796Y-91829862D01*
X89261846Y-91794223D01*
X89287483Y-91762983D01*
X89318723Y-91737346D01*
X89354362Y-91718296D01*
X89393032Y-91706565D01*
X89439388Y-91702000D01*
X90090612Y-91702000D01*
X90136968Y-91706565D01*
X90136968Y-91706565D01*
G37*
G36*
X120059468Y-90278565D02*
G01*
X120098138Y-90290296D01*
X120133777Y-90309346D01*
X120165017Y-90334983D01*
X120190654Y-90366223D01*
X120209704Y-90401862D01*
X120221435Y-90440532D01*
X120226000Y-90486888D01*
X120226000Y-91563112D01*
X120221435Y-91609468D01*
X120209704Y-91648138D01*
X120190654Y-91683777D01*
X120165017Y-91715017D01*
X120133777Y-91740654D01*
X120098138Y-91759704D01*
X120059468Y-91771435D01*
X120013112Y-91776000D01*
X119361888Y-91776000D01*
X119315532Y-91771435D01*
X119276862Y-91759704D01*
X119241223Y-91740654D01*
X119209983Y-91715017D01*
X119184346Y-91683777D01*
X119165296Y-91648138D01*
X119153565Y-91609468D01*
X119149000Y-91563112D01*
X119149000Y-90486888D01*
X119153565Y-90440532D01*
X119165296Y-90401862D01*
X119184346Y-90366223D01*
X119209983Y-90334983D01*
X119241223Y-90309346D01*
X119276862Y-90290296D01*
X119315532Y-90278565D01*
X119361888Y-90274000D01*
X120013112Y-90274000D01*
X120059468Y-90278565D01*
X120059468Y-90278565D01*
G37*
G36*
X121934468Y-90278565D02*
G01*
X121973138Y-90290296D01*
X122008777Y-90309346D01*
X122040017Y-90334983D01*
X122065654Y-90366223D01*
X122084704Y-90401862D01*
X122096435Y-90440532D01*
X122101000Y-90486888D01*
X122101000Y-91563112D01*
X122096435Y-91609468D01*
X122084704Y-91648138D01*
X122065654Y-91683777D01*
X122040017Y-91715017D01*
X122008777Y-91740654D01*
X121973138Y-91759704D01*
X121934468Y-91771435D01*
X121888112Y-91776000D01*
X121236888Y-91776000D01*
X121190532Y-91771435D01*
X121151862Y-91759704D01*
X121116223Y-91740654D01*
X121084983Y-91715017D01*
X121059346Y-91683777D01*
X121040296Y-91648138D01*
X121028565Y-91609468D01*
X121024000Y-91563112D01*
X121024000Y-90486888D01*
X121028565Y-90440532D01*
X121040296Y-90401862D01*
X121059346Y-90366223D01*
X121084983Y-90334983D01*
X121116223Y-90309346D01*
X121151862Y-90290296D01*
X121190532Y-90278565D01*
X121236888Y-90274000D01*
X121888112Y-90274000D01*
X121934468Y-90278565D01*
X121934468Y-90278565D01*
G37*
G36*
X125834468Y-90278565D02*
G01*
X125873138Y-90290296D01*
X125908777Y-90309346D01*
X125940017Y-90334983D01*
X125965654Y-90366223D01*
X125984704Y-90401862D01*
X125996435Y-90440532D01*
X126001000Y-90486888D01*
X126001000Y-91563112D01*
X125996435Y-91609468D01*
X125984704Y-91648138D01*
X125965654Y-91683777D01*
X125940017Y-91715017D01*
X125908777Y-91740654D01*
X125873138Y-91759704D01*
X125834468Y-91771435D01*
X125788112Y-91776000D01*
X125136888Y-91776000D01*
X125090532Y-91771435D01*
X125051862Y-91759704D01*
X125016223Y-91740654D01*
X124984983Y-91715017D01*
X124959346Y-91683777D01*
X124940296Y-91648138D01*
X124928565Y-91609468D01*
X124924000Y-91563112D01*
X124924000Y-90486888D01*
X124928565Y-90440532D01*
X124940296Y-90401862D01*
X124959346Y-90366223D01*
X124984983Y-90334983D01*
X125016223Y-90309346D01*
X125051862Y-90290296D01*
X125090532Y-90278565D01*
X125136888Y-90274000D01*
X125788112Y-90274000D01*
X125834468Y-90278565D01*
X125834468Y-90278565D01*
G37*
G36*
X123959468Y-90278565D02*
G01*
X123998138Y-90290296D01*
X124033777Y-90309346D01*
X124065017Y-90334983D01*
X124090654Y-90366223D01*
X124109704Y-90401862D01*
X124121435Y-90440532D01*
X124126000Y-90486888D01*
X124126000Y-91563112D01*
X124121435Y-91609468D01*
X124109704Y-91648138D01*
X124090654Y-91683777D01*
X124065017Y-91715017D01*
X124033777Y-91740654D01*
X123998138Y-91759704D01*
X123959468Y-91771435D01*
X123913112Y-91776000D01*
X123261888Y-91776000D01*
X123215532Y-91771435D01*
X123176862Y-91759704D01*
X123141223Y-91740654D01*
X123109983Y-91715017D01*
X123084346Y-91683777D01*
X123065296Y-91648138D01*
X123053565Y-91609468D01*
X123049000Y-91563112D01*
X123049000Y-90486888D01*
X123053565Y-90440532D01*
X123065296Y-90401862D01*
X123084346Y-90366223D01*
X123109983Y-90334983D01*
X123141223Y-90309346D01*
X123176862Y-90290296D01*
X123215532Y-90278565D01*
X123261888Y-90274000D01*
X123913112Y-90274000D01*
X123959468Y-90278565D01*
X123959468Y-90278565D01*
G37*
G36*
X96878358Y-90880240D02*
G01*
X96960433Y-90914237D01*
X96960435Y-90914238D01*
X96997619Y-90939084D01*
X97034301Y-90963594D01*
X97097121Y-91026414D01*
X97146478Y-91100282D01*
X97180475Y-91182357D01*
X97197806Y-91269488D01*
X97197806Y-91358330D01*
X97180475Y-91445461D01*
X97155088Y-91506750D01*
X97146477Y-91527538D01*
X97097120Y-91601405D01*
X97034302Y-91664223D01*
X96960435Y-91713580D01*
X96960434Y-91713581D01*
X96960433Y-91713581D01*
X96878358Y-91747578D01*
X96791227Y-91764909D01*
X96702385Y-91764909D01*
X96615254Y-91747578D01*
X96533179Y-91713581D01*
X96533178Y-91713581D01*
X96533177Y-91713580D01*
X96459310Y-91664223D01*
X96396492Y-91601405D01*
X96347135Y-91527538D01*
X96338524Y-91506750D01*
X96313137Y-91445461D01*
X96295806Y-91358330D01*
X96295806Y-91269488D01*
X96313137Y-91182357D01*
X96347134Y-91100282D01*
X96396491Y-91026414D01*
X96459311Y-90963594D01*
X96495993Y-90939084D01*
X96533177Y-90914238D01*
X96533179Y-90914237D01*
X96615254Y-90880240D01*
X96702385Y-90862909D01*
X96791227Y-90862909D01*
X96878358Y-90880240D01*
X96878358Y-90880240D01*
G37*
G36*
X100187142Y-90143242D02*
G01*
X100335101Y-90204529D01*
X100468255Y-90293499D01*
X100581501Y-90406745D01*
X100670471Y-90539899D01*
X100731758Y-90687858D01*
X100763000Y-90844925D01*
X100763000Y-91005075D01*
X100731758Y-91162142D01*
X100670471Y-91310101D01*
X100581501Y-91443255D01*
X100468255Y-91556501D01*
X100335101Y-91645471D01*
X100187142Y-91706758D01*
X100030075Y-91738000D01*
X99869925Y-91738000D01*
X99712858Y-91706758D01*
X99564899Y-91645471D01*
X99431745Y-91556501D01*
X99318499Y-91443255D01*
X99229529Y-91310101D01*
X99168242Y-91162142D01*
X99137000Y-91005075D01*
X99137000Y-90844925D01*
X99168242Y-90687858D01*
X99229529Y-90539899D01*
X99318499Y-90406745D01*
X99431745Y-90293499D01*
X99564899Y-90204529D01*
X99712858Y-90143242D01*
X99869925Y-90112000D01*
X100030075Y-90112000D01*
X100187142Y-90143242D01*
X100187142Y-90143242D01*
G37*
G36*
X97783455Y-89989285D02*
G01*
X97865530Y-90023282D01*
X97865532Y-90023283D01*
X97902716Y-90048129D01*
X97939398Y-90072639D01*
X98002218Y-90135459D01*
X98051575Y-90209327D01*
X98085572Y-90291402D01*
X98102903Y-90378533D01*
X98102903Y-90467375D01*
X98085572Y-90554506D01*
X98051575Y-90636581D01*
X98051574Y-90636583D01*
X98002217Y-90710450D01*
X97939399Y-90773268D01*
X97865532Y-90822625D01*
X97865531Y-90822626D01*
X97865530Y-90822626D01*
X97783455Y-90856623D01*
X97696324Y-90873954D01*
X97607482Y-90873954D01*
X97520351Y-90856623D01*
X97438276Y-90822626D01*
X97438275Y-90822626D01*
X97438274Y-90822625D01*
X97364407Y-90773268D01*
X97301589Y-90710450D01*
X97252232Y-90636583D01*
X97252231Y-90636581D01*
X97218234Y-90554506D01*
X97200903Y-90467375D01*
X97200903Y-90378533D01*
X97218234Y-90291402D01*
X97252231Y-90209327D01*
X97301588Y-90135459D01*
X97364408Y-90072639D01*
X97401090Y-90048129D01*
X97438274Y-90023283D01*
X97438276Y-90023282D01*
X97520351Y-89989285D01*
X97607482Y-89971954D01*
X97696324Y-89971954D01*
X97783455Y-89989285D01*
X97783455Y-89989285D01*
G37*
G36*
X139684473Y-88635938D02*
G01*
X139812049Y-88688782D01*
X139926859Y-88765495D01*
X140024505Y-88863141D01*
X140101218Y-88977951D01*
X140154062Y-89105527D01*
X140181000Y-89240956D01*
X140181000Y-89379044D01*
X140154062Y-89514473D01*
X140101218Y-89642049D01*
X140024505Y-89756859D01*
X139926859Y-89854505D01*
X139812049Y-89931218D01*
X139684473Y-89984062D01*
X139549044Y-90011000D01*
X139410956Y-90011000D01*
X139275527Y-89984062D01*
X139147951Y-89931218D01*
X139033141Y-89854505D01*
X138935495Y-89756859D01*
X138858782Y-89642049D01*
X138805938Y-89514473D01*
X138779000Y-89379044D01*
X138779000Y-89240956D01*
X138805938Y-89105527D01*
X138858782Y-88977951D01*
X138935495Y-88863141D01*
X139033141Y-88765495D01*
X139147951Y-88688782D01*
X139275527Y-88635938D01*
X139410956Y-88609000D01*
X139549044Y-88609000D01*
X139684473Y-88635938D01*
X139684473Y-88635938D01*
G37*
G36*
X98681481Y-89091260D02*
G01*
X98763556Y-89125257D01*
X98763558Y-89125258D01*
X98797800Y-89148138D01*
X98837424Y-89174614D01*
X98900244Y-89237434D01*
X98949601Y-89311302D01*
X98983598Y-89393377D01*
X99000929Y-89480508D01*
X99000929Y-89569350D01*
X98983598Y-89656481D01*
X98951294Y-89734468D01*
X98949600Y-89738558D01*
X98900243Y-89812425D01*
X98837425Y-89875243D01*
X98763558Y-89924600D01*
X98763557Y-89924601D01*
X98763556Y-89924601D01*
X98681481Y-89958598D01*
X98594350Y-89975929D01*
X98505508Y-89975929D01*
X98418377Y-89958598D01*
X98336302Y-89924601D01*
X98336301Y-89924601D01*
X98336300Y-89924600D01*
X98262433Y-89875243D01*
X98199615Y-89812425D01*
X98150258Y-89738558D01*
X98148564Y-89734468D01*
X98116260Y-89656481D01*
X98098929Y-89569350D01*
X98098929Y-89480508D01*
X98116260Y-89393377D01*
X98150257Y-89311302D01*
X98199614Y-89237434D01*
X98262434Y-89174614D01*
X98302058Y-89148138D01*
X98336300Y-89125258D01*
X98336302Y-89125257D01*
X98418377Y-89091260D01*
X98505508Y-89073929D01*
X98594350Y-89073929D01*
X98681481Y-89091260D01*
X98681481Y-89091260D01*
G37*
G36*
X101983193Y-88347191D02*
G01*
X102131152Y-88408478D01*
X102264306Y-88497448D01*
X102377552Y-88610694D01*
X102466522Y-88743848D01*
X102527809Y-88891807D01*
X102559051Y-89048874D01*
X102559051Y-89209024D01*
X102527809Y-89366091D01*
X102466522Y-89514050D01*
X102377552Y-89647204D01*
X102264306Y-89760450D01*
X102131152Y-89849420D01*
X101983193Y-89910707D01*
X101826126Y-89941949D01*
X101665976Y-89941949D01*
X101508909Y-89910707D01*
X101360950Y-89849420D01*
X101227796Y-89760450D01*
X101114550Y-89647204D01*
X101025580Y-89514050D01*
X100964293Y-89366091D01*
X100933051Y-89209024D01*
X100933051Y-89048874D01*
X100964293Y-88891807D01*
X101025580Y-88743848D01*
X101114550Y-88610694D01*
X101227796Y-88497448D01*
X101360950Y-88408478D01*
X101508909Y-88347191D01*
X101665976Y-88315949D01*
X101826126Y-88315949D01*
X101983193Y-88347191D01*
X101983193Y-88347191D01*
G37*
G36*
X115384468Y-88828565D02*
G01*
X115423138Y-88840296D01*
X115458777Y-88859346D01*
X115490017Y-88884983D01*
X115515654Y-88916223D01*
X115534704Y-88951862D01*
X115546435Y-88990532D01*
X115551000Y-89036888D01*
X115551000Y-89688112D01*
X115546435Y-89734468D01*
X115534704Y-89773138D01*
X115515654Y-89808777D01*
X115490017Y-89840017D01*
X115458777Y-89865654D01*
X115423138Y-89884704D01*
X115384468Y-89896435D01*
X115338112Y-89901000D01*
X114261888Y-89901000D01*
X114215532Y-89896435D01*
X114176862Y-89884704D01*
X114141223Y-89865654D01*
X114109983Y-89840017D01*
X114084346Y-89808777D01*
X114065296Y-89773138D01*
X114053565Y-89734468D01*
X114049000Y-89688112D01*
X114049000Y-89036888D01*
X114053565Y-88990532D01*
X114065296Y-88951862D01*
X114084346Y-88916223D01*
X114109983Y-88884983D01*
X114141223Y-88859346D01*
X114176862Y-88840296D01*
X114215532Y-88828565D01*
X114261888Y-88824000D01*
X115338112Y-88824000D01*
X115384468Y-88828565D01*
X115384468Y-88828565D01*
G37*
G36*
X112384468Y-88828565D02*
G01*
X112423138Y-88840296D01*
X112458777Y-88859346D01*
X112490017Y-88884983D01*
X112515654Y-88916223D01*
X112534704Y-88951862D01*
X112546435Y-88990532D01*
X112551000Y-89036888D01*
X112551000Y-89688112D01*
X112546435Y-89734468D01*
X112534704Y-89773138D01*
X112515654Y-89808777D01*
X112490017Y-89840017D01*
X112458777Y-89865654D01*
X112423138Y-89884704D01*
X112384468Y-89896435D01*
X112338112Y-89901000D01*
X111261888Y-89901000D01*
X111215532Y-89896435D01*
X111176862Y-89884704D01*
X111141223Y-89865654D01*
X111109983Y-89840017D01*
X111084346Y-89808777D01*
X111065296Y-89773138D01*
X111053565Y-89734468D01*
X111049000Y-89688112D01*
X111049000Y-89036888D01*
X111053565Y-88990532D01*
X111065296Y-88951862D01*
X111084346Y-88916223D01*
X111109983Y-88884983D01*
X111141223Y-88859346D01*
X111176862Y-88840296D01*
X111215532Y-88828565D01*
X111261888Y-88824000D01*
X112338112Y-88824000D01*
X112384468Y-88828565D01*
X112384468Y-88828565D01*
G37*
G36*
X123959468Y-87778565D02*
G01*
X123998138Y-87790296D01*
X124033777Y-87809346D01*
X124065017Y-87834983D01*
X124090654Y-87866223D01*
X124109704Y-87901862D01*
X124121435Y-87940532D01*
X124126000Y-87986888D01*
X124126000Y-89063112D01*
X124121435Y-89109468D01*
X124109704Y-89148138D01*
X124090654Y-89183777D01*
X124065017Y-89215017D01*
X124033777Y-89240654D01*
X123998138Y-89259704D01*
X123959468Y-89271435D01*
X123913112Y-89276000D01*
X123261888Y-89276000D01*
X123215532Y-89271435D01*
X123176862Y-89259704D01*
X123141223Y-89240654D01*
X123109983Y-89215017D01*
X123084346Y-89183777D01*
X123065296Y-89148138D01*
X123053565Y-89109468D01*
X123049000Y-89063112D01*
X123049000Y-87986888D01*
X123053565Y-87940532D01*
X123065296Y-87901862D01*
X123084346Y-87866223D01*
X123109983Y-87834983D01*
X123141223Y-87809346D01*
X123176862Y-87790296D01*
X123215532Y-87778565D01*
X123261888Y-87774000D01*
X123913112Y-87774000D01*
X123959468Y-87778565D01*
X123959468Y-87778565D01*
G37*
G36*
X125834468Y-87778565D02*
G01*
X125873138Y-87790296D01*
X125908777Y-87809346D01*
X125940017Y-87834983D01*
X125965654Y-87866223D01*
X125984704Y-87901862D01*
X125996435Y-87940532D01*
X126001000Y-87986888D01*
X126001000Y-89063112D01*
X125996435Y-89109468D01*
X125984704Y-89148138D01*
X125965654Y-89183777D01*
X125940017Y-89215017D01*
X125908777Y-89240654D01*
X125873138Y-89259704D01*
X125834468Y-89271435D01*
X125788112Y-89276000D01*
X125136888Y-89276000D01*
X125090532Y-89271435D01*
X125051862Y-89259704D01*
X125016223Y-89240654D01*
X124984983Y-89215017D01*
X124959346Y-89183777D01*
X124940296Y-89148138D01*
X124928565Y-89109468D01*
X124924000Y-89063112D01*
X124924000Y-87986888D01*
X124928565Y-87940532D01*
X124940296Y-87901862D01*
X124959346Y-87866223D01*
X124984983Y-87834983D01*
X125016223Y-87809346D01*
X125051862Y-87790296D01*
X125090532Y-87778565D01*
X125136888Y-87774000D01*
X125788112Y-87774000D01*
X125834468Y-87778565D01*
X125834468Y-87778565D01*
G37*
G36*
X99579506Y-88193234D02*
G01*
X99661581Y-88227231D01*
X99661583Y-88227232D01*
X99698767Y-88252078D01*
X99735449Y-88276588D01*
X99798269Y-88339408D01*
X99847626Y-88413276D01*
X99881623Y-88495351D01*
X99898954Y-88582482D01*
X99898954Y-88671324D01*
X99881623Y-88758455D01*
X99854473Y-88824000D01*
X99847625Y-88840532D01*
X99798268Y-88914399D01*
X99735450Y-88977217D01*
X99661583Y-89026574D01*
X99661582Y-89026575D01*
X99661581Y-89026575D01*
X99579506Y-89060572D01*
X99492375Y-89077903D01*
X99403533Y-89077903D01*
X99316402Y-89060572D01*
X99234327Y-89026575D01*
X99234326Y-89026575D01*
X99234325Y-89026574D01*
X99160458Y-88977217D01*
X99097640Y-88914399D01*
X99048283Y-88840532D01*
X99041435Y-88824000D01*
X99014285Y-88758455D01*
X98996954Y-88671324D01*
X98996954Y-88582482D01*
X99014285Y-88495351D01*
X99048282Y-88413276D01*
X99097639Y-88339408D01*
X99160459Y-88276588D01*
X99197141Y-88252078D01*
X99234325Y-88227232D01*
X99234327Y-88227231D01*
X99316402Y-88193234D01*
X99403533Y-88175903D01*
X99492375Y-88175903D01*
X99579506Y-88193234D01*
X99579506Y-88193234D01*
G37*
G36*
X100477532Y-87295208D02*
G01*
X100559607Y-87329205D01*
X100559609Y-87329206D01*
X100596793Y-87354052D01*
X100633475Y-87378562D01*
X100696295Y-87441382D01*
X100745652Y-87515250D01*
X100779649Y-87597325D01*
X100796980Y-87684456D01*
X100796980Y-87773298D01*
X100779649Y-87860429D01*
X100760633Y-87906337D01*
X100745651Y-87942506D01*
X100696294Y-88016373D01*
X100633476Y-88079191D01*
X100559609Y-88128548D01*
X100559608Y-88128549D01*
X100559607Y-88128549D01*
X100477532Y-88162546D01*
X100390401Y-88179877D01*
X100301559Y-88179877D01*
X100214428Y-88162546D01*
X100132353Y-88128549D01*
X100132352Y-88128549D01*
X100132351Y-88128548D01*
X100058484Y-88079191D01*
X99995666Y-88016373D01*
X99946309Y-87942506D01*
X99931327Y-87906337D01*
X99912311Y-87860429D01*
X99894980Y-87773298D01*
X99894980Y-87684456D01*
X99912311Y-87597325D01*
X99946308Y-87515250D01*
X99995665Y-87441382D01*
X100058485Y-87378562D01*
X100095167Y-87354052D01*
X100132351Y-87329206D01*
X100132353Y-87329205D01*
X100214428Y-87295208D01*
X100301559Y-87277877D01*
X100390401Y-87277877D01*
X100477532Y-87295208D01*
X100477532Y-87295208D01*
G37*
G36*
X103779244Y-86551140D02*
G01*
X103927203Y-86612427D01*
X104060357Y-86701397D01*
X104173603Y-86814643D01*
X104262573Y-86947797D01*
X104323860Y-87095756D01*
X104355102Y-87252823D01*
X104355102Y-87412973D01*
X104323860Y-87570040D01*
X104262573Y-87717999D01*
X104173603Y-87851153D01*
X104060357Y-87964399D01*
X103927203Y-88053369D01*
X103779244Y-88114656D01*
X103622177Y-88145898D01*
X103462027Y-88145898D01*
X103304960Y-88114656D01*
X103157001Y-88053369D01*
X103023847Y-87964399D01*
X102910601Y-87851153D01*
X102821631Y-87717999D01*
X102760344Y-87570040D01*
X102729102Y-87412973D01*
X102729102Y-87252823D01*
X102760344Y-87095756D01*
X102821631Y-86947797D01*
X102910601Y-86814643D01*
X103023847Y-86701397D01*
X103157001Y-86612427D01*
X103304960Y-86551140D01*
X103462027Y-86519898D01*
X103622177Y-86519898D01*
X103779244Y-86551140D01*
X103779244Y-86551140D01*
G37*
G36*
X112384468Y-86953565D02*
G01*
X112423138Y-86965296D01*
X112458777Y-86984346D01*
X112490017Y-87009983D01*
X112515654Y-87041223D01*
X112534704Y-87076862D01*
X112546435Y-87115532D01*
X112551000Y-87161888D01*
X112551000Y-87813112D01*
X112546435Y-87859468D01*
X112534704Y-87898138D01*
X112515654Y-87933777D01*
X112490017Y-87965017D01*
X112458777Y-87990654D01*
X112423138Y-88009704D01*
X112384468Y-88021435D01*
X112338112Y-88026000D01*
X111261888Y-88026000D01*
X111215532Y-88021435D01*
X111176862Y-88009704D01*
X111141223Y-87990654D01*
X111109983Y-87965017D01*
X111084346Y-87933777D01*
X111065296Y-87898138D01*
X111053565Y-87859468D01*
X111049000Y-87813112D01*
X111049000Y-87161888D01*
X111053565Y-87115532D01*
X111065296Y-87076862D01*
X111084346Y-87041223D01*
X111109983Y-87009983D01*
X111141223Y-86984346D01*
X111176862Y-86965296D01*
X111215532Y-86953565D01*
X111261888Y-86949000D01*
X112338112Y-86949000D01*
X112384468Y-86953565D01*
X112384468Y-86953565D01*
G37*
G36*
X115384468Y-86953565D02*
G01*
X115423138Y-86965296D01*
X115458777Y-86984346D01*
X115490017Y-87009983D01*
X115515654Y-87041223D01*
X115534704Y-87076862D01*
X115546435Y-87115532D01*
X115551000Y-87161888D01*
X115551000Y-87813112D01*
X115546435Y-87859468D01*
X115534704Y-87898138D01*
X115515654Y-87933777D01*
X115490017Y-87965017D01*
X115458777Y-87990654D01*
X115423138Y-88009704D01*
X115384468Y-88021435D01*
X115338112Y-88026000D01*
X114261888Y-88026000D01*
X114215532Y-88021435D01*
X114176862Y-88009704D01*
X114141223Y-87990654D01*
X114109983Y-87965017D01*
X114084346Y-87933777D01*
X114065296Y-87898138D01*
X114053565Y-87859468D01*
X114049000Y-87813112D01*
X114049000Y-87161888D01*
X114053565Y-87115532D01*
X114065296Y-87076862D01*
X114084346Y-87041223D01*
X114109983Y-87009983D01*
X114141223Y-86984346D01*
X114176862Y-86965296D01*
X114215532Y-86953565D01*
X114261888Y-86949000D01*
X115338112Y-86949000D01*
X115384468Y-86953565D01*
X115384468Y-86953565D01*
G37*
G36*
X86621000Y-87071000D02*
G01*
X84819000Y-87071000D01*
X84819000Y-85269000D01*
X86621000Y-85269000D01*
X86621000Y-87071000D01*
X86621000Y-87071000D01*
G37*
G36*
X88370443Y-85275519D02*
G01*
X88436627Y-85282037D01*
X88606466Y-85333557D01*
X88762991Y-85417222D01*
X88798729Y-85446552D01*
X88900186Y-85529814D01*
X88983448Y-85631271D01*
X89012778Y-85667009D01*
X89096443Y-85823534D01*
X89147963Y-85993373D01*
X89165359Y-86170000D01*
X89147963Y-86346627D01*
X89096443Y-86516466D01*
X89012778Y-86672991D01*
X88989466Y-86701397D01*
X88900186Y-86810186D01*
X88798729Y-86893448D01*
X88762991Y-86922778D01*
X88606466Y-87006443D01*
X88436627Y-87057963D01*
X88370443Y-87064481D01*
X88304260Y-87071000D01*
X88215740Y-87071000D01*
X88149557Y-87064481D01*
X88083373Y-87057963D01*
X87913534Y-87006443D01*
X87757009Y-86922778D01*
X87721271Y-86893448D01*
X87619814Y-86810186D01*
X87530534Y-86701397D01*
X87507222Y-86672991D01*
X87423557Y-86516466D01*
X87372037Y-86346627D01*
X87354641Y-86170000D01*
X87372037Y-85993373D01*
X87423557Y-85823534D01*
X87507222Y-85667009D01*
X87536552Y-85631271D01*
X87619814Y-85529814D01*
X87721271Y-85446552D01*
X87757009Y-85417222D01*
X87913534Y-85333557D01*
X88083373Y-85282037D01*
X88149557Y-85275519D01*
X88215740Y-85269000D01*
X88304260Y-85269000D01*
X88370443Y-85275519D01*
X88370443Y-85275519D01*
G37*
G36*
X90910443Y-85275519D02*
G01*
X90976627Y-85282037D01*
X91146466Y-85333557D01*
X91302991Y-85417222D01*
X91338729Y-85446552D01*
X91440186Y-85529814D01*
X91523448Y-85631271D01*
X91552778Y-85667009D01*
X91636443Y-85823534D01*
X91687963Y-85993373D01*
X91705359Y-86170000D01*
X91687963Y-86346627D01*
X91636443Y-86516466D01*
X91552778Y-86672991D01*
X91529466Y-86701397D01*
X91440186Y-86810186D01*
X91338729Y-86893448D01*
X91302991Y-86922778D01*
X91146466Y-87006443D01*
X90976627Y-87057963D01*
X90910443Y-87064481D01*
X90844260Y-87071000D01*
X90755740Y-87071000D01*
X90689557Y-87064481D01*
X90623373Y-87057963D01*
X90453534Y-87006443D01*
X90297009Y-86922778D01*
X90261271Y-86893448D01*
X90159814Y-86810186D01*
X90070534Y-86701397D01*
X90047222Y-86672991D01*
X89963557Y-86516466D01*
X89912037Y-86346627D01*
X89894641Y-86170000D01*
X89912037Y-85993373D01*
X89963557Y-85823534D01*
X90047222Y-85667009D01*
X90076552Y-85631271D01*
X90159814Y-85529814D01*
X90261271Y-85446552D01*
X90297009Y-85417222D01*
X90453534Y-85333557D01*
X90623373Y-85282037D01*
X90689557Y-85275519D01*
X90755740Y-85269000D01*
X90844260Y-85269000D01*
X90910443Y-85275519D01*
X90910443Y-85275519D01*
G37*
G36*
X129734468Y-84003565D02*
G01*
X129773138Y-84015296D01*
X129808777Y-84034346D01*
X129840017Y-84059983D01*
X129865654Y-84091223D01*
X129884704Y-84126862D01*
X129896435Y-84165532D01*
X129901000Y-84211888D01*
X129901000Y-85288112D01*
X129896435Y-85334468D01*
X129884704Y-85373138D01*
X129865654Y-85408777D01*
X129840017Y-85440017D01*
X129808777Y-85465654D01*
X129773138Y-85484704D01*
X129734468Y-85496435D01*
X129688112Y-85501000D01*
X129036888Y-85501000D01*
X128990532Y-85496435D01*
X128951862Y-85484704D01*
X128916223Y-85465654D01*
X128884983Y-85440017D01*
X128859346Y-85408777D01*
X128840296Y-85373138D01*
X128828565Y-85334468D01*
X128824000Y-85288112D01*
X128824000Y-84211888D01*
X128828565Y-84165532D01*
X128840296Y-84126862D01*
X128859346Y-84091223D01*
X128884983Y-84059983D01*
X128916223Y-84034346D01*
X128951862Y-84015296D01*
X128990532Y-84003565D01*
X129036888Y-83999000D01*
X129688112Y-83999000D01*
X129734468Y-84003565D01*
X129734468Y-84003565D01*
G37*
G36*
X131609468Y-84003565D02*
G01*
X131648138Y-84015296D01*
X131683777Y-84034346D01*
X131715017Y-84059983D01*
X131740654Y-84091223D01*
X131759704Y-84126862D01*
X131771435Y-84165532D01*
X131776000Y-84211888D01*
X131776000Y-85288112D01*
X131771435Y-85334468D01*
X131759704Y-85373138D01*
X131740654Y-85408777D01*
X131715017Y-85440017D01*
X131683777Y-85465654D01*
X131648138Y-85484704D01*
X131609468Y-85496435D01*
X131563112Y-85501000D01*
X130911888Y-85501000D01*
X130865532Y-85496435D01*
X130826862Y-85484704D01*
X130791223Y-85465654D01*
X130759983Y-85440017D01*
X130734346Y-85408777D01*
X130715296Y-85373138D01*
X130703565Y-85334468D01*
X130699000Y-85288112D01*
X130699000Y-84211888D01*
X130703565Y-84165532D01*
X130715296Y-84126862D01*
X130734346Y-84091223D01*
X130759983Y-84059983D01*
X130791223Y-84034346D01*
X130826862Y-84015296D01*
X130865532Y-84003565D01*
X130911888Y-83999000D01*
X131563112Y-83999000D01*
X131609468Y-84003565D01*
X131609468Y-84003565D01*
G37*
G36*
X126604468Y-84178565D02*
G01*
X126643138Y-84190296D01*
X126678777Y-84209346D01*
X126710017Y-84234983D01*
X126735654Y-84266223D01*
X126754704Y-84301862D01*
X126766435Y-84340532D01*
X126771000Y-84386888D01*
X126771000Y-85038112D01*
X126766435Y-85084468D01*
X126754704Y-85123138D01*
X126735654Y-85158777D01*
X126710017Y-85190017D01*
X126678777Y-85215654D01*
X126643138Y-85234704D01*
X126604468Y-85246435D01*
X126558112Y-85251000D01*
X125481888Y-85251000D01*
X125435532Y-85246435D01*
X125396862Y-85234704D01*
X125361223Y-85215654D01*
X125329983Y-85190017D01*
X125304346Y-85158777D01*
X125285296Y-85123138D01*
X125273565Y-85084468D01*
X125269000Y-85038112D01*
X125269000Y-84386888D01*
X125273565Y-84340532D01*
X125285296Y-84301862D01*
X125304346Y-84266223D01*
X125329983Y-84234983D01*
X125361223Y-84209346D01*
X125396862Y-84190296D01*
X125435532Y-84178565D01*
X125481888Y-84174000D01*
X126558112Y-84174000D01*
X126604468Y-84178565D01*
X126604468Y-84178565D01*
G37*
G36*
X124104468Y-84178565D02*
G01*
X124143138Y-84190296D01*
X124178777Y-84209346D01*
X124210017Y-84234983D01*
X124235654Y-84266223D01*
X124254704Y-84301862D01*
X124266435Y-84340532D01*
X124271000Y-84386888D01*
X124271000Y-85038112D01*
X124266435Y-85084468D01*
X124254704Y-85123138D01*
X124235654Y-85158777D01*
X124210017Y-85190017D01*
X124178777Y-85215654D01*
X124143138Y-85234704D01*
X124104468Y-85246435D01*
X124058112Y-85251000D01*
X122981888Y-85251000D01*
X122935532Y-85246435D01*
X122896862Y-85234704D01*
X122861223Y-85215654D01*
X122829983Y-85190017D01*
X122804346Y-85158777D01*
X122785296Y-85123138D01*
X122773565Y-85084468D01*
X122769000Y-85038112D01*
X122769000Y-84386888D01*
X122773565Y-84340532D01*
X122785296Y-84301862D01*
X122804346Y-84266223D01*
X122829983Y-84234983D01*
X122861223Y-84209346D01*
X122896862Y-84190296D01*
X122935532Y-84178565D01*
X122981888Y-84174000D01*
X124058112Y-84174000D01*
X124104468Y-84178565D01*
X124104468Y-84178565D01*
G37*
G36*
X121604468Y-84178565D02*
G01*
X121643138Y-84190296D01*
X121678777Y-84209346D01*
X121710017Y-84234983D01*
X121735654Y-84266223D01*
X121754704Y-84301862D01*
X121766435Y-84340532D01*
X121771000Y-84386888D01*
X121771000Y-85038112D01*
X121766435Y-85084468D01*
X121754704Y-85123138D01*
X121735654Y-85158777D01*
X121710017Y-85190017D01*
X121678777Y-85215654D01*
X121643138Y-85234704D01*
X121604468Y-85246435D01*
X121558112Y-85251000D01*
X120481888Y-85251000D01*
X120435532Y-85246435D01*
X120396862Y-85234704D01*
X120361223Y-85215654D01*
X120329983Y-85190017D01*
X120304346Y-85158777D01*
X120285296Y-85123138D01*
X120273565Y-85084468D01*
X120269000Y-85038112D01*
X120269000Y-84386888D01*
X120273565Y-84340532D01*
X120285296Y-84301862D01*
X120304346Y-84266223D01*
X120329983Y-84234983D01*
X120361223Y-84209346D01*
X120396862Y-84190296D01*
X120435532Y-84178565D01*
X120481888Y-84174000D01*
X121558112Y-84174000D01*
X121604468Y-84178565D01*
X121604468Y-84178565D01*
G37*
G36*
X119104468Y-84178565D02*
G01*
X119143138Y-84190296D01*
X119178777Y-84209346D01*
X119210017Y-84234983D01*
X119235654Y-84266223D01*
X119254704Y-84301862D01*
X119266435Y-84340532D01*
X119271000Y-84386888D01*
X119271000Y-85038112D01*
X119266435Y-85084468D01*
X119254704Y-85123138D01*
X119235654Y-85158777D01*
X119210017Y-85190017D01*
X119178777Y-85215654D01*
X119143138Y-85234704D01*
X119104468Y-85246435D01*
X119058112Y-85251000D01*
X117981888Y-85251000D01*
X117935532Y-85246435D01*
X117896862Y-85234704D01*
X117861223Y-85215654D01*
X117829983Y-85190017D01*
X117804346Y-85158777D01*
X117785296Y-85123138D01*
X117773565Y-85084468D01*
X117769000Y-85038112D01*
X117769000Y-84386888D01*
X117773565Y-84340532D01*
X117785296Y-84301862D01*
X117804346Y-84266223D01*
X117829983Y-84234983D01*
X117861223Y-84209346D01*
X117896862Y-84190296D01*
X117935532Y-84178565D01*
X117981888Y-84174000D01*
X119058112Y-84174000D01*
X119104468Y-84178565D01*
X119104468Y-84178565D01*
G37*
G36*
X164684473Y-83635938D02*
G01*
X164812049Y-83688782D01*
X164926859Y-83765495D01*
X165024505Y-83863141D01*
X165101218Y-83977951D01*
X165154062Y-84105527D01*
X165181000Y-84240956D01*
X165181000Y-84379044D01*
X165154062Y-84514473D01*
X165101218Y-84642049D01*
X165024505Y-84756859D01*
X164926859Y-84854505D01*
X164812049Y-84931218D01*
X164684473Y-84984062D01*
X164549044Y-85011000D01*
X164410956Y-85011000D01*
X164275527Y-84984062D01*
X164147951Y-84931218D01*
X164033141Y-84854505D01*
X163935495Y-84756859D01*
X163858782Y-84642049D01*
X163805938Y-84514473D01*
X163779000Y-84379044D01*
X163779000Y-84240956D01*
X163805938Y-84105527D01*
X163858782Y-83977951D01*
X163935495Y-83863141D01*
X164033141Y-83765495D01*
X164147951Y-83688782D01*
X164275527Y-83635938D01*
X164410956Y-83609000D01*
X164549044Y-83609000D01*
X164684473Y-83635938D01*
X164684473Y-83635938D01*
G37*
G36*
X119104468Y-82303565D02*
G01*
X119143138Y-82315296D01*
X119178777Y-82334346D01*
X119210017Y-82359983D01*
X119235654Y-82391223D01*
X119254704Y-82426862D01*
X119266435Y-82465532D01*
X119271000Y-82511888D01*
X119271000Y-83163112D01*
X119266435Y-83209468D01*
X119254704Y-83248138D01*
X119235654Y-83283777D01*
X119210017Y-83315017D01*
X119178777Y-83340654D01*
X119143138Y-83359704D01*
X119104468Y-83371435D01*
X119058112Y-83376000D01*
X117981888Y-83376000D01*
X117935532Y-83371435D01*
X117896862Y-83359704D01*
X117861223Y-83340654D01*
X117829983Y-83315017D01*
X117804346Y-83283777D01*
X117785296Y-83248138D01*
X117773565Y-83209468D01*
X117769000Y-83163112D01*
X117769000Y-82511888D01*
X117773565Y-82465532D01*
X117785296Y-82426862D01*
X117804346Y-82391223D01*
X117829983Y-82359983D01*
X117861223Y-82334346D01*
X117896862Y-82315296D01*
X117935532Y-82303565D01*
X117981888Y-82299000D01*
X119058112Y-82299000D01*
X119104468Y-82303565D01*
X119104468Y-82303565D01*
G37*
G36*
X126604468Y-82303565D02*
G01*
X126643138Y-82315296D01*
X126678777Y-82334346D01*
X126710017Y-82359983D01*
X126735654Y-82391223D01*
X126754704Y-82426862D01*
X126766435Y-82465532D01*
X126771000Y-82511888D01*
X126771000Y-83163112D01*
X126766435Y-83209468D01*
X126754704Y-83248138D01*
X126735654Y-83283777D01*
X126710017Y-83315017D01*
X126678777Y-83340654D01*
X126643138Y-83359704D01*
X126604468Y-83371435D01*
X126558112Y-83376000D01*
X125481888Y-83376000D01*
X125435532Y-83371435D01*
X125396862Y-83359704D01*
X125361223Y-83340654D01*
X125329983Y-83315017D01*
X125304346Y-83283777D01*
X125285296Y-83248138D01*
X125273565Y-83209468D01*
X125269000Y-83163112D01*
X125269000Y-82511888D01*
X125273565Y-82465532D01*
X125285296Y-82426862D01*
X125304346Y-82391223D01*
X125329983Y-82359983D01*
X125361223Y-82334346D01*
X125396862Y-82315296D01*
X125435532Y-82303565D01*
X125481888Y-82299000D01*
X126558112Y-82299000D01*
X126604468Y-82303565D01*
X126604468Y-82303565D01*
G37*
G36*
X124104468Y-82303565D02*
G01*
X124143138Y-82315296D01*
X124178777Y-82334346D01*
X124210017Y-82359983D01*
X124235654Y-82391223D01*
X124254704Y-82426862D01*
X124266435Y-82465532D01*
X124271000Y-82511888D01*
X124271000Y-83163112D01*
X124266435Y-83209468D01*
X124254704Y-83248138D01*
X124235654Y-83283777D01*
X124210017Y-83315017D01*
X124178777Y-83340654D01*
X124143138Y-83359704D01*
X124104468Y-83371435D01*
X124058112Y-83376000D01*
X122981888Y-83376000D01*
X122935532Y-83371435D01*
X122896862Y-83359704D01*
X122861223Y-83340654D01*
X122829983Y-83315017D01*
X122804346Y-83283777D01*
X122785296Y-83248138D01*
X122773565Y-83209468D01*
X122769000Y-83163112D01*
X122769000Y-82511888D01*
X122773565Y-82465532D01*
X122785296Y-82426862D01*
X122804346Y-82391223D01*
X122829983Y-82359983D01*
X122861223Y-82334346D01*
X122896862Y-82315296D01*
X122935532Y-82303565D01*
X122981888Y-82299000D01*
X124058112Y-82299000D01*
X124104468Y-82303565D01*
X124104468Y-82303565D01*
G37*
G36*
X121604468Y-82303565D02*
G01*
X121643138Y-82315296D01*
X121678777Y-82334346D01*
X121710017Y-82359983D01*
X121735654Y-82391223D01*
X121754704Y-82426862D01*
X121766435Y-82465532D01*
X121771000Y-82511888D01*
X121771000Y-83163112D01*
X121766435Y-83209468D01*
X121754704Y-83248138D01*
X121735654Y-83283777D01*
X121710017Y-83315017D01*
X121678777Y-83340654D01*
X121643138Y-83359704D01*
X121604468Y-83371435D01*
X121558112Y-83376000D01*
X120481888Y-83376000D01*
X120435532Y-83371435D01*
X120396862Y-83359704D01*
X120361223Y-83340654D01*
X120329983Y-83315017D01*
X120304346Y-83283777D01*
X120285296Y-83248138D01*
X120273565Y-83209468D01*
X120269000Y-83163112D01*
X120269000Y-82511888D01*
X120273565Y-82465532D01*
X120285296Y-82426862D01*
X120304346Y-82391223D01*
X120329983Y-82359983D01*
X120361223Y-82334346D01*
X120396862Y-82315296D01*
X120435532Y-82303565D01*
X120481888Y-82299000D01*
X121558112Y-82299000D01*
X121604468Y-82303565D01*
X121604468Y-82303565D01*
G37*
G36*
X83976000Y-82497800D02*
G01*
X82824000Y-82497800D01*
X82824000Y-80945800D01*
X83976000Y-80945800D01*
X83976000Y-82497800D01*
X83976000Y-82497800D01*
G37*
G36*
X82076000Y-82497800D02*
G01*
X80924000Y-82497800D01*
X80924000Y-80945800D01*
X82076000Y-80945800D01*
X82076000Y-82497800D01*
X82076000Y-82497800D01*
G37*
G36*
X88311968Y-80975365D02*
G01*
X88350638Y-80987096D01*
X88386277Y-81006146D01*
X88417517Y-81031783D01*
X88443154Y-81063023D01*
X88462204Y-81098662D01*
X88473935Y-81137332D01*
X88478500Y-81183688D01*
X88478500Y-82259912D01*
X88473935Y-82306268D01*
X88462204Y-82344938D01*
X88443154Y-82380577D01*
X88417517Y-82411817D01*
X88386277Y-82437454D01*
X88350638Y-82456504D01*
X88311968Y-82468235D01*
X88265612Y-82472800D01*
X87614388Y-82472800D01*
X87568032Y-82468235D01*
X87529362Y-82456504D01*
X87493723Y-82437454D01*
X87462483Y-82411817D01*
X87436846Y-82380577D01*
X87417796Y-82344938D01*
X87406065Y-82306268D01*
X87401500Y-82259912D01*
X87401500Y-81183688D01*
X87406065Y-81137332D01*
X87417796Y-81098662D01*
X87436846Y-81063023D01*
X87462483Y-81031783D01*
X87493723Y-81006146D01*
X87529362Y-80987096D01*
X87568032Y-80975365D01*
X87614388Y-80970800D01*
X88265612Y-80970800D01*
X88311968Y-80975365D01*
X88311968Y-80975365D01*
G37*
G36*
X90186968Y-80975365D02*
G01*
X90225638Y-80987096D01*
X90261277Y-81006146D01*
X90292517Y-81031783D01*
X90318154Y-81063023D01*
X90337204Y-81098662D01*
X90348935Y-81137332D01*
X90353500Y-81183688D01*
X90353500Y-82259912D01*
X90348935Y-82306268D01*
X90337204Y-82344938D01*
X90318154Y-82380577D01*
X90292517Y-82411817D01*
X90261277Y-82437454D01*
X90225638Y-82456504D01*
X90186968Y-82468235D01*
X90140612Y-82472800D01*
X89489388Y-82472800D01*
X89443032Y-82468235D01*
X89404362Y-82456504D01*
X89368723Y-82437454D01*
X89337483Y-82411817D01*
X89311846Y-82380577D01*
X89292796Y-82344938D01*
X89281065Y-82306268D01*
X89276500Y-82259912D01*
X89276500Y-81183688D01*
X89281065Y-81137332D01*
X89292796Y-81098662D01*
X89311846Y-81063023D01*
X89337483Y-81031783D01*
X89368723Y-81006146D01*
X89404362Y-80987096D01*
X89443032Y-80975365D01*
X89489388Y-80970800D01*
X90140612Y-80970800D01*
X90186968Y-80975365D01*
X90186968Y-80975365D01*
G37*
G36*
X108627608Y-78297825D02*
G01*
X108666278Y-78309556D01*
X108701917Y-78328606D01*
X108733157Y-78354243D01*
X108758794Y-78385483D01*
X108777844Y-78421122D01*
X108789575Y-78459792D01*
X108794140Y-78506148D01*
X108794140Y-79157372D01*
X108789575Y-79203728D01*
X108777844Y-79242398D01*
X108758794Y-79278037D01*
X108733157Y-79309277D01*
X108701917Y-79334914D01*
X108666278Y-79353964D01*
X108627608Y-79365695D01*
X108581252Y-79370260D01*
X107505028Y-79370260D01*
X107458672Y-79365695D01*
X107420002Y-79353964D01*
X107384363Y-79334914D01*
X107353123Y-79309277D01*
X107327486Y-79278037D01*
X107308436Y-79242398D01*
X107296705Y-79203728D01*
X107292140Y-79157372D01*
X107292140Y-78506148D01*
X107296705Y-78459792D01*
X107308436Y-78421122D01*
X107327486Y-78385483D01*
X107353123Y-78354243D01*
X107384363Y-78328606D01*
X107420002Y-78309556D01*
X107458672Y-78297825D01*
X107505028Y-78293260D01*
X108581252Y-78293260D01*
X108627608Y-78297825D01*
X108627608Y-78297825D01*
G37*
G36*
X105947908Y-78267345D02*
G01*
X105986578Y-78279076D01*
X106022217Y-78298126D01*
X106053457Y-78323763D01*
X106079094Y-78355003D01*
X106098144Y-78390642D01*
X106109875Y-78429312D01*
X106114440Y-78475668D01*
X106114440Y-79126892D01*
X106109875Y-79173248D01*
X106098144Y-79211918D01*
X106079094Y-79247557D01*
X106053457Y-79278797D01*
X106022217Y-79304434D01*
X105986578Y-79323484D01*
X105947908Y-79335215D01*
X105901552Y-79339780D01*
X104825328Y-79339780D01*
X104778972Y-79335215D01*
X104740302Y-79323484D01*
X104704663Y-79304434D01*
X104673423Y-79278797D01*
X104647786Y-79247557D01*
X104628736Y-79211918D01*
X104617005Y-79173248D01*
X104612440Y-79126892D01*
X104612440Y-78475668D01*
X104617005Y-78429312D01*
X104628736Y-78390642D01*
X104647786Y-78355003D01*
X104673423Y-78323763D01*
X104704663Y-78298126D01*
X104740302Y-78279076D01*
X104778972Y-78267345D01*
X104825328Y-78262780D01*
X105901552Y-78262780D01*
X105947908Y-78267345D01*
X105947908Y-78267345D01*
G37*
G36*
X83976000Y-78789400D02*
G01*
X82824000Y-78789400D01*
X82824000Y-77237400D01*
X83976000Y-77237400D01*
X83976000Y-78789400D01*
X83976000Y-78789400D01*
G37*
G36*
X82076000Y-78789400D02*
G01*
X80924000Y-78789400D01*
X80924000Y-77237400D01*
X82076000Y-77237400D01*
X82076000Y-78789400D01*
X82076000Y-78789400D01*
G37*
G36*
X88311968Y-77266965D02*
G01*
X88350638Y-77278696D01*
X88386277Y-77297746D01*
X88417517Y-77323383D01*
X88443154Y-77354623D01*
X88462204Y-77390262D01*
X88473935Y-77428932D01*
X88478500Y-77475288D01*
X88478500Y-78551512D01*
X88473935Y-78597868D01*
X88462204Y-78636538D01*
X88443154Y-78672177D01*
X88417517Y-78703417D01*
X88386277Y-78729054D01*
X88350638Y-78748104D01*
X88311968Y-78759835D01*
X88265612Y-78764400D01*
X87614388Y-78764400D01*
X87568032Y-78759835D01*
X87529362Y-78748104D01*
X87493723Y-78729054D01*
X87462483Y-78703417D01*
X87436846Y-78672177D01*
X87417796Y-78636538D01*
X87406065Y-78597868D01*
X87401500Y-78551512D01*
X87401500Y-77475288D01*
X87406065Y-77428932D01*
X87417796Y-77390262D01*
X87436846Y-77354623D01*
X87462483Y-77323383D01*
X87493723Y-77297746D01*
X87529362Y-77278696D01*
X87568032Y-77266965D01*
X87614388Y-77262400D01*
X88265612Y-77262400D01*
X88311968Y-77266965D01*
X88311968Y-77266965D01*
G37*
G36*
X90186968Y-77266965D02*
G01*
X90225638Y-77278696D01*
X90261277Y-77297746D01*
X90292517Y-77323383D01*
X90318154Y-77354623D01*
X90337204Y-77390262D01*
X90348935Y-77428932D01*
X90353500Y-77475288D01*
X90353500Y-78551512D01*
X90348935Y-78597868D01*
X90337204Y-78636538D01*
X90318154Y-78672177D01*
X90292517Y-78703417D01*
X90261277Y-78729054D01*
X90225638Y-78748104D01*
X90186968Y-78759835D01*
X90140612Y-78764400D01*
X89489388Y-78764400D01*
X89443032Y-78759835D01*
X89404362Y-78748104D01*
X89368723Y-78729054D01*
X89337483Y-78703417D01*
X89311846Y-78672177D01*
X89292796Y-78636538D01*
X89281065Y-78597868D01*
X89276500Y-78551512D01*
X89276500Y-77475288D01*
X89281065Y-77428932D01*
X89292796Y-77390262D01*
X89311846Y-77354623D01*
X89337483Y-77323383D01*
X89368723Y-77297746D01*
X89404362Y-77278696D01*
X89443032Y-77266965D01*
X89489388Y-77262400D01*
X90140612Y-77262400D01*
X90186968Y-77266965D01*
X90186968Y-77266965D01*
G37*
G36*
X108627608Y-76422825D02*
G01*
X108666278Y-76434556D01*
X108701917Y-76453606D01*
X108733157Y-76479243D01*
X108758794Y-76510483D01*
X108777844Y-76546122D01*
X108789575Y-76584792D01*
X108794140Y-76631148D01*
X108794140Y-77282372D01*
X108789575Y-77328728D01*
X108777844Y-77367398D01*
X108758794Y-77403037D01*
X108733157Y-77434277D01*
X108701917Y-77459914D01*
X108666278Y-77478964D01*
X108627608Y-77490695D01*
X108581252Y-77495260D01*
X107505028Y-77495260D01*
X107458672Y-77490695D01*
X107420002Y-77478964D01*
X107384363Y-77459914D01*
X107353123Y-77434277D01*
X107327486Y-77403037D01*
X107308436Y-77367398D01*
X107296705Y-77328728D01*
X107292140Y-77282372D01*
X107292140Y-76631148D01*
X107296705Y-76584792D01*
X107308436Y-76546122D01*
X107327486Y-76510483D01*
X107353123Y-76479243D01*
X107384363Y-76453606D01*
X107420002Y-76434556D01*
X107458672Y-76422825D01*
X107505028Y-76418260D01*
X108581252Y-76418260D01*
X108627608Y-76422825D01*
X108627608Y-76422825D01*
G37*
G36*
X105947908Y-76392345D02*
G01*
X105986578Y-76404076D01*
X106022217Y-76423126D01*
X106053457Y-76448763D01*
X106079094Y-76480003D01*
X106098144Y-76515642D01*
X106109875Y-76554312D01*
X106114440Y-76600668D01*
X106114440Y-77251892D01*
X106109875Y-77298248D01*
X106098144Y-77336918D01*
X106079094Y-77372557D01*
X106053457Y-77403797D01*
X106022217Y-77429434D01*
X105986578Y-77448484D01*
X105947908Y-77460215D01*
X105901552Y-77464780D01*
X104825328Y-77464780D01*
X104778972Y-77460215D01*
X104740302Y-77448484D01*
X104704663Y-77429434D01*
X104673423Y-77403797D01*
X104647786Y-77372557D01*
X104628736Y-77336918D01*
X104617005Y-77298248D01*
X104612440Y-77251892D01*
X104612440Y-76600668D01*
X104617005Y-76554312D01*
X104628736Y-76515642D01*
X104647786Y-76480003D01*
X104673423Y-76448763D01*
X104704663Y-76423126D01*
X104740302Y-76404076D01*
X104778972Y-76392345D01*
X104825328Y-76387780D01*
X105901552Y-76387780D01*
X105947908Y-76392345D01*
X105947908Y-76392345D01*
G37*
G36*
X112184260Y-75086280D02*
G01*
X109982260Y-75086280D01*
X109982260Y-73584280D01*
X112184260Y-73584280D01*
X112184260Y-75086280D01*
X112184260Y-75086280D01*
G37*
G36*
X118184260Y-75086280D02*
G01*
X115982260Y-75086280D01*
X115982260Y-73584280D01*
X118184260Y-73584280D01*
X118184260Y-75086280D01*
X118184260Y-75086280D01*
G37*
G36*
X83976000Y-75081000D02*
G01*
X82824000Y-75081000D01*
X82824000Y-73529000D01*
X83976000Y-73529000D01*
X83976000Y-75081000D01*
X83976000Y-75081000D01*
G37*
G36*
X82076000Y-75081000D02*
G01*
X80924000Y-75081000D01*
X80924000Y-73529000D01*
X82076000Y-73529000D01*
X82076000Y-75081000D01*
X82076000Y-75081000D01*
G37*
G36*
X101998588Y-73558805D02*
G01*
X102037258Y-73570536D01*
X102072897Y-73589586D01*
X102104137Y-73615223D01*
X102129774Y-73646463D01*
X102148824Y-73682102D01*
X102160555Y-73720772D01*
X102165120Y-73767128D01*
X102165120Y-74843352D01*
X102160555Y-74889708D01*
X102148824Y-74928378D01*
X102129774Y-74964017D01*
X102104137Y-74995257D01*
X102072897Y-75020894D01*
X102037258Y-75039944D01*
X101998588Y-75051675D01*
X101952232Y-75056240D01*
X101301008Y-75056240D01*
X101254652Y-75051675D01*
X101215982Y-75039944D01*
X101180343Y-75020894D01*
X101149103Y-74995257D01*
X101123466Y-74964017D01*
X101104416Y-74928378D01*
X101092685Y-74889708D01*
X101088120Y-74843352D01*
X101088120Y-73767128D01*
X101092685Y-73720772D01*
X101104416Y-73682102D01*
X101123466Y-73646463D01*
X101149103Y-73615223D01*
X101180343Y-73589586D01*
X101215982Y-73570536D01*
X101254652Y-73558805D01*
X101301008Y-73554240D01*
X101952232Y-73554240D01*
X101998588Y-73558805D01*
X101998588Y-73558805D01*
G37*
G36*
X103873588Y-73558805D02*
G01*
X103912258Y-73570536D01*
X103947897Y-73589586D01*
X103979137Y-73615223D01*
X104004774Y-73646463D01*
X104023824Y-73682102D01*
X104035555Y-73720772D01*
X104040120Y-73767128D01*
X104040120Y-74843352D01*
X104035555Y-74889708D01*
X104023824Y-74928378D01*
X104004774Y-74964017D01*
X103979137Y-74995257D01*
X103947897Y-75020894D01*
X103912258Y-75039944D01*
X103873588Y-75051675D01*
X103827232Y-75056240D01*
X103176008Y-75056240D01*
X103129652Y-75051675D01*
X103090982Y-75039944D01*
X103055343Y-75020894D01*
X103024103Y-74995257D01*
X102998466Y-74964017D01*
X102979416Y-74928378D01*
X102967685Y-74889708D01*
X102963120Y-74843352D01*
X102963120Y-73767128D01*
X102967685Y-73720772D01*
X102979416Y-73682102D01*
X102998466Y-73646463D01*
X103024103Y-73615223D01*
X103055343Y-73589586D01*
X103090982Y-73570536D01*
X103129652Y-73558805D01*
X103176008Y-73554240D01*
X103827232Y-73554240D01*
X103873588Y-73558805D01*
X103873588Y-73558805D01*
G37*
G36*
X90186968Y-73558565D02*
G01*
X90225638Y-73570296D01*
X90261277Y-73589346D01*
X90292517Y-73614983D01*
X90318154Y-73646223D01*
X90337204Y-73681862D01*
X90348935Y-73720532D01*
X90353500Y-73766888D01*
X90353500Y-74843112D01*
X90348935Y-74889468D01*
X90337204Y-74928138D01*
X90318154Y-74963777D01*
X90292517Y-74995017D01*
X90261277Y-75020654D01*
X90225638Y-75039704D01*
X90186968Y-75051435D01*
X90140612Y-75056000D01*
X89489388Y-75056000D01*
X89443032Y-75051435D01*
X89404362Y-75039704D01*
X89368723Y-75020654D01*
X89337483Y-74995017D01*
X89311846Y-74963777D01*
X89292796Y-74928138D01*
X89281065Y-74889468D01*
X89276500Y-74843112D01*
X89276500Y-73766888D01*
X89281065Y-73720532D01*
X89292796Y-73681862D01*
X89311846Y-73646223D01*
X89337483Y-73614983D01*
X89368723Y-73589346D01*
X89404362Y-73570296D01*
X89443032Y-73558565D01*
X89489388Y-73554000D01*
X90140612Y-73554000D01*
X90186968Y-73558565D01*
X90186968Y-73558565D01*
G37*
G36*
X88311968Y-73558565D02*
G01*
X88350638Y-73570296D01*
X88386277Y-73589346D01*
X88417517Y-73614983D01*
X88443154Y-73646223D01*
X88462204Y-73681862D01*
X88473935Y-73720532D01*
X88478500Y-73766888D01*
X88478500Y-74843112D01*
X88473935Y-74889468D01*
X88462204Y-74928138D01*
X88443154Y-74963777D01*
X88417517Y-74995017D01*
X88386277Y-75020654D01*
X88350638Y-75039704D01*
X88311968Y-75051435D01*
X88265612Y-75056000D01*
X87614388Y-75056000D01*
X87568032Y-75051435D01*
X87529362Y-75039704D01*
X87493723Y-75020654D01*
X87462483Y-74995017D01*
X87436846Y-74963777D01*
X87417796Y-74928138D01*
X87406065Y-74889468D01*
X87401500Y-74843112D01*
X87401500Y-73766888D01*
X87406065Y-73720532D01*
X87417796Y-73681862D01*
X87436846Y-73646223D01*
X87462483Y-73614983D01*
X87493723Y-73589346D01*
X87529362Y-73570296D01*
X87568032Y-73558565D01*
X87614388Y-73554000D01*
X88265612Y-73554000D01*
X88311968Y-73558565D01*
X88311968Y-73558565D01*
G37*
G36*
X106324448Y-73525785D02*
G01*
X106363118Y-73537516D01*
X106398757Y-73556566D01*
X106429997Y-73582203D01*
X106455634Y-73613443D01*
X106474684Y-73649082D01*
X106486415Y-73687752D01*
X106490980Y-73734108D01*
X106490980Y-74810332D01*
X106486415Y-74856688D01*
X106474684Y-74895358D01*
X106455634Y-74930997D01*
X106429997Y-74962237D01*
X106398757Y-74987874D01*
X106363118Y-75006924D01*
X106324448Y-75018655D01*
X106278092Y-75023220D01*
X105626868Y-75023220D01*
X105580512Y-75018655D01*
X105541842Y-75006924D01*
X105506203Y-74987874D01*
X105474963Y-74962237D01*
X105449326Y-74930997D01*
X105430276Y-74895358D01*
X105418545Y-74856688D01*
X105413980Y-74810332D01*
X105413980Y-73734108D01*
X105418545Y-73687752D01*
X105430276Y-73649082D01*
X105449326Y-73613443D01*
X105474963Y-73582203D01*
X105506203Y-73556566D01*
X105541842Y-73537516D01*
X105580512Y-73525785D01*
X105626868Y-73521220D01*
X106278092Y-73521220D01*
X106324448Y-73525785D01*
X106324448Y-73525785D01*
G37*
G36*
X108199448Y-73525785D02*
G01*
X108238118Y-73537516D01*
X108273757Y-73556566D01*
X108304997Y-73582203D01*
X108330634Y-73613443D01*
X108349684Y-73649082D01*
X108361415Y-73687752D01*
X108365980Y-73734108D01*
X108365980Y-74810332D01*
X108361415Y-74856688D01*
X108349684Y-74895358D01*
X108330634Y-74930997D01*
X108304997Y-74962237D01*
X108273757Y-74987874D01*
X108238118Y-75006924D01*
X108199448Y-75018655D01*
X108153092Y-75023220D01*
X107501868Y-75023220D01*
X107455512Y-75018655D01*
X107416842Y-75006924D01*
X107381203Y-74987874D01*
X107349963Y-74962237D01*
X107324326Y-74930997D01*
X107305276Y-74895358D01*
X107293545Y-74856688D01*
X107288980Y-74810332D01*
X107288980Y-73734108D01*
X107293545Y-73687752D01*
X107305276Y-73649082D01*
X107324326Y-73613443D01*
X107349963Y-73582203D01*
X107381203Y-73556566D01*
X107416842Y-73537516D01*
X107455512Y-73525785D01*
X107501868Y-73521220D01*
X108153092Y-73521220D01*
X108199448Y-73525785D01*
X108199448Y-73525785D01*
G37*
G36*
X112184260Y-70586280D02*
G01*
X109982260Y-70586280D01*
X109982260Y-69084280D01*
X112184260Y-69084280D01*
X112184260Y-70586280D01*
X112184260Y-70586280D01*
G37*
G36*
X118184260Y-70586280D02*
G01*
X115982260Y-70586280D01*
X115982260Y-69084280D01*
X118184260Y-69084280D01*
X118184260Y-70586280D01*
X118184260Y-70586280D01*
G37*
G36*
X136964468Y-67691065D02*
G01*
X137003138Y-67702796D01*
X137038777Y-67721846D01*
X137070017Y-67747483D01*
X137095654Y-67778723D01*
X137114704Y-67814362D01*
X137126435Y-67853032D01*
X137131000Y-67899388D01*
X137131000Y-68550612D01*
X137126435Y-68596968D01*
X137114704Y-68635638D01*
X137095654Y-68671277D01*
X137070017Y-68702517D01*
X137038777Y-68728154D01*
X137003138Y-68747204D01*
X136964468Y-68758935D01*
X136918112Y-68763500D01*
X135841888Y-68763500D01*
X135795532Y-68758935D01*
X135756862Y-68747204D01*
X135721223Y-68728154D01*
X135689983Y-68702517D01*
X135664346Y-68671277D01*
X135645296Y-68635638D01*
X135633565Y-68596968D01*
X135629000Y-68550612D01*
X135629000Y-67899388D01*
X135633565Y-67853032D01*
X135645296Y-67814362D01*
X135664346Y-67778723D01*
X135689983Y-67747483D01*
X135721223Y-67721846D01*
X135756862Y-67702796D01*
X135795532Y-67691065D01*
X135841888Y-67686500D01*
X136918112Y-67686500D01*
X136964468Y-67691065D01*
X136964468Y-67691065D01*
G37*
G36*
X158034794Y-66290155D02*
G01*
X158141150Y-66311311D01*
X158341520Y-66394307D01*
X158521844Y-66514795D01*
X158675205Y-66668156D01*
X158795693Y-66848480D01*
X158810379Y-66883935D01*
X158878689Y-67048850D01*
X158921000Y-67261561D01*
X158921000Y-67478439D01*
X158878689Y-67691150D01*
X158865974Y-67721846D01*
X158795693Y-67891520D01*
X158675205Y-68071844D01*
X158521844Y-68225205D01*
X158341520Y-68345693D01*
X158241334Y-68387191D01*
X158141150Y-68428689D01*
X158034795Y-68449844D01*
X157928440Y-68471000D01*
X157711560Y-68471000D01*
X157605205Y-68449844D01*
X157498850Y-68428689D01*
X157398666Y-68387191D01*
X157298480Y-68345693D01*
X157118156Y-68225205D01*
X156964795Y-68071844D01*
X156844307Y-67891520D01*
X156774026Y-67721846D01*
X156761311Y-67691150D01*
X156719000Y-67478439D01*
X156719000Y-67261561D01*
X156761311Y-67048850D01*
X156829621Y-66883935D01*
X156844307Y-66848480D01*
X156964795Y-66668156D01*
X157118156Y-66514795D01*
X157298480Y-66394307D01*
X157498850Y-66311311D01*
X157605206Y-66290155D01*
X157711560Y-66269000D01*
X157928440Y-66269000D01*
X158034794Y-66290155D01*
X158034794Y-66290155D01*
G37*
G36*
X168194794Y-66290155D02*
G01*
X168301150Y-66311311D01*
X168501520Y-66394307D01*
X168681844Y-66514795D01*
X168835205Y-66668156D01*
X168955693Y-66848480D01*
X168970379Y-66883935D01*
X169038689Y-67048850D01*
X169081000Y-67261561D01*
X169081000Y-67478439D01*
X169038689Y-67691150D01*
X169025974Y-67721846D01*
X168955693Y-67891520D01*
X168835205Y-68071844D01*
X168681844Y-68225205D01*
X168501520Y-68345693D01*
X168401334Y-68387191D01*
X168301150Y-68428689D01*
X168194795Y-68449844D01*
X168088440Y-68471000D01*
X167871560Y-68471000D01*
X167765205Y-68449844D01*
X167658850Y-68428689D01*
X167558666Y-68387191D01*
X167458480Y-68345693D01*
X167278156Y-68225205D01*
X167124795Y-68071844D01*
X167004307Y-67891520D01*
X166934026Y-67721846D01*
X166921311Y-67691150D01*
X166879000Y-67478439D01*
X166879000Y-67261561D01*
X166921311Y-67048850D01*
X166989621Y-66883935D01*
X167004307Y-66848480D01*
X167124795Y-66668156D01*
X167278156Y-66514795D01*
X167458480Y-66394307D01*
X167658850Y-66311311D01*
X167765206Y-66290155D01*
X167871560Y-66269000D01*
X168088440Y-66269000D01*
X168194794Y-66290155D01*
X168194794Y-66290155D01*
G37*
G36*
X136964468Y-65816065D02*
G01*
X137003138Y-65827796D01*
X137038777Y-65846846D01*
X137070017Y-65872483D01*
X137095654Y-65903723D01*
X137114704Y-65939362D01*
X137126435Y-65978032D01*
X137131000Y-66024388D01*
X137131000Y-66675612D01*
X137126435Y-66721968D01*
X137114704Y-66760638D01*
X137095654Y-66796277D01*
X137070017Y-66827517D01*
X137038777Y-66853154D01*
X137003138Y-66872204D01*
X136964468Y-66883935D01*
X136918112Y-66888500D01*
X135841888Y-66888500D01*
X135795532Y-66883935D01*
X135756862Y-66872204D01*
X135721223Y-66853154D01*
X135689983Y-66827517D01*
X135664346Y-66796277D01*
X135645296Y-66760638D01*
X135633565Y-66721968D01*
X135629000Y-66675612D01*
X135629000Y-66024388D01*
X135633565Y-65978032D01*
X135645296Y-65939362D01*
X135664346Y-65903723D01*
X135689983Y-65872483D01*
X135721223Y-65846846D01*
X135756862Y-65827796D01*
X135795532Y-65816065D01*
X135841888Y-65811500D01*
X136918112Y-65811500D01*
X136964468Y-65816065D01*
X136964468Y-65816065D01*
G37*
G36*
X140844239Y-52571467D02*
G01*
X141158282Y-52633934D01*
X141749926Y-52879001D01*
X142282392Y-53234784D01*
X142735216Y-53687608D01*
X143090999Y-54220074D01*
X143336066Y-54811718D01*
X143336066Y-54811719D01*
X143461000Y-55439803D01*
X143461000Y-56080197D01*
X143406379Y-56354795D01*
X143336066Y-56708282D01*
X143090999Y-57299926D01*
X142735216Y-57832392D01*
X142282392Y-58285216D01*
X141749926Y-58640999D01*
X141158282Y-58886066D01*
X140844239Y-58948533D01*
X140530197Y-59011000D01*
X139889803Y-59011000D01*
X139575761Y-58948533D01*
X139261718Y-58886066D01*
X138670074Y-58640999D01*
X138137608Y-58285216D01*
X137684784Y-57832392D01*
X137329001Y-57299926D01*
X137083934Y-56708282D01*
X137013621Y-56354795D01*
X136959000Y-56080197D01*
X136959000Y-55439803D01*
X137083934Y-54811719D01*
X137083934Y-54811718D01*
X137329001Y-54220074D01*
X137684784Y-53687608D01*
X138137608Y-53234784D01*
X138670074Y-52879001D01*
X139261718Y-52633934D01*
X139575761Y-52571467D01*
X139889803Y-52509000D01*
X140530197Y-52509000D01*
X140844239Y-52571467D01*
X140844239Y-52571467D01*
G37*
G36*
X81984239Y-52571467D02*
G01*
X82298282Y-52633934D01*
X82889926Y-52879001D01*
X83422392Y-53234784D01*
X83875216Y-53687608D01*
X84230999Y-54220074D01*
X84476066Y-54811718D01*
X84476066Y-54811719D01*
X84601000Y-55439803D01*
X84601000Y-56080197D01*
X84546379Y-56354795D01*
X84476066Y-56708282D01*
X84230999Y-57299926D01*
X83875216Y-57832392D01*
X83422392Y-58285216D01*
X82889926Y-58640999D01*
X82298282Y-58886066D01*
X81984239Y-58948533D01*
X81670197Y-59011000D01*
X81029803Y-59011000D01*
X80715761Y-58948533D01*
X80401718Y-58886066D01*
X79810074Y-58640999D01*
X79277608Y-58285216D01*
X78824784Y-57832392D01*
X78469001Y-57299926D01*
X78223934Y-56708282D01*
X78153621Y-56354795D01*
X78099000Y-56080197D01*
X78099000Y-55439803D01*
X78223934Y-54811719D01*
X78223934Y-54811718D01*
X78469001Y-54220074D01*
X78824784Y-53687608D01*
X79277608Y-53234784D01*
X79810074Y-52879001D01*
X80401718Y-52633934D01*
X80715761Y-52571467D01*
X81029803Y-52509000D01*
X81670197Y-52509000D01*
X81984239Y-52571467D01*
X81984239Y-52571467D01*
G37*
G36*
X158034794Y-56130155D02*
G01*
X158141150Y-56151311D01*
X158241334Y-56192809D01*
X158341520Y-56234307D01*
X158521844Y-56354795D01*
X158675205Y-56508156D01*
X158795693Y-56688480D01*
X158878689Y-56888851D01*
X158921000Y-57101560D01*
X158921000Y-57318440D01*
X158878689Y-57531149D01*
X158795693Y-57731520D01*
X158675205Y-57911844D01*
X158521844Y-58065205D01*
X158341520Y-58185693D01*
X158241334Y-58227191D01*
X158141150Y-58268689D01*
X158058063Y-58285216D01*
X157928440Y-58311000D01*
X157711560Y-58311000D01*
X157581937Y-58285216D01*
X157498850Y-58268689D01*
X157298480Y-58185693D01*
X157118156Y-58065205D01*
X156964795Y-57911844D01*
X156844307Y-57731520D01*
X156761311Y-57531149D01*
X156719000Y-57318440D01*
X156719000Y-57101560D01*
X156761311Y-56888851D01*
X156844307Y-56688480D01*
X156964795Y-56508156D01*
X157118156Y-56354795D01*
X157298480Y-56234307D01*
X157498850Y-56151311D01*
X157605206Y-56130155D01*
X157711560Y-56109000D01*
X157928440Y-56109000D01*
X158034794Y-56130155D01*
X158034794Y-56130155D01*
G37*
G36*
X168194794Y-56130155D02*
G01*
X168301150Y-56151311D01*
X168401334Y-56192809D01*
X168501520Y-56234307D01*
X168681844Y-56354795D01*
X168835205Y-56508156D01*
X168955693Y-56688480D01*
X169038689Y-56888851D01*
X169081000Y-57101560D01*
X169081000Y-57318440D01*
X169038689Y-57531149D01*
X168955693Y-57731520D01*
X168835205Y-57911844D01*
X168681844Y-58065205D01*
X168501520Y-58185693D01*
X168401334Y-58227191D01*
X168301150Y-58268689D01*
X168218063Y-58285216D01*
X168088440Y-58311000D01*
X167871560Y-58311000D01*
X167741937Y-58285216D01*
X167658850Y-58268689D01*
X167458480Y-58185693D01*
X167278156Y-58065205D01*
X167124795Y-57911844D01*
X167004307Y-57731520D01*
X166921311Y-57531149D01*
X166879000Y-57318440D01*
X166879000Y-57101560D01*
X166921311Y-56888851D01*
X167004307Y-56688480D01*
X167124795Y-56508156D01*
X167278156Y-56354795D01*
X167458480Y-56234307D01*
X167658850Y-56151311D01*
X167765206Y-56130155D01*
X167871560Y-56109000D01*
X168088440Y-56109000D01*
X168194794Y-56130155D01*
X168194794Y-56130155D01*
G37*
M02*
