G04 #@! TF.GenerationSoftware,KiCad,Pcbnew,5.1.4-3.fc30*
G04 #@! TF.CreationDate,2019-12-04T09:12:17+01:00*
G04 #@! TF.ProjectId,WattFred,57617474-4672-4656-942e-6b696361645f,rev?*
G04 #@! TF.SameCoordinates,Original*
G04 #@! TF.FileFunction,Copper,L2,Bot*
G04 #@! TF.FilePolarity,Positive*
%FSLAX46Y46*%
G04 Gerber Fmt 4.6, Leading zero omitted, Abs format (unit mm)*
G04 Created by KiCad (PCBNEW 5.1.4-3.fc30) date 2019-12-04 09:12:17*
%MOMM*%
%LPD*%
G04 APERTURE LIST*
%ADD10C,0.010000*%
%ADD11C,6.400000*%
%ADD12O,1.700000X1.700000*%
%ADD13R,1.700000X1.700000*%
%ADD14R,3.750000X2.000000*%
%ADD15C,1.300000*%
%ADD16C,1.524000*%
%ADD17R,1.600000X0.500000*%
%ADD18R,0.600000X0.900000*%
%ADD19R,1.700000X1.800000*%
%ADD20C,2.100000*%
%ADD21C,0.100000*%
%ADD22C,0.975000*%
%ADD23C,0.500000*%
%ADD24C,0.800000*%
%ADD25C,4.000000*%
%ADD26C,0.400000*%
%ADD27C,1.000000*%
%ADD28C,0.200000*%
%ADD29C,0.500000*%
%ADD30C,0.254000*%
G04 APERTURE END LIST*
D10*
G36*
X87896000Y-111332667D02*
G01*
X87896000Y-127927333D01*
X84848000Y-127927333D01*
X84848000Y-122762667D01*
X83324000Y-122762667D01*
X83324000Y-111332667D01*
X87896000Y-111332667D01*
X87896000Y-111332667D01*
G37*
X87896000Y-111332667D02*
X87896000Y-127927333D01*
X84848000Y-127927333D01*
X84848000Y-122762667D01*
X83324000Y-122762667D01*
X83324000Y-111332667D01*
X87896000Y-111332667D01*
D11*
X140210000Y-55760000D03*
X81350000Y-55760000D03*
X81350000Y-132130000D03*
X140210000Y-132130000D03*
D12*
X119460000Y-134970000D03*
X116920000Y-134970000D03*
X114380000Y-134970000D03*
X111840000Y-134970000D03*
X109300000Y-134970000D03*
X106760000Y-134970000D03*
D13*
X104220000Y-134970000D03*
D14*
X154830000Y-110960000D03*
X154830000Y-103460000D03*
D12*
X90800000Y-86170000D03*
X88260000Y-86170000D03*
D13*
X85720000Y-86170000D03*
D15*
X164480000Y-104310000D03*
X164480000Y-84310000D03*
X139480000Y-89310000D03*
X139480000Y-99310000D03*
D16*
X96350826Y-94510031D03*
X98153949Y-92721051D03*
X99950000Y-90925000D03*
X101746051Y-89128949D03*
X103542102Y-87332898D03*
D17*
X142130000Y-68015000D03*
X142130000Y-66415000D03*
X142130000Y-64815000D03*
D18*
X144630000Y-63615000D03*
D19*
X147030000Y-64915000D03*
X147030000Y-67915000D03*
D18*
X144630000Y-69215000D03*
D20*
X157820000Y-57210000D03*
X167980000Y-57210000D03*
X157820000Y-67370000D03*
X167980000Y-67370000D03*
X167940000Y-131300000D03*
X157780000Y-131300000D03*
X167940000Y-121140000D03*
X157780000Y-121140000D03*
D21*
G36*
X90437642Y-88791174D02*
G01*
X90461303Y-88794684D01*
X90484507Y-88800496D01*
X90507029Y-88808554D01*
X90528653Y-88818782D01*
X90549170Y-88831079D01*
X90568383Y-88845329D01*
X90586107Y-88861393D01*
X90602171Y-88879117D01*
X90616421Y-88898330D01*
X90628718Y-88918847D01*
X90638946Y-88940471D01*
X90647004Y-88962993D01*
X90652816Y-88986197D01*
X90656326Y-89009858D01*
X90657500Y-89033750D01*
X90657500Y-89946250D01*
X90656326Y-89970142D01*
X90652816Y-89993803D01*
X90647004Y-90017007D01*
X90638946Y-90039529D01*
X90628718Y-90061153D01*
X90616421Y-90081670D01*
X90602171Y-90100883D01*
X90586107Y-90118607D01*
X90568383Y-90134671D01*
X90549170Y-90148921D01*
X90528653Y-90161218D01*
X90507029Y-90171446D01*
X90484507Y-90179504D01*
X90461303Y-90185316D01*
X90437642Y-90188826D01*
X90413750Y-90190000D01*
X89926250Y-90190000D01*
X89902358Y-90188826D01*
X89878697Y-90185316D01*
X89855493Y-90179504D01*
X89832971Y-90171446D01*
X89811347Y-90161218D01*
X89790830Y-90148921D01*
X89771617Y-90134671D01*
X89753893Y-90118607D01*
X89737829Y-90100883D01*
X89723579Y-90081670D01*
X89711282Y-90061153D01*
X89701054Y-90039529D01*
X89692996Y-90017007D01*
X89687184Y-89993803D01*
X89683674Y-89970142D01*
X89682500Y-89946250D01*
X89682500Y-89033750D01*
X89683674Y-89009858D01*
X89687184Y-88986197D01*
X89692996Y-88962993D01*
X89701054Y-88940471D01*
X89711282Y-88918847D01*
X89723579Y-88898330D01*
X89737829Y-88879117D01*
X89753893Y-88861393D01*
X89771617Y-88845329D01*
X89790830Y-88831079D01*
X89811347Y-88818782D01*
X89832971Y-88808554D01*
X89855493Y-88800496D01*
X89878697Y-88794684D01*
X89902358Y-88791174D01*
X89926250Y-88790000D01*
X90413750Y-88790000D01*
X90437642Y-88791174D01*
X90437642Y-88791174D01*
G37*
D22*
X90170000Y-89490000D03*
D21*
G36*
X88562642Y-88791174D02*
G01*
X88586303Y-88794684D01*
X88609507Y-88800496D01*
X88632029Y-88808554D01*
X88653653Y-88818782D01*
X88674170Y-88831079D01*
X88693383Y-88845329D01*
X88711107Y-88861393D01*
X88727171Y-88879117D01*
X88741421Y-88898330D01*
X88753718Y-88918847D01*
X88763946Y-88940471D01*
X88772004Y-88962993D01*
X88777816Y-88986197D01*
X88781326Y-89009858D01*
X88782500Y-89033750D01*
X88782500Y-89946250D01*
X88781326Y-89970142D01*
X88777816Y-89993803D01*
X88772004Y-90017007D01*
X88763946Y-90039529D01*
X88753718Y-90061153D01*
X88741421Y-90081670D01*
X88727171Y-90100883D01*
X88711107Y-90118607D01*
X88693383Y-90134671D01*
X88674170Y-90148921D01*
X88653653Y-90161218D01*
X88632029Y-90171446D01*
X88609507Y-90179504D01*
X88586303Y-90185316D01*
X88562642Y-90188826D01*
X88538750Y-90190000D01*
X88051250Y-90190000D01*
X88027358Y-90188826D01*
X88003697Y-90185316D01*
X87980493Y-90179504D01*
X87957971Y-90171446D01*
X87936347Y-90161218D01*
X87915830Y-90148921D01*
X87896617Y-90134671D01*
X87878893Y-90118607D01*
X87862829Y-90100883D01*
X87848579Y-90081670D01*
X87836282Y-90061153D01*
X87826054Y-90039529D01*
X87817996Y-90017007D01*
X87812184Y-89993803D01*
X87808674Y-89970142D01*
X87807500Y-89946250D01*
X87807500Y-89033750D01*
X87808674Y-89009858D01*
X87812184Y-88986197D01*
X87817996Y-88962993D01*
X87826054Y-88940471D01*
X87836282Y-88918847D01*
X87848579Y-88898330D01*
X87862829Y-88879117D01*
X87878893Y-88861393D01*
X87896617Y-88845329D01*
X87915830Y-88831079D01*
X87936347Y-88818782D01*
X87957971Y-88808554D01*
X87980493Y-88800496D01*
X88003697Y-88794684D01*
X88027358Y-88791174D01*
X88051250Y-88790000D01*
X88538750Y-88790000D01*
X88562642Y-88791174D01*
X88562642Y-88791174D01*
G37*
D22*
X88295000Y-89490000D03*
D23*
X101750000Y-124450000D03*
D24*
X110920000Y-105930000D03*
X104150000Y-93325000D03*
D23*
X110678234Y-93346766D03*
D24*
X96840000Y-100710000D03*
X91120000Y-97610000D03*
X142680000Y-70830000D03*
D23*
X109450000Y-104600000D03*
D24*
X133090000Y-66460000D03*
X99710000Y-94320000D03*
X125580000Y-101110000D03*
X124800000Y-97460000D03*
X116925000Y-101400000D03*
D25*
X109198840Y-98801000D03*
D24*
X119810000Y-107400000D03*
X112570000Y-107230000D03*
X122290000Y-77350000D03*
X122450000Y-66020000D03*
X136390000Y-63860000D03*
X99392500Y-128527500D03*
X103300000Y-101725000D03*
X102298720Y-78801280D03*
D23*
X93150000Y-81775000D03*
X114173089Y-97374079D03*
X114750000Y-96775000D03*
X92950000Y-78025000D03*
X92800000Y-74675000D03*
X114076964Y-96179796D03*
D24*
X97600000Y-105290000D03*
X101950000Y-94250000D03*
X101810000Y-105430000D03*
X103300000Y-96150000D03*
D26*
X101750000Y-124450000D02*
X101750000Y-124450000D01*
D27*
X110900000Y-115300000D02*
X101750000Y-124450000D01*
X110890000Y-115290000D02*
X110890000Y-108860000D01*
X110900000Y-115300000D02*
X110890000Y-115290000D01*
X110920000Y-108830000D02*
X110920000Y-105930000D01*
X110890000Y-108860000D02*
X110920000Y-108830000D01*
D28*
X104150000Y-93325000D02*
X110656468Y-93325000D01*
X110656468Y-93325000D02*
X110678234Y-93346766D01*
D27*
X103542102Y-92717102D02*
X104150000Y-93325000D01*
X103542102Y-87332898D02*
X103542102Y-92717102D01*
D26*
X96840000Y-100710000D02*
X96840000Y-100710000D01*
D29*
X94220000Y-100710000D02*
X91120000Y-97610000D01*
X96840000Y-100710000D02*
X94220000Y-100710000D01*
X142680000Y-68565000D02*
X142130000Y-68015000D01*
X142680000Y-70830000D02*
X142680000Y-68565000D01*
D27*
X102379204Y-86170000D02*
X103542102Y-87332898D01*
X90800000Y-86170000D02*
X102379204Y-86170000D01*
X84169999Y-90659999D02*
X90720001Y-97210001D01*
X90720001Y-97210001D02*
X91120000Y-97610000D01*
X84169999Y-84759999D02*
X84169999Y-90659999D01*
X84519998Y-84410000D02*
X84169999Y-84759999D01*
X89040000Y-84410000D02*
X84519998Y-84410000D01*
X90800000Y-86170000D02*
X89040000Y-84410000D01*
X110333500Y-103716500D02*
X109450000Y-104600000D01*
D28*
X110539999Y-103510001D02*
X110333500Y-103716500D01*
D29*
X141580000Y-64815000D02*
X137975000Y-61210000D01*
X142130000Y-64815000D02*
X141580000Y-64815000D01*
X137975000Y-61210000D02*
X134310000Y-61210000D01*
X134310000Y-61210000D02*
X132050000Y-63470000D01*
X132050000Y-63470000D02*
X132050000Y-65420000D01*
X132050000Y-65420000D02*
X133090000Y-66460000D01*
X133090000Y-66460000D02*
X133090000Y-66460000D01*
D27*
X133090000Y-100770002D02*
X130350001Y-103510001D01*
X133090000Y-66460000D02*
X133090000Y-100770002D01*
X130350001Y-103510001D02*
X110539999Y-103510001D01*
D29*
X97520000Y-96510000D02*
X99710000Y-94320000D01*
X97520000Y-97700000D02*
X97520000Y-96510000D01*
X90195000Y-89365000D02*
X90195000Y-91695000D01*
X90195000Y-91695000D02*
X96200000Y-97700000D01*
X96200000Y-97700000D02*
X97520000Y-97700000D01*
D28*
X102698719Y-79201279D02*
X102298720Y-78801280D01*
X115300001Y-91802561D02*
X102698719Y-79201279D01*
X115300001Y-98236001D02*
X115300001Y-91802561D01*
X111811002Y-101725000D02*
X115300001Y-98236001D01*
X103300000Y-101725000D02*
X111811002Y-101725000D01*
X98550000Y-81775000D02*
X93150000Y-81775000D01*
X93150000Y-81775000D02*
X93150000Y-81775000D01*
X101500000Y-81775000D02*
X111750000Y-92025000D01*
X111750000Y-92025000D02*
X111750000Y-95435998D01*
X113688081Y-97374079D02*
X113819536Y-97374079D01*
X111750000Y-95435998D02*
X113688081Y-97374079D01*
X93150000Y-81775000D02*
X101500000Y-81775000D01*
X113819536Y-97374079D02*
X114173089Y-97374079D01*
X114750000Y-96775000D02*
X114396447Y-96775000D01*
X92950000Y-78025000D02*
X92950000Y-78025000D01*
X95646447Y-78025000D02*
X95250000Y-78025000D01*
X95250000Y-78025000D02*
X92950000Y-78025000D01*
X100449989Y-81374989D02*
X97100000Y-78025000D01*
X113654702Y-96775000D02*
X112150011Y-95270309D01*
X101665689Y-81374989D02*
X100449989Y-81374989D01*
X112150011Y-91859311D02*
X101665689Y-81374989D01*
X97100000Y-78025000D02*
X95250000Y-78025000D01*
X112150011Y-95270309D02*
X112150011Y-91859311D01*
X114750000Y-96775000D02*
X113654702Y-96775000D01*
X92800000Y-74675000D02*
X92800000Y-74675000D01*
X92800000Y-74675000D02*
X93074280Y-74675000D01*
X114076964Y-93220564D02*
X114076964Y-95826243D01*
X92800000Y-74675000D02*
X95531400Y-74675000D01*
X114076964Y-95826243D02*
X114076964Y-96179796D01*
X95531400Y-74675000D02*
X114076964Y-93220564D01*
D27*
X97600000Y-105290000D02*
X97600000Y-102790000D01*
X97600000Y-102790000D02*
X99510000Y-100880000D01*
X99510000Y-100880000D02*
X99510000Y-96690000D01*
X99510000Y-96690000D02*
X101950000Y-94250000D01*
X101950000Y-94250000D02*
X101950000Y-94250000D01*
X101810000Y-105430000D02*
X101810000Y-97650000D01*
X101810000Y-97650000D02*
X102800000Y-96660000D01*
X102800000Y-96660000D02*
X102800000Y-96650000D01*
X102800000Y-96650000D02*
X103300000Y-96150000D01*
X103300000Y-96150000D02*
X103300000Y-96150000D01*
X88260000Y-89455000D02*
X88295000Y-89490000D01*
X88260000Y-86170000D02*
X88260000Y-89455000D01*
D30*
G36*
X168834295Y-55752116D02*
G01*
X168571523Y-55623537D01*
X168250654Y-55538620D01*
X167919383Y-55517934D01*
X167590443Y-55562272D01*
X167276473Y-55669931D01*
X167090339Y-55769421D01*
X166988539Y-56038934D01*
X167980000Y-57030395D01*
X167994143Y-57016253D01*
X168173748Y-57195858D01*
X168159605Y-57210000D01*
X168173748Y-57224143D01*
X167994143Y-57403748D01*
X167980000Y-57389605D01*
X166988539Y-58381066D01*
X167090339Y-58650579D01*
X167388477Y-58796463D01*
X167709346Y-58881380D01*
X168040617Y-58902066D01*
X168369557Y-58857728D01*
X168683527Y-58750069D01*
X168858072Y-58656774D01*
X168871943Y-60351363D01*
X162901613Y-60275510D01*
X162876808Y-60277636D01*
X162848025Y-60286622D01*
X150969923Y-65614300D01*
X148517658Y-65732245D01*
X148515000Y-65200750D01*
X148356250Y-65042000D01*
X147157000Y-65042000D01*
X147157000Y-65062000D01*
X146903000Y-65062000D01*
X146903000Y-65042000D01*
X146883000Y-65042000D01*
X146883000Y-64788000D01*
X146903000Y-64788000D01*
X146903000Y-63538750D01*
X147157000Y-63538750D01*
X147157000Y-64788000D01*
X148356250Y-64788000D01*
X148515000Y-64629250D01*
X148518072Y-64015000D01*
X148505812Y-63890518D01*
X148469502Y-63770820D01*
X148410537Y-63660506D01*
X148331185Y-63563815D01*
X148234494Y-63484463D01*
X148124180Y-63425498D01*
X148004482Y-63389188D01*
X147880000Y-63376928D01*
X147315750Y-63380000D01*
X147157000Y-63538750D01*
X146903000Y-63538750D01*
X146744250Y-63380000D01*
X146180000Y-63376928D01*
X146114228Y-63383406D01*
X146097613Y-61489305D01*
X150979287Y-58381066D01*
X156828539Y-58381066D01*
X156930339Y-58650579D01*
X157228477Y-58796463D01*
X157549346Y-58881380D01*
X157880617Y-58902066D01*
X158209557Y-58857728D01*
X158523527Y-58750069D01*
X158709661Y-58650579D01*
X158811461Y-58381066D01*
X157820000Y-57389605D01*
X156828539Y-58381066D01*
X150979287Y-58381066D01*
X152723314Y-57270617D01*
X156127934Y-57270617D01*
X156172272Y-57599557D01*
X156279931Y-57913527D01*
X156379421Y-58099661D01*
X156648934Y-58201461D01*
X157640395Y-57210000D01*
X157999605Y-57210000D01*
X158991066Y-58201461D01*
X159260579Y-58099661D01*
X159406463Y-57801523D01*
X159491380Y-57480654D01*
X159504495Y-57270617D01*
X166287934Y-57270617D01*
X166332272Y-57599557D01*
X166439931Y-57913527D01*
X166539421Y-58099661D01*
X166808934Y-58201461D01*
X167800395Y-57210000D01*
X166808934Y-56218539D01*
X166539421Y-56320339D01*
X166393537Y-56618477D01*
X166308620Y-56939346D01*
X166287934Y-57270617D01*
X159504495Y-57270617D01*
X159512066Y-57149383D01*
X159467728Y-56820443D01*
X159360069Y-56506473D01*
X159260579Y-56320339D01*
X158991066Y-56218539D01*
X157999605Y-57210000D01*
X157640395Y-57210000D01*
X156648934Y-56218539D01*
X156379421Y-56320339D01*
X156233537Y-56618477D01*
X156148620Y-56939346D01*
X156127934Y-57270617D01*
X152723314Y-57270617D01*
X154657745Y-56038934D01*
X156828539Y-56038934D01*
X157820000Y-57030395D01*
X158811461Y-56038934D01*
X158709661Y-55769421D01*
X158411523Y-55623537D01*
X158090654Y-55538620D01*
X157759383Y-55517934D01*
X157430443Y-55562272D01*
X157116473Y-55669931D01*
X156930339Y-55769421D01*
X156828539Y-56038934D01*
X154657745Y-56038934D01*
X158917289Y-53326816D01*
X168814040Y-53277627D01*
X168834295Y-55752116D01*
X168834295Y-55752116D01*
G37*
X168834295Y-55752116D02*
X168571523Y-55623537D01*
X168250654Y-55538620D01*
X167919383Y-55517934D01*
X167590443Y-55562272D01*
X167276473Y-55669931D01*
X167090339Y-55769421D01*
X166988539Y-56038934D01*
X167980000Y-57030395D01*
X167994143Y-57016253D01*
X168173748Y-57195858D01*
X168159605Y-57210000D01*
X168173748Y-57224143D01*
X167994143Y-57403748D01*
X167980000Y-57389605D01*
X166988539Y-58381066D01*
X167090339Y-58650579D01*
X167388477Y-58796463D01*
X167709346Y-58881380D01*
X168040617Y-58902066D01*
X168369557Y-58857728D01*
X168683527Y-58750069D01*
X168858072Y-58656774D01*
X168871943Y-60351363D01*
X162901613Y-60275510D01*
X162876808Y-60277636D01*
X162848025Y-60286622D01*
X150969923Y-65614300D01*
X148517658Y-65732245D01*
X148515000Y-65200750D01*
X148356250Y-65042000D01*
X147157000Y-65042000D01*
X147157000Y-65062000D01*
X146903000Y-65062000D01*
X146903000Y-65042000D01*
X146883000Y-65042000D01*
X146883000Y-64788000D01*
X146903000Y-64788000D01*
X146903000Y-63538750D01*
X147157000Y-63538750D01*
X147157000Y-64788000D01*
X148356250Y-64788000D01*
X148515000Y-64629250D01*
X148518072Y-64015000D01*
X148505812Y-63890518D01*
X148469502Y-63770820D01*
X148410537Y-63660506D01*
X148331185Y-63563815D01*
X148234494Y-63484463D01*
X148124180Y-63425498D01*
X148004482Y-63389188D01*
X147880000Y-63376928D01*
X147315750Y-63380000D01*
X147157000Y-63538750D01*
X146903000Y-63538750D01*
X146744250Y-63380000D01*
X146180000Y-63376928D01*
X146114228Y-63383406D01*
X146097613Y-61489305D01*
X150979287Y-58381066D01*
X156828539Y-58381066D01*
X156930339Y-58650579D01*
X157228477Y-58796463D01*
X157549346Y-58881380D01*
X157880617Y-58902066D01*
X158209557Y-58857728D01*
X158523527Y-58750069D01*
X158709661Y-58650579D01*
X158811461Y-58381066D01*
X157820000Y-57389605D01*
X156828539Y-58381066D01*
X150979287Y-58381066D01*
X152723314Y-57270617D01*
X156127934Y-57270617D01*
X156172272Y-57599557D01*
X156279931Y-57913527D01*
X156379421Y-58099661D01*
X156648934Y-58201461D01*
X157640395Y-57210000D01*
X157999605Y-57210000D01*
X158991066Y-58201461D01*
X159260579Y-58099661D01*
X159406463Y-57801523D01*
X159491380Y-57480654D01*
X159504495Y-57270617D01*
X166287934Y-57270617D01*
X166332272Y-57599557D01*
X166439931Y-57913527D01*
X166539421Y-58099661D01*
X166808934Y-58201461D01*
X167800395Y-57210000D01*
X166808934Y-56218539D01*
X166539421Y-56320339D01*
X166393537Y-56618477D01*
X166308620Y-56939346D01*
X166287934Y-57270617D01*
X159504495Y-57270617D01*
X159512066Y-57149383D01*
X159467728Y-56820443D01*
X159360069Y-56506473D01*
X159260579Y-56320339D01*
X158991066Y-56218539D01*
X157999605Y-57210000D01*
X157640395Y-57210000D01*
X156648934Y-56218539D01*
X156379421Y-56320339D01*
X156233537Y-56618477D01*
X156148620Y-56939346D01*
X156127934Y-57270617D01*
X152723314Y-57270617D01*
X154657745Y-56038934D01*
X156828539Y-56038934D01*
X157820000Y-57030395D01*
X158811461Y-56038934D01*
X158709661Y-55769421D01*
X158411523Y-55623537D01*
X158090654Y-55538620D01*
X157759383Y-55517934D01*
X157430443Y-55562272D01*
X157116473Y-55669931D01*
X156930339Y-55769421D01*
X156828539Y-56038934D01*
X154657745Y-56038934D01*
X158917289Y-53326816D01*
X168814040Y-53277627D01*
X168834295Y-55752116D01*
G36*
X168753000Y-65872337D02*
G01*
X168571523Y-65783537D01*
X168250654Y-65698620D01*
X167919383Y-65677934D01*
X167590443Y-65722272D01*
X167276473Y-65829931D01*
X167090339Y-65929421D01*
X166988539Y-66198934D01*
X167980000Y-67190395D01*
X167994143Y-67176253D01*
X168173748Y-67355858D01*
X168159605Y-67370000D01*
X168173748Y-67384143D01*
X167994143Y-67563748D01*
X167980000Y-67549605D01*
X166988539Y-68541066D01*
X167090339Y-68810579D01*
X167388477Y-68956463D01*
X167709346Y-69041380D01*
X168040617Y-69062066D01*
X168369557Y-69017728D01*
X168683527Y-68910069D01*
X168753000Y-68872935D01*
X168753000Y-72732053D01*
X146146150Y-72563935D01*
X146125058Y-69447661D01*
X146180000Y-69453072D01*
X146744250Y-69450000D01*
X146903000Y-69291250D01*
X146903000Y-68042000D01*
X147157000Y-68042000D01*
X147157000Y-69291250D01*
X147315750Y-69450000D01*
X147880000Y-69453072D01*
X148004482Y-69440812D01*
X148124180Y-69404502D01*
X148234494Y-69345537D01*
X148331185Y-69266185D01*
X148410537Y-69169494D01*
X148469502Y-69059180D01*
X148505812Y-68939482D01*
X148518072Y-68815000D01*
X148516702Y-68541066D01*
X156828539Y-68541066D01*
X156930339Y-68810579D01*
X157228477Y-68956463D01*
X157549346Y-69041380D01*
X157880617Y-69062066D01*
X158209557Y-69017728D01*
X158523527Y-68910069D01*
X158709661Y-68810579D01*
X158811461Y-68541066D01*
X157820000Y-67549605D01*
X156828539Y-68541066D01*
X148516702Y-68541066D01*
X148515000Y-68200750D01*
X148356250Y-68042000D01*
X147157000Y-68042000D01*
X146903000Y-68042000D01*
X146883000Y-68042000D01*
X146883000Y-67788000D01*
X146903000Y-67788000D01*
X146903000Y-67768000D01*
X147157000Y-67768000D01*
X147157000Y-67788000D01*
X148356250Y-67788000D01*
X148515000Y-67629250D01*
X148515993Y-67430617D01*
X156127934Y-67430617D01*
X156172272Y-67759557D01*
X156279931Y-68073527D01*
X156379421Y-68259661D01*
X156648934Y-68361461D01*
X157640395Y-67370000D01*
X157999605Y-67370000D01*
X158991066Y-68361461D01*
X159260579Y-68259661D01*
X159406463Y-67961523D01*
X159491380Y-67640654D01*
X159504495Y-67430617D01*
X166287934Y-67430617D01*
X166332272Y-67759557D01*
X166439931Y-68073527D01*
X166539421Y-68259661D01*
X166808934Y-68361461D01*
X167800395Y-67370000D01*
X166808934Y-66378539D01*
X166539421Y-66480339D01*
X166393537Y-66778477D01*
X166308620Y-67099346D01*
X166287934Y-67430617D01*
X159504495Y-67430617D01*
X159512066Y-67309383D01*
X159467728Y-66980443D01*
X159360069Y-66666473D01*
X159260579Y-66480339D01*
X158991066Y-66378539D01*
X157999605Y-67370000D01*
X157640395Y-67370000D01*
X156648934Y-66378539D01*
X156379421Y-66480339D01*
X156233537Y-66778477D01*
X156148620Y-67099346D01*
X156127934Y-67430617D01*
X148515993Y-67430617D01*
X148518072Y-67015000D01*
X148510378Y-66936875D01*
X153603501Y-66996991D01*
X153628305Y-66994843D01*
X153657012Y-66985861D01*
X155409942Y-66198934D01*
X156828539Y-66198934D01*
X157820000Y-67190395D01*
X158811461Y-66198934D01*
X158709661Y-65929421D01*
X158411523Y-65783537D01*
X158090654Y-65698620D01*
X157759383Y-65677934D01*
X157430443Y-65722272D01*
X157116473Y-65829931D01*
X156930339Y-65929421D01*
X156828539Y-66198934D01*
X155409942Y-66198934D01*
X160582562Y-63876837D01*
X168753000Y-63827765D01*
X168753000Y-65872337D01*
X168753000Y-65872337D01*
G37*
X168753000Y-65872337D02*
X168571523Y-65783537D01*
X168250654Y-65698620D01*
X167919383Y-65677934D01*
X167590443Y-65722272D01*
X167276473Y-65829931D01*
X167090339Y-65929421D01*
X166988539Y-66198934D01*
X167980000Y-67190395D01*
X167994143Y-67176253D01*
X168173748Y-67355858D01*
X168159605Y-67370000D01*
X168173748Y-67384143D01*
X167994143Y-67563748D01*
X167980000Y-67549605D01*
X166988539Y-68541066D01*
X167090339Y-68810579D01*
X167388477Y-68956463D01*
X167709346Y-69041380D01*
X168040617Y-69062066D01*
X168369557Y-69017728D01*
X168683527Y-68910069D01*
X168753000Y-68872935D01*
X168753000Y-72732053D01*
X146146150Y-72563935D01*
X146125058Y-69447661D01*
X146180000Y-69453072D01*
X146744250Y-69450000D01*
X146903000Y-69291250D01*
X146903000Y-68042000D01*
X147157000Y-68042000D01*
X147157000Y-69291250D01*
X147315750Y-69450000D01*
X147880000Y-69453072D01*
X148004482Y-69440812D01*
X148124180Y-69404502D01*
X148234494Y-69345537D01*
X148331185Y-69266185D01*
X148410537Y-69169494D01*
X148469502Y-69059180D01*
X148505812Y-68939482D01*
X148518072Y-68815000D01*
X148516702Y-68541066D01*
X156828539Y-68541066D01*
X156930339Y-68810579D01*
X157228477Y-68956463D01*
X157549346Y-69041380D01*
X157880617Y-69062066D01*
X158209557Y-69017728D01*
X158523527Y-68910069D01*
X158709661Y-68810579D01*
X158811461Y-68541066D01*
X157820000Y-67549605D01*
X156828539Y-68541066D01*
X148516702Y-68541066D01*
X148515000Y-68200750D01*
X148356250Y-68042000D01*
X147157000Y-68042000D01*
X146903000Y-68042000D01*
X146883000Y-68042000D01*
X146883000Y-67788000D01*
X146903000Y-67788000D01*
X146903000Y-67768000D01*
X147157000Y-67768000D01*
X147157000Y-67788000D01*
X148356250Y-67788000D01*
X148515000Y-67629250D01*
X148515993Y-67430617D01*
X156127934Y-67430617D01*
X156172272Y-67759557D01*
X156279931Y-68073527D01*
X156379421Y-68259661D01*
X156648934Y-68361461D01*
X157640395Y-67370000D01*
X157999605Y-67370000D01*
X158991066Y-68361461D01*
X159260579Y-68259661D01*
X159406463Y-67961523D01*
X159491380Y-67640654D01*
X159504495Y-67430617D01*
X166287934Y-67430617D01*
X166332272Y-67759557D01*
X166439931Y-68073527D01*
X166539421Y-68259661D01*
X166808934Y-68361461D01*
X167800395Y-67370000D01*
X166808934Y-66378539D01*
X166539421Y-66480339D01*
X166393537Y-66778477D01*
X166308620Y-67099346D01*
X166287934Y-67430617D01*
X159504495Y-67430617D01*
X159512066Y-67309383D01*
X159467728Y-66980443D01*
X159360069Y-66666473D01*
X159260579Y-66480339D01*
X158991066Y-66378539D01*
X157999605Y-67370000D01*
X157640395Y-67370000D01*
X156648934Y-66378539D01*
X156379421Y-66480339D01*
X156233537Y-66778477D01*
X156148620Y-67099346D01*
X156127934Y-67430617D01*
X148515993Y-67430617D01*
X148518072Y-67015000D01*
X148510378Y-66936875D01*
X153603501Y-66996991D01*
X153628305Y-66994843D01*
X153657012Y-66985861D01*
X155409942Y-66198934D01*
X156828539Y-66198934D01*
X157820000Y-67190395D01*
X158811461Y-66198934D01*
X158709661Y-65929421D01*
X158411523Y-65783537D01*
X158090654Y-65698620D01*
X157759383Y-65677934D01*
X157430443Y-65722272D01*
X157116473Y-65829931D01*
X156930339Y-65929421D01*
X156828539Y-66198934D01*
X155409942Y-66198934D01*
X160582562Y-63876837D01*
X168753000Y-63827765D01*
X168753000Y-65872337D01*
G36*
X158958206Y-109054937D02*
G01*
X158976539Y-119942929D01*
X158887001Y-119853391D01*
X158771460Y-119968932D01*
X158669661Y-119699421D01*
X158371523Y-119553537D01*
X158050654Y-119468620D01*
X157719383Y-119447934D01*
X157390443Y-119492272D01*
X157076473Y-119599931D01*
X156890339Y-119699421D01*
X156788539Y-119968934D01*
X157780000Y-120960395D01*
X157794143Y-120946253D01*
X157973748Y-121125858D01*
X157959605Y-121140000D01*
X158951066Y-122131461D01*
X158980205Y-122120455D01*
X158994020Y-130324763D01*
X158951066Y-130308539D01*
X157959605Y-131300000D01*
X158951066Y-132291461D01*
X158997302Y-132273997D01*
X159003298Y-135835000D01*
X151128583Y-135835000D01*
X151173728Y-132471066D01*
X156788539Y-132471066D01*
X156890339Y-132740579D01*
X157188477Y-132886463D01*
X157509346Y-132971380D01*
X157840617Y-132992066D01*
X158169557Y-132947728D01*
X158483527Y-132840069D01*
X158669661Y-132740579D01*
X158771461Y-132471066D01*
X157780000Y-131479605D01*
X156788539Y-132471066D01*
X151173728Y-132471066D01*
X151188631Y-131360617D01*
X156087934Y-131360617D01*
X156132272Y-131689557D01*
X156239931Y-132003527D01*
X156339421Y-132189661D01*
X156608934Y-132291461D01*
X157600395Y-131300000D01*
X156608934Y-130308539D01*
X156339421Y-130410339D01*
X156193537Y-130708477D01*
X156108620Y-131029346D01*
X156087934Y-131360617D01*
X151188631Y-131360617D01*
X151205160Y-130128934D01*
X156788539Y-130128934D01*
X157780000Y-131120395D01*
X158771461Y-130128934D01*
X158669661Y-129859421D01*
X158371523Y-129713537D01*
X158050654Y-129628620D01*
X157719383Y-129607934D01*
X157390443Y-129652272D01*
X157076473Y-129759931D01*
X156890339Y-129859421D01*
X156788539Y-130128934D01*
X151205160Y-130128934D01*
X151310080Y-122311066D01*
X156788539Y-122311066D01*
X156890339Y-122580579D01*
X157188477Y-122726463D01*
X157509346Y-122811380D01*
X157840617Y-122832066D01*
X158169557Y-122787728D01*
X158483527Y-122680069D01*
X158669661Y-122580579D01*
X158771461Y-122311066D01*
X157780000Y-121319605D01*
X156788539Y-122311066D01*
X151310080Y-122311066D01*
X151324983Y-121200617D01*
X156087934Y-121200617D01*
X156132272Y-121529557D01*
X156239931Y-121843527D01*
X156339421Y-122029661D01*
X156608934Y-122131461D01*
X157600395Y-121140000D01*
X156608934Y-120148539D01*
X156339421Y-120250339D01*
X156193537Y-120548477D01*
X156108620Y-120869346D01*
X156087934Y-121200617D01*
X151324983Y-121200617D01*
X151448997Y-111960000D01*
X152316928Y-111960000D01*
X152329188Y-112084482D01*
X152365498Y-112204180D01*
X152424463Y-112314494D01*
X152503815Y-112411185D01*
X152600506Y-112490537D01*
X152710820Y-112549502D01*
X152830518Y-112585812D01*
X152955000Y-112598072D01*
X154544250Y-112595000D01*
X154703000Y-112436250D01*
X154703000Y-111087000D01*
X154957000Y-111087000D01*
X154957000Y-112436250D01*
X155115750Y-112595000D01*
X156705000Y-112598072D01*
X156829482Y-112585812D01*
X156949180Y-112549502D01*
X157059494Y-112490537D01*
X157156185Y-112411185D01*
X157235537Y-112314494D01*
X157294502Y-112204180D01*
X157330812Y-112084482D01*
X157343072Y-111960000D01*
X157340000Y-111245750D01*
X157181250Y-111087000D01*
X154957000Y-111087000D01*
X154703000Y-111087000D01*
X152478750Y-111087000D01*
X152320000Y-111245750D01*
X152316928Y-111960000D01*
X151448997Y-111960000D01*
X151475838Y-109960000D01*
X152316928Y-109960000D01*
X152320000Y-110674250D01*
X152478750Y-110833000D01*
X154703000Y-110833000D01*
X154703000Y-109483750D01*
X154957000Y-109483750D01*
X154957000Y-110833000D01*
X157181250Y-110833000D01*
X157340000Y-110674250D01*
X157343072Y-109960000D01*
X157330812Y-109835518D01*
X157294502Y-109715820D01*
X157235537Y-109605506D01*
X157156185Y-109508815D01*
X157059494Y-109429463D01*
X156949180Y-109370498D01*
X156829482Y-109334188D01*
X156705000Y-109321928D01*
X155115750Y-109325000D01*
X154957000Y-109483750D01*
X154703000Y-109483750D01*
X154544250Y-109325000D01*
X152955000Y-109321928D01*
X152830518Y-109334188D01*
X152710820Y-109370498D01*
X152600506Y-109429463D01*
X152503815Y-109508815D01*
X152424463Y-109605506D01*
X152365498Y-109715820D01*
X152329188Y-109835518D01*
X152316928Y-109960000D01*
X151475838Y-109960000D01*
X151481976Y-109502686D01*
X151503184Y-108781602D01*
X158958206Y-109054937D01*
X158958206Y-109054937D01*
G37*
X158958206Y-109054937D02*
X158976539Y-119942929D01*
X158887001Y-119853391D01*
X158771460Y-119968932D01*
X158669661Y-119699421D01*
X158371523Y-119553537D01*
X158050654Y-119468620D01*
X157719383Y-119447934D01*
X157390443Y-119492272D01*
X157076473Y-119599931D01*
X156890339Y-119699421D01*
X156788539Y-119968934D01*
X157780000Y-120960395D01*
X157794143Y-120946253D01*
X157973748Y-121125858D01*
X157959605Y-121140000D01*
X158951066Y-122131461D01*
X158980205Y-122120455D01*
X158994020Y-130324763D01*
X158951066Y-130308539D01*
X157959605Y-131300000D01*
X158951066Y-132291461D01*
X158997302Y-132273997D01*
X159003298Y-135835000D01*
X151128583Y-135835000D01*
X151173728Y-132471066D01*
X156788539Y-132471066D01*
X156890339Y-132740579D01*
X157188477Y-132886463D01*
X157509346Y-132971380D01*
X157840617Y-132992066D01*
X158169557Y-132947728D01*
X158483527Y-132840069D01*
X158669661Y-132740579D01*
X158771461Y-132471066D01*
X157780000Y-131479605D01*
X156788539Y-132471066D01*
X151173728Y-132471066D01*
X151188631Y-131360617D01*
X156087934Y-131360617D01*
X156132272Y-131689557D01*
X156239931Y-132003527D01*
X156339421Y-132189661D01*
X156608934Y-132291461D01*
X157600395Y-131300000D01*
X156608934Y-130308539D01*
X156339421Y-130410339D01*
X156193537Y-130708477D01*
X156108620Y-131029346D01*
X156087934Y-131360617D01*
X151188631Y-131360617D01*
X151205160Y-130128934D01*
X156788539Y-130128934D01*
X157780000Y-131120395D01*
X158771461Y-130128934D01*
X158669661Y-129859421D01*
X158371523Y-129713537D01*
X158050654Y-129628620D01*
X157719383Y-129607934D01*
X157390443Y-129652272D01*
X157076473Y-129759931D01*
X156890339Y-129859421D01*
X156788539Y-130128934D01*
X151205160Y-130128934D01*
X151310080Y-122311066D01*
X156788539Y-122311066D01*
X156890339Y-122580579D01*
X157188477Y-122726463D01*
X157509346Y-122811380D01*
X157840617Y-122832066D01*
X158169557Y-122787728D01*
X158483527Y-122680069D01*
X158669661Y-122580579D01*
X158771461Y-122311066D01*
X157780000Y-121319605D01*
X156788539Y-122311066D01*
X151310080Y-122311066D01*
X151324983Y-121200617D01*
X156087934Y-121200617D01*
X156132272Y-121529557D01*
X156239931Y-121843527D01*
X156339421Y-122029661D01*
X156608934Y-122131461D01*
X157600395Y-121140000D01*
X156608934Y-120148539D01*
X156339421Y-120250339D01*
X156193537Y-120548477D01*
X156108620Y-120869346D01*
X156087934Y-121200617D01*
X151324983Y-121200617D01*
X151448997Y-111960000D01*
X152316928Y-111960000D01*
X152329188Y-112084482D01*
X152365498Y-112204180D01*
X152424463Y-112314494D01*
X152503815Y-112411185D01*
X152600506Y-112490537D01*
X152710820Y-112549502D01*
X152830518Y-112585812D01*
X152955000Y-112598072D01*
X154544250Y-112595000D01*
X154703000Y-112436250D01*
X154703000Y-111087000D01*
X154957000Y-111087000D01*
X154957000Y-112436250D01*
X155115750Y-112595000D01*
X156705000Y-112598072D01*
X156829482Y-112585812D01*
X156949180Y-112549502D01*
X157059494Y-112490537D01*
X157156185Y-112411185D01*
X157235537Y-112314494D01*
X157294502Y-112204180D01*
X157330812Y-112084482D01*
X157343072Y-111960000D01*
X157340000Y-111245750D01*
X157181250Y-111087000D01*
X154957000Y-111087000D01*
X154703000Y-111087000D01*
X152478750Y-111087000D01*
X152320000Y-111245750D01*
X152316928Y-111960000D01*
X151448997Y-111960000D01*
X151475838Y-109960000D01*
X152316928Y-109960000D01*
X152320000Y-110674250D01*
X152478750Y-110833000D01*
X154703000Y-110833000D01*
X154703000Y-109483750D01*
X154957000Y-109483750D01*
X154957000Y-110833000D01*
X157181250Y-110833000D01*
X157340000Y-110674250D01*
X157343072Y-109960000D01*
X157330812Y-109835518D01*
X157294502Y-109715820D01*
X157235537Y-109605506D01*
X157156185Y-109508815D01*
X157059494Y-109429463D01*
X156949180Y-109370498D01*
X156829482Y-109334188D01*
X156705000Y-109321928D01*
X155115750Y-109325000D01*
X154957000Y-109483750D01*
X154703000Y-109483750D01*
X154544250Y-109325000D01*
X152955000Y-109321928D01*
X152830518Y-109334188D01*
X152710820Y-109370498D01*
X152600506Y-109429463D01*
X152503815Y-109508815D01*
X152424463Y-109605506D01*
X152365498Y-109715820D01*
X152329188Y-109835518D01*
X152316928Y-109960000D01*
X151475838Y-109960000D01*
X151481976Y-109502686D01*
X151503184Y-108781602D01*
X158958206Y-109054937D01*
G36*
X78828724Y-53059119D02*
G01*
X81350000Y-55580395D01*
X83871276Y-53059119D01*
X83610794Y-52705000D01*
X137949206Y-52705000D01*
X137688724Y-53059119D01*
X140210000Y-55580395D01*
X140224143Y-55566253D01*
X140403748Y-55745858D01*
X140389605Y-55760000D01*
X140403748Y-55774143D01*
X140224143Y-55953748D01*
X140210000Y-55939605D01*
X137688724Y-58460881D01*
X138048912Y-58950548D01*
X138712882Y-59310849D01*
X139434385Y-59534694D01*
X140185695Y-59613480D01*
X140937938Y-59544178D01*
X141662208Y-59329452D01*
X142143733Y-59075964D01*
X142081476Y-63926928D01*
X141943507Y-63926928D01*
X138631534Y-60614956D01*
X138603817Y-60581183D01*
X138469059Y-60470589D01*
X138315313Y-60388411D01*
X138148490Y-60337805D01*
X138018477Y-60325000D01*
X138018469Y-60325000D01*
X137975000Y-60320719D01*
X137931531Y-60325000D01*
X134353469Y-60325000D01*
X134310000Y-60320719D01*
X134266531Y-60325000D01*
X134266523Y-60325000D01*
X134136510Y-60337805D01*
X133969686Y-60388411D01*
X133815941Y-60470589D01*
X133714953Y-60553468D01*
X133714951Y-60553470D01*
X133681183Y-60581183D01*
X133653470Y-60614951D01*
X131454956Y-62813466D01*
X131421183Y-62841183D01*
X131310589Y-62975942D01*
X131228411Y-63129688D01*
X131177805Y-63296511D01*
X131165000Y-63426524D01*
X131165000Y-63426531D01*
X131160719Y-63470000D01*
X131165000Y-63513469D01*
X131165001Y-65376521D01*
X131160719Y-65420000D01*
X131177805Y-65593490D01*
X131228412Y-65760313D01*
X131310590Y-65914059D01*
X131393468Y-66015046D01*
X131393471Y-66015049D01*
X131421184Y-66048817D01*
X131454951Y-66076529D01*
X131955000Y-66576579D01*
X131955001Y-100299869D01*
X129879870Y-102375001D01*
X112154132Y-102375001D01*
X112221322Y-102339087D01*
X112333240Y-102247238D01*
X112356261Y-102219187D01*
X115794198Y-98781251D01*
X115822238Y-98758239D01*
X115845251Y-98730198D01*
X115845254Y-98730195D01*
X115914088Y-98646321D01*
X115982338Y-98518635D01*
X116024366Y-98380086D01*
X116038557Y-98236001D01*
X116035001Y-98199896D01*
X116035001Y-91838666D01*
X116038557Y-91802561D01*
X116024366Y-91658476D01*
X116011081Y-91614681D01*
X115982338Y-91519928D01*
X115914088Y-91392241D01*
X115822239Y-91280323D01*
X115794194Y-91257307D01*
X103333720Y-78796834D01*
X103333720Y-78699341D01*
X103293946Y-78499382D01*
X103215925Y-78311024D01*
X103102657Y-78141506D01*
X102958494Y-77997343D01*
X102788976Y-77884075D01*
X102600618Y-77806054D01*
X102400659Y-77766280D01*
X102196781Y-77766280D01*
X101996822Y-77806054D01*
X101808464Y-77884075D01*
X101638946Y-77997343D01*
X101494783Y-78141506D01*
X101381515Y-78311024D01*
X101303494Y-78499382D01*
X101263720Y-78699341D01*
X101263720Y-78903219D01*
X101303494Y-79103178D01*
X101381515Y-79291536D01*
X101494783Y-79461054D01*
X101638946Y-79605217D01*
X101808464Y-79718485D01*
X101996822Y-79796506D01*
X102196781Y-79836280D01*
X102294274Y-79836280D01*
X114565002Y-92107009D01*
X114565002Y-92669155D01*
X96076659Y-74180813D01*
X96053638Y-74152762D01*
X95941720Y-74060913D01*
X95814033Y-73992663D01*
X95675485Y-73950635D01*
X95567505Y-73940000D01*
X95531400Y-73936444D01*
X95495295Y-73940000D01*
X93292953Y-73940000D01*
X93219205Y-73890723D01*
X93058145Y-73824010D01*
X92887165Y-73790000D01*
X92712835Y-73790000D01*
X92541855Y-73824010D01*
X92380795Y-73890723D01*
X92235845Y-73987576D01*
X92112576Y-74110845D01*
X92015723Y-74255795D01*
X91949010Y-74416855D01*
X91915000Y-74587835D01*
X91915000Y-74762165D01*
X91949010Y-74933145D01*
X92015723Y-75094205D01*
X92112576Y-75239155D01*
X92235845Y-75362424D01*
X92380795Y-75459277D01*
X92541855Y-75525990D01*
X92712835Y-75560000D01*
X92887165Y-75560000D01*
X93058145Y-75525990D01*
X93219205Y-75459277D01*
X93292953Y-75410000D01*
X95226954Y-75410000D01*
X97103769Y-77286815D01*
X97100000Y-77286444D01*
X97063895Y-77290000D01*
X93442953Y-77290000D01*
X93369205Y-77240723D01*
X93208145Y-77174010D01*
X93037165Y-77140000D01*
X92862835Y-77140000D01*
X92691855Y-77174010D01*
X92530795Y-77240723D01*
X92385845Y-77337576D01*
X92262576Y-77460845D01*
X92165723Y-77605795D01*
X92099010Y-77766855D01*
X92065000Y-77937835D01*
X92065000Y-78112165D01*
X92099010Y-78283145D01*
X92165723Y-78444205D01*
X92262576Y-78589155D01*
X92385845Y-78712424D01*
X92530795Y-78809277D01*
X92691855Y-78875990D01*
X92862835Y-78910000D01*
X93037165Y-78910000D01*
X93208145Y-78875990D01*
X93369205Y-78809277D01*
X93442953Y-78760000D01*
X96795554Y-78760000D01*
X99075553Y-81040000D01*
X93642953Y-81040000D01*
X93569205Y-80990723D01*
X93408145Y-80924010D01*
X93237165Y-80890000D01*
X93062835Y-80890000D01*
X92891855Y-80924010D01*
X92730795Y-80990723D01*
X92585845Y-81087576D01*
X92462576Y-81210845D01*
X92365723Y-81355795D01*
X92299010Y-81516855D01*
X92265000Y-81687835D01*
X92265000Y-81862165D01*
X92299010Y-82033145D01*
X92365723Y-82194205D01*
X92462576Y-82339155D01*
X92585845Y-82462424D01*
X92730795Y-82559277D01*
X92891855Y-82625990D01*
X93062835Y-82660000D01*
X93237165Y-82660000D01*
X93408145Y-82625990D01*
X93569205Y-82559277D01*
X93642953Y-82510000D01*
X101195554Y-82510000D01*
X111015000Y-92329447D01*
X111015000Y-92528342D01*
X110936379Y-92495776D01*
X110765399Y-92461766D01*
X110591069Y-92461766D01*
X110420089Y-92495776D01*
X110259029Y-92562489D01*
X110217856Y-92590000D01*
X105015085Y-92590000D01*
X104991989Y-92561857D01*
X104677102Y-92246970D01*
X104677102Y-88148782D01*
X104780107Y-87994625D01*
X104885416Y-87740388D01*
X104939102Y-87470490D01*
X104939102Y-87195306D01*
X104885416Y-86925408D01*
X104780107Y-86671171D01*
X104627222Y-86442363D01*
X104432637Y-86247778D01*
X104203829Y-86094893D01*
X103949592Y-85989584D01*
X103767749Y-85953413D01*
X103221200Y-85406864D01*
X103185653Y-85363551D01*
X103012827Y-85221716D01*
X102815651Y-85116324D01*
X102601703Y-85051423D01*
X102434956Y-85035000D01*
X102434955Y-85035000D01*
X102379204Y-85029509D01*
X102323453Y-85035000D01*
X91757817Y-85035000D01*
X91629014Y-84929294D01*
X91371034Y-84791401D01*
X91091111Y-84706487D01*
X90925286Y-84690155D01*
X89881996Y-83646865D01*
X89846449Y-83603551D01*
X89673623Y-83461716D01*
X89476447Y-83356324D01*
X89262499Y-83291423D01*
X89095752Y-83275000D01*
X89095751Y-83275000D01*
X89040000Y-83269509D01*
X88984249Y-83275000D01*
X84575739Y-83275000D01*
X84519997Y-83269510D01*
X84464255Y-83275000D01*
X84464246Y-83275000D01*
X84297499Y-83291423D01*
X84083551Y-83356324D01*
X83886375Y-83461716D01*
X83713549Y-83603551D01*
X83678002Y-83646865D01*
X83406864Y-83918003D01*
X83363550Y-83953550D01*
X83221715Y-84126376D01*
X83116324Y-84323552D01*
X83116323Y-84323553D01*
X83051422Y-84537501D01*
X83029508Y-84759999D01*
X83034999Y-84815751D01*
X83035000Y-90604238D01*
X83029508Y-90659999D01*
X83051422Y-90882497D01*
X83116323Y-91096445D01*
X83159367Y-91176974D01*
X83221716Y-91293622D01*
X83363551Y-91466448D01*
X83406859Y-91501990D01*
X89956857Y-98051990D01*
X89956868Y-98051999D01*
X90356857Y-98451988D01*
X90486378Y-98558283D01*
X90683554Y-98663676D01*
X90897501Y-98728577D01*
X90996777Y-98738355D01*
X93563470Y-101305049D01*
X93591183Y-101338817D01*
X93624951Y-101366530D01*
X93624953Y-101366532D01*
X93670151Y-101403625D01*
X93725941Y-101449411D01*
X93879687Y-101531589D01*
X94046510Y-101582195D01*
X94176523Y-101595000D01*
X94176533Y-101595000D01*
X94219999Y-101599281D01*
X94263466Y-101595000D01*
X96301546Y-101595000D01*
X96349744Y-101627205D01*
X96538102Y-101705226D01*
X96738061Y-101745000D01*
X96941939Y-101745000D01*
X97064185Y-101720684D01*
X96836860Y-101948009D01*
X96793552Y-101983551D01*
X96651717Y-102156377D01*
X96620246Y-102215256D01*
X96546324Y-102353554D01*
X96481423Y-102567502D01*
X96459509Y-102790000D01*
X96465001Y-102845761D01*
X96465000Y-105345751D01*
X96481423Y-105512498D01*
X96546324Y-105726446D01*
X96651716Y-105923623D01*
X96793551Y-106096449D01*
X96966377Y-106238284D01*
X97163553Y-106343676D01*
X97377501Y-106408577D01*
X97600000Y-106430491D01*
X97822498Y-106408577D01*
X98036446Y-106343676D01*
X98233623Y-106238284D01*
X98406449Y-106096449D01*
X98548284Y-105923623D01*
X98653676Y-105726447D01*
X98718577Y-105512499D01*
X98735000Y-105345752D01*
X98735000Y-103260131D01*
X100273141Y-101721991D01*
X100316449Y-101686449D01*
X100458284Y-101513623D01*
X100563676Y-101316447D01*
X100628577Y-101102499D01*
X100645000Y-100935752D01*
X100645000Y-100935751D01*
X100650491Y-100880000D01*
X100645000Y-100824249D01*
X100645000Y-97160131D01*
X102713141Y-95091991D01*
X102756449Y-95056449D01*
X102898284Y-94883623D01*
X103003676Y-94686447D01*
X103068577Y-94472499D01*
X103090491Y-94250000D01*
X103068577Y-94027501D01*
X103003676Y-93813553D01*
X102969520Y-93749652D01*
X103386857Y-94166989D01*
X103516378Y-94273284D01*
X103713553Y-94378676D01*
X103927501Y-94443577D01*
X104150000Y-94465491D01*
X104372499Y-94443577D01*
X104586447Y-94378676D01*
X104783623Y-94273284D01*
X104956449Y-94131449D01*
X105015086Y-94060000D01*
X110152706Y-94060000D01*
X110259029Y-94131043D01*
X110420089Y-94197756D01*
X110591069Y-94231766D01*
X110765399Y-94231766D01*
X110936379Y-94197756D01*
X111015001Y-94165190D01*
X111015001Y-95399883D01*
X111011444Y-95435998D01*
X111025635Y-95580083D01*
X111056136Y-95680628D01*
X111067664Y-95718631D01*
X111135914Y-95846318D01*
X111227763Y-95958236D01*
X111255808Y-95981252D01*
X113142827Y-97868272D01*
X113165843Y-97896317D01*
X113277761Y-97988166D01*
X113405448Y-98056416D01*
X113543996Y-98098444D01*
X113651976Y-98109079D01*
X113651985Y-98109079D01*
X113685003Y-98112331D01*
X113753884Y-98158356D01*
X113914944Y-98225069D01*
X114085924Y-98259079D01*
X114237476Y-98259079D01*
X111506556Y-100990000D01*
X104028711Y-100990000D01*
X103959774Y-100921063D01*
X103790256Y-100807795D01*
X103601898Y-100729774D01*
X103401939Y-100690000D01*
X103198061Y-100690000D01*
X102998102Y-100729774D01*
X102945000Y-100751770D01*
X102945000Y-98120131D01*
X103563140Y-97501992D01*
X103606449Y-97466449D01*
X103687762Y-97367369D01*
X104063135Y-96991996D01*
X104106449Y-96956449D01*
X104248284Y-96783623D01*
X104353676Y-96586447D01*
X104418577Y-96372499D01*
X104440491Y-96150000D01*
X104418577Y-95927501D01*
X104353676Y-95713553D01*
X104248284Y-95516377D01*
X104106449Y-95343551D01*
X103933623Y-95201716D01*
X103736447Y-95096324D01*
X103522499Y-95031423D01*
X103355752Y-95015000D01*
X103300000Y-95009509D01*
X103244248Y-95015000D01*
X103077501Y-95031423D01*
X102863553Y-95096324D01*
X102666377Y-95201716D01*
X102493551Y-95343551D01*
X102458004Y-95386865D01*
X102036864Y-95808005D01*
X101993551Y-95843551D01*
X101912242Y-95942626D01*
X101046860Y-96808009D01*
X101003552Y-96843551D01*
X100861717Y-97016377D01*
X100808503Y-97115934D01*
X100756324Y-97213554D01*
X100691423Y-97427502D01*
X100669509Y-97650000D01*
X100675001Y-97705761D01*
X100675000Y-105485751D01*
X100691423Y-105652498D01*
X100756324Y-105866446D01*
X100861716Y-106063623D01*
X101003551Y-106236449D01*
X101176377Y-106378284D01*
X101373553Y-106483676D01*
X101587501Y-106548577D01*
X101810000Y-106570491D01*
X102032498Y-106548577D01*
X102246446Y-106483676D01*
X102443623Y-106378284D01*
X102616449Y-106236449D01*
X102758284Y-106063623D01*
X102863676Y-105866447D01*
X102928577Y-105652499D01*
X102945000Y-105485752D01*
X102945000Y-102698230D01*
X102998102Y-102720226D01*
X103198061Y-102760000D01*
X103401939Y-102760000D01*
X103601898Y-102720226D01*
X103790256Y-102642205D01*
X103959774Y-102528937D01*
X104028711Y-102460000D01*
X110096677Y-102460000D01*
X109906376Y-102561717D01*
X109733550Y-102703552D01*
X109640470Y-102816970D01*
X109570356Y-102874511D01*
X108608012Y-103836857D01*
X108501717Y-103966378D01*
X108396324Y-104163554D01*
X108331423Y-104377502D01*
X108309509Y-104600000D01*
X108331423Y-104822498D01*
X108396324Y-105036446D01*
X108501717Y-105233622D01*
X108643552Y-105406448D01*
X108816378Y-105548283D01*
X109013554Y-105653676D01*
X109227502Y-105718577D01*
X109450000Y-105740491D01*
X109672498Y-105718577D01*
X109810790Y-105676626D01*
X109801424Y-105707501D01*
X109785001Y-105874248D01*
X109785000Y-108592745D01*
X109771423Y-108637502D01*
X109749509Y-108860000D01*
X109755001Y-108915761D01*
X109755000Y-114839868D01*
X100908012Y-123686857D01*
X100801717Y-123816378D01*
X100696324Y-124013554D01*
X100631423Y-124227502D01*
X100609509Y-124450000D01*
X100631423Y-124672498D01*
X100696324Y-124886446D01*
X100801717Y-125083622D01*
X100943552Y-125256448D01*
X101116378Y-125398283D01*
X101313554Y-125503676D01*
X101527502Y-125568577D01*
X101750000Y-125590491D01*
X101972498Y-125568577D01*
X102186446Y-125503676D01*
X102383622Y-125398283D01*
X102513143Y-125291988D01*
X111663151Y-116141981D01*
X111706448Y-116106448D01*
X111741981Y-116063151D01*
X111741988Y-116063144D01*
X111848283Y-115933623D01*
X111953676Y-115736447D01*
X112018577Y-115522499D01*
X112040491Y-115300001D01*
X112025000Y-115142717D01*
X112025000Y-109097256D01*
X112038577Y-109052499D01*
X112055000Y-108885752D01*
X112055000Y-108885742D01*
X112060490Y-108830001D01*
X112055000Y-108774259D01*
X112055000Y-105874248D01*
X112038577Y-105707501D01*
X111973676Y-105493553D01*
X111868284Y-105296377D01*
X111726449Y-105123551D01*
X111553623Y-104981716D01*
X111356447Y-104876324D01*
X111142499Y-104811423D01*
X110920000Y-104789509D01*
X110859683Y-104795450D01*
X111010132Y-104645001D01*
X130294250Y-104645001D01*
X130350001Y-104650492D01*
X130405752Y-104645001D01*
X130405753Y-104645001D01*
X130572500Y-104628578D01*
X130786448Y-104563677D01*
X130983624Y-104458285D01*
X131156450Y-104316450D01*
X131191997Y-104273136D01*
X133853141Y-101611993D01*
X133896449Y-101576451D01*
X134038284Y-101403625D01*
X134143676Y-101206449D01*
X134208577Y-100992501D01*
X134225000Y-100825754D01*
X134230491Y-100770002D01*
X134225000Y-100714250D01*
X134225000Y-100195527D01*
X138774078Y-100195527D01*
X138827466Y-100424201D01*
X139057374Y-100530095D01*
X139303524Y-100589102D01*
X139556455Y-100598952D01*
X139806449Y-100559270D01*
X140043896Y-100471578D01*
X140132534Y-100424201D01*
X140185922Y-100195527D01*
X139480000Y-99489605D01*
X138774078Y-100195527D01*
X134225000Y-100195527D01*
X134225000Y-99386455D01*
X138191048Y-99386455D01*
X138230730Y-99636449D01*
X138318422Y-99873896D01*
X138365799Y-99962534D01*
X138594473Y-100015922D01*
X139300395Y-99310000D01*
X139659605Y-99310000D01*
X140365527Y-100015922D01*
X140594201Y-99962534D01*
X140700095Y-99732626D01*
X140759102Y-99486476D01*
X140768952Y-99233545D01*
X140729270Y-98983551D01*
X140641578Y-98746104D01*
X140594201Y-98657466D01*
X140365527Y-98604078D01*
X139659605Y-99310000D01*
X139300395Y-99310000D01*
X138594473Y-98604078D01*
X138365799Y-98657466D01*
X138259905Y-98887374D01*
X138200898Y-99133524D01*
X138191048Y-99386455D01*
X134225000Y-99386455D01*
X134225000Y-98424473D01*
X138774078Y-98424473D01*
X139480000Y-99130395D01*
X140185922Y-98424473D01*
X140132534Y-98195799D01*
X139902626Y-98089905D01*
X139656476Y-98030898D01*
X139403545Y-98021048D01*
X139153551Y-98060730D01*
X138916104Y-98148422D01*
X138827466Y-98195799D01*
X138774078Y-98424473D01*
X134225000Y-98424473D01*
X134225000Y-89183439D01*
X138195000Y-89183439D01*
X138195000Y-89436561D01*
X138244381Y-89684821D01*
X138341247Y-89918676D01*
X138481875Y-90129140D01*
X138660860Y-90308125D01*
X138871324Y-90448753D01*
X139105179Y-90545619D01*
X139353439Y-90595000D01*
X139606561Y-90595000D01*
X139854821Y-90545619D01*
X140088676Y-90448753D01*
X140299140Y-90308125D01*
X140478125Y-90129140D01*
X140618753Y-89918676D01*
X140715619Y-89684821D01*
X140765000Y-89436561D01*
X140765000Y-89183439D01*
X140715619Y-88935179D01*
X140618753Y-88701324D01*
X140478125Y-88490860D01*
X140299140Y-88311875D01*
X140088676Y-88171247D01*
X139854821Y-88074381D01*
X139606561Y-88025000D01*
X139353439Y-88025000D01*
X139105179Y-88074381D01*
X138871324Y-88171247D01*
X138660860Y-88311875D01*
X138481875Y-88490860D01*
X138341247Y-88701324D01*
X138244381Y-88935179D01*
X138195000Y-89183439D01*
X134225000Y-89183439D01*
X134225000Y-66404248D01*
X134208577Y-66237501D01*
X134143676Y-66023553D01*
X134038284Y-65826377D01*
X133896449Y-65653551D01*
X133723623Y-65511716D01*
X133526446Y-65406324D01*
X133312498Y-65341423D01*
X133213224Y-65331645D01*
X132935000Y-65053422D01*
X132935000Y-63836578D01*
X134676579Y-62095000D01*
X137608422Y-62095000D01*
X140704747Y-65191326D01*
X140740498Y-65309180D01*
X140799463Y-65419494D01*
X140878815Y-65516185D01*
X140975506Y-65595537D01*
X141011526Y-65614791D01*
X140983078Y-65629481D01*
X140885269Y-65707452D01*
X140804551Y-65803006D01*
X140744026Y-65912472D01*
X140706020Y-66031642D01*
X140695000Y-66133250D01*
X140853750Y-66292000D01*
X142003000Y-66292000D01*
X142003000Y-66268000D01*
X142051431Y-66268000D01*
X142047658Y-66562000D01*
X142003000Y-66562000D01*
X142003000Y-66538000D01*
X140853750Y-66538000D01*
X140695000Y-66696750D01*
X140706020Y-66798358D01*
X140744026Y-66917528D01*
X140804551Y-67026994D01*
X140885269Y-67122548D01*
X140983078Y-67200519D01*
X141011526Y-67215209D01*
X140975506Y-67234463D01*
X140878815Y-67313815D01*
X140799463Y-67410506D01*
X140740498Y-67520820D01*
X140704188Y-67640518D01*
X140691928Y-67765000D01*
X140691928Y-68265000D01*
X140704188Y-68389482D01*
X140740498Y-68509180D01*
X140799463Y-68619494D01*
X140878815Y-68716185D01*
X140975506Y-68795537D01*
X141085820Y-68854502D01*
X141205518Y-68890812D01*
X141330000Y-68903072D01*
X141766494Y-68903072D01*
X141795001Y-68931579D01*
X141795000Y-70291545D01*
X141762795Y-70339744D01*
X141684774Y-70528102D01*
X141645000Y-70728061D01*
X141645000Y-70931939D01*
X141684774Y-71131898D01*
X141762795Y-71320256D01*
X141876063Y-71489774D01*
X141983043Y-71596754D01*
X141253547Y-128438431D01*
X140985615Y-128355306D01*
X140234305Y-128276520D01*
X139482062Y-128345822D01*
X138757792Y-128560548D01*
X138089330Y-128912445D01*
X138048912Y-128939452D01*
X137688724Y-129429119D01*
X140210000Y-131950395D01*
X140224143Y-131936253D01*
X140403748Y-132115858D01*
X140389605Y-132130000D01*
X140403748Y-132144143D01*
X140224143Y-132323748D01*
X140210000Y-132309605D01*
X137688724Y-134830881D01*
X138048912Y-135320548D01*
X138712882Y-135680849D01*
X139209745Y-135835000D01*
X120671173Y-135835000D01*
X120700706Y-135799014D01*
X120838599Y-135541034D01*
X120923513Y-135261111D01*
X120952185Y-134970000D01*
X120923513Y-134678889D01*
X120838599Y-134398966D01*
X120700706Y-134140986D01*
X120515134Y-133914866D01*
X120289014Y-133729294D01*
X120031034Y-133591401D01*
X119751111Y-133506487D01*
X119532950Y-133485000D01*
X119387050Y-133485000D01*
X119168889Y-133506487D01*
X118888966Y-133591401D01*
X118630986Y-133729294D01*
X118404866Y-133914866D01*
X118219294Y-134140986D01*
X118190000Y-134195791D01*
X118160706Y-134140986D01*
X117975134Y-133914866D01*
X117749014Y-133729294D01*
X117491034Y-133591401D01*
X117211111Y-133506487D01*
X116992950Y-133485000D01*
X116847050Y-133485000D01*
X116628889Y-133506487D01*
X116348966Y-133591401D01*
X116090986Y-133729294D01*
X115864866Y-133914866D01*
X115679294Y-134140986D01*
X115650000Y-134195791D01*
X115620706Y-134140986D01*
X115435134Y-133914866D01*
X115209014Y-133729294D01*
X114951034Y-133591401D01*
X114671111Y-133506487D01*
X114452950Y-133485000D01*
X114307050Y-133485000D01*
X114088889Y-133506487D01*
X113808966Y-133591401D01*
X113550986Y-133729294D01*
X113324866Y-133914866D01*
X113139294Y-134140986D01*
X113110000Y-134195791D01*
X113080706Y-134140986D01*
X112895134Y-133914866D01*
X112669014Y-133729294D01*
X112411034Y-133591401D01*
X112131111Y-133506487D01*
X111912950Y-133485000D01*
X111767050Y-133485000D01*
X111548889Y-133506487D01*
X111268966Y-133591401D01*
X111010986Y-133729294D01*
X110784866Y-133914866D01*
X110599294Y-134140986D01*
X110570000Y-134195791D01*
X110540706Y-134140986D01*
X110355134Y-133914866D01*
X110129014Y-133729294D01*
X109871034Y-133591401D01*
X109591111Y-133506487D01*
X109372950Y-133485000D01*
X109227050Y-133485000D01*
X109008889Y-133506487D01*
X108728966Y-133591401D01*
X108470986Y-133729294D01*
X108244866Y-133914866D01*
X108059294Y-134140986D01*
X108030000Y-134195791D01*
X108000706Y-134140986D01*
X107815134Y-133914866D01*
X107589014Y-133729294D01*
X107331034Y-133591401D01*
X107051111Y-133506487D01*
X106832950Y-133485000D01*
X106687050Y-133485000D01*
X106468889Y-133506487D01*
X106188966Y-133591401D01*
X105930986Y-133729294D01*
X105704866Y-133914866D01*
X105680393Y-133944687D01*
X105659502Y-133875820D01*
X105600537Y-133765506D01*
X105521185Y-133668815D01*
X105424494Y-133589463D01*
X105314180Y-133530498D01*
X105194482Y-133494188D01*
X105070000Y-133481928D01*
X103370000Y-133481928D01*
X103245518Y-133494188D01*
X103125820Y-133530498D01*
X103015506Y-133589463D01*
X102918815Y-133668815D01*
X102839463Y-133765506D01*
X102780498Y-133875820D01*
X102744188Y-133995518D01*
X102731928Y-134120000D01*
X102731928Y-135820000D01*
X102733405Y-135835000D01*
X98626298Y-135835000D01*
X98198283Y-132105695D01*
X136356520Y-132105695D01*
X136425822Y-132857938D01*
X136640548Y-133582208D01*
X136992445Y-134250670D01*
X137019452Y-134291088D01*
X137509119Y-134651276D01*
X140030395Y-132130000D01*
X137509119Y-129608724D01*
X137019452Y-129968912D01*
X136659151Y-130632882D01*
X136435306Y-131354385D01*
X136356520Y-132105695D01*
X98198283Y-132105695D01*
X96216172Y-114835519D01*
X96210922Y-114811183D01*
X96204106Y-114794243D01*
X91254106Y-104664243D01*
X91241035Y-104643053D01*
X91224082Y-104624820D01*
X91203898Y-104610246D01*
X91181258Y-104599889D01*
X91160675Y-104594694D01*
X77515000Y-102343167D01*
X77515000Y-58460881D01*
X78828724Y-58460881D01*
X79188912Y-58950548D01*
X79852882Y-59310849D01*
X80574385Y-59534694D01*
X81325695Y-59613480D01*
X82077938Y-59544178D01*
X82802208Y-59329452D01*
X83470670Y-58977555D01*
X83511088Y-58950548D01*
X83871276Y-58460881D01*
X81350000Y-55939605D01*
X78828724Y-58460881D01*
X77515000Y-58460881D01*
X77515000Y-55936287D01*
X77565822Y-56487938D01*
X77780548Y-57212208D01*
X78132445Y-57880670D01*
X78159452Y-57921088D01*
X78649119Y-58281276D01*
X81170395Y-55760000D01*
X81529605Y-55760000D01*
X84050881Y-58281276D01*
X84540548Y-57921088D01*
X84900849Y-57257118D01*
X85124694Y-56535615D01*
X85203480Y-55784305D01*
X85199002Y-55735695D01*
X136356520Y-55735695D01*
X136425822Y-56487938D01*
X136640548Y-57212208D01*
X136992445Y-57880670D01*
X137019452Y-57921088D01*
X137509119Y-58281276D01*
X140030395Y-55760000D01*
X137509119Y-53238724D01*
X137019452Y-53598912D01*
X136659151Y-54262882D01*
X136435306Y-54984385D01*
X136356520Y-55735695D01*
X85199002Y-55735695D01*
X85134178Y-55032062D01*
X84919452Y-54307792D01*
X84567555Y-53639330D01*
X84540548Y-53598912D01*
X84050881Y-53238724D01*
X81529605Y-55760000D01*
X81170395Y-55760000D01*
X78649119Y-53238724D01*
X78159452Y-53598912D01*
X77799151Y-54262882D01*
X77575306Y-54984385D01*
X77515000Y-55559468D01*
X77515000Y-52705000D01*
X79089206Y-52705000D01*
X78828724Y-53059119D01*
X78828724Y-53059119D01*
G37*
X78828724Y-53059119D02*
X81350000Y-55580395D01*
X83871276Y-53059119D01*
X83610794Y-52705000D01*
X137949206Y-52705000D01*
X137688724Y-53059119D01*
X140210000Y-55580395D01*
X140224143Y-55566253D01*
X140403748Y-55745858D01*
X140389605Y-55760000D01*
X140403748Y-55774143D01*
X140224143Y-55953748D01*
X140210000Y-55939605D01*
X137688724Y-58460881D01*
X138048912Y-58950548D01*
X138712882Y-59310849D01*
X139434385Y-59534694D01*
X140185695Y-59613480D01*
X140937938Y-59544178D01*
X141662208Y-59329452D01*
X142143733Y-59075964D01*
X142081476Y-63926928D01*
X141943507Y-63926928D01*
X138631534Y-60614956D01*
X138603817Y-60581183D01*
X138469059Y-60470589D01*
X138315313Y-60388411D01*
X138148490Y-60337805D01*
X138018477Y-60325000D01*
X138018469Y-60325000D01*
X137975000Y-60320719D01*
X137931531Y-60325000D01*
X134353469Y-60325000D01*
X134310000Y-60320719D01*
X134266531Y-60325000D01*
X134266523Y-60325000D01*
X134136510Y-60337805D01*
X133969686Y-60388411D01*
X133815941Y-60470589D01*
X133714953Y-60553468D01*
X133714951Y-60553470D01*
X133681183Y-60581183D01*
X133653470Y-60614951D01*
X131454956Y-62813466D01*
X131421183Y-62841183D01*
X131310589Y-62975942D01*
X131228411Y-63129688D01*
X131177805Y-63296511D01*
X131165000Y-63426524D01*
X131165000Y-63426531D01*
X131160719Y-63470000D01*
X131165000Y-63513469D01*
X131165001Y-65376521D01*
X131160719Y-65420000D01*
X131177805Y-65593490D01*
X131228412Y-65760313D01*
X131310590Y-65914059D01*
X131393468Y-66015046D01*
X131393471Y-66015049D01*
X131421184Y-66048817D01*
X131454951Y-66076529D01*
X131955000Y-66576579D01*
X131955001Y-100299869D01*
X129879870Y-102375001D01*
X112154132Y-102375001D01*
X112221322Y-102339087D01*
X112333240Y-102247238D01*
X112356261Y-102219187D01*
X115794198Y-98781251D01*
X115822238Y-98758239D01*
X115845251Y-98730198D01*
X115845254Y-98730195D01*
X115914088Y-98646321D01*
X115982338Y-98518635D01*
X116024366Y-98380086D01*
X116038557Y-98236001D01*
X116035001Y-98199896D01*
X116035001Y-91838666D01*
X116038557Y-91802561D01*
X116024366Y-91658476D01*
X116011081Y-91614681D01*
X115982338Y-91519928D01*
X115914088Y-91392241D01*
X115822239Y-91280323D01*
X115794194Y-91257307D01*
X103333720Y-78796834D01*
X103333720Y-78699341D01*
X103293946Y-78499382D01*
X103215925Y-78311024D01*
X103102657Y-78141506D01*
X102958494Y-77997343D01*
X102788976Y-77884075D01*
X102600618Y-77806054D01*
X102400659Y-77766280D01*
X102196781Y-77766280D01*
X101996822Y-77806054D01*
X101808464Y-77884075D01*
X101638946Y-77997343D01*
X101494783Y-78141506D01*
X101381515Y-78311024D01*
X101303494Y-78499382D01*
X101263720Y-78699341D01*
X101263720Y-78903219D01*
X101303494Y-79103178D01*
X101381515Y-79291536D01*
X101494783Y-79461054D01*
X101638946Y-79605217D01*
X101808464Y-79718485D01*
X101996822Y-79796506D01*
X102196781Y-79836280D01*
X102294274Y-79836280D01*
X114565002Y-92107009D01*
X114565002Y-92669155D01*
X96076659Y-74180813D01*
X96053638Y-74152762D01*
X95941720Y-74060913D01*
X95814033Y-73992663D01*
X95675485Y-73950635D01*
X95567505Y-73940000D01*
X95531400Y-73936444D01*
X95495295Y-73940000D01*
X93292953Y-73940000D01*
X93219205Y-73890723D01*
X93058145Y-73824010D01*
X92887165Y-73790000D01*
X92712835Y-73790000D01*
X92541855Y-73824010D01*
X92380795Y-73890723D01*
X92235845Y-73987576D01*
X92112576Y-74110845D01*
X92015723Y-74255795D01*
X91949010Y-74416855D01*
X91915000Y-74587835D01*
X91915000Y-74762165D01*
X91949010Y-74933145D01*
X92015723Y-75094205D01*
X92112576Y-75239155D01*
X92235845Y-75362424D01*
X92380795Y-75459277D01*
X92541855Y-75525990D01*
X92712835Y-75560000D01*
X92887165Y-75560000D01*
X93058145Y-75525990D01*
X93219205Y-75459277D01*
X93292953Y-75410000D01*
X95226954Y-75410000D01*
X97103769Y-77286815D01*
X97100000Y-77286444D01*
X97063895Y-77290000D01*
X93442953Y-77290000D01*
X93369205Y-77240723D01*
X93208145Y-77174010D01*
X93037165Y-77140000D01*
X92862835Y-77140000D01*
X92691855Y-77174010D01*
X92530795Y-77240723D01*
X92385845Y-77337576D01*
X92262576Y-77460845D01*
X92165723Y-77605795D01*
X92099010Y-77766855D01*
X92065000Y-77937835D01*
X92065000Y-78112165D01*
X92099010Y-78283145D01*
X92165723Y-78444205D01*
X92262576Y-78589155D01*
X92385845Y-78712424D01*
X92530795Y-78809277D01*
X92691855Y-78875990D01*
X92862835Y-78910000D01*
X93037165Y-78910000D01*
X93208145Y-78875990D01*
X93369205Y-78809277D01*
X93442953Y-78760000D01*
X96795554Y-78760000D01*
X99075553Y-81040000D01*
X93642953Y-81040000D01*
X93569205Y-80990723D01*
X93408145Y-80924010D01*
X93237165Y-80890000D01*
X93062835Y-80890000D01*
X92891855Y-80924010D01*
X92730795Y-80990723D01*
X92585845Y-81087576D01*
X92462576Y-81210845D01*
X92365723Y-81355795D01*
X92299010Y-81516855D01*
X92265000Y-81687835D01*
X92265000Y-81862165D01*
X92299010Y-82033145D01*
X92365723Y-82194205D01*
X92462576Y-82339155D01*
X92585845Y-82462424D01*
X92730795Y-82559277D01*
X92891855Y-82625990D01*
X93062835Y-82660000D01*
X93237165Y-82660000D01*
X93408145Y-82625990D01*
X93569205Y-82559277D01*
X93642953Y-82510000D01*
X101195554Y-82510000D01*
X111015000Y-92329447D01*
X111015000Y-92528342D01*
X110936379Y-92495776D01*
X110765399Y-92461766D01*
X110591069Y-92461766D01*
X110420089Y-92495776D01*
X110259029Y-92562489D01*
X110217856Y-92590000D01*
X105015085Y-92590000D01*
X104991989Y-92561857D01*
X104677102Y-92246970D01*
X104677102Y-88148782D01*
X104780107Y-87994625D01*
X104885416Y-87740388D01*
X104939102Y-87470490D01*
X104939102Y-87195306D01*
X104885416Y-86925408D01*
X104780107Y-86671171D01*
X104627222Y-86442363D01*
X104432637Y-86247778D01*
X104203829Y-86094893D01*
X103949592Y-85989584D01*
X103767749Y-85953413D01*
X103221200Y-85406864D01*
X103185653Y-85363551D01*
X103012827Y-85221716D01*
X102815651Y-85116324D01*
X102601703Y-85051423D01*
X102434956Y-85035000D01*
X102434955Y-85035000D01*
X102379204Y-85029509D01*
X102323453Y-85035000D01*
X91757817Y-85035000D01*
X91629014Y-84929294D01*
X91371034Y-84791401D01*
X91091111Y-84706487D01*
X90925286Y-84690155D01*
X89881996Y-83646865D01*
X89846449Y-83603551D01*
X89673623Y-83461716D01*
X89476447Y-83356324D01*
X89262499Y-83291423D01*
X89095752Y-83275000D01*
X89095751Y-83275000D01*
X89040000Y-83269509D01*
X88984249Y-83275000D01*
X84575739Y-83275000D01*
X84519997Y-83269510D01*
X84464255Y-83275000D01*
X84464246Y-83275000D01*
X84297499Y-83291423D01*
X84083551Y-83356324D01*
X83886375Y-83461716D01*
X83713549Y-83603551D01*
X83678002Y-83646865D01*
X83406864Y-83918003D01*
X83363550Y-83953550D01*
X83221715Y-84126376D01*
X83116324Y-84323552D01*
X83116323Y-84323553D01*
X83051422Y-84537501D01*
X83029508Y-84759999D01*
X83034999Y-84815751D01*
X83035000Y-90604238D01*
X83029508Y-90659999D01*
X83051422Y-90882497D01*
X83116323Y-91096445D01*
X83159367Y-91176974D01*
X83221716Y-91293622D01*
X83363551Y-91466448D01*
X83406859Y-91501990D01*
X89956857Y-98051990D01*
X89956868Y-98051999D01*
X90356857Y-98451988D01*
X90486378Y-98558283D01*
X90683554Y-98663676D01*
X90897501Y-98728577D01*
X90996777Y-98738355D01*
X93563470Y-101305049D01*
X93591183Y-101338817D01*
X93624951Y-101366530D01*
X93624953Y-101366532D01*
X93670151Y-101403625D01*
X93725941Y-101449411D01*
X93879687Y-101531589D01*
X94046510Y-101582195D01*
X94176523Y-101595000D01*
X94176533Y-101595000D01*
X94219999Y-101599281D01*
X94263466Y-101595000D01*
X96301546Y-101595000D01*
X96349744Y-101627205D01*
X96538102Y-101705226D01*
X96738061Y-101745000D01*
X96941939Y-101745000D01*
X97064185Y-101720684D01*
X96836860Y-101948009D01*
X96793552Y-101983551D01*
X96651717Y-102156377D01*
X96620246Y-102215256D01*
X96546324Y-102353554D01*
X96481423Y-102567502D01*
X96459509Y-102790000D01*
X96465001Y-102845761D01*
X96465000Y-105345751D01*
X96481423Y-105512498D01*
X96546324Y-105726446D01*
X96651716Y-105923623D01*
X96793551Y-106096449D01*
X96966377Y-106238284D01*
X97163553Y-106343676D01*
X97377501Y-106408577D01*
X97600000Y-106430491D01*
X97822498Y-106408577D01*
X98036446Y-106343676D01*
X98233623Y-106238284D01*
X98406449Y-106096449D01*
X98548284Y-105923623D01*
X98653676Y-105726447D01*
X98718577Y-105512499D01*
X98735000Y-105345752D01*
X98735000Y-103260131D01*
X100273141Y-101721991D01*
X100316449Y-101686449D01*
X100458284Y-101513623D01*
X100563676Y-101316447D01*
X100628577Y-101102499D01*
X100645000Y-100935752D01*
X100645000Y-100935751D01*
X100650491Y-100880000D01*
X100645000Y-100824249D01*
X100645000Y-97160131D01*
X102713141Y-95091991D01*
X102756449Y-95056449D01*
X102898284Y-94883623D01*
X103003676Y-94686447D01*
X103068577Y-94472499D01*
X103090491Y-94250000D01*
X103068577Y-94027501D01*
X103003676Y-93813553D01*
X102969520Y-93749652D01*
X103386857Y-94166989D01*
X103516378Y-94273284D01*
X103713553Y-94378676D01*
X103927501Y-94443577D01*
X104150000Y-94465491D01*
X104372499Y-94443577D01*
X104586447Y-94378676D01*
X104783623Y-94273284D01*
X104956449Y-94131449D01*
X105015086Y-94060000D01*
X110152706Y-94060000D01*
X110259029Y-94131043D01*
X110420089Y-94197756D01*
X110591069Y-94231766D01*
X110765399Y-94231766D01*
X110936379Y-94197756D01*
X111015001Y-94165190D01*
X111015001Y-95399883D01*
X111011444Y-95435998D01*
X111025635Y-95580083D01*
X111056136Y-95680628D01*
X111067664Y-95718631D01*
X111135914Y-95846318D01*
X111227763Y-95958236D01*
X111255808Y-95981252D01*
X113142827Y-97868272D01*
X113165843Y-97896317D01*
X113277761Y-97988166D01*
X113405448Y-98056416D01*
X113543996Y-98098444D01*
X113651976Y-98109079D01*
X113651985Y-98109079D01*
X113685003Y-98112331D01*
X113753884Y-98158356D01*
X113914944Y-98225069D01*
X114085924Y-98259079D01*
X114237476Y-98259079D01*
X111506556Y-100990000D01*
X104028711Y-100990000D01*
X103959774Y-100921063D01*
X103790256Y-100807795D01*
X103601898Y-100729774D01*
X103401939Y-100690000D01*
X103198061Y-100690000D01*
X102998102Y-100729774D01*
X102945000Y-100751770D01*
X102945000Y-98120131D01*
X103563140Y-97501992D01*
X103606449Y-97466449D01*
X103687762Y-97367369D01*
X104063135Y-96991996D01*
X104106449Y-96956449D01*
X104248284Y-96783623D01*
X104353676Y-96586447D01*
X104418577Y-96372499D01*
X104440491Y-96150000D01*
X104418577Y-95927501D01*
X104353676Y-95713553D01*
X104248284Y-95516377D01*
X104106449Y-95343551D01*
X103933623Y-95201716D01*
X103736447Y-95096324D01*
X103522499Y-95031423D01*
X103355752Y-95015000D01*
X103300000Y-95009509D01*
X103244248Y-95015000D01*
X103077501Y-95031423D01*
X102863553Y-95096324D01*
X102666377Y-95201716D01*
X102493551Y-95343551D01*
X102458004Y-95386865D01*
X102036864Y-95808005D01*
X101993551Y-95843551D01*
X101912242Y-95942626D01*
X101046860Y-96808009D01*
X101003552Y-96843551D01*
X100861717Y-97016377D01*
X100808503Y-97115934D01*
X100756324Y-97213554D01*
X100691423Y-97427502D01*
X100669509Y-97650000D01*
X100675001Y-97705761D01*
X100675000Y-105485751D01*
X100691423Y-105652498D01*
X100756324Y-105866446D01*
X100861716Y-106063623D01*
X101003551Y-106236449D01*
X101176377Y-106378284D01*
X101373553Y-106483676D01*
X101587501Y-106548577D01*
X101810000Y-106570491D01*
X102032498Y-106548577D01*
X102246446Y-106483676D01*
X102443623Y-106378284D01*
X102616449Y-106236449D01*
X102758284Y-106063623D01*
X102863676Y-105866447D01*
X102928577Y-105652499D01*
X102945000Y-105485752D01*
X102945000Y-102698230D01*
X102998102Y-102720226D01*
X103198061Y-102760000D01*
X103401939Y-102760000D01*
X103601898Y-102720226D01*
X103790256Y-102642205D01*
X103959774Y-102528937D01*
X104028711Y-102460000D01*
X110096677Y-102460000D01*
X109906376Y-102561717D01*
X109733550Y-102703552D01*
X109640470Y-102816970D01*
X109570356Y-102874511D01*
X108608012Y-103836857D01*
X108501717Y-103966378D01*
X108396324Y-104163554D01*
X108331423Y-104377502D01*
X108309509Y-104600000D01*
X108331423Y-104822498D01*
X108396324Y-105036446D01*
X108501717Y-105233622D01*
X108643552Y-105406448D01*
X108816378Y-105548283D01*
X109013554Y-105653676D01*
X109227502Y-105718577D01*
X109450000Y-105740491D01*
X109672498Y-105718577D01*
X109810790Y-105676626D01*
X109801424Y-105707501D01*
X109785001Y-105874248D01*
X109785000Y-108592745D01*
X109771423Y-108637502D01*
X109749509Y-108860000D01*
X109755001Y-108915761D01*
X109755000Y-114839868D01*
X100908012Y-123686857D01*
X100801717Y-123816378D01*
X100696324Y-124013554D01*
X100631423Y-124227502D01*
X100609509Y-124450000D01*
X100631423Y-124672498D01*
X100696324Y-124886446D01*
X100801717Y-125083622D01*
X100943552Y-125256448D01*
X101116378Y-125398283D01*
X101313554Y-125503676D01*
X101527502Y-125568577D01*
X101750000Y-125590491D01*
X101972498Y-125568577D01*
X102186446Y-125503676D01*
X102383622Y-125398283D01*
X102513143Y-125291988D01*
X111663151Y-116141981D01*
X111706448Y-116106448D01*
X111741981Y-116063151D01*
X111741988Y-116063144D01*
X111848283Y-115933623D01*
X111953676Y-115736447D01*
X112018577Y-115522499D01*
X112040491Y-115300001D01*
X112025000Y-115142717D01*
X112025000Y-109097256D01*
X112038577Y-109052499D01*
X112055000Y-108885752D01*
X112055000Y-108885742D01*
X112060490Y-108830001D01*
X112055000Y-108774259D01*
X112055000Y-105874248D01*
X112038577Y-105707501D01*
X111973676Y-105493553D01*
X111868284Y-105296377D01*
X111726449Y-105123551D01*
X111553623Y-104981716D01*
X111356447Y-104876324D01*
X111142499Y-104811423D01*
X110920000Y-104789509D01*
X110859683Y-104795450D01*
X111010132Y-104645001D01*
X130294250Y-104645001D01*
X130350001Y-104650492D01*
X130405752Y-104645001D01*
X130405753Y-104645001D01*
X130572500Y-104628578D01*
X130786448Y-104563677D01*
X130983624Y-104458285D01*
X131156450Y-104316450D01*
X131191997Y-104273136D01*
X133853141Y-101611993D01*
X133896449Y-101576451D01*
X134038284Y-101403625D01*
X134143676Y-101206449D01*
X134208577Y-100992501D01*
X134225000Y-100825754D01*
X134230491Y-100770002D01*
X134225000Y-100714250D01*
X134225000Y-100195527D01*
X138774078Y-100195527D01*
X138827466Y-100424201D01*
X139057374Y-100530095D01*
X139303524Y-100589102D01*
X139556455Y-100598952D01*
X139806449Y-100559270D01*
X140043896Y-100471578D01*
X140132534Y-100424201D01*
X140185922Y-100195527D01*
X139480000Y-99489605D01*
X138774078Y-100195527D01*
X134225000Y-100195527D01*
X134225000Y-99386455D01*
X138191048Y-99386455D01*
X138230730Y-99636449D01*
X138318422Y-99873896D01*
X138365799Y-99962534D01*
X138594473Y-100015922D01*
X139300395Y-99310000D01*
X139659605Y-99310000D01*
X140365527Y-100015922D01*
X140594201Y-99962534D01*
X140700095Y-99732626D01*
X140759102Y-99486476D01*
X140768952Y-99233545D01*
X140729270Y-98983551D01*
X140641578Y-98746104D01*
X140594201Y-98657466D01*
X140365527Y-98604078D01*
X139659605Y-99310000D01*
X139300395Y-99310000D01*
X138594473Y-98604078D01*
X138365799Y-98657466D01*
X138259905Y-98887374D01*
X138200898Y-99133524D01*
X138191048Y-99386455D01*
X134225000Y-99386455D01*
X134225000Y-98424473D01*
X138774078Y-98424473D01*
X139480000Y-99130395D01*
X140185922Y-98424473D01*
X140132534Y-98195799D01*
X139902626Y-98089905D01*
X139656476Y-98030898D01*
X139403545Y-98021048D01*
X139153551Y-98060730D01*
X138916104Y-98148422D01*
X138827466Y-98195799D01*
X138774078Y-98424473D01*
X134225000Y-98424473D01*
X134225000Y-89183439D01*
X138195000Y-89183439D01*
X138195000Y-89436561D01*
X138244381Y-89684821D01*
X138341247Y-89918676D01*
X138481875Y-90129140D01*
X138660860Y-90308125D01*
X138871324Y-90448753D01*
X139105179Y-90545619D01*
X139353439Y-90595000D01*
X139606561Y-90595000D01*
X139854821Y-90545619D01*
X140088676Y-90448753D01*
X140299140Y-90308125D01*
X140478125Y-90129140D01*
X140618753Y-89918676D01*
X140715619Y-89684821D01*
X140765000Y-89436561D01*
X140765000Y-89183439D01*
X140715619Y-88935179D01*
X140618753Y-88701324D01*
X140478125Y-88490860D01*
X140299140Y-88311875D01*
X140088676Y-88171247D01*
X139854821Y-88074381D01*
X139606561Y-88025000D01*
X139353439Y-88025000D01*
X139105179Y-88074381D01*
X138871324Y-88171247D01*
X138660860Y-88311875D01*
X138481875Y-88490860D01*
X138341247Y-88701324D01*
X138244381Y-88935179D01*
X138195000Y-89183439D01*
X134225000Y-89183439D01*
X134225000Y-66404248D01*
X134208577Y-66237501D01*
X134143676Y-66023553D01*
X134038284Y-65826377D01*
X133896449Y-65653551D01*
X133723623Y-65511716D01*
X133526446Y-65406324D01*
X133312498Y-65341423D01*
X133213224Y-65331645D01*
X132935000Y-65053422D01*
X132935000Y-63836578D01*
X134676579Y-62095000D01*
X137608422Y-62095000D01*
X140704747Y-65191326D01*
X140740498Y-65309180D01*
X140799463Y-65419494D01*
X140878815Y-65516185D01*
X140975506Y-65595537D01*
X141011526Y-65614791D01*
X140983078Y-65629481D01*
X140885269Y-65707452D01*
X140804551Y-65803006D01*
X140744026Y-65912472D01*
X140706020Y-66031642D01*
X140695000Y-66133250D01*
X140853750Y-66292000D01*
X142003000Y-66292000D01*
X142003000Y-66268000D01*
X142051431Y-66268000D01*
X142047658Y-66562000D01*
X142003000Y-66562000D01*
X142003000Y-66538000D01*
X140853750Y-66538000D01*
X140695000Y-66696750D01*
X140706020Y-66798358D01*
X140744026Y-66917528D01*
X140804551Y-67026994D01*
X140885269Y-67122548D01*
X140983078Y-67200519D01*
X141011526Y-67215209D01*
X140975506Y-67234463D01*
X140878815Y-67313815D01*
X140799463Y-67410506D01*
X140740498Y-67520820D01*
X140704188Y-67640518D01*
X140691928Y-67765000D01*
X140691928Y-68265000D01*
X140704188Y-68389482D01*
X140740498Y-68509180D01*
X140799463Y-68619494D01*
X140878815Y-68716185D01*
X140975506Y-68795537D01*
X141085820Y-68854502D01*
X141205518Y-68890812D01*
X141330000Y-68903072D01*
X141766494Y-68903072D01*
X141795001Y-68931579D01*
X141795000Y-70291545D01*
X141762795Y-70339744D01*
X141684774Y-70528102D01*
X141645000Y-70728061D01*
X141645000Y-70931939D01*
X141684774Y-71131898D01*
X141762795Y-71320256D01*
X141876063Y-71489774D01*
X141983043Y-71596754D01*
X141253547Y-128438431D01*
X140985615Y-128355306D01*
X140234305Y-128276520D01*
X139482062Y-128345822D01*
X138757792Y-128560548D01*
X138089330Y-128912445D01*
X138048912Y-128939452D01*
X137688724Y-129429119D01*
X140210000Y-131950395D01*
X140224143Y-131936253D01*
X140403748Y-132115858D01*
X140389605Y-132130000D01*
X140403748Y-132144143D01*
X140224143Y-132323748D01*
X140210000Y-132309605D01*
X137688724Y-134830881D01*
X138048912Y-135320548D01*
X138712882Y-135680849D01*
X139209745Y-135835000D01*
X120671173Y-135835000D01*
X120700706Y-135799014D01*
X120838599Y-135541034D01*
X120923513Y-135261111D01*
X120952185Y-134970000D01*
X120923513Y-134678889D01*
X120838599Y-134398966D01*
X120700706Y-134140986D01*
X120515134Y-133914866D01*
X120289014Y-133729294D01*
X120031034Y-133591401D01*
X119751111Y-133506487D01*
X119532950Y-133485000D01*
X119387050Y-133485000D01*
X119168889Y-133506487D01*
X118888966Y-133591401D01*
X118630986Y-133729294D01*
X118404866Y-133914866D01*
X118219294Y-134140986D01*
X118190000Y-134195791D01*
X118160706Y-134140986D01*
X117975134Y-133914866D01*
X117749014Y-133729294D01*
X117491034Y-133591401D01*
X117211111Y-133506487D01*
X116992950Y-133485000D01*
X116847050Y-133485000D01*
X116628889Y-133506487D01*
X116348966Y-133591401D01*
X116090986Y-133729294D01*
X115864866Y-133914866D01*
X115679294Y-134140986D01*
X115650000Y-134195791D01*
X115620706Y-134140986D01*
X115435134Y-133914866D01*
X115209014Y-133729294D01*
X114951034Y-133591401D01*
X114671111Y-133506487D01*
X114452950Y-133485000D01*
X114307050Y-133485000D01*
X114088889Y-133506487D01*
X113808966Y-133591401D01*
X113550986Y-133729294D01*
X113324866Y-133914866D01*
X113139294Y-134140986D01*
X113110000Y-134195791D01*
X113080706Y-134140986D01*
X112895134Y-133914866D01*
X112669014Y-133729294D01*
X112411034Y-133591401D01*
X112131111Y-133506487D01*
X111912950Y-133485000D01*
X111767050Y-133485000D01*
X111548889Y-133506487D01*
X111268966Y-133591401D01*
X111010986Y-133729294D01*
X110784866Y-133914866D01*
X110599294Y-134140986D01*
X110570000Y-134195791D01*
X110540706Y-134140986D01*
X110355134Y-133914866D01*
X110129014Y-133729294D01*
X109871034Y-133591401D01*
X109591111Y-133506487D01*
X109372950Y-133485000D01*
X109227050Y-133485000D01*
X109008889Y-133506487D01*
X108728966Y-133591401D01*
X108470986Y-133729294D01*
X108244866Y-133914866D01*
X108059294Y-134140986D01*
X108030000Y-134195791D01*
X108000706Y-134140986D01*
X107815134Y-133914866D01*
X107589014Y-133729294D01*
X107331034Y-133591401D01*
X107051111Y-133506487D01*
X106832950Y-133485000D01*
X106687050Y-133485000D01*
X106468889Y-133506487D01*
X106188966Y-133591401D01*
X105930986Y-133729294D01*
X105704866Y-133914866D01*
X105680393Y-133944687D01*
X105659502Y-133875820D01*
X105600537Y-133765506D01*
X105521185Y-133668815D01*
X105424494Y-133589463D01*
X105314180Y-133530498D01*
X105194482Y-133494188D01*
X105070000Y-133481928D01*
X103370000Y-133481928D01*
X103245518Y-133494188D01*
X103125820Y-133530498D01*
X103015506Y-133589463D01*
X102918815Y-133668815D01*
X102839463Y-133765506D01*
X102780498Y-133875820D01*
X102744188Y-133995518D01*
X102731928Y-134120000D01*
X102731928Y-135820000D01*
X102733405Y-135835000D01*
X98626298Y-135835000D01*
X98198283Y-132105695D01*
X136356520Y-132105695D01*
X136425822Y-132857938D01*
X136640548Y-133582208D01*
X136992445Y-134250670D01*
X137019452Y-134291088D01*
X137509119Y-134651276D01*
X140030395Y-132130000D01*
X137509119Y-129608724D01*
X137019452Y-129968912D01*
X136659151Y-130632882D01*
X136435306Y-131354385D01*
X136356520Y-132105695D01*
X98198283Y-132105695D01*
X96216172Y-114835519D01*
X96210922Y-114811183D01*
X96204106Y-114794243D01*
X91254106Y-104664243D01*
X91241035Y-104643053D01*
X91224082Y-104624820D01*
X91203898Y-104610246D01*
X91181258Y-104599889D01*
X91160675Y-104594694D01*
X77515000Y-102343167D01*
X77515000Y-58460881D01*
X78828724Y-58460881D01*
X79188912Y-58950548D01*
X79852882Y-59310849D01*
X80574385Y-59534694D01*
X81325695Y-59613480D01*
X82077938Y-59544178D01*
X82802208Y-59329452D01*
X83470670Y-58977555D01*
X83511088Y-58950548D01*
X83871276Y-58460881D01*
X81350000Y-55939605D01*
X78828724Y-58460881D01*
X77515000Y-58460881D01*
X77515000Y-55936287D01*
X77565822Y-56487938D01*
X77780548Y-57212208D01*
X78132445Y-57880670D01*
X78159452Y-57921088D01*
X78649119Y-58281276D01*
X81170395Y-55760000D01*
X81529605Y-55760000D01*
X84050881Y-58281276D01*
X84540548Y-57921088D01*
X84900849Y-57257118D01*
X85124694Y-56535615D01*
X85203480Y-55784305D01*
X85199002Y-55735695D01*
X136356520Y-55735695D01*
X136425822Y-56487938D01*
X136640548Y-57212208D01*
X136992445Y-57880670D01*
X137019452Y-57921088D01*
X137509119Y-58281276D01*
X140030395Y-55760000D01*
X137509119Y-53238724D01*
X137019452Y-53598912D01*
X136659151Y-54262882D01*
X136435306Y-54984385D01*
X136356520Y-55735695D01*
X85199002Y-55735695D01*
X85134178Y-55032062D01*
X84919452Y-54307792D01*
X84567555Y-53639330D01*
X84540548Y-53598912D01*
X84050881Y-53238724D01*
X81529605Y-55760000D01*
X81170395Y-55760000D01*
X78649119Y-53238724D01*
X78159452Y-53598912D01*
X77799151Y-54262882D01*
X77575306Y-54984385D01*
X77515000Y-55559468D01*
X77515000Y-52705000D01*
X79089206Y-52705000D01*
X78828724Y-53059119D01*
G36*
X85847000Y-86043000D02*
G01*
X85867000Y-86043000D01*
X85867000Y-86297000D01*
X85847000Y-86297000D01*
X85847000Y-87496250D01*
X86005750Y-87655000D01*
X86570000Y-87658072D01*
X86694482Y-87645812D01*
X86814180Y-87609502D01*
X86924494Y-87550537D01*
X87021185Y-87471185D01*
X87100537Y-87374494D01*
X87125000Y-87328727D01*
X87125001Y-89399239D01*
X87119509Y-89455000D01*
X87141423Y-89677498D01*
X87169428Y-89769817D01*
X87169428Y-89946250D01*
X87186372Y-90118285D01*
X87236553Y-90283709D01*
X87318042Y-90436164D01*
X87427708Y-90569792D01*
X87561336Y-90679458D01*
X87713791Y-90760947D01*
X87879215Y-90811128D01*
X88051250Y-90828072D01*
X88538750Y-90828072D01*
X88710785Y-90811128D01*
X88876209Y-90760947D01*
X89028664Y-90679458D01*
X89162292Y-90569792D01*
X89232500Y-90484244D01*
X89302708Y-90569792D01*
X89310001Y-90575777D01*
X89310001Y-91651521D01*
X89305719Y-91695000D01*
X89322805Y-91868490D01*
X89373412Y-92035313D01*
X89455590Y-92189059D01*
X89538468Y-92290046D01*
X89538471Y-92290049D01*
X89566184Y-92323817D01*
X89599952Y-92351530D01*
X95543470Y-98295049D01*
X95571183Y-98328817D01*
X95604951Y-98356530D01*
X95604953Y-98356532D01*
X95633654Y-98380086D01*
X95705941Y-98439411D01*
X95859687Y-98521589D01*
X96026510Y-98572195D01*
X96156523Y-98585000D01*
X96156533Y-98585000D01*
X96199999Y-98589281D01*
X96243465Y-98585000D01*
X97476523Y-98585000D01*
X97520000Y-98589282D01*
X97563476Y-98585000D01*
X97563477Y-98585000D01*
X97693490Y-98572195D01*
X97860313Y-98521589D01*
X98014059Y-98439411D01*
X98148817Y-98328817D01*
X98259411Y-98194059D01*
X98341589Y-98040313D01*
X98375001Y-97930171D01*
X98375000Y-100409868D01*
X97850684Y-100934184D01*
X97875000Y-100811939D01*
X97875000Y-100608061D01*
X97835226Y-100408102D01*
X97757205Y-100219744D01*
X97643937Y-100050226D01*
X97499774Y-99906063D01*
X97330256Y-99792795D01*
X97141898Y-99714774D01*
X96941939Y-99675000D01*
X96738061Y-99675000D01*
X96538102Y-99714774D01*
X96349744Y-99792795D01*
X96301546Y-99825000D01*
X94586579Y-99825000D01*
X92248355Y-97486777D01*
X92238577Y-97387501D01*
X92173676Y-97173554D01*
X92068283Y-96976378D01*
X91961988Y-96846857D01*
X91561999Y-96446868D01*
X91561990Y-96446857D01*
X85304999Y-90189868D01*
X85304999Y-87655704D01*
X85434250Y-87655000D01*
X85593000Y-87496250D01*
X85593000Y-86297000D01*
X85573000Y-86297000D01*
X85573000Y-86043000D01*
X85593000Y-86043000D01*
X85593000Y-86023000D01*
X85847000Y-86023000D01*
X85847000Y-86043000D01*
X85847000Y-86043000D01*
G37*
X85847000Y-86043000D02*
X85867000Y-86043000D01*
X85867000Y-86297000D01*
X85847000Y-86297000D01*
X85847000Y-87496250D01*
X86005750Y-87655000D01*
X86570000Y-87658072D01*
X86694482Y-87645812D01*
X86814180Y-87609502D01*
X86924494Y-87550537D01*
X87021185Y-87471185D01*
X87100537Y-87374494D01*
X87125000Y-87328727D01*
X87125001Y-89399239D01*
X87119509Y-89455000D01*
X87141423Y-89677498D01*
X87169428Y-89769817D01*
X87169428Y-89946250D01*
X87186372Y-90118285D01*
X87236553Y-90283709D01*
X87318042Y-90436164D01*
X87427708Y-90569792D01*
X87561336Y-90679458D01*
X87713791Y-90760947D01*
X87879215Y-90811128D01*
X88051250Y-90828072D01*
X88538750Y-90828072D01*
X88710785Y-90811128D01*
X88876209Y-90760947D01*
X89028664Y-90679458D01*
X89162292Y-90569792D01*
X89232500Y-90484244D01*
X89302708Y-90569792D01*
X89310001Y-90575777D01*
X89310001Y-91651521D01*
X89305719Y-91695000D01*
X89322805Y-91868490D01*
X89373412Y-92035313D01*
X89455590Y-92189059D01*
X89538468Y-92290046D01*
X89538471Y-92290049D01*
X89566184Y-92323817D01*
X89599952Y-92351530D01*
X95543470Y-98295049D01*
X95571183Y-98328817D01*
X95604951Y-98356530D01*
X95604953Y-98356532D01*
X95633654Y-98380086D01*
X95705941Y-98439411D01*
X95859687Y-98521589D01*
X96026510Y-98572195D01*
X96156523Y-98585000D01*
X96156533Y-98585000D01*
X96199999Y-98589281D01*
X96243465Y-98585000D01*
X97476523Y-98585000D01*
X97520000Y-98589282D01*
X97563476Y-98585000D01*
X97563477Y-98585000D01*
X97693490Y-98572195D01*
X97860313Y-98521589D01*
X98014059Y-98439411D01*
X98148817Y-98328817D01*
X98259411Y-98194059D01*
X98341589Y-98040313D01*
X98375001Y-97930171D01*
X98375000Y-100409868D01*
X97850684Y-100934184D01*
X97875000Y-100811939D01*
X97875000Y-100608061D01*
X97835226Y-100408102D01*
X97757205Y-100219744D01*
X97643937Y-100050226D01*
X97499774Y-99906063D01*
X97330256Y-99792795D01*
X97141898Y-99714774D01*
X96941939Y-99675000D01*
X96738061Y-99675000D01*
X96538102Y-99714774D01*
X96349744Y-99792795D01*
X96301546Y-99825000D01*
X94586579Y-99825000D01*
X92248355Y-97486777D01*
X92238577Y-97387501D01*
X92173676Y-97173554D01*
X92068283Y-96976378D01*
X91961988Y-96846857D01*
X91561999Y-96446868D01*
X91561990Y-96446857D01*
X85304999Y-90189868D01*
X85304999Y-87655704D01*
X85434250Y-87655000D01*
X85593000Y-87496250D01*
X85593000Y-86297000D01*
X85573000Y-86297000D01*
X85573000Y-86043000D01*
X85593000Y-86043000D01*
X85593000Y-86023000D01*
X85847000Y-86023000D01*
X85847000Y-86043000D01*
G36*
X89559294Y-86999014D02*
G01*
X89744866Y-87225134D01*
X89970986Y-87410706D01*
X90228966Y-87548599D01*
X90508889Y-87633513D01*
X90727050Y-87655000D01*
X90872950Y-87655000D01*
X91091111Y-87633513D01*
X91371034Y-87548599D01*
X91629014Y-87410706D01*
X91757817Y-87305000D01*
X101909073Y-87305000D01*
X102162617Y-87558545D01*
X102198788Y-87740388D01*
X102230783Y-87817630D01*
X102153541Y-87785635D01*
X101883643Y-87731949D01*
X101608459Y-87731949D01*
X101338561Y-87785635D01*
X101084324Y-87890944D01*
X100855516Y-88043829D01*
X100660931Y-88238414D01*
X100508046Y-88467222D01*
X100402737Y-88721459D01*
X100349051Y-88991357D01*
X100349051Y-89266541D01*
X100402737Y-89536439D01*
X100434732Y-89613681D01*
X100357490Y-89581686D01*
X100087592Y-89528000D01*
X99812408Y-89528000D01*
X99542510Y-89581686D01*
X99288273Y-89686995D01*
X99059465Y-89839880D01*
X98864880Y-90034465D01*
X98711995Y-90263273D01*
X98606686Y-90517510D01*
X98553000Y-90787408D01*
X98553000Y-91062592D01*
X98606686Y-91332490D01*
X98638681Y-91409732D01*
X98561439Y-91377737D01*
X98291541Y-91324051D01*
X98016357Y-91324051D01*
X97746459Y-91377737D01*
X97492222Y-91483046D01*
X97263414Y-91635931D01*
X97068829Y-91830516D01*
X96915944Y-92059324D01*
X96810635Y-92313561D01*
X96756949Y-92583459D01*
X96756949Y-92858643D01*
X96810635Y-93128541D01*
X96838395Y-93195559D01*
X96820778Y-93187275D01*
X96694958Y-93149108D01*
X96477826Y-93271516D01*
X96477826Y-94203423D01*
X96364967Y-94316282D01*
X96544575Y-94495890D01*
X96657434Y-94383031D01*
X97589341Y-94383031D01*
X97711749Y-94165899D01*
X97662655Y-94029652D01*
X97746459Y-94064365D01*
X98016357Y-94118051D01*
X98291541Y-94118051D01*
X98561439Y-94064365D01*
X98723399Y-93997278D01*
X98714774Y-94018102D01*
X98703465Y-94074956D01*
X97562758Y-95215664D01*
X97673582Y-94979983D01*
X97711749Y-94854163D01*
X97589341Y-94637031D01*
X96657434Y-94637031D01*
X96544575Y-94524172D01*
X96364967Y-94703780D01*
X96477826Y-94816639D01*
X96477826Y-95748546D01*
X96694958Y-95870954D01*
X96953849Y-95777667D01*
X97071828Y-95706594D01*
X96924951Y-95853471D01*
X96891184Y-95881183D01*
X96863471Y-95914951D01*
X96863468Y-95914954D01*
X96780590Y-96015941D01*
X96698412Y-96169687D01*
X96647805Y-96336510D01*
X96630719Y-96510000D01*
X96635001Y-96553478D01*
X96635001Y-96815000D01*
X96566579Y-96815000D01*
X94605742Y-94854163D01*
X94989903Y-94854163D01*
X95083190Y-95113054D01*
X95225191Y-95348771D01*
X95410450Y-95552255D01*
X95631847Y-95715687D01*
X95880874Y-95832787D01*
X96006694Y-95870954D01*
X96223826Y-95748546D01*
X96223826Y-94637031D01*
X95112311Y-94637031D01*
X94989903Y-94854163D01*
X94605742Y-94854163D01*
X93917478Y-94165899D01*
X94989903Y-94165899D01*
X95112311Y-94383031D01*
X96223826Y-94383031D01*
X96223826Y-93271516D01*
X96006694Y-93149108D01*
X95747803Y-93242395D01*
X95512086Y-93384396D01*
X95308602Y-93569655D01*
X95145170Y-93791052D01*
X95028070Y-94040079D01*
X94989903Y-94165899D01*
X93917478Y-94165899D01*
X91080000Y-91328422D01*
X91080000Y-90517752D01*
X91146958Y-90436164D01*
X91228447Y-90283709D01*
X91278628Y-90118285D01*
X91295572Y-89946250D01*
X91295572Y-89033750D01*
X91278628Y-88861715D01*
X91228447Y-88696291D01*
X91146958Y-88543836D01*
X91037292Y-88410208D01*
X90903664Y-88300542D01*
X90751209Y-88219053D01*
X90585785Y-88168872D01*
X90413750Y-88151928D01*
X89926250Y-88151928D01*
X89754215Y-88168872D01*
X89588791Y-88219053D01*
X89436336Y-88300542D01*
X89395000Y-88334466D01*
X89395000Y-87127817D01*
X89500706Y-86999014D01*
X89530000Y-86944209D01*
X89559294Y-86999014D01*
X89559294Y-86999014D01*
G37*
X89559294Y-86999014D02*
X89744866Y-87225134D01*
X89970986Y-87410706D01*
X90228966Y-87548599D01*
X90508889Y-87633513D01*
X90727050Y-87655000D01*
X90872950Y-87655000D01*
X91091111Y-87633513D01*
X91371034Y-87548599D01*
X91629014Y-87410706D01*
X91757817Y-87305000D01*
X101909073Y-87305000D01*
X102162617Y-87558545D01*
X102198788Y-87740388D01*
X102230783Y-87817630D01*
X102153541Y-87785635D01*
X101883643Y-87731949D01*
X101608459Y-87731949D01*
X101338561Y-87785635D01*
X101084324Y-87890944D01*
X100855516Y-88043829D01*
X100660931Y-88238414D01*
X100508046Y-88467222D01*
X100402737Y-88721459D01*
X100349051Y-88991357D01*
X100349051Y-89266541D01*
X100402737Y-89536439D01*
X100434732Y-89613681D01*
X100357490Y-89581686D01*
X100087592Y-89528000D01*
X99812408Y-89528000D01*
X99542510Y-89581686D01*
X99288273Y-89686995D01*
X99059465Y-89839880D01*
X98864880Y-90034465D01*
X98711995Y-90263273D01*
X98606686Y-90517510D01*
X98553000Y-90787408D01*
X98553000Y-91062592D01*
X98606686Y-91332490D01*
X98638681Y-91409732D01*
X98561439Y-91377737D01*
X98291541Y-91324051D01*
X98016357Y-91324051D01*
X97746459Y-91377737D01*
X97492222Y-91483046D01*
X97263414Y-91635931D01*
X97068829Y-91830516D01*
X96915944Y-92059324D01*
X96810635Y-92313561D01*
X96756949Y-92583459D01*
X96756949Y-92858643D01*
X96810635Y-93128541D01*
X96838395Y-93195559D01*
X96820778Y-93187275D01*
X96694958Y-93149108D01*
X96477826Y-93271516D01*
X96477826Y-94203423D01*
X96364967Y-94316282D01*
X96544575Y-94495890D01*
X96657434Y-94383031D01*
X97589341Y-94383031D01*
X97711749Y-94165899D01*
X97662655Y-94029652D01*
X97746459Y-94064365D01*
X98016357Y-94118051D01*
X98291541Y-94118051D01*
X98561439Y-94064365D01*
X98723399Y-93997278D01*
X98714774Y-94018102D01*
X98703465Y-94074956D01*
X97562758Y-95215664D01*
X97673582Y-94979983D01*
X97711749Y-94854163D01*
X97589341Y-94637031D01*
X96657434Y-94637031D01*
X96544575Y-94524172D01*
X96364967Y-94703780D01*
X96477826Y-94816639D01*
X96477826Y-95748546D01*
X96694958Y-95870954D01*
X96953849Y-95777667D01*
X97071828Y-95706594D01*
X96924951Y-95853471D01*
X96891184Y-95881183D01*
X96863471Y-95914951D01*
X96863468Y-95914954D01*
X96780590Y-96015941D01*
X96698412Y-96169687D01*
X96647805Y-96336510D01*
X96630719Y-96510000D01*
X96635001Y-96553478D01*
X96635001Y-96815000D01*
X96566579Y-96815000D01*
X94605742Y-94854163D01*
X94989903Y-94854163D01*
X95083190Y-95113054D01*
X95225191Y-95348771D01*
X95410450Y-95552255D01*
X95631847Y-95715687D01*
X95880874Y-95832787D01*
X96006694Y-95870954D01*
X96223826Y-95748546D01*
X96223826Y-94637031D01*
X95112311Y-94637031D01*
X94989903Y-94854163D01*
X94605742Y-94854163D01*
X93917478Y-94165899D01*
X94989903Y-94165899D01*
X95112311Y-94383031D01*
X96223826Y-94383031D01*
X96223826Y-93271516D01*
X96006694Y-93149108D01*
X95747803Y-93242395D01*
X95512086Y-93384396D01*
X95308602Y-93569655D01*
X95145170Y-93791052D01*
X95028070Y-94040079D01*
X94989903Y-94165899D01*
X93917478Y-94165899D01*
X91080000Y-91328422D01*
X91080000Y-90517752D01*
X91146958Y-90436164D01*
X91228447Y-90283709D01*
X91278628Y-90118285D01*
X91295572Y-89946250D01*
X91295572Y-89033750D01*
X91278628Y-88861715D01*
X91228447Y-88696291D01*
X91146958Y-88543836D01*
X91037292Y-88410208D01*
X90903664Y-88300542D01*
X90751209Y-88219053D01*
X90585785Y-88168872D01*
X90413750Y-88151928D01*
X89926250Y-88151928D01*
X89754215Y-88168872D01*
X89588791Y-88219053D01*
X89436336Y-88300542D01*
X89395000Y-88334466D01*
X89395000Y-87127817D01*
X89500706Y-86999014D01*
X89530000Y-86944209D01*
X89559294Y-86999014D01*
G36*
X166252139Y-91353688D02*
G01*
X158501815Y-91395502D01*
X158477052Y-91398076D01*
X158453267Y-91405431D01*
X158431374Y-91417286D01*
X158412214Y-91433183D01*
X158396524Y-91452513D01*
X158384907Y-91474533D01*
X158377808Y-91498396D01*
X158375511Y-91520797D01*
X158192183Y-105191123D01*
X151412634Y-105224876D01*
X151401370Y-104460000D01*
X152316928Y-104460000D01*
X152329188Y-104584482D01*
X152365498Y-104704180D01*
X152424463Y-104814494D01*
X152503815Y-104911185D01*
X152600506Y-104990537D01*
X152710820Y-105049502D01*
X152830518Y-105085812D01*
X152955000Y-105098072D01*
X154544250Y-105095000D01*
X154703000Y-104936250D01*
X154703000Y-103587000D01*
X154957000Y-103587000D01*
X154957000Y-104936250D01*
X155115750Y-105095000D01*
X156705000Y-105098072D01*
X156829482Y-105085812D01*
X156949180Y-105049502D01*
X157059494Y-104990537D01*
X157156185Y-104911185D01*
X157235537Y-104814494D01*
X157294502Y-104704180D01*
X157330812Y-104584482D01*
X157343072Y-104460000D01*
X157340000Y-103745750D01*
X157181250Y-103587000D01*
X154957000Y-103587000D01*
X154703000Y-103587000D01*
X152478750Y-103587000D01*
X152320000Y-103745750D01*
X152316928Y-104460000D01*
X151401370Y-104460000D01*
X151371916Y-102460000D01*
X152316928Y-102460000D01*
X152320000Y-103174250D01*
X152478750Y-103333000D01*
X154703000Y-103333000D01*
X154703000Y-101983750D01*
X154957000Y-101983750D01*
X154957000Y-103333000D01*
X157181250Y-103333000D01*
X157340000Y-103174250D01*
X157343072Y-102460000D01*
X157330812Y-102335518D01*
X157294502Y-102215820D01*
X157235537Y-102105506D01*
X157156185Y-102008815D01*
X157059494Y-101929463D01*
X156949180Y-101870498D01*
X156829482Y-101834188D01*
X156705000Y-101821928D01*
X155115750Y-101825000D01*
X154957000Y-101983750D01*
X154703000Y-101983750D01*
X154544250Y-101825000D01*
X152955000Y-101821928D01*
X152830518Y-101834188D01*
X152710820Y-101870498D01*
X152600506Y-101929463D01*
X152503815Y-102008815D01*
X152424463Y-102105506D01*
X152365498Y-102215820D01*
X152329188Y-102335518D01*
X152316928Y-102460000D01*
X151371916Y-102460000D01*
X151117659Y-85195527D01*
X163774078Y-85195527D01*
X163827466Y-85424201D01*
X164057374Y-85530095D01*
X164303524Y-85589102D01*
X164556455Y-85598952D01*
X164806449Y-85559270D01*
X165043896Y-85471578D01*
X165132534Y-85424201D01*
X165185922Y-85195527D01*
X164480000Y-84489605D01*
X163774078Y-85195527D01*
X151117659Y-85195527D01*
X151105743Y-84386455D01*
X163191048Y-84386455D01*
X163230730Y-84636449D01*
X163318422Y-84873896D01*
X163365799Y-84962534D01*
X163594473Y-85015922D01*
X164300395Y-84310000D01*
X164659605Y-84310000D01*
X165365527Y-85015922D01*
X165594201Y-84962534D01*
X165700095Y-84732626D01*
X165759102Y-84486476D01*
X165768952Y-84233545D01*
X165729270Y-83983551D01*
X165641578Y-83746104D01*
X165594201Y-83657466D01*
X165365527Y-83604078D01*
X164659605Y-84310000D01*
X164300395Y-84310000D01*
X163594473Y-83604078D01*
X163365799Y-83657466D01*
X163259905Y-83887374D01*
X163200898Y-84133524D01*
X163191048Y-84386455D01*
X151105743Y-84386455D01*
X151091576Y-83424473D01*
X163774078Y-83424473D01*
X164480000Y-84130395D01*
X165185922Y-83424473D01*
X165132534Y-83195799D01*
X164902626Y-83089905D01*
X164656476Y-83030898D01*
X164403545Y-83021048D01*
X164153551Y-83060730D01*
X163916104Y-83148422D01*
X163827466Y-83195799D01*
X163774078Y-83424473D01*
X151091576Y-83424473D01*
X151061376Y-81373936D01*
X166183864Y-81307555D01*
X166252139Y-91353688D01*
X166252139Y-91353688D01*
G37*
X166252139Y-91353688D02*
X158501815Y-91395502D01*
X158477052Y-91398076D01*
X158453267Y-91405431D01*
X158431374Y-91417286D01*
X158412214Y-91433183D01*
X158396524Y-91452513D01*
X158384907Y-91474533D01*
X158377808Y-91498396D01*
X158375511Y-91520797D01*
X158192183Y-105191123D01*
X151412634Y-105224876D01*
X151401370Y-104460000D01*
X152316928Y-104460000D01*
X152329188Y-104584482D01*
X152365498Y-104704180D01*
X152424463Y-104814494D01*
X152503815Y-104911185D01*
X152600506Y-104990537D01*
X152710820Y-105049502D01*
X152830518Y-105085812D01*
X152955000Y-105098072D01*
X154544250Y-105095000D01*
X154703000Y-104936250D01*
X154703000Y-103587000D01*
X154957000Y-103587000D01*
X154957000Y-104936250D01*
X155115750Y-105095000D01*
X156705000Y-105098072D01*
X156829482Y-105085812D01*
X156949180Y-105049502D01*
X157059494Y-104990537D01*
X157156185Y-104911185D01*
X157235537Y-104814494D01*
X157294502Y-104704180D01*
X157330812Y-104584482D01*
X157343072Y-104460000D01*
X157340000Y-103745750D01*
X157181250Y-103587000D01*
X154957000Y-103587000D01*
X154703000Y-103587000D01*
X152478750Y-103587000D01*
X152320000Y-103745750D01*
X152316928Y-104460000D01*
X151401370Y-104460000D01*
X151371916Y-102460000D01*
X152316928Y-102460000D01*
X152320000Y-103174250D01*
X152478750Y-103333000D01*
X154703000Y-103333000D01*
X154703000Y-101983750D01*
X154957000Y-101983750D01*
X154957000Y-103333000D01*
X157181250Y-103333000D01*
X157340000Y-103174250D01*
X157343072Y-102460000D01*
X157330812Y-102335518D01*
X157294502Y-102215820D01*
X157235537Y-102105506D01*
X157156185Y-102008815D01*
X157059494Y-101929463D01*
X156949180Y-101870498D01*
X156829482Y-101834188D01*
X156705000Y-101821928D01*
X155115750Y-101825000D01*
X154957000Y-101983750D01*
X154703000Y-101983750D01*
X154544250Y-101825000D01*
X152955000Y-101821928D01*
X152830518Y-101834188D01*
X152710820Y-101870498D01*
X152600506Y-101929463D01*
X152503815Y-102008815D01*
X152424463Y-102105506D01*
X152365498Y-102215820D01*
X152329188Y-102335518D01*
X152316928Y-102460000D01*
X151371916Y-102460000D01*
X151117659Y-85195527D01*
X163774078Y-85195527D01*
X163827466Y-85424201D01*
X164057374Y-85530095D01*
X164303524Y-85589102D01*
X164556455Y-85598952D01*
X164806449Y-85559270D01*
X165043896Y-85471578D01*
X165132534Y-85424201D01*
X165185922Y-85195527D01*
X164480000Y-84489605D01*
X163774078Y-85195527D01*
X151117659Y-85195527D01*
X151105743Y-84386455D01*
X163191048Y-84386455D01*
X163230730Y-84636449D01*
X163318422Y-84873896D01*
X163365799Y-84962534D01*
X163594473Y-85015922D01*
X164300395Y-84310000D01*
X164659605Y-84310000D01*
X165365527Y-85015922D01*
X165594201Y-84962534D01*
X165700095Y-84732626D01*
X165759102Y-84486476D01*
X165768952Y-84233545D01*
X165729270Y-83983551D01*
X165641578Y-83746104D01*
X165594201Y-83657466D01*
X165365527Y-83604078D01*
X164659605Y-84310000D01*
X164300395Y-84310000D01*
X163594473Y-83604078D01*
X163365799Y-83657466D01*
X163259905Y-83887374D01*
X163200898Y-84133524D01*
X163191048Y-84386455D01*
X151105743Y-84386455D01*
X151091576Y-83424473D01*
X163774078Y-83424473D01*
X164480000Y-84130395D01*
X165185922Y-83424473D01*
X165132534Y-83195799D01*
X164902626Y-83089905D01*
X164656476Y-83030898D01*
X164403545Y-83021048D01*
X164153551Y-83060730D01*
X163916104Y-83148422D01*
X163827466Y-83195799D01*
X163774078Y-83424473D01*
X151091576Y-83424473D01*
X151061376Y-81373936D01*
X166183864Y-81307555D01*
X166252139Y-91353688D01*
M02*
