G04 #@! TF.GenerationSoftware,KiCad,Pcbnew,5.1.4-3.fc30*
G04 #@! TF.CreationDate,2019-12-04T09:12:17+01:00*
G04 #@! TF.ProjectId,WattFred,57617474-4672-4656-942e-6b696361645f,rev?*
G04 #@! TF.SameCoordinates,Original*
G04 #@! TF.FileFunction,Soldermask,Bot*
G04 #@! TF.FilePolarity,Negative*
%FSLAX46Y46*%
G04 Gerber Fmt 4.6, Leading zero omitted, Abs format (unit mm)*
G04 Created by KiCad (PCBNEW 5.1.4-3.fc30) date 2019-12-04 09:12:17*
%MOMM*%
%LPD*%
G04 APERTURE LIST*
%ADD10C,0.100000*%
G04 APERTURE END LIST*
D10*
G36*
X114490443Y-134075519D02*
G01*
X114556627Y-134082037D01*
X114726466Y-134133557D01*
X114882991Y-134217222D01*
X114918729Y-134246552D01*
X115020186Y-134329814D01*
X115103448Y-134431271D01*
X115132778Y-134467009D01*
X115216443Y-134623534D01*
X115267963Y-134793373D01*
X115285359Y-134970000D01*
X115267963Y-135146627D01*
X115216443Y-135316466D01*
X115132778Y-135472991D01*
X115103448Y-135508729D01*
X115020186Y-135610186D01*
X114918729Y-135693448D01*
X114882991Y-135722778D01*
X114726466Y-135806443D01*
X114556627Y-135857963D01*
X114490443Y-135864481D01*
X114424260Y-135871000D01*
X114335740Y-135871000D01*
X114269557Y-135864481D01*
X114203373Y-135857963D01*
X114033534Y-135806443D01*
X113877009Y-135722778D01*
X113841271Y-135693448D01*
X113739814Y-135610186D01*
X113656552Y-135508729D01*
X113627222Y-135472991D01*
X113543557Y-135316466D01*
X113492037Y-135146627D01*
X113474641Y-134970000D01*
X113492037Y-134793373D01*
X113543557Y-134623534D01*
X113627222Y-134467009D01*
X113656552Y-134431271D01*
X113739814Y-134329814D01*
X113841271Y-134246552D01*
X113877009Y-134217222D01*
X114033534Y-134133557D01*
X114203373Y-134082037D01*
X114269557Y-134075519D01*
X114335740Y-134069000D01*
X114424260Y-134069000D01*
X114490443Y-134075519D01*
X114490443Y-134075519D01*
G37*
G36*
X117030443Y-134075519D02*
G01*
X117096627Y-134082037D01*
X117266466Y-134133557D01*
X117422991Y-134217222D01*
X117458729Y-134246552D01*
X117560186Y-134329814D01*
X117643448Y-134431271D01*
X117672778Y-134467009D01*
X117756443Y-134623534D01*
X117807963Y-134793373D01*
X117825359Y-134970000D01*
X117807963Y-135146627D01*
X117756443Y-135316466D01*
X117672778Y-135472991D01*
X117643448Y-135508729D01*
X117560186Y-135610186D01*
X117458729Y-135693448D01*
X117422991Y-135722778D01*
X117266466Y-135806443D01*
X117096627Y-135857963D01*
X117030443Y-135864481D01*
X116964260Y-135871000D01*
X116875740Y-135871000D01*
X116809557Y-135864481D01*
X116743373Y-135857963D01*
X116573534Y-135806443D01*
X116417009Y-135722778D01*
X116381271Y-135693448D01*
X116279814Y-135610186D01*
X116196552Y-135508729D01*
X116167222Y-135472991D01*
X116083557Y-135316466D01*
X116032037Y-135146627D01*
X116014641Y-134970000D01*
X116032037Y-134793373D01*
X116083557Y-134623534D01*
X116167222Y-134467009D01*
X116196552Y-134431271D01*
X116279814Y-134329814D01*
X116381271Y-134246552D01*
X116417009Y-134217222D01*
X116573534Y-134133557D01*
X116743373Y-134082037D01*
X116809557Y-134075519D01*
X116875740Y-134069000D01*
X116964260Y-134069000D01*
X117030443Y-134075519D01*
X117030443Y-134075519D01*
G37*
G36*
X119570443Y-134075519D02*
G01*
X119636627Y-134082037D01*
X119806466Y-134133557D01*
X119962991Y-134217222D01*
X119998729Y-134246552D01*
X120100186Y-134329814D01*
X120183448Y-134431271D01*
X120212778Y-134467009D01*
X120296443Y-134623534D01*
X120347963Y-134793373D01*
X120365359Y-134970000D01*
X120347963Y-135146627D01*
X120296443Y-135316466D01*
X120212778Y-135472991D01*
X120183448Y-135508729D01*
X120100186Y-135610186D01*
X119998729Y-135693448D01*
X119962991Y-135722778D01*
X119806466Y-135806443D01*
X119636627Y-135857963D01*
X119570443Y-135864481D01*
X119504260Y-135871000D01*
X119415740Y-135871000D01*
X119349557Y-135864481D01*
X119283373Y-135857963D01*
X119113534Y-135806443D01*
X118957009Y-135722778D01*
X118921271Y-135693448D01*
X118819814Y-135610186D01*
X118736552Y-135508729D01*
X118707222Y-135472991D01*
X118623557Y-135316466D01*
X118572037Y-135146627D01*
X118554641Y-134970000D01*
X118572037Y-134793373D01*
X118623557Y-134623534D01*
X118707222Y-134467009D01*
X118736552Y-134431271D01*
X118819814Y-134329814D01*
X118921271Y-134246552D01*
X118957009Y-134217222D01*
X119113534Y-134133557D01*
X119283373Y-134082037D01*
X119349557Y-134075519D01*
X119415740Y-134069000D01*
X119504260Y-134069000D01*
X119570443Y-134075519D01*
X119570443Y-134075519D01*
G37*
G36*
X105121000Y-135871000D02*
G01*
X103319000Y-135871000D01*
X103319000Y-134069000D01*
X105121000Y-134069000D01*
X105121000Y-135871000D01*
X105121000Y-135871000D01*
G37*
G36*
X109410443Y-134075519D02*
G01*
X109476627Y-134082037D01*
X109646466Y-134133557D01*
X109802991Y-134217222D01*
X109838729Y-134246552D01*
X109940186Y-134329814D01*
X110023448Y-134431271D01*
X110052778Y-134467009D01*
X110136443Y-134623534D01*
X110187963Y-134793373D01*
X110205359Y-134970000D01*
X110187963Y-135146627D01*
X110136443Y-135316466D01*
X110052778Y-135472991D01*
X110023448Y-135508729D01*
X109940186Y-135610186D01*
X109838729Y-135693448D01*
X109802991Y-135722778D01*
X109646466Y-135806443D01*
X109476627Y-135857963D01*
X109410443Y-135864481D01*
X109344260Y-135871000D01*
X109255740Y-135871000D01*
X109189557Y-135864481D01*
X109123373Y-135857963D01*
X108953534Y-135806443D01*
X108797009Y-135722778D01*
X108761271Y-135693448D01*
X108659814Y-135610186D01*
X108576552Y-135508729D01*
X108547222Y-135472991D01*
X108463557Y-135316466D01*
X108412037Y-135146627D01*
X108394641Y-134970000D01*
X108412037Y-134793373D01*
X108463557Y-134623534D01*
X108547222Y-134467009D01*
X108576552Y-134431271D01*
X108659814Y-134329814D01*
X108761271Y-134246552D01*
X108797009Y-134217222D01*
X108953534Y-134133557D01*
X109123373Y-134082037D01*
X109189557Y-134075519D01*
X109255740Y-134069000D01*
X109344260Y-134069000D01*
X109410443Y-134075519D01*
X109410443Y-134075519D01*
G37*
G36*
X111950443Y-134075519D02*
G01*
X112016627Y-134082037D01*
X112186466Y-134133557D01*
X112342991Y-134217222D01*
X112378729Y-134246552D01*
X112480186Y-134329814D01*
X112563448Y-134431271D01*
X112592778Y-134467009D01*
X112676443Y-134623534D01*
X112727963Y-134793373D01*
X112745359Y-134970000D01*
X112727963Y-135146627D01*
X112676443Y-135316466D01*
X112592778Y-135472991D01*
X112563448Y-135508729D01*
X112480186Y-135610186D01*
X112378729Y-135693448D01*
X112342991Y-135722778D01*
X112186466Y-135806443D01*
X112016627Y-135857963D01*
X111950443Y-135864481D01*
X111884260Y-135871000D01*
X111795740Y-135871000D01*
X111729557Y-135864481D01*
X111663373Y-135857963D01*
X111493534Y-135806443D01*
X111337009Y-135722778D01*
X111301271Y-135693448D01*
X111199814Y-135610186D01*
X111116552Y-135508729D01*
X111087222Y-135472991D01*
X111003557Y-135316466D01*
X110952037Y-135146627D01*
X110934641Y-134970000D01*
X110952037Y-134793373D01*
X111003557Y-134623534D01*
X111087222Y-134467009D01*
X111116552Y-134431271D01*
X111199814Y-134329814D01*
X111301271Y-134246552D01*
X111337009Y-134217222D01*
X111493534Y-134133557D01*
X111663373Y-134082037D01*
X111729557Y-134075519D01*
X111795740Y-134069000D01*
X111884260Y-134069000D01*
X111950443Y-134075519D01*
X111950443Y-134075519D01*
G37*
G36*
X106870443Y-134075519D02*
G01*
X106936627Y-134082037D01*
X107106466Y-134133557D01*
X107262991Y-134217222D01*
X107298729Y-134246552D01*
X107400186Y-134329814D01*
X107483448Y-134431271D01*
X107512778Y-134467009D01*
X107596443Y-134623534D01*
X107647963Y-134793373D01*
X107665359Y-134970000D01*
X107647963Y-135146627D01*
X107596443Y-135316466D01*
X107512778Y-135472991D01*
X107483448Y-135508729D01*
X107400186Y-135610186D01*
X107298729Y-135693448D01*
X107262991Y-135722778D01*
X107106466Y-135806443D01*
X106936627Y-135857963D01*
X106870443Y-135864481D01*
X106804260Y-135871000D01*
X106715740Y-135871000D01*
X106649557Y-135864481D01*
X106583373Y-135857963D01*
X106413534Y-135806443D01*
X106257009Y-135722778D01*
X106221271Y-135693448D01*
X106119814Y-135610186D01*
X106036552Y-135508729D01*
X106007222Y-135472991D01*
X105923557Y-135316466D01*
X105872037Y-135146627D01*
X105854641Y-134970000D01*
X105872037Y-134793373D01*
X105923557Y-134623534D01*
X106007222Y-134467009D01*
X106036552Y-134431271D01*
X106119814Y-134329814D01*
X106221271Y-134246552D01*
X106257009Y-134217222D01*
X106413534Y-134133557D01*
X106583373Y-134082037D01*
X106649557Y-134075519D01*
X106715740Y-134069000D01*
X106804260Y-134069000D01*
X106870443Y-134075519D01*
X106870443Y-134075519D01*
G37*
G36*
X81984239Y-128941467D02*
G01*
X82298282Y-129003934D01*
X82889926Y-129249001D01*
X83422392Y-129604784D01*
X83875216Y-130057608D01*
X84230999Y-130590074D01*
X84476066Y-131181718D01*
X84601000Y-131809804D01*
X84601000Y-132450196D01*
X84476066Y-133078282D01*
X84230999Y-133669926D01*
X83964346Y-134069000D01*
X83921210Y-134133558D01*
X83875216Y-134202392D01*
X83422392Y-134655216D01*
X82889926Y-135010999D01*
X82298282Y-135256066D01*
X81994620Y-135316468D01*
X81670197Y-135381000D01*
X81029803Y-135381000D01*
X80705380Y-135316468D01*
X80401718Y-135256066D01*
X79810074Y-135010999D01*
X79277608Y-134655216D01*
X78824784Y-134202392D01*
X78778791Y-134133558D01*
X78735654Y-134069000D01*
X78469001Y-133669926D01*
X78223934Y-133078282D01*
X78099000Y-132450196D01*
X78099000Y-131809804D01*
X78223934Y-131181718D01*
X78469001Y-130590074D01*
X78824784Y-130057608D01*
X79277608Y-129604784D01*
X79810074Y-129249001D01*
X80401718Y-129003934D01*
X80715761Y-128941467D01*
X81029803Y-128879000D01*
X81670197Y-128879000D01*
X81984239Y-128941467D01*
X81984239Y-128941467D01*
G37*
G36*
X140844239Y-128941467D02*
G01*
X141158282Y-129003934D01*
X141749926Y-129249001D01*
X142282392Y-129604784D01*
X142735216Y-130057608D01*
X143090999Y-130590074D01*
X143336066Y-131181718D01*
X143461000Y-131809804D01*
X143461000Y-132450196D01*
X143336066Y-133078282D01*
X143090999Y-133669926D01*
X142824346Y-134069000D01*
X142781210Y-134133558D01*
X142735216Y-134202392D01*
X142282392Y-134655216D01*
X141749926Y-135010999D01*
X141158282Y-135256066D01*
X140854620Y-135316468D01*
X140530197Y-135381000D01*
X139889803Y-135381000D01*
X139565380Y-135316468D01*
X139261718Y-135256066D01*
X138670074Y-135010999D01*
X138137608Y-134655216D01*
X137684784Y-134202392D01*
X137638791Y-134133558D01*
X137595654Y-134069000D01*
X137329001Y-133669926D01*
X137083934Y-133078282D01*
X136959000Y-132450196D01*
X136959000Y-131809804D01*
X137083934Y-131181718D01*
X137329001Y-130590074D01*
X137684784Y-130057608D01*
X138137608Y-129604784D01*
X138670074Y-129249001D01*
X139261718Y-129003934D01*
X139575761Y-128941467D01*
X139889803Y-128879000D01*
X140530197Y-128879000D01*
X140844239Y-128941467D01*
X140844239Y-128941467D01*
G37*
G36*
X168154795Y-130220156D02*
G01*
X168261150Y-130241311D01*
X168361334Y-130282809D01*
X168461520Y-130324307D01*
X168641844Y-130444795D01*
X168795205Y-130598156D01*
X168915693Y-130778480D01*
X168998689Y-130978851D01*
X169041000Y-131191560D01*
X169041000Y-131408440D01*
X168998689Y-131621149D01*
X168915693Y-131821520D01*
X168795205Y-132001844D01*
X168641844Y-132155205D01*
X168461520Y-132275693D01*
X168261150Y-132358689D01*
X168154795Y-132379844D01*
X168048440Y-132401000D01*
X167831560Y-132401000D01*
X167725205Y-132379844D01*
X167618850Y-132358689D01*
X167418480Y-132275693D01*
X167238156Y-132155205D01*
X167084795Y-132001844D01*
X166964307Y-131821520D01*
X166881311Y-131621149D01*
X166839000Y-131408440D01*
X166839000Y-131191560D01*
X166881311Y-130978851D01*
X166964307Y-130778480D01*
X167084795Y-130598156D01*
X167238156Y-130444795D01*
X167418480Y-130324307D01*
X167518666Y-130282809D01*
X167618850Y-130241311D01*
X167725205Y-130220156D01*
X167831560Y-130199000D01*
X168048440Y-130199000D01*
X168154795Y-130220156D01*
X168154795Y-130220156D01*
G37*
G36*
X157994795Y-130220156D02*
G01*
X158101150Y-130241311D01*
X158201334Y-130282809D01*
X158301520Y-130324307D01*
X158481844Y-130444795D01*
X158635205Y-130598156D01*
X158755693Y-130778480D01*
X158838689Y-130978851D01*
X158881000Y-131191560D01*
X158881000Y-131408440D01*
X158838689Y-131621149D01*
X158755693Y-131821520D01*
X158635205Y-132001844D01*
X158481844Y-132155205D01*
X158301520Y-132275693D01*
X158101150Y-132358689D01*
X157994795Y-132379844D01*
X157888440Y-132401000D01*
X157671560Y-132401000D01*
X157565205Y-132379844D01*
X157458850Y-132358689D01*
X157258480Y-132275693D01*
X157078156Y-132155205D01*
X156924795Y-132001844D01*
X156804307Y-131821520D01*
X156721311Y-131621149D01*
X156679000Y-131408440D01*
X156679000Y-131191560D01*
X156721311Y-130978851D01*
X156804307Y-130778480D01*
X156924795Y-130598156D01*
X157078156Y-130444795D01*
X157258480Y-130324307D01*
X157358666Y-130282809D01*
X157458850Y-130241311D01*
X157565205Y-130220156D01*
X157671560Y-130199000D01*
X157888440Y-130199000D01*
X157994795Y-130220156D01*
X157994795Y-130220156D01*
G37*
G36*
X168154794Y-120060155D02*
G01*
X168261150Y-120081311D01*
X168461520Y-120164307D01*
X168641844Y-120284795D01*
X168795205Y-120438156D01*
X168915693Y-120618480D01*
X168998689Y-120818851D01*
X169041000Y-121031560D01*
X169041000Y-121248440D01*
X168998689Y-121461149D01*
X168915693Y-121661520D01*
X168795205Y-121841844D01*
X168641844Y-121995205D01*
X168461520Y-122115693D01*
X168361334Y-122157191D01*
X168261150Y-122198689D01*
X168154795Y-122219844D01*
X168048440Y-122241000D01*
X167831560Y-122241000D01*
X167725205Y-122219844D01*
X167618850Y-122198689D01*
X167518666Y-122157191D01*
X167418480Y-122115693D01*
X167238156Y-121995205D01*
X167084795Y-121841844D01*
X166964307Y-121661520D01*
X166881311Y-121461149D01*
X166839000Y-121248440D01*
X166839000Y-121031560D01*
X166881311Y-120818851D01*
X166964307Y-120618480D01*
X167084795Y-120438156D01*
X167238156Y-120284795D01*
X167418480Y-120164307D01*
X167618850Y-120081311D01*
X167725206Y-120060155D01*
X167831560Y-120039000D01*
X168048440Y-120039000D01*
X168154794Y-120060155D01*
X168154794Y-120060155D01*
G37*
G36*
X157994794Y-120060155D02*
G01*
X158101150Y-120081311D01*
X158301520Y-120164307D01*
X158481844Y-120284795D01*
X158635205Y-120438156D01*
X158755693Y-120618480D01*
X158838689Y-120818851D01*
X158881000Y-121031560D01*
X158881000Y-121248440D01*
X158838689Y-121461149D01*
X158755693Y-121661520D01*
X158635205Y-121841844D01*
X158481844Y-121995205D01*
X158301520Y-122115693D01*
X158201334Y-122157191D01*
X158101150Y-122198689D01*
X157994795Y-122219844D01*
X157888440Y-122241000D01*
X157671560Y-122241000D01*
X157565205Y-122219844D01*
X157458850Y-122198689D01*
X157358666Y-122157191D01*
X157258480Y-122115693D01*
X157078156Y-121995205D01*
X156924795Y-121841844D01*
X156804307Y-121661520D01*
X156721311Y-121461149D01*
X156679000Y-121248440D01*
X156679000Y-121031560D01*
X156721311Y-120818851D01*
X156804307Y-120618480D01*
X156924795Y-120438156D01*
X157078156Y-120284795D01*
X157258480Y-120164307D01*
X157458850Y-120081311D01*
X157565206Y-120060155D01*
X157671560Y-120039000D01*
X157888440Y-120039000D01*
X157994794Y-120060155D01*
X157994794Y-120060155D01*
G37*
G36*
X156756000Y-112011000D02*
G01*
X152904000Y-112011000D01*
X152904000Y-109909000D01*
X156756000Y-109909000D01*
X156756000Y-112011000D01*
X156756000Y-112011000D01*
G37*
G36*
X164684473Y-103635938D02*
G01*
X164812049Y-103688782D01*
X164926859Y-103765495D01*
X165024505Y-103863141D01*
X165101218Y-103977951D01*
X165154062Y-104105527D01*
X165181000Y-104240956D01*
X165181000Y-104379044D01*
X165154062Y-104514473D01*
X165101218Y-104642049D01*
X165024505Y-104756859D01*
X164926859Y-104854505D01*
X164812049Y-104931218D01*
X164684473Y-104984062D01*
X164549044Y-105011000D01*
X164410956Y-105011000D01*
X164275527Y-104984062D01*
X164147951Y-104931218D01*
X164033141Y-104854505D01*
X163935495Y-104756859D01*
X163858782Y-104642049D01*
X163805938Y-104514473D01*
X163779000Y-104379044D01*
X163779000Y-104240956D01*
X163805938Y-104105527D01*
X163858782Y-103977951D01*
X163935495Y-103863141D01*
X164033141Y-103765495D01*
X164147951Y-103688782D01*
X164275527Y-103635938D01*
X164410956Y-103609000D01*
X164549044Y-103609000D01*
X164684473Y-103635938D01*
X164684473Y-103635938D01*
G37*
G36*
X156756000Y-104511000D02*
G01*
X152904000Y-104511000D01*
X152904000Y-102409000D01*
X156756000Y-102409000D01*
X156756000Y-104511000D01*
X156756000Y-104511000D01*
G37*
G36*
X139684473Y-98635938D02*
G01*
X139812049Y-98688782D01*
X139926859Y-98765495D01*
X140024505Y-98863141D01*
X140101218Y-98977951D01*
X140154062Y-99105527D01*
X140181000Y-99240956D01*
X140181000Y-99379044D01*
X140154062Y-99514473D01*
X140101218Y-99642049D01*
X140024505Y-99756859D01*
X139926859Y-99854505D01*
X139812049Y-99931218D01*
X139684473Y-99984062D01*
X139549044Y-100011000D01*
X139410956Y-100011000D01*
X139275527Y-99984062D01*
X139147951Y-99931218D01*
X139033141Y-99854505D01*
X138935495Y-99756859D01*
X138858782Y-99642049D01*
X138805938Y-99514473D01*
X138779000Y-99379044D01*
X138779000Y-99240956D01*
X138805938Y-99105527D01*
X138858782Y-98977951D01*
X138935495Y-98863141D01*
X139033141Y-98765495D01*
X139147951Y-98688782D01*
X139275527Y-98635938D01*
X139410956Y-98609000D01*
X139549044Y-98609000D01*
X139684473Y-98635938D01*
X139684473Y-98635938D01*
G37*
G36*
X96587968Y-93728273D02*
G01*
X96735927Y-93789560D01*
X96869081Y-93878530D01*
X96982327Y-93991776D01*
X97071297Y-94124930D01*
X97132584Y-94272889D01*
X97163826Y-94429956D01*
X97163826Y-94590106D01*
X97132584Y-94747173D01*
X97071297Y-94895132D01*
X96982327Y-95028286D01*
X96869081Y-95141532D01*
X96735927Y-95230502D01*
X96587968Y-95291789D01*
X96430901Y-95323031D01*
X96270751Y-95323031D01*
X96113684Y-95291789D01*
X95965725Y-95230502D01*
X95832571Y-95141532D01*
X95719325Y-95028286D01*
X95630355Y-94895132D01*
X95569068Y-94747173D01*
X95537826Y-94590106D01*
X95537826Y-94429956D01*
X95569068Y-94272889D01*
X95630355Y-94124930D01*
X95719325Y-93991776D01*
X95832571Y-93878530D01*
X95965725Y-93789560D01*
X96113684Y-93728273D01*
X96270751Y-93697031D01*
X96430901Y-93697031D01*
X96587968Y-93728273D01*
X96587968Y-93728273D01*
G37*
G36*
X98391091Y-91939293D02*
G01*
X98539050Y-92000580D01*
X98672204Y-92089550D01*
X98785450Y-92202796D01*
X98874420Y-92335950D01*
X98935707Y-92483909D01*
X98966949Y-92640976D01*
X98966949Y-92801126D01*
X98935707Y-92958193D01*
X98874420Y-93106152D01*
X98785450Y-93239306D01*
X98672204Y-93352552D01*
X98539050Y-93441522D01*
X98391091Y-93502809D01*
X98234024Y-93534051D01*
X98073874Y-93534051D01*
X97916807Y-93502809D01*
X97768848Y-93441522D01*
X97635694Y-93352552D01*
X97522448Y-93239306D01*
X97433478Y-93106152D01*
X97372191Y-92958193D01*
X97340949Y-92801126D01*
X97340949Y-92640976D01*
X97372191Y-92483909D01*
X97433478Y-92335950D01*
X97522448Y-92202796D01*
X97635694Y-92089550D01*
X97768848Y-92000580D01*
X97916807Y-91939293D01*
X98073874Y-91908051D01*
X98234024Y-91908051D01*
X98391091Y-91939293D01*
X98391091Y-91939293D01*
G37*
G36*
X100187142Y-90143242D02*
G01*
X100335101Y-90204529D01*
X100468255Y-90293499D01*
X100581501Y-90406745D01*
X100670471Y-90539899D01*
X100731758Y-90687858D01*
X100763000Y-90844925D01*
X100763000Y-91005075D01*
X100731758Y-91162142D01*
X100670471Y-91310101D01*
X100581501Y-91443255D01*
X100468255Y-91556501D01*
X100335101Y-91645471D01*
X100187142Y-91706758D01*
X100030075Y-91738000D01*
X99869925Y-91738000D01*
X99712858Y-91706758D01*
X99564899Y-91645471D01*
X99431745Y-91556501D01*
X99318499Y-91443255D01*
X99229529Y-91310101D01*
X99168242Y-91162142D01*
X99137000Y-91005075D01*
X99137000Y-90844925D01*
X99168242Y-90687858D01*
X99229529Y-90539899D01*
X99318499Y-90406745D01*
X99431745Y-90293499D01*
X99564899Y-90204529D01*
X99712858Y-90143242D01*
X99869925Y-90112000D01*
X100030075Y-90112000D01*
X100187142Y-90143242D01*
X100187142Y-90143242D01*
G37*
G36*
X88666968Y-88743565D02*
G01*
X88705638Y-88755296D01*
X88741277Y-88774346D01*
X88772517Y-88799983D01*
X88798154Y-88831223D01*
X88817204Y-88866862D01*
X88828935Y-88905532D01*
X88833500Y-88951888D01*
X88833500Y-90028112D01*
X88828935Y-90074468D01*
X88817204Y-90113138D01*
X88798154Y-90148777D01*
X88772517Y-90180017D01*
X88741277Y-90205654D01*
X88705638Y-90224704D01*
X88666968Y-90236435D01*
X88620612Y-90241000D01*
X87969388Y-90241000D01*
X87923032Y-90236435D01*
X87884362Y-90224704D01*
X87848723Y-90205654D01*
X87817483Y-90180017D01*
X87791846Y-90148777D01*
X87772796Y-90113138D01*
X87761065Y-90074468D01*
X87756500Y-90028112D01*
X87756500Y-88951888D01*
X87761065Y-88905532D01*
X87772796Y-88866862D01*
X87791846Y-88831223D01*
X87817483Y-88799983D01*
X87848723Y-88774346D01*
X87884362Y-88755296D01*
X87923032Y-88743565D01*
X87969388Y-88739000D01*
X88620612Y-88739000D01*
X88666968Y-88743565D01*
X88666968Y-88743565D01*
G37*
G36*
X90541968Y-88743565D02*
G01*
X90580638Y-88755296D01*
X90616277Y-88774346D01*
X90647517Y-88799983D01*
X90673154Y-88831223D01*
X90692204Y-88866862D01*
X90703935Y-88905532D01*
X90708500Y-88951888D01*
X90708500Y-90028112D01*
X90703935Y-90074468D01*
X90692204Y-90113138D01*
X90673154Y-90148777D01*
X90647517Y-90180017D01*
X90616277Y-90205654D01*
X90580638Y-90224704D01*
X90541968Y-90236435D01*
X90495612Y-90241000D01*
X89844388Y-90241000D01*
X89798032Y-90236435D01*
X89759362Y-90224704D01*
X89723723Y-90205654D01*
X89692483Y-90180017D01*
X89666846Y-90148777D01*
X89647796Y-90113138D01*
X89636065Y-90074468D01*
X89631500Y-90028112D01*
X89631500Y-88951888D01*
X89636065Y-88905532D01*
X89647796Y-88866862D01*
X89666846Y-88831223D01*
X89692483Y-88799983D01*
X89723723Y-88774346D01*
X89759362Y-88755296D01*
X89798032Y-88743565D01*
X89844388Y-88739000D01*
X90495612Y-88739000D01*
X90541968Y-88743565D01*
X90541968Y-88743565D01*
G37*
G36*
X139684473Y-88635938D02*
G01*
X139812049Y-88688782D01*
X139926859Y-88765495D01*
X140024505Y-88863141D01*
X140101218Y-88977951D01*
X140154062Y-89105527D01*
X140181000Y-89240956D01*
X140181000Y-89379044D01*
X140154062Y-89514473D01*
X140101218Y-89642049D01*
X140024505Y-89756859D01*
X139926859Y-89854505D01*
X139812049Y-89931218D01*
X139684473Y-89984062D01*
X139549044Y-90011000D01*
X139410956Y-90011000D01*
X139275527Y-89984062D01*
X139147951Y-89931218D01*
X139033141Y-89854505D01*
X138935495Y-89756859D01*
X138858782Y-89642049D01*
X138805938Y-89514473D01*
X138779000Y-89379044D01*
X138779000Y-89240956D01*
X138805938Y-89105527D01*
X138858782Y-88977951D01*
X138935495Y-88863141D01*
X139033141Y-88765495D01*
X139147951Y-88688782D01*
X139275527Y-88635938D01*
X139410956Y-88609000D01*
X139549044Y-88609000D01*
X139684473Y-88635938D01*
X139684473Y-88635938D01*
G37*
G36*
X101983193Y-88347191D02*
G01*
X102131152Y-88408478D01*
X102264306Y-88497448D01*
X102377552Y-88610694D01*
X102466522Y-88743848D01*
X102527809Y-88891807D01*
X102559051Y-89048874D01*
X102559051Y-89209024D01*
X102527809Y-89366091D01*
X102466522Y-89514050D01*
X102377552Y-89647204D01*
X102264306Y-89760450D01*
X102131152Y-89849420D01*
X101983193Y-89910707D01*
X101826126Y-89941949D01*
X101665976Y-89941949D01*
X101508909Y-89910707D01*
X101360950Y-89849420D01*
X101227796Y-89760450D01*
X101114550Y-89647204D01*
X101025580Y-89514050D01*
X100964293Y-89366091D01*
X100933051Y-89209024D01*
X100933051Y-89048874D01*
X100964293Y-88891807D01*
X101025580Y-88743848D01*
X101114550Y-88610694D01*
X101227796Y-88497448D01*
X101360950Y-88408478D01*
X101508909Y-88347191D01*
X101665976Y-88315949D01*
X101826126Y-88315949D01*
X101983193Y-88347191D01*
X101983193Y-88347191D01*
G37*
G36*
X103779244Y-86551140D02*
G01*
X103927203Y-86612427D01*
X104060357Y-86701397D01*
X104173603Y-86814643D01*
X104262573Y-86947797D01*
X104323860Y-87095756D01*
X104355102Y-87252823D01*
X104355102Y-87412973D01*
X104323860Y-87570040D01*
X104262573Y-87717999D01*
X104173603Y-87851153D01*
X104060357Y-87964399D01*
X103927203Y-88053369D01*
X103779244Y-88114656D01*
X103622177Y-88145898D01*
X103462027Y-88145898D01*
X103304960Y-88114656D01*
X103157001Y-88053369D01*
X103023847Y-87964399D01*
X102910601Y-87851153D01*
X102821631Y-87717999D01*
X102760344Y-87570040D01*
X102729102Y-87412973D01*
X102729102Y-87252823D01*
X102760344Y-87095756D01*
X102821631Y-86947797D01*
X102910601Y-86814643D01*
X103023847Y-86701397D01*
X103157001Y-86612427D01*
X103304960Y-86551140D01*
X103462027Y-86519898D01*
X103622177Y-86519898D01*
X103779244Y-86551140D01*
X103779244Y-86551140D01*
G37*
G36*
X86621000Y-87071000D02*
G01*
X84819000Y-87071000D01*
X84819000Y-85269000D01*
X86621000Y-85269000D01*
X86621000Y-87071000D01*
X86621000Y-87071000D01*
G37*
G36*
X90910443Y-85275519D02*
G01*
X90976627Y-85282037D01*
X91146466Y-85333557D01*
X91302991Y-85417222D01*
X91338729Y-85446552D01*
X91440186Y-85529814D01*
X91523448Y-85631271D01*
X91552778Y-85667009D01*
X91636443Y-85823534D01*
X91687963Y-85993373D01*
X91705359Y-86170000D01*
X91687963Y-86346627D01*
X91636443Y-86516466D01*
X91552778Y-86672991D01*
X91529466Y-86701397D01*
X91440186Y-86810186D01*
X91338729Y-86893448D01*
X91302991Y-86922778D01*
X91146466Y-87006443D01*
X90976627Y-87057963D01*
X90910443Y-87064481D01*
X90844260Y-87071000D01*
X90755740Y-87071000D01*
X90689557Y-87064481D01*
X90623373Y-87057963D01*
X90453534Y-87006443D01*
X90297009Y-86922778D01*
X90261271Y-86893448D01*
X90159814Y-86810186D01*
X90070534Y-86701397D01*
X90047222Y-86672991D01*
X89963557Y-86516466D01*
X89912037Y-86346627D01*
X89894641Y-86170000D01*
X89912037Y-85993373D01*
X89963557Y-85823534D01*
X90047222Y-85667009D01*
X90076552Y-85631271D01*
X90159814Y-85529814D01*
X90261271Y-85446552D01*
X90297009Y-85417222D01*
X90453534Y-85333557D01*
X90623373Y-85282037D01*
X90689557Y-85275519D01*
X90755740Y-85269000D01*
X90844260Y-85269000D01*
X90910443Y-85275519D01*
X90910443Y-85275519D01*
G37*
G36*
X88370443Y-85275519D02*
G01*
X88436627Y-85282037D01*
X88606466Y-85333557D01*
X88762991Y-85417222D01*
X88798729Y-85446552D01*
X88900186Y-85529814D01*
X88983448Y-85631271D01*
X89012778Y-85667009D01*
X89096443Y-85823534D01*
X89147963Y-85993373D01*
X89165359Y-86170000D01*
X89147963Y-86346627D01*
X89096443Y-86516466D01*
X89012778Y-86672991D01*
X88989466Y-86701397D01*
X88900186Y-86810186D01*
X88798729Y-86893448D01*
X88762991Y-86922778D01*
X88606466Y-87006443D01*
X88436627Y-87057963D01*
X88370443Y-87064481D01*
X88304260Y-87071000D01*
X88215740Y-87071000D01*
X88149557Y-87064481D01*
X88083373Y-87057963D01*
X87913534Y-87006443D01*
X87757009Y-86922778D01*
X87721271Y-86893448D01*
X87619814Y-86810186D01*
X87530534Y-86701397D01*
X87507222Y-86672991D01*
X87423557Y-86516466D01*
X87372037Y-86346627D01*
X87354641Y-86170000D01*
X87372037Y-85993373D01*
X87423557Y-85823534D01*
X87507222Y-85667009D01*
X87536552Y-85631271D01*
X87619814Y-85529814D01*
X87721271Y-85446552D01*
X87757009Y-85417222D01*
X87913534Y-85333557D01*
X88083373Y-85282037D01*
X88149557Y-85275519D01*
X88215740Y-85269000D01*
X88304260Y-85269000D01*
X88370443Y-85275519D01*
X88370443Y-85275519D01*
G37*
G36*
X164684473Y-83635938D02*
G01*
X164812049Y-83688782D01*
X164926859Y-83765495D01*
X165024505Y-83863141D01*
X165101218Y-83977951D01*
X165154062Y-84105527D01*
X165181000Y-84240956D01*
X165181000Y-84379044D01*
X165154062Y-84514473D01*
X165101218Y-84642049D01*
X165024505Y-84756859D01*
X164926859Y-84854505D01*
X164812049Y-84931218D01*
X164684473Y-84984062D01*
X164549044Y-85011000D01*
X164410956Y-85011000D01*
X164275527Y-84984062D01*
X164147951Y-84931218D01*
X164033141Y-84854505D01*
X163935495Y-84756859D01*
X163858782Y-84642049D01*
X163805938Y-84514473D01*
X163779000Y-84379044D01*
X163779000Y-84240956D01*
X163805938Y-84105527D01*
X163858782Y-83977951D01*
X163935495Y-83863141D01*
X164033141Y-83765495D01*
X164147951Y-83688782D01*
X164275527Y-83635938D01*
X164410956Y-83609000D01*
X164549044Y-83609000D01*
X164684473Y-83635938D01*
X164684473Y-83635938D01*
G37*
G36*
X144981000Y-69716000D02*
G01*
X144279000Y-69716000D01*
X144279000Y-68714000D01*
X144981000Y-68714000D01*
X144981000Y-69716000D01*
X144981000Y-69716000D01*
G37*
G36*
X147931000Y-68866000D02*
G01*
X146129000Y-68866000D01*
X146129000Y-66964000D01*
X147931000Y-66964000D01*
X147931000Y-68866000D01*
X147931000Y-68866000D01*
G37*
G36*
X168194794Y-66290155D02*
G01*
X168301150Y-66311311D01*
X168501520Y-66394307D01*
X168681844Y-66514795D01*
X168835205Y-66668156D01*
X168955693Y-66848480D01*
X169038689Y-67048851D01*
X169081000Y-67261560D01*
X169081000Y-67478440D01*
X169038689Y-67691149D01*
X168955693Y-67891520D01*
X168835205Y-68071844D01*
X168681844Y-68225205D01*
X168501520Y-68345693D01*
X168401334Y-68387191D01*
X168301150Y-68428689D01*
X168194795Y-68449844D01*
X168088440Y-68471000D01*
X167871560Y-68471000D01*
X167765205Y-68449844D01*
X167658850Y-68428689D01*
X167558666Y-68387191D01*
X167458480Y-68345693D01*
X167278156Y-68225205D01*
X167124795Y-68071844D01*
X167004307Y-67891520D01*
X166921311Y-67691149D01*
X166879000Y-67478440D01*
X166879000Y-67261560D01*
X166921311Y-67048851D01*
X167004307Y-66848480D01*
X167124795Y-66668156D01*
X167278156Y-66514795D01*
X167458480Y-66394307D01*
X167658850Y-66311311D01*
X167765206Y-66290155D01*
X167871560Y-66269000D01*
X168088440Y-66269000D01*
X168194794Y-66290155D01*
X168194794Y-66290155D01*
G37*
G36*
X158034794Y-66290155D02*
G01*
X158141150Y-66311311D01*
X158341520Y-66394307D01*
X158521844Y-66514795D01*
X158675205Y-66668156D01*
X158795693Y-66848480D01*
X158878689Y-67048851D01*
X158921000Y-67261560D01*
X158921000Y-67478440D01*
X158878689Y-67691149D01*
X158795693Y-67891520D01*
X158675205Y-68071844D01*
X158521844Y-68225205D01*
X158341520Y-68345693D01*
X158241334Y-68387191D01*
X158141150Y-68428689D01*
X158034795Y-68449844D01*
X157928440Y-68471000D01*
X157711560Y-68471000D01*
X157605205Y-68449844D01*
X157498850Y-68428689D01*
X157398666Y-68387191D01*
X157298480Y-68345693D01*
X157118156Y-68225205D01*
X156964795Y-68071844D01*
X156844307Y-67891520D01*
X156761311Y-67691149D01*
X156719000Y-67478440D01*
X156719000Y-67261560D01*
X156761311Y-67048851D01*
X156844307Y-66848480D01*
X156964795Y-66668156D01*
X157118156Y-66514795D01*
X157298480Y-66394307D01*
X157498850Y-66311311D01*
X157605206Y-66290155D01*
X157711560Y-66269000D01*
X157928440Y-66269000D01*
X158034794Y-66290155D01*
X158034794Y-66290155D01*
G37*
G36*
X142981000Y-68316000D02*
G01*
X141279000Y-68316000D01*
X141279000Y-67714000D01*
X142981000Y-67714000D01*
X142981000Y-68316000D01*
X142981000Y-68316000D01*
G37*
G36*
X142981000Y-66716000D02*
G01*
X141279000Y-66716000D01*
X141279000Y-66114000D01*
X142981000Y-66114000D01*
X142981000Y-66716000D01*
X142981000Y-66716000D01*
G37*
G36*
X147931000Y-65866000D02*
G01*
X146129000Y-65866000D01*
X146129000Y-63964000D01*
X147931000Y-63964000D01*
X147931000Y-65866000D01*
X147931000Y-65866000D01*
G37*
G36*
X142981000Y-65116000D02*
G01*
X141279000Y-65116000D01*
X141279000Y-64514000D01*
X142981000Y-64514000D01*
X142981000Y-65116000D01*
X142981000Y-65116000D01*
G37*
G36*
X144981000Y-64116000D02*
G01*
X144279000Y-64116000D01*
X144279000Y-63114000D01*
X144981000Y-63114000D01*
X144981000Y-64116000D01*
X144981000Y-64116000D01*
G37*
G36*
X140844239Y-52571467D02*
G01*
X141158282Y-52633934D01*
X141749926Y-52879001D01*
X142282392Y-53234784D01*
X142735216Y-53687608D01*
X143090999Y-54220074D01*
X143336066Y-54811718D01*
X143336066Y-54811719D01*
X143461000Y-55439803D01*
X143461000Y-56080197D01*
X143406379Y-56354795D01*
X143336066Y-56708282D01*
X143090999Y-57299926D01*
X142735216Y-57832392D01*
X142282392Y-58285216D01*
X141749926Y-58640999D01*
X141158282Y-58886066D01*
X140844239Y-58948533D01*
X140530197Y-59011000D01*
X139889803Y-59011000D01*
X139575761Y-58948533D01*
X139261718Y-58886066D01*
X138670074Y-58640999D01*
X138137608Y-58285216D01*
X137684784Y-57832392D01*
X137329001Y-57299926D01*
X137083934Y-56708282D01*
X137013621Y-56354795D01*
X136959000Y-56080197D01*
X136959000Y-55439803D01*
X137083934Y-54811719D01*
X137083934Y-54811718D01*
X137329001Y-54220074D01*
X137684784Y-53687608D01*
X138137608Y-53234784D01*
X138670074Y-52879001D01*
X139261718Y-52633934D01*
X139575761Y-52571467D01*
X139889803Y-52509000D01*
X140530197Y-52509000D01*
X140844239Y-52571467D01*
X140844239Y-52571467D01*
G37*
G36*
X81984239Y-52571467D02*
G01*
X82298282Y-52633934D01*
X82889926Y-52879001D01*
X83422392Y-53234784D01*
X83875216Y-53687608D01*
X84230999Y-54220074D01*
X84476066Y-54811718D01*
X84476066Y-54811719D01*
X84601000Y-55439803D01*
X84601000Y-56080197D01*
X84546379Y-56354795D01*
X84476066Y-56708282D01*
X84230999Y-57299926D01*
X83875216Y-57832392D01*
X83422392Y-58285216D01*
X82889926Y-58640999D01*
X82298282Y-58886066D01*
X81984239Y-58948533D01*
X81670197Y-59011000D01*
X81029803Y-59011000D01*
X80715761Y-58948533D01*
X80401718Y-58886066D01*
X79810074Y-58640999D01*
X79277608Y-58285216D01*
X78824784Y-57832392D01*
X78469001Y-57299926D01*
X78223934Y-56708282D01*
X78153621Y-56354795D01*
X78099000Y-56080197D01*
X78099000Y-55439803D01*
X78223934Y-54811719D01*
X78223934Y-54811718D01*
X78469001Y-54220074D01*
X78824784Y-53687608D01*
X79277608Y-53234784D01*
X79810074Y-52879001D01*
X80401718Y-52633934D01*
X80715761Y-52571467D01*
X81029803Y-52509000D01*
X81670197Y-52509000D01*
X81984239Y-52571467D01*
X81984239Y-52571467D01*
G37*
G36*
X158034794Y-56130155D02*
G01*
X158141150Y-56151311D01*
X158241334Y-56192809D01*
X158341520Y-56234307D01*
X158521844Y-56354795D01*
X158675205Y-56508156D01*
X158795693Y-56688480D01*
X158878689Y-56888851D01*
X158921000Y-57101560D01*
X158921000Y-57318440D01*
X158878689Y-57531149D01*
X158795693Y-57731520D01*
X158675205Y-57911844D01*
X158521844Y-58065205D01*
X158341520Y-58185693D01*
X158241334Y-58227191D01*
X158141150Y-58268689D01*
X158058063Y-58285216D01*
X157928440Y-58311000D01*
X157711560Y-58311000D01*
X157581937Y-58285216D01*
X157498850Y-58268689D01*
X157298480Y-58185693D01*
X157118156Y-58065205D01*
X156964795Y-57911844D01*
X156844307Y-57731520D01*
X156761311Y-57531149D01*
X156719000Y-57318440D01*
X156719000Y-57101560D01*
X156761311Y-56888851D01*
X156844307Y-56688480D01*
X156964795Y-56508156D01*
X157118156Y-56354795D01*
X157298480Y-56234307D01*
X157498850Y-56151311D01*
X157605206Y-56130155D01*
X157711560Y-56109000D01*
X157928440Y-56109000D01*
X158034794Y-56130155D01*
X158034794Y-56130155D01*
G37*
G36*
X168194794Y-56130155D02*
G01*
X168301150Y-56151311D01*
X168401334Y-56192809D01*
X168501520Y-56234307D01*
X168681844Y-56354795D01*
X168835205Y-56508156D01*
X168955693Y-56688480D01*
X169038689Y-56888851D01*
X169081000Y-57101560D01*
X169081000Y-57318440D01*
X169038689Y-57531149D01*
X168955693Y-57731520D01*
X168835205Y-57911844D01*
X168681844Y-58065205D01*
X168501520Y-58185693D01*
X168401334Y-58227191D01*
X168301150Y-58268689D01*
X168218063Y-58285216D01*
X168088440Y-58311000D01*
X167871560Y-58311000D01*
X167741937Y-58285216D01*
X167658850Y-58268689D01*
X167458480Y-58185693D01*
X167278156Y-58065205D01*
X167124795Y-57911844D01*
X167004307Y-57731520D01*
X166921311Y-57531149D01*
X166879000Y-57318440D01*
X166879000Y-57101560D01*
X166921311Y-56888851D01*
X167004307Y-56688480D01*
X167124795Y-56508156D01*
X167278156Y-56354795D01*
X167458480Y-56234307D01*
X167658850Y-56151311D01*
X167765206Y-56130155D01*
X167871560Y-56109000D01*
X168088440Y-56109000D01*
X168194794Y-56130155D01*
X168194794Y-56130155D01*
G37*
M02*
