G04 #@! TF.GenerationSoftware,KiCad,Pcbnew,5.1.4-3.fc30*
G04 #@! TF.CreationDate,2019-12-04T09:12:17+01:00*
G04 #@! TF.ProjectId,WattFred,57617474-4672-4656-942e-6b696361645f,rev?*
G04 #@! TF.SameCoordinates,Original*
G04 #@! TF.FileFunction,Legend,Top*
G04 #@! TF.FilePolarity,Positive*
%FSLAX46Y46*%
G04 Gerber Fmt 4.6, Leading zero omitted, Abs format (unit mm)*
G04 Created by KiCad (PCBNEW 5.1.4-3.fc30) date 2019-12-04 09:12:17*
%MOMM*%
%LPD*%
G04 APERTURE LIST*
%ADD10C,0.150000*%
%ADD11C,0.250000*%
%ADD12C,0.120000*%
%ADD13C,0.400000*%
%ADD14C,0.300000*%
%ADD15C,0.200000*%
%ADD16C,0.254000*%
%ADD17C,0.600000*%
%ADD18C,0.010000*%
%ADD19C,0.100000*%
%ADD20C,0.070000*%
G04 APERTURE END LIST*
D10*
X118084285Y-133044285D02*
X118055714Y-133072857D01*
X117970000Y-133101428D01*
X117912857Y-133101428D01*
X117827142Y-133072857D01*
X117770000Y-133015714D01*
X117741428Y-132958571D01*
X117712857Y-132844285D01*
X117712857Y-132758571D01*
X117741428Y-132644285D01*
X117770000Y-132587142D01*
X117827142Y-132530000D01*
X117912857Y-132501428D01*
X117970000Y-132501428D01*
X118055714Y-132530000D01*
X118084285Y-132558571D01*
X118627142Y-133101428D02*
X118341428Y-133101428D01*
X118341428Y-132501428D01*
X118941428Y-132501428D02*
X118998571Y-132501428D01*
X119055714Y-132530000D01*
X119084285Y-132558571D01*
X119112857Y-132615714D01*
X119141428Y-132730000D01*
X119141428Y-132872857D01*
X119112857Y-132987142D01*
X119084285Y-133044285D01*
X119055714Y-133072857D01*
X118998571Y-133101428D01*
X118941428Y-133101428D01*
X118884285Y-133072857D01*
X118855714Y-133044285D01*
X118827142Y-132987142D01*
X118798571Y-132872857D01*
X118798571Y-132730000D01*
X118827142Y-132615714D01*
X118855714Y-132558571D01*
X118884285Y-132530000D01*
X118941428Y-132501428D01*
X119255714Y-133158571D02*
X119712857Y-133158571D01*
X120198571Y-133101428D02*
X119998571Y-132815714D01*
X119855714Y-133101428D02*
X119855714Y-132501428D01*
X120084285Y-132501428D01*
X120141428Y-132530000D01*
X120170000Y-132558571D01*
X120198571Y-132615714D01*
X120198571Y-132701428D01*
X120170000Y-132758571D01*
X120141428Y-132787142D01*
X120084285Y-132815714D01*
X119855714Y-132815714D01*
X120427142Y-133072857D02*
X120512857Y-133101428D01*
X120655714Y-133101428D01*
X120712857Y-133072857D01*
X120741428Y-133044285D01*
X120770000Y-132987142D01*
X120770000Y-132930000D01*
X120741428Y-132872857D01*
X120712857Y-132844285D01*
X120655714Y-132815714D01*
X120541428Y-132787142D01*
X120484285Y-132758571D01*
X120455714Y-132730000D01*
X120427142Y-132672857D01*
X120427142Y-132615714D01*
X120455714Y-132558571D01*
X120484285Y-132530000D01*
X120541428Y-132501428D01*
X120684285Y-132501428D01*
X120770000Y-132530000D01*
X120941428Y-132501428D02*
X121284285Y-132501428D01*
X121112857Y-133101428D02*
X121112857Y-132501428D01*
X115977142Y-131981428D02*
X115977142Y-131381428D01*
X116177142Y-131810000D01*
X116377142Y-131381428D01*
X116377142Y-131981428D01*
X116777142Y-131381428D02*
X116891428Y-131381428D01*
X116948571Y-131410000D01*
X117005714Y-131467142D01*
X117034285Y-131581428D01*
X117034285Y-131781428D01*
X117005714Y-131895714D01*
X116948571Y-131952857D01*
X116891428Y-131981428D01*
X116777142Y-131981428D01*
X116720000Y-131952857D01*
X116662857Y-131895714D01*
X116634285Y-131781428D01*
X116634285Y-131581428D01*
X116662857Y-131467142D01*
X116720000Y-131410000D01*
X116777142Y-131381428D01*
X117262857Y-131952857D02*
X117348571Y-131981428D01*
X117491428Y-131981428D01*
X117548571Y-131952857D01*
X117577142Y-131924285D01*
X117605714Y-131867142D01*
X117605714Y-131810000D01*
X117577142Y-131752857D01*
X117548571Y-131724285D01*
X117491428Y-131695714D01*
X117377142Y-131667142D01*
X117320000Y-131638571D01*
X117291428Y-131610000D01*
X117262857Y-131552857D01*
X117262857Y-131495714D01*
X117291428Y-131438571D01*
X117320000Y-131410000D01*
X117377142Y-131381428D01*
X117520000Y-131381428D01*
X117605714Y-131410000D01*
X117862857Y-131981428D02*
X117862857Y-131381428D01*
X113477142Y-133081428D02*
X113477142Y-132481428D01*
X113677142Y-132910000D01*
X113877142Y-132481428D01*
X113877142Y-133081428D01*
X114162857Y-133081428D02*
X114162857Y-132481428D01*
X114420000Y-133052857D02*
X114505714Y-133081428D01*
X114648571Y-133081428D01*
X114705714Y-133052857D01*
X114734285Y-133024285D01*
X114762857Y-132967142D01*
X114762857Y-132910000D01*
X114734285Y-132852857D01*
X114705714Y-132824285D01*
X114648571Y-132795714D01*
X114534285Y-132767142D01*
X114477142Y-132738571D01*
X114448571Y-132710000D01*
X114420000Y-132652857D01*
X114420000Y-132595714D01*
X114448571Y-132538571D01*
X114477142Y-132510000D01*
X114534285Y-132481428D01*
X114677142Y-132481428D01*
X114762857Y-132510000D01*
X115134285Y-132481428D02*
X115248571Y-132481428D01*
X115305714Y-132510000D01*
X115362857Y-132567142D01*
X115391428Y-132681428D01*
X115391428Y-132881428D01*
X115362857Y-132995714D01*
X115305714Y-133052857D01*
X115248571Y-133081428D01*
X115134285Y-133081428D01*
X115077142Y-133052857D01*
X115020000Y-132995714D01*
X114991428Y-132881428D01*
X114991428Y-132681428D01*
X115020000Y-132567142D01*
X115077142Y-132510000D01*
X115134285Y-132481428D01*
X111058571Y-131952857D02*
X111144285Y-131981428D01*
X111287142Y-131981428D01*
X111344285Y-131952857D01*
X111372857Y-131924285D01*
X111401428Y-131867142D01*
X111401428Y-131810000D01*
X111372857Y-131752857D01*
X111344285Y-131724285D01*
X111287142Y-131695714D01*
X111172857Y-131667142D01*
X111115714Y-131638571D01*
X111087142Y-131610000D01*
X111058571Y-131552857D01*
X111058571Y-131495714D01*
X111087142Y-131438571D01*
X111115714Y-131410000D01*
X111172857Y-131381428D01*
X111315714Y-131381428D01*
X111401428Y-131410000D01*
X112001428Y-131924285D02*
X111972857Y-131952857D01*
X111887142Y-131981428D01*
X111830000Y-131981428D01*
X111744285Y-131952857D01*
X111687142Y-131895714D01*
X111658571Y-131838571D01*
X111630000Y-131724285D01*
X111630000Y-131638571D01*
X111658571Y-131524285D01*
X111687142Y-131467142D01*
X111744285Y-131410000D01*
X111830000Y-131381428D01*
X111887142Y-131381428D01*
X111972857Y-131410000D01*
X112001428Y-131438571D01*
X112258571Y-131981428D02*
X112258571Y-131381428D01*
X112601428Y-131981428D02*
X112344285Y-131638571D01*
X112601428Y-131381428D02*
X112258571Y-131724285D01*
X108587142Y-133071428D02*
X108587142Y-132471428D01*
X108930000Y-133071428D01*
X108930000Y-132471428D01*
X109187142Y-133042857D02*
X109272857Y-133071428D01*
X109415714Y-133071428D01*
X109472857Y-133042857D01*
X109501428Y-133014285D01*
X109530000Y-132957142D01*
X109530000Y-132900000D01*
X109501428Y-132842857D01*
X109472857Y-132814285D01*
X109415714Y-132785714D01*
X109301428Y-132757142D01*
X109244285Y-132728571D01*
X109215714Y-132700000D01*
X109187142Y-132642857D01*
X109187142Y-132585714D01*
X109215714Y-132528571D01*
X109244285Y-132500000D01*
X109301428Y-132471428D01*
X109444285Y-132471428D01*
X109530000Y-132500000D01*
X109758571Y-133042857D02*
X109844285Y-133071428D01*
X109987142Y-133071428D01*
X110044285Y-133042857D01*
X110072857Y-133014285D01*
X110101428Y-132957142D01*
X110101428Y-132900000D01*
X110072857Y-132842857D01*
X110044285Y-132814285D01*
X109987142Y-132785714D01*
X109872857Y-132757142D01*
X109815714Y-132728571D01*
X109787142Y-132700000D01*
X109758571Y-132642857D01*
X109758571Y-132585714D01*
X109787142Y-132528571D01*
X109815714Y-132500000D01*
X109872857Y-132471428D01*
X110015714Y-132471428D01*
X110101428Y-132500000D01*
X106042857Y-131381428D02*
X106385714Y-131381428D01*
X106214285Y-131981428D02*
X106214285Y-131381428D01*
X106585714Y-131981428D02*
X106585714Y-131381428D01*
X106728571Y-131381428D01*
X106814285Y-131410000D01*
X106871428Y-131467142D01*
X106900000Y-131524285D01*
X106928571Y-131638571D01*
X106928571Y-131724285D01*
X106900000Y-131838571D01*
X106871428Y-131895714D01*
X106814285Y-131952857D01*
X106728571Y-131981428D01*
X106585714Y-131981428D01*
X107128571Y-131381428D02*
X107528571Y-131981428D01*
X107528571Y-131381428D02*
X107128571Y-131981428D01*
X103730000Y-133061428D02*
X103530000Y-132775714D01*
X103387142Y-133061428D02*
X103387142Y-132461428D01*
X103615714Y-132461428D01*
X103672857Y-132490000D01*
X103701428Y-132518571D01*
X103730000Y-132575714D01*
X103730000Y-132661428D01*
X103701428Y-132718571D01*
X103672857Y-132747142D01*
X103615714Y-132775714D01*
X103387142Y-132775714D01*
X103987142Y-133061428D02*
X103987142Y-132461428D01*
X104130000Y-132461428D01*
X104215714Y-132490000D01*
X104272857Y-132547142D01*
X104301428Y-132604285D01*
X104330000Y-132718571D01*
X104330000Y-132804285D01*
X104301428Y-132918571D01*
X104272857Y-132975714D01*
X104215714Y-133032857D01*
X104130000Y-133061428D01*
X103987142Y-133061428D01*
X104530000Y-132461428D02*
X104930000Y-133061428D01*
X104930000Y-132461428D02*
X104530000Y-133061428D01*
D11*
X85072380Y-83572380D02*
X85167619Y-83572380D01*
X85262857Y-83620000D01*
X85310476Y-83667619D01*
X85358095Y-83762857D01*
X85405714Y-83953333D01*
X85405714Y-84191428D01*
X85358095Y-84381904D01*
X85310476Y-84477142D01*
X85262857Y-84524761D01*
X85167619Y-84572380D01*
X85072380Y-84572380D01*
X84977142Y-84524761D01*
X84929523Y-84477142D01*
X84881904Y-84381904D01*
X84834285Y-84191428D01*
X84834285Y-83953333D01*
X84881904Y-83762857D01*
X84929523Y-83667619D01*
X84977142Y-83620000D01*
X85072380Y-83572380D01*
X91915714Y-84552380D02*
X91344285Y-84552380D01*
X91630000Y-84552380D02*
X91630000Y-83552380D01*
X91534761Y-83695238D01*
X91439523Y-83790476D01*
X91344285Y-83838095D01*
D12*
X77150000Y-68090000D02*
X77150000Y-103700000D01*
X93700000Y-103700000D02*
X77150000Y-103700000D01*
X93700000Y-68100000D02*
X93700000Y-103700000D01*
X77150000Y-68100000D02*
X93700000Y-68100000D01*
D13*
X122646666Y-127104761D02*
X122646666Y-125104761D01*
X123122857Y-125104761D01*
X123408571Y-125200000D01*
X123599047Y-125390476D01*
X123694285Y-125580952D01*
X123789523Y-125961904D01*
X123789523Y-126247619D01*
X123694285Y-126628571D01*
X123599047Y-126819047D01*
X123408571Y-127009523D01*
X123122857Y-127104761D01*
X122646666Y-127104761D01*
X124551428Y-126533333D02*
X125503809Y-126533333D01*
X124360952Y-127104761D02*
X125027619Y-125104761D01*
X125694285Y-127104761D01*
X126360952Y-127104761D02*
X126360952Y-125104761D01*
X127503809Y-127104761D01*
X127503809Y-125104761D01*
X129503809Y-125200000D02*
X129313333Y-125104761D01*
X129027619Y-125104761D01*
X128741904Y-125200000D01*
X128551428Y-125390476D01*
X128456190Y-125580952D01*
X128360952Y-125961904D01*
X128360952Y-126247619D01*
X128456190Y-126628571D01*
X128551428Y-126819047D01*
X128741904Y-127009523D01*
X129027619Y-127104761D01*
X129218095Y-127104761D01*
X129503809Y-127009523D01*
X129599047Y-126914285D01*
X129599047Y-126247619D01*
X129218095Y-126247619D01*
X130456190Y-126057142D02*
X131122857Y-126057142D01*
X131408571Y-127104761D02*
X130456190Y-127104761D01*
X130456190Y-125104761D01*
X131408571Y-125104761D01*
X133408571Y-127104761D02*
X132741904Y-126152380D01*
X132265714Y-127104761D02*
X132265714Y-125104761D01*
X133027619Y-125104761D01*
X133218095Y-125200000D01*
X133313333Y-125295238D01*
X133408571Y-125485714D01*
X133408571Y-125771428D01*
X133313333Y-125961904D01*
X133218095Y-126057142D01*
X133027619Y-126152380D01*
X132265714Y-126152380D01*
X124646666Y-128695238D02*
X124741904Y-128600000D01*
X124932380Y-128504761D01*
X125408571Y-128504761D01*
X125599047Y-128600000D01*
X125694285Y-128695238D01*
X125789523Y-128885714D01*
X125789523Y-129076190D01*
X125694285Y-129361904D01*
X124551428Y-130504761D01*
X125789523Y-130504761D01*
X126551428Y-128695238D02*
X126646666Y-128600000D01*
X126837142Y-128504761D01*
X127313333Y-128504761D01*
X127503809Y-128600000D01*
X127599047Y-128695238D01*
X127694285Y-128885714D01*
X127694285Y-129076190D01*
X127599047Y-129361904D01*
X126456190Y-130504761D01*
X127694285Y-130504761D01*
X128932380Y-128504761D02*
X129122857Y-128504761D01*
X129313333Y-128600000D01*
X129408571Y-128695238D01*
X129503809Y-128885714D01*
X129599047Y-129266666D01*
X129599047Y-129742857D01*
X129503809Y-130123809D01*
X129408571Y-130314285D01*
X129313333Y-130409523D01*
X129122857Y-130504761D01*
X128932380Y-130504761D01*
X128741904Y-130409523D01*
X128646666Y-130314285D01*
X128551428Y-130123809D01*
X128456190Y-129742857D01*
X128456190Y-129266666D01*
X128551428Y-128885714D01*
X128646666Y-128695238D01*
X128741904Y-128600000D01*
X128932380Y-128504761D01*
X130170476Y-128504761D02*
X130837142Y-130504761D01*
X131503809Y-128504761D01*
D14*
X89181428Y-56417857D02*
X89395714Y-56489285D01*
X89467142Y-56560714D01*
X89538571Y-56703571D01*
X89538571Y-56917857D01*
X89467142Y-57060714D01*
X89395714Y-57132142D01*
X89252857Y-57203571D01*
X88681428Y-57203571D01*
X88681428Y-55703571D01*
X89181428Y-55703571D01*
X89324285Y-55775000D01*
X89395714Y-55846428D01*
X89467142Y-55989285D01*
X89467142Y-56132142D01*
X89395714Y-56275000D01*
X89324285Y-56346428D01*
X89181428Y-56417857D01*
X88681428Y-56417857D01*
X90752857Y-57132142D02*
X90610000Y-57203571D01*
X90324285Y-57203571D01*
X90181428Y-57132142D01*
X90110000Y-56989285D01*
X90110000Y-56417857D01*
X90181428Y-56275000D01*
X90324285Y-56203571D01*
X90610000Y-56203571D01*
X90752857Y-56275000D01*
X90824285Y-56417857D01*
X90824285Y-56560714D01*
X90110000Y-56703571D01*
X92038571Y-57132142D02*
X91895714Y-57203571D01*
X91610000Y-57203571D01*
X91467142Y-57132142D01*
X91395714Y-56989285D01*
X91395714Y-56417857D01*
X91467142Y-56275000D01*
X91610000Y-56203571D01*
X91895714Y-56203571D01*
X92038571Y-56275000D01*
X92110000Y-56417857D01*
X92110000Y-56560714D01*
X91395714Y-56703571D01*
X92752857Y-57203571D02*
X92752857Y-55703571D01*
X93252857Y-56775000D01*
X93752857Y-55703571D01*
X93752857Y-57203571D01*
X95110000Y-57203571D02*
X95110000Y-56417857D01*
X95038571Y-56275000D01*
X94895714Y-56203571D01*
X94610000Y-56203571D01*
X94467142Y-56275000D01*
X95110000Y-57132142D02*
X94967142Y-57203571D01*
X94610000Y-57203571D01*
X94467142Y-57132142D01*
X94395714Y-56989285D01*
X94395714Y-56846428D01*
X94467142Y-56703571D01*
X94610000Y-56632142D01*
X94967142Y-56632142D01*
X95110000Y-56560714D01*
X95824285Y-57203571D02*
X95824285Y-55703571D01*
X95967142Y-56632142D02*
X96395714Y-57203571D01*
X96395714Y-56203571D02*
X95824285Y-56775000D01*
X97610000Y-57132142D02*
X97467142Y-57203571D01*
X97181428Y-57203571D01*
X97038571Y-57132142D01*
X96967142Y-56989285D01*
X96967142Y-56417857D01*
X97038571Y-56275000D01*
X97181428Y-56203571D01*
X97467142Y-56203571D01*
X97610000Y-56275000D01*
X97681428Y-56417857D01*
X97681428Y-56560714D01*
X96967142Y-56703571D01*
X98324285Y-57203571D02*
X98324285Y-56203571D01*
X98324285Y-56489285D02*
X98395714Y-56346428D01*
X98467142Y-56275000D01*
X98610000Y-56203571D01*
X98752857Y-56203571D01*
X88360000Y-58253571D02*
X88717142Y-59753571D01*
X89002857Y-58682142D01*
X89288571Y-59753571D01*
X89645714Y-58253571D01*
X90145714Y-59325000D02*
X90860000Y-59325000D01*
X90002857Y-59753571D02*
X90502857Y-58253571D01*
X91002857Y-59753571D01*
X91288571Y-58253571D02*
X92145714Y-58253571D01*
X91717142Y-59753571D02*
X91717142Y-58253571D01*
X92431428Y-58253571D02*
X93288571Y-58253571D01*
X92860000Y-59753571D02*
X92860000Y-58253571D01*
X94288571Y-58967857D02*
X93788571Y-58967857D01*
X93788571Y-59753571D02*
X93788571Y-58253571D01*
X94502857Y-58253571D01*
X95931428Y-59753571D02*
X95431428Y-59039285D01*
X95074285Y-59753571D02*
X95074285Y-58253571D01*
X95645714Y-58253571D01*
X95788571Y-58325000D01*
X95860000Y-58396428D01*
X95931428Y-58539285D01*
X95931428Y-58753571D01*
X95860000Y-58896428D01*
X95788571Y-58967857D01*
X95645714Y-59039285D01*
X95074285Y-59039285D01*
X96574285Y-58967857D02*
X97074285Y-58967857D01*
X97288571Y-59753571D02*
X96574285Y-59753571D01*
X96574285Y-58253571D01*
X97288571Y-58253571D01*
X97931428Y-59753571D02*
X97931428Y-58253571D01*
X98288571Y-58253571D01*
X98502857Y-58325000D01*
X98645714Y-58467857D01*
X98717142Y-58610714D01*
X98788571Y-58896428D01*
X98788571Y-59110714D01*
X98717142Y-59396428D01*
X98645714Y-59539285D01*
X98502857Y-59682142D01*
X98288571Y-59753571D01*
X97931428Y-59753571D01*
X89681428Y-60803571D02*
X90181428Y-62303571D01*
X90681428Y-60803571D01*
X92610000Y-60803571D02*
X92752857Y-60803571D01*
X92895714Y-60875000D01*
X92967142Y-60946428D01*
X93038571Y-61089285D01*
X93110000Y-61375000D01*
X93110000Y-61732142D01*
X93038571Y-62017857D01*
X92967142Y-62160714D01*
X92895714Y-62232142D01*
X92752857Y-62303571D01*
X92610000Y-62303571D01*
X92467142Y-62232142D01*
X92395714Y-62160714D01*
X92324285Y-62017857D01*
X92252857Y-61732142D01*
X92252857Y-61375000D01*
X92324285Y-61089285D01*
X92395714Y-60946428D01*
X92467142Y-60875000D01*
X92610000Y-60803571D01*
X93752857Y-62160714D02*
X93824285Y-62232142D01*
X93752857Y-62303571D01*
X93681428Y-62232142D01*
X93752857Y-62160714D01*
X93752857Y-62303571D01*
X94752857Y-60803571D02*
X94895714Y-60803571D01*
X95038571Y-60875000D01*
X95110000Y-60946428D01*
X95181428Y-61089285D01*
X95252857Y-61375000D01*
X95252857Y-61732142D01*
X95181428Y-62017857D01*
X95110000Y-62160714D01*
X95038571Y-62232142D01*
X94895714Y-62303571D01*
X94752857Y-62303571D01*
X94610000Y-62232142D01*
X94538571Y-62160714D01*
X94467142Y-62017857D01*
X94395714Y-61732142D01*
X94395714Y-61375000D01*
X94467142Y-61089285D01*
X94538571Y-60946428D01*
X94610000Y-60875000D01*
X94752857Y-60803571D01*
X95895714Y-62160714D02*
X95967142Y-62232142D01*
X95895714Y-62303571D01*
X95824285Y-62232142D01*
X95895714Y-62160714D01*
X95895714Y-62303571D01*
X96538571Y-60946428D02*
X96610000Y-60875000D01*
X96752857Y-60803571D01*
X97110000Y-60803571D01*
X97252857Y-60875000D01*
X97324285Y-60946428D01*
X97395714Y-61089285D01*
X97395714Y-61232142D01*
X97324285Y-61446428D01*
X96467142Y-62303571D01*
X97395714Y-62303571D01*
X85288571Y-64067857D02*
X85502857Y-64139285D01*
X85574285Y-64210714D01*
X85645714Y-64353571D01*
X85645714Y-64567857D01*
X85574285Y-64710714D01*
X85502857Y-64782142D01*
X85360000Y-64853571D01*
X84788571Y-64853571D01*
X84788571Y-63353571D01*
X85288571Y-63353571D01*
X85431428Y-63425000D01*
X85502857Y-63496428D01*
X85574285Y-63639285D01*
X85574285Y-63782142D01*
X85502857Y-63925000D01*
X85431428Y-63996428D01*
X85288571Y-64067857D01*
X84788571Y-64067857D01*
X86574285Y-64139285D02*
X86574285Y-64853571D01*
X86074285Y-63353571D02*
X86574285Y-64139285D01*
X87074285Y-63353571D01*
X88717142Y-64853571D02*
X88717142Y-63353571D01*
X89217142Y-64425000D01*
X89717142Y-63353571D01*
X89717142Y-64853571D01*
X90431428Y-64710714D02*
X90502857Y-64782142D01*
X90431428Y-64853571D01*
X90360000Y-64782142D01*
X90431428Y-64710714D01*
X90431428Y-64853571D01*
X92788571Y-64067857D02*
X93002857Y-64139285D01*
X93074285Y-64210714D01*
X93145714Y-64353571D01*
X93145714Y-64567857D01*
X93074285Y-64710714D01*
X93002857Y-64782142D01*
X92860000Y-64853571D01*
X92288571Y-64853571D01*
X92288571Y-63353571D01*
X92788571Y-63353571D01*
X92931428Y-63425000D01*
X93002857Y-63496428D01*
X93074285Y-63639285D01*
X93074285Y-63782142D01*
X93002857Y-63925000D01*
X92931428Y-63996428D01*
X92788571Y-64067857D01*
X92288571Y-64067857D01*
X93717142Y-64425000D02*
X94431428Y-64425000D01*
X93574285Y-64853571D02*
X94074285Y-63353571D01*
X94574285Y-64853571D01*
X95931428Y-64853571D02*
X95431428Y-64139285D01*
X95074285Y-64853571D02*
X95074285Y-63353571D01*
X95645714Y-63353571D01*
X95788571Y-63425000D01*
X95860000Y-63496428D01*
X95931428Y-63639285D01*
X95931428Y-63853571D01*
X95860000Y-63996428D01*
X95788571Y-64067857D01*
X95645714Y-64139285D01*
X95074285Y-64139285D01*
X97074285Y-64067857D02*
X97288571Y-64139285D01*
X97360000Y-64210714D01*
X97431428Y-64353571D01*
X97431428Y-64567857D01*
X97360000Y-64710714D01*
X97288571Y-64782142D01*
X97145714Y-64853571D01*
X96574285Y-64853571D01*
X96574285Y-63353571D01*
X97074285Y-63353571D01*
X97217142Y-63425000D01*
X97288571Y-63496428D01*
X97360000Y-63639285D01*
X97360000Y-63782142D01*
X97288571Y-63925000D01*
X97217142Y-63996428D01*
X97074285Y-64067857D01*
X96574285Y-64067857D01*
X98002857Y-64425000D02*
X98717142Y-64425000D01*
X97860000Y-64853571D02*
X98360000Y-63353571D01*
X98860000Y-64853571D01*
X100217142Y-64853571D02*
X99717142Y-64139285D01*
X99360000Y-64853571D02*
X99360000Y-63353571D01*
X99931428Y-63353571D01*
X100074285Y-63425000D01*
X100145714Y-63496428D01*
X100217142Y-63639285D01*
X100217142Y-63853571D01*
X100145714Y-63996428D01*
X100074285Y-64067857D01*
X99931428Y-64139285D01*
X99360000Y-64139285D01*
X100860000Y-64853571D02*
X100860000Y-63353571D01*
X101574285Y-64853571D02*
X101574285Y-63353571D01*
X102431428Y-64853571D01*
X102431428Y-63353571D01*
D15*
X80137380Y-74471666D02*
X79661190Y-74805000D01*
X80137380Y-75043095D02*
X79137380Y-75043095D01*
X79137380Y-74662142D01*
X79185000Y-74566904D01*
X79232619Y-74519285D01*
X79327857Y-74471666D01*
X79470714Y-74471666D01*
X79565952Y-74519285D01*
X79613571Y-74566904D01*
X79661190Y-74662142D01*
X79661190Y-75043095D01*
X79137380Y-74138333D02*
X80137380Y-73471666D01*
X79137380Y-73471666D02*
X80137380Y-74138333D01*
X79137380Y-78704184D02*
X79137380Y-78132756D01*
X80137380Y-78418470D02*
X79137380Y-78418470D01*
X79137380Y-77894660D02*
X80137380Y-77227994D01*
X79137380Y-77227994D02*
X80137380Y-77894660D01*
X79137380Y-83001176D02*
X80137380Y-82763080D01*
X79423095Y-82572604D01*
X80137380Y-82382128D01*
X79137380Y-82144033D01*
X80137380Y-81763080D02*
X79470714Y-81763080D01*
X79137380Y-81763080D02*
X79185000Y-81810700D01*
X79232619Y-81763080D01*
X79185000Y-81715461D01*
X79137380Y-81763080D01*
X79232619Y-81763080D01*
X79470714Y-81429747D02*
X79470714Y-81048795D01*
X80137380Y-81286890D02*
X79280238Y-81286890D01*
X79185000Y-81239271D01*
X79137380Y-81144033D01*
X79137380Y-81048795D01*
X80137380Y-80715461D02*
X79470714Y-80715461D01*
X79137380Y-80715461D02*
X79185000Y-80763080D01*
X79232619Y-80715461D01*
X79185000Y-80667842D01*
X79137380Y-80715461D01*
X79232619Y-80715461D01*
X78434761Y-83504285D02*
X78482380Y-83367380D01*
X78482380Y-83129285D01*
X78434761Y-83028095D01*
X78387142Y-82974523D01*
X78291904Y-82915000D01*
X78196666Y-82903095D01*
X78101428Y-82938809D01*
X78053809Y-82980476D01*
X78006190Y-83069761D01*
X77958571Y-83254285D01*
X77910952Y-83343571D01*
X77863333Y-83385238D01*
X77768095Y-83420952D01*
X77672857Y-83409047D01*
X77577619Y-83349523D01*
X77530000Y-83295952D01*
X77482380Y-83194761D01*
X77482380Y-82956666D01*
X77530000Y-82819761D01*
X77815714Y-82569761D02*
X77815714Y-82188809D01*
X77482380Y-82385238D02*
X78339523Y-82492380D01*
X78434761Y-82456666D01*
X78482380Y-82367380D01*
X78482380Y-82272142D01*
X78482380Y-81510238D02*
X77958571Y-81444761D01*
X77863333Y-81480476D01*
X77815714Y-81569761D01*
X77815714Y-81760238D01*
X77863333Y-81861428D01*
X78434761Y-81504285D02*
X78482380Y-81605476D01*
X78482380Y-81843571D01*
X78434761Y-81932857D01*
X78339523Y-81968571D01*
X78244285Y-81956666D01*
X78149047Y-81897142D01*
X78101428Y-81795952D01*
X78101428Y-81557857D01*
X78053809Y-81456666D01*
X77815714Y-81093571D02*
X77815714Y-80712619D01*
X77482380Y-80909047D02*
X78339523Y-81016190D01*
X78434761Y-80980476D01*
X78482380Y-80891190D01*
X78482380Y-80795952D01*
X78434761Y-80075714D02*
X78482380Y-80176904D01*
X78482380Y-80367380D01*
X78434761Y-80456666D01*
X78339523Y-80492380D01*
X77958571Y-80444761D01*
X77863333Y-80385238D01*
X77815714Y-80284047D01*
X77815714Y-80093571D01*
X77863333Y-80004285D01*
X77958571Y-79968571D01*
X78053809Y-79980476D01*
X78149047Y-80468571D01*
X77482380Y-78861428D02*
X77482380Y-78290000D01*
X78482380Y-78700714D02*
X77482380Y-78575714D01*
X78482380Y-78081666D02*
X77815714Y-77998333D01*
X78006190Y-78022142D02*
X77910952Y-77962619D01*
X77863333Y-77909047D01*
X77815714Y-77807857D01*
X77815714Y-77712619D01*
X78482380Y-77034047D02*
X77958571Y-76968571D01*
X77863333Y-77004285D01*
X77815714Y-77093571D01*
X77815714Y-77284047D01*
X77863333Y-77385238D01*
X78434761Y-77028095D02*
X78482380Y-77129285D01*
X78482380Y-77367380D01*
X78434761Y-77456666D01*
X78339523Y-77492380D01*
X78244285Y-77480476D01*
X78149047Y-77420952D01*
X78101428Y-77319761D01*
X78101428Y-77081666D01*
X78053809Y-76980476D01*
X77815714Y-76474523D02*
X78482380Y-76557857D01*
X77910952Y-76486428D02*
X77863333Y-76432857D01*
X77815714Y-76331666D01*
X77815714Y-76188809D01*
X77863333Y-76099523D01*
X77958571Y-76063809D01*
X78482380Y-76129285D01*
X78434761Y-75694761D02*
X78482380Y-75605476D01*
X78482380Y-75415000D01*
X78434761Y-75313809D01*
X78339523Y-75254285D01*
X78291904Y-75248333D01*
X78196666Y-75284047D01*
X78149047Y-75373333D01*
X78149047Y-75516190D01*
X78101428Y-75605476D01*
X78006190Y-75641190D01*
X77958571Y-75635238D01*
X77863333Y-75575714D01*
X77815714Y-75474523D01*
X77815714Y-75331666D01*
X77863333Y-75242380D01*
X78482380Y-74843571D02*
X77815714Y-74760238D01*
X77910952Y-74772142D02*
X77863333Y-74718571D01*
X77815714Y-74617380D01*
X77815714Y-74474523D01*
X77863333Y-74385238D01*
X77958571Y-74349523D01*
X78482380Y-74415000D01*
X77958571Y-74349523D02*
X77863333Y-74290000D01*
X77815714Y-74188809D01*
X77815714Y-74045952D01*
X77863333Y-73956666D01*
X77958571Y-73920952D01*
X78482380Y-73986428D01*
X78482380Y-73510238D02*
X77815714Y-73426904D01*
X77482380Y-73385238D02*
X77530000Y-73438809D01*
X77577619Y-73397142D01*
X77530000Y-73343571D01*
X77482380Y-73385238D01*
X77577619Y-73397142D01*
X78434761Y-73075714D02*
X78482380Y-72986428D01*
X78482380Y-72795952D01*
X78434761Y-72694761D01*
X78339523Y-72635238D01*
X78291904Y-72629285D01*
X78196666Y-72665000D01*
X78149047Y-72754285D01*
X78149047Y-72897142D01*
X78101428Y-72986428D01*
X78006190Y-73022142D01*
X77958571Y-73016190D01*
X77863333Y-72956666D01*
X77815714Y-72855476D01*
X77815714Y-72712619D01*
X77863333Y-72623333D01*
X78434761Y-72266190D02*
X78482380Y-72176904D01*
X78482380Y-71986428D01*
X78434761Y-71885238D01*
X78339523Y-71825714D01*
X78291904Y-71819761D01*
X78196666Y-71855476D01*
X78149047Y-71944761D01*
X78149047Y-72087619D01*
X78101428Y-72176904D01*
X78006190Y-72212619D01*
X77958571Y-72206666D01*
X77863333Y-72147142D01*
X77815714Y-72045952D01*
X77815714Y-71903095D01*
X77863333Y-71813809D01*
X78482380Y-71415000D02*
X77815714Y-71331666D01*
X77482380Y-71290000D02*
X77530000Y-71343571D01*
X77577619Y-71301904D01*
X77530000Y-71248333D01*
X77482380Y-71290000D01*
X77577619Y-71301904D01*
X78482380Y-70795952D02*
X78434761Y-70885238D01*
X78387142Y-70926904D01*
X78291904Y-70962619D01*
X78006190Y-70926904D01*
X77910952Y-70867380D01*
X77863333Y-70813809D01*
X77815714Y-70712619D01*
X77815714Y-70569761D01*
X77863333Y-70480476D01*
X77910952Y-70438809D01*
X78006190Y-70403095D01*
X78291904Y-70438809D01*
X78387142Y-70498333D01*
X78434761Y-70551904D01*
X78482380Y-70653095D01*
X78482380Y-70795952D01*
X77815714Y-69950714D02*
X78482380Y-70034047D01*
X77910952Y-69962619D02*
X77863333Y-69909047D01*
X77815714Y-69807857D01*
X77815714Y-69665000D01*
X77863333Y-69575714D01*
X77958571Y-69540000D01*
X78482380Y-69605476D01*
X78434761Y-101770952D02*
X78482380Y-101634047D01*
X78482380Y-101395952D01*
X78434761Y-101294761D01*
X78387142Y-101241190D01*
X78291904Y-101181666D01*
X78196666Y-101169761D01*
X78101428Y-101205476D01*
X78053809Y-101247142D01*
X78006190Y-101336428D01*
X77958571Y-101520952D01*
X77910952Y-101610238D01*
X77863333Y-101651904D01*
X77768095Y-101687619D01*
X77672857Y-101675714D01*
X77577619Y-101616190D01*
X77530000Y-101562619D01*
X77482380Y-101461428D01*
X77482380Y-101223333D01*
X77530000Y-101086428D01*
X77815714Y-100836428D02*
X77815714Y-100455476D01*
X77482380Y-100651904D02*
X78339523Y-100759047D01*
X78434761Y-100723333D01*
X78482380Y-100634047D01*
X78482380Y-100538809D01*
X78482380Y-99776904D02*
X77958571Y-99711428D01*
X77863333Y-99747142D01*
X77815714Y-99836428D01*
X77815714Y-100026904D01*
X77863333Y-100128095D01*
X78434761Y-99770952D02*
X78482380Y-99872142D01*
X78482380Y-100110238D01*
X78434761Y-100199523D01*
X78339523Y-100235238D01*
X78244285Y-100223333D01*
X78149047Y-100163809D01*
X78101428Y-100062619D01*
X78101428Y-99824523D01*
X78053809Y-99723333D01*
X77815714Y-99360238D02*
X77815714Y-98979285D01*
X77482380Y-99175714D02*
X78339523Y-99282857D01*
X78434761Y-99247142D01*
X78482380Y-99157857D01*
X78482380Y-99062619D01*
X78434761Y-98342380D02*
X78482380Y-98443571D01*
X78482380Y-98634047D01*
X78434761Y-98723333D01*
X78339523Y-98759047D01*
X77958571Y-98711428D01*
X77863333Y-98651904D01*
X77815714Y-98550714D01*
X77815714Y-98360238D01*
X77863333Y-98270952D01*
X77958571Y-98235238D01*
X78053809Y-98247142D01*
X78149047Y-98735238D01*
X78482380Y-97110238D02*
X77482380Y-96985238D01*
X78196666Y-96741190D01*
X77482380Y-96318571D01*
X78482380Y-96443571D01*
X78482380Y-95538809D02*
X77958571Y-95473333D01*
X77863333Y-95509047D01*
X77815714Y-95598333D01*
X77815714Y-95788809D01*
X77863333Y-95890000D01*
X78434761Y-95532857D02*
X78482380Y-95634047D01*
X78482380Y-95872142D01*
X78434761Y-95961428D01*
X78339523Y-95997142D01*
X78244285Y-95985238D01*
X78149047Y-95925714D01*
X78101428Y-95824523D01*
X78101428Y-95586428D01*
X78053809Y-95485238D01*
X78434761Y-94628095D02*
X78482380Y-94729285D01*
X78482380Y-94919761D01*
X78434761Y-95009047D01*
X78387142Y-95050714D01*
X78291904Y-95086428D01*
X78006190Y-95050714D01*
X77910952Y-94991190D01*
X77863333Y-94937619D01*
X77815714Y-94836428D01*
X77815714Y-94645952D01*
X77863333Y-94556666D01*
X78482380Y-94205476D02*
X77482380Y-94080476D01*
X78482380Y-93776904D02*
X77958571Y-93711428D01*
X77863333Y-93747142D01*
X77815714Y-93836428D01*
X77815714Y-93979285D01*
X77863333Y-94080476D01*
X77910952Y-94134047D01*
X78482380Y-93300714D02*
X77815714Y-93217380D01*
X77482380Y-93175714D02*
X77530000Y-93229285D01*
X77577619Y-93187619D01*
X77530000Y-93134047D01*
X77482380Y-93175714D01*
X77577619Y-93187619D01*
X77815714Y-92741190D02*
X78482380Y-92824523D01*
X77910952Y-92753095D02*
X77863333Y-92699523D01*
X77815714Y-92598333D01*
X77815714Y-92455476D01*
X77863333Y-92366190D01*
X77958571Y-92330476D01*
X78482380Y-92395952D01*
X78434761Y-91532857D02*
X78482380Y-91634047D01*
X78482380Y-91824523D01*
X78434761Y-91913809D01*
X78339523Y-91949523D01*
X77958571Y-91901904D01*
X77863333Y-91842380D01*
X77815714Y-91741190D01*
X77815714Y-91550714D01*
X77863333Y-91461428D01*
X77958571Y-91425714D01*
X78053809Y-91437619D01*
X78149047Y-91925714D01*
D12*
X102890000Y-136300000D02*
X102890000Y-134970000D01*
X104220000Y-136300000D02*
X102890000Y-136300000D01*
X105490000Y-136300000D02*
X105490000Y-133640000D01*
X105490000Y-133640000D02*
X120790000Y-133640000D01*
X105490000Y-136300000D02*
X120790000Y-136300000D01*
X120790000Y-136300000D02*
X120790000Y-133640000D01*
X84390000Y-87500000D02*
X84390000Y-86170000D01*
X85720000Y-87500000D02*
X84390000Y-87500000D01*
X86990000Y-87500000D02*
X86990000Y-84840000D01*
X86990000Y-84840000D02*
X92130000Y-84840000D01*
X86990000Y-87500000D02*
X92130000Y-87500000D01*
X92130000Y-87500000D02*
X92130000Y-84840000D01*
X130041422Y-85460000D02*
X130558578Y-85460000D01*
X130041422Y-84040000D02*
X130558578Y-84040000D01*
D16*
X169480000Y-114810000D02*
X169480000Y-73810000D01*
X169480000Y-73810000D02*
X134480000Y-73810000D01*
X134480000Y-73810000D02*
X134480000Y-114810000D01*
X134480000Y-114810000D02*
X169480000Y-114810000D01*
D17*
X171485000Y-104310000D02*
G75*
G03X171485000Y-104310000I-342000J0D01*
G01*
D15*
X104873840Y-95001000D02*
G75*
G03X104873840Y-95001000I-100000J0D01*
G01*
D18*
G36*
X109954000Y-57086334D02*
G01*
X109911667Y-57128667D01*
X109869334Y-57086334D01*
X109911667Y-57044000D01*
X109954000Y-57086334D01*
X109954000Y-57086334D01*
G37*
X109954000Y-57086334D02*
X109911667Y-57128667D01*
X109869334Y-57086334D01*
X109911667Y-57044000D01*
X109954000Y-57086334D01*
G36*
X109784667Y-57086334D02*
G01*
X109742334Y-57128667D01*
X109700000Y-57086334D01*
X109742334Y-57044000D01*
X109784667Y-57086334D01*
X109784667Y-57086334D01*
G37*
X109784667Y-57086334D02*
X109742334Y-57128667D01*
X109700000Y-57086334D01*
X109742334Y-57044000D01*
X109784667Y-57086334D01*
G36*
X109530667Y-63690334D02*
G01*
X109488334Y-63732667D01*
X109446000Y-63690334D01*
X109488334Y-63648000D01*
X109530667Y-63690334D01*
X109530667Y-63690334D01*
G37*
X109530667Y-63690334D02*
X109488334Y-63732667D01*
X109446000Y-63690334D01*
X109488334Y-63648000D01*
X109530667Y-63690334D01*
G36*
X101487334Y-54207667D02*
G01*
X101445000Y-54250000D01*
X101402667Y-54207667D01*
X101445000Y-54165334D01*
X101487334Y-54207667D01*
X101487334Y-54207667D01*
G37*
X101487334Y-54207667D02*
X101445000Y-54250000D01*
X101402667Y-54207667D01*
X101445000Y-54165334D01*
X101487334Y-54207667D01*
G36*
X117320000Y-54461667D02*
G01*
X117277667Y-54504000D01*
X117235334Y-54461667D01*
X117277667Y-54419334D01*
X117320000Y-54461667D01*
X117320000Y-54461667D01*
G37*
X117320000Y-54461667D02*
X117277667Y-54504000D01*
X117235334Y-54461667D01*
X117277667Y-54419334D01*
X117320000Y-54461667D01*
G36*
X116360445Y-54701556D02*
G01*
X116348822Y-54751890D01*
X116304000Y-54758000D01*
X116234310Y-54727022D01*
X116247556Y-54701556D01*
X116348035Y-54691423D01*
X116360445Y-54701556D01*
X116360445Y-54701556D01*
G37*
X116360445Y-54701556D02*
X116348822Y-54751890D01*
X116304000Y-54758000D01*
X116234310Y-54727022D01*
X116247556Y-54701556D01*
X116348035Y-54691423D01*
X116360445Y-54701556D01*
G36*
X116888758Y-54520864D02*
G01*
X116868741Y-54587076D01*
X116734574Y-54726065D01*
X116641659Y-54811317D01*
X116445792Y-55003962D01*
X116368777Y-55131370D01*
X116391699Y-55226765D01*
X116399480Y-55236696D01*
X116461673Y-55356409D01*
X116453525Y-55398698D01*
X116391807Y-55373583D01*
X116359998Y-55313412D01*
X116254674Y-55225670D01*
X116159038Y-55241267D01*
X116124065Y-55226476D01*
X116201198Y-55125902D01*
X116292836Y-55036271D01*
X116451311Y-54862185D01*
X116525032Y-54722427D01*
X116521271Y-54682402D01*
X116526084Y-54626752D01*
X116609825Y-54646358D01*
X116708948Y-54660614D01*
X116693893Y-54603055D01*
X116704276Y-54522510D01*
X116807247Y-54504000D01*
X116888758Y-54520864D01*
X116888758Y-54520864D01*
G37*
X116888758Y-54520864D02*
X116868741Y-54587076D01*
X116734574Y-54726065D01*
X116641659Y-54811317D01*
X116445792Y-55003962D01*
X116368777Y-55131370D01*
X116391699Y-55226765D01*
X116399480Y-55236696D01*
X116461673Y-55356409D01*
X116453525Y-55398698D01*
X116391807Y-55373583D01*
X116359998Y-55313412D01*
X116254674Y-55225670D01*
X116159038Y-55241267D01*
X116124065Y-55226476D01*
X116201198Y-55125902D01*
X116292836Y-55036271D01*
X116451311Y-54862185D01*
X116525032Y-54722427D01*
X116521271Y-54682402D01*
X116526084Y-54626752D01*
X116609825Y-54646358D01*
X116708948Y-54660614D01*
X116693893Y-54603055D01*
X116704276Y-54522510D01*
X116807247Y-54504000D01*
X116888758Y-54520864D01*
G36*
X115852445Y-55378889D02*
G01*
X115840822Y-55429223D01*
X115796000Y-55435334D01*
X115726310Y-55404355D01*
X115739556Y-55378889D01*
X115840035Y-55368756D01*
X115852445Y-55378889D01*
X115852445Y-55378889D01*
G37*
X115852445Y-55378889D02*
X115840822Y-55429223D01*
X115796000Y-55435334D01*
X115726310Y-55404355D01*
X115739556Y-55378889D01*
X115840035Y-55368756D01*
X115852445Y-55378889D01*
G36*
X112766399Y-53251484D02*
G01*
X112832667Y-53318667D01*
X112785306Y-53390520D01*
X112769167Y-53389892D01*
X112642080Y-53405720D01*
X112578667Y-53426753D01*
X112452155Y-53469816D01*
X112199365Y-53550722D01*
X111856067Y-53658174D01*
X111458031Y-53780880D01*
X111427836Y-53790118D01*
X110922864Y-53953822D01*
X110569575Y-54093862D01*
X110353804Y-54220753D01*
X110261388Y-54345012D01*
X110278161Y-54477158D01*
X110353751Y-54587623D01*
X110500753Y-54716320D01*
X110605865Y-54758000D01*
X110735777Y-54828938D01*
X110863717Y-54996621D01*
X110947301Y-55193355D01*
X110955843Y-55316986D01*
X110879913Y-55419427D01*
X110741513Y-55486484D01*
X110607990Y-55498764D01*
X110546694Y-55436876D01*
X110546667Y-55434802D01*
X110473257Y-55375087D01*
X110299722Y-55350667D01*
X110108809Y-55318106D01*
X110010073Y-55244834D01*
X109971857Y-55190964D01*
X109960684Y-55255200D01*
X109930957Y-55327498D01*
X109830862Y-55269194D01*
X109827000Y-55266000D01*
X109724730Y-55211334D01*
X109699525Y-55234467D01*
X109622628Y-55278245D01*
X109424722Y-55313757D01*
X109231879Y-55328845D01*
X108930293Y-55363555D01*
X108671347Y-55429817D01*
X108569429Y-55477309D01*
X108408971Y-55552611D01*
X108317408Y-55548519D01*
X108255657Y-55380137D01*
X108304304Y-55156741D01*
X108438644Y-54925395D01*
X108448921Y-54915281D01*
X108853334Y-54915281D01*
X108920613Y-55017090D01*
X109090019Y-55033837D01*
X109262414Y-54982419D01*
X109396336Y-54922337D01*
X110546667Y-54922337D01*
X110608127Y-55008555D01*
X110631334Y-55012000D01*
X110713799Y-54983113D01*
X110716000Y-54974664D01*
X110656671Y-54902378D01*
X110631334Y-54885000D01*
X110553315Y-54891713D01*
X110546667Y-54922337D01*
X109396336Y-54922337D01*
X109459827Y-54893853D01*
X109263928Y-54821385D01*
X109091569Y-54794083D01*
X109038116Y-54838653D01*
X108958355Y-54891337D01*
X108930769Y-54880531D01*
X108857914Y-54890188D01*
X108853334Y-54915281D01*
X108448921Y-54915281D01*
X108633971Y-54733168D01*
X108789834Y-54648515D01*
X108928629Y-54558679D01*
X108921303Y-54440665D01*
X108763296Y-54289465D01*
X108450050Y-54100073D01*
X108154834Y-53951136D01*
X107810845Y-53792430D01*
X107512032Y-53666568D01*
X107298353Y-53589739D01*
X107223500Y-53573757D01*
X107097720Y-53542772D01*
X107075386Y-53509167D01*
X106999576Y-53478267D01*
X106805602Y-53468711D01*
X106652053Y-53475005D01*
X106372115Y-53477951D01*
X106242025Y-53435340D01*
X106228667Y-53400627D01*
X106279244Y-53347766D01*
X106445636Y-53324282D01*
X106749831Y-53328021D01*
X106894719Y-53335467D01*
X107247003Y-53365705D01*
X107536306Y-53421913D01*
X107826653Y-53522687D01*
X108182068Y-53686623D01*
X108291719Y-53741225D01*
X108605352Y-53907586D01*
X108852244Y-54055283D01*
X108999107Y-54163484D01*
X109025360Y-54200380D01*
X109068163Y-54214395D01*
X109152360Y-54127985D01*
X109243865Y-54040740D01*
X109276667Y-54067463D01*
X109322545Y-54128523D01*
X109426021Y-54091359D01*
X109651265Y-54065120D01*
X109842529Y-54123756D01*
X110036201Y-54189373D01*
X110158255Y-54164937D01*
X110259332Y-54070724D01*
X110409032Y-53961382D01*
X110520158Y-53948024D01*
X110619386Y-53946704D01*
X110631334Y-53919102D01*
X110702487Y-53848222D01*
X110884720Y-53744546D01*
X111033500Y-53675979D01*
X111475227Y-53504339D01*
X111896942Y-53370595D01*
X112271084Y-53280223D01*
X112570090Y-53238694D01*
X112766399Y-53251484D01*
X112766399Y-53251484D01*
G37*
X112766399Y-53251484D02*
X112832667Y-53318667D01*
X112785306Y-53390520D01*
X112769167Y-53389892D01*
X112642080Y-53405720D01*
X112578667Y-53426753D01*
X112452155Y-53469816D01*
X112199365Y-53550722D01*
X111856067Y-53658174D01*
X111458031Y-53780880D01*
X111427836Y-53790118D01*
X110922864Y-53953822D01*
X110569575Y-54093862D01*
X110353804Y-54220753D01*
X110261388Y-54345012D01*
X110278161Y-54477158D01*
X110353751Y-54587623D01*
X110500753Y-54716320D01*
X110605865Y-54758000D01*
X110735777Y-54828938D01*
X110863717Y-54996621D01*
X110947301Y-55193355D01*
X110955843Y-55316986D01*
X110879913Y-55419427D01*
X110741513Y-55486484D01*
X110607990Y-55498764D01*
X110546694Y-55436876D01*
X110546667Y-55434802D01*
X110473257Y-55375087D01*
X110299722Y-55350667D01*
X110108809Y-55318106D01*
X110010073Y-55244834D01*
X109971857Y-55190964D01*
X109960684Y-55255200D01*
X109930957Y-55327498D01*
X109830862Y-55269194D01*
X109827000Y-55266000D01*
X109724730Y-55211334D01*
X109699525Y-55234467D01*
X109622628Y-55278245D01*
X109424722Y-55313757D01*
X109231879Y-55328845D01*
X108930293Y-55363555D01*
X108671347Y-55429817D01*
X108569429Y-55477309D01*
X108408971Y-55552611D01*
X108317408Y-55548519D01*
X108255657Y-55380137D01*
X108304304Y-55156741D01*
X108438644Y-54925395D01*
X108448921Y-54915281D01*
X108853334Y-54915281D01*
X108920613Y-55017090D01*
X109090019Y-55033837D01*
X109262414Y-54982419D01*
X109396336Y-54922337D01*
X110546667Y-54922337D01*
X110608127Y-55008555D01*
X110631334Y-55012000D01*
X110713799Y-54983113D01*
X110716000Y-54974664D01*
X110656671Y-54902378D01*
X110631334Y-54885000D01*
X110553315Y-54891713D01*
X110546667Y-54922337D01*
X109396336Y-54922337D01*
X109459827Y-54893853D01*
X109263928Y-54821385D01*
X109091569Y-54794083D01*
X109038116Y-54838653D01*
X108958355Y-54891337D01*
X108930769Y-54880531D01*
X108857914Y-54890188D01*
X108853334Y-54915281D01*
X108448921Y-54915281D01*
X108633971Y-54733168D01*
X108789834Y-54648515D01*
X108928629Y-54558679D01*
X108921303Y-54440665D01*
X108763296Y-54289465D01*
X108450050Y-54100073D01*
X108154834Y-53951136D01*
X107810845Y-53792430D01*
X107512032Y-53666568D01*
X107298353Y-53589739D01*
X107223500Y-53573757D01*
X107097720Y-53542772D01*
X107075386Y-53509167D01*
X106999576Y-53478267D01*
X106805602Y-53468711D01*
X106652053Y-53475005D01*
X106372115Y-53477951D01*
X106242025Y-53435340D01*
X106228667Y-53400627D01*
X106279244Y-53347766D01*
X106445636Y-53324282D01*
X106749831Y-53328021D01*
X106894719Y-53335467D01*
X107247003Y-53365705D01*
X107536306Y-53421913D01*
X107826653Y-53522687D01*
X108182068Y-53686623D01*
X108291719Y-53741225D01*
X108605352Y-53907586D01*
X108852244Y-54055283D01*
X108999107Y-54163484D01*
X109025360Y-54200380D01*
X109068163Y-54214395D01*
X109152360Y-54127985D01*
X109243865Y-54040740D01*
X109276667Y-54067463D01*
X109322545Y-54128523D01*
X109426021Y-54091359D01*
X109651265Y-54065120D01*
X109842529Y-54123756D01*
X110036201Y-54189373D01*
X110158255Y-54164937D01*
X110259332Y-54070724D01*
X110409032Y-53961382D01*
X110520158Y-53948024D01*
X110619386Y-53946704D01*
X110631334Y-53919102D01*
X110702487Y-53848222D01*
X110884720Y-53744546D01*
X111033500Y-53675979D01*
X111475227Y-53504339D01*
X111896942Y-53370595D01*
X112271084Y-53280223D01*
X112570090Y-53238694D01*
X112766399Y-53251484D01*
G36*
X103688667Y-55562334D02*
G01*
X103646334Y-55604667D01*
X103604000Y-55562334D01*
X103646334Y-55520000D01*
X103688667Y-55562334D01*
X103688667Y-55562334D01*
G37*
X103688667Y-55562334D02*
X103646334Y-55604667D01*
X103604000Y-55562334D01*
X103646334Y-55520000D01*
X103688667Y-55562334D01*
G36*
X115796000Y-55731667D02*
G01*
X115753667Y-55774000D01*
X115711334Y-55731667D01*
X115753667Y-55689334D01*
X115796000Y-55731667D01*
X115796000Y-55731667D01*
G37*
X115796000Y-55731667D02*
X115753667Y-55774000D01*
X115711334Y-55731667D01*
X115753667Y-55689334D01*
X115796000Y-55731667D01*
G36*
X103966877Y-55666275D02*
G01*
X103985000Y-55689334D01*
X104014801Y-55765483D01*
X103934697Y-55736803D01*
X103858000Y-55689334D01*
X103792910Y-55621365D01*
X103831837Y-55605963D01*
X103966877Y-55666275D01*
X103966877Y-55666275D01*
G37*
X103966877Y-55666275D02*
X103985000Y-55689334D01*
X104014801Y-55765483D01*
X103934697Y-55736803D01*
X103858000Y-55689334D01*
X103792910Y-55621365D01*
X103831837Y-55605963D01*
X103966877Y-55666275D01*
G36*
X117066000Y-55816334D02*
G01*
X117023667Y-55858667D01*
X116981334Y-55816334D01*
X117023667Y-55774000D01*
X117066000Y-55816334D01*
X117066000Y-55816334D01*
G37*
X117066000Y-55816334D02*
X117023667Y-55858667D01*
X116981334Y-55816334D01*
X117023667Y-55774000D01*
X117066000Y-55816334D01*
G36*
X116896667Y-55816334D02*
G01*
X116854334Y-55858667D01*
X116812000Y-55816334D01*
X116854334Y-55774000D01*
X116896667Y-55816334D01*
X116896667Y-55816334D01*
G37*
X116896667Y-55816334D02*
X116854334Y-55858667D01*
X116812000Y-55816334D01*
X116854334Y-55774000D01*
X116896667Y-55816334D01*
G36*
X116727334Y-55816334D02*
G01*
X116685000Y-55858667D01*
X116642667Y-55816334D01*
X116685000Y-55774000D01*
X116727334Y-55816334D01*
X116727334Y-55816334D01*
G37*
X116727334Y-55816334D02*
X116685000Y-55858667D01*
X116642667Y-55816334D01*
X116685000Y-55774000D01*
X116727334Y-55816334D01*
G36*
X104196667Y-55816334D02*
G01*
X104154334Y-55858667D01*
X104112000Y-55816334D01*
X104154334Y-55774000D01*
X104196667Y-55816334D01*
X104196667Y-55816334D01*
G37*
X104196667Y-55816334D02*
X104154334Y-55858667D01*
X104112000Y-55816334D01*
X104154334Y-55774000D01*
X104196667Y-55816334D01*
G36*
X105303184Y-55819949D02*
G01*
X105377123Y-55889448D01*
X105290009Y-55914608D01*
X105258725Y-55915111D01*
X105173812Y-55877748D01*
X105179908Y-55843175D01*
X105278081Y-55808832D01*
X105303184Y-55819949D01*
X105303184Y-55819949D01*
G37*
X105303184Y-55819949D02*
X105377123Y-55889448D01*
X105290009Y-55914608D01*
X105258725Y-55915111D01*
X105173812Y-55877748D01*
X105179908Y-55843175D01*
X105278081Y-55808832D01*
X105303184Y-55819949D01*
G36*
X114926843Y-55931430D02*
G01*
X114983542Y-55995023D01*
X115013581Y-56094662D01*
X115010176Y-56104227D01*
X114924803Y-56077693D01*
X114780000Y-56035946D01*
X114635029Y-55989491D01*
X114646335Y-55958099D01*
X114753365Y-55926742D01*
X114926843Y-55931430D01*
X114926843Y-55931430D01*
G37*
X114926843Y-55931430D02*
X114983542Y-55995023D01*
X115013581Y-56094662D01*
X115010176Y-56104227D01*
X114924803Y-56077693D01*
X114780000Y-56035946D01*
X114635029Y-55989491D01*
X114646335Y-55958099D01*
X114753365Y-55926742D01*
X114926843Y-55931430D01*
G36*
X104771393Y-55699156D02*
G01*
X104874000Y-55747306D01*
X105085667Y-55856171D01*
X104880667Y-55857419D01*
X104656685Y-55911787D01*
X104531295Y-55989322D01*
X104415739Y-56074262D01*
X104356251Y-56035174D01*
X104338440Y-55993634D01*
X104339501Y-55904494D01*
X104412100Y-55914161D01*
X104539601Y-55886640D01*
X104598288Y-55799737D01*
X104664036Y-55693259D01*
X104771393Y-55699156D01*
X104771393Y-55699156D01*
G37*
X104771393Y-55699156D02*
X104874000Y-55747306D01*
X105085667Y-55856171D01*
X104880667Y-55857419D01*
X104656685Y-55911787D01*
X104531295Y-55989322D01*
X104415739Y-56074262D01*
X104356251Y-56035174D01*
X104338440Y-55993634D01*
X104339501Y-55904494D01*
X104412100Y-55914161D01*
X104539601Y-55886640D01*
X104598288Y-55799737D01*
X104664036Y-55693259D01*
X104771393Y-55699156D01*
G36*
X116642667Y-56155000D02*
G01*
X116600334Y-56197334D01*
X116558000Y-56155000D01*
X116600334Y-56112667D01*
X116642667Y-56155000D01*
X116642667Y-56155000D01*
G37*
X116642667Y-56155000D02*
X116600334Y-56197334D01*
X116558000Y-56155000D01*
X116600334Y-56112667D01*
X116642667Y-56155000D01*
G36*
X105365019Y-53795783D02*
G01*
X105379075Y-53821200D01*
X105500474Y-53958801D01*
X105596646Y-53996000D01*
X105707500Y-54034905D01*
X105720667Y-54066360D01*
X105787209Y-54153074D01*
X105932334Y-54250000D01*
X106087015Y-54368749D01*
X106144000Y-54475974D01*
X106214269Y-54568667D01*
X106306278Y-54588667D01*
X106454552Y-54618730D01*
X106496778Y-54655225D01*
X106581479Y-54754488D01*
X106733044Y-54870329D01*
X106900001Y-54971168D01*
X107030877Y-55025430D01*
X107075334Y-55010163D01*
X107121933Y-55020329D01*
X107244362Y-55140104D01*
X107416566Y-55343843D01*
X107424380Y-55353705D01*
X107627468Y-55587591D01*
X107813438Y-55762731D01*
X107932380Y-55836849D01*
X108064301Y-55922154D01*
X108091334Y-55992884D01*
X108032402Y-56068843D01*
X107964334Y-56058618D01*
X107855597Y-56062343D01*
X107837334Y-56103608D01*
X107799013Y-56187280D01*
X107673670Y-56160511D01*
X107445734Y-56019224D01*
X107405354Y-55990508D01*
X107135540Y-55812241D01*
X106857222Y-55650545D01*
X106828241Y-55635428D01*
X106713359Y-55562334D01*
X107160000Y-55562334D01*
X107202334Y-55604667D01*
X107244667Y-55562334D01*
X107202334Y-55520000D01*
X107160000Y-55562334D01*
X106713359Y-55562334D01*
X106670885Y-55535310D01*
X106627484Y-55464269D01*
X106643932Y-55452134D01*
X106663541Y-55393000D01*
X107075334Y-55393000D01*
X107117667Y-55435334D01*
X107160000Y-55393000D01*
X107117667Y-55350667D01*
X107075334Y-55393000D01*
X106663541Y-55393000D01*
X106667403Y-55381355D01*
X106595491Y-55256502D01*
X106469094Y-55124005D01*
X106329110Y-55030295D01*
X106256242Y-55012000D01*
X106159690Y-54974297D01*
X106154026Y-54948500D01*
X106145398Y-54755784D01*
X106057049Y-54673801D01*
X106047392Y-54673334D01*
X105941737Y-54616519D01*
X105762973Y-54468555D01*
X105577917Y-54289690D01*
X105373215Y-54098419D01*
X105207845Y-53978741D01*
X105124192Y-53956020D01*
X105050523Y-53966052D01*
X105056866Y-53887851D01*
X105132670Y-53776263D01*
X105164429Y-53746901D01*
X105273767Y-53699670D01*
X105365019Y-53795783D01*
X105365019Y-53795783D01*
G37*
X105365019Y-53795783D02*
X105379075Y-53821200D01*
X105500474Y-53958801D01*
X105596646Y-53996000D01*
X105707500Y-54034905D01*
X105720667Y-54066360D01*
X105787209Y-54153074D01*
X105932334Y-54250000D01*
X106087015Y-54368749D01*
X106144000Y-54475974D01*
X106214269Y-54568667D01*
X106306278Y-54588667D01*
X106454552Y-54618730D01*
X106496778Y-54655225D01*
X106581479Y-54754488D01*
X106733044Y-54870329D01*
X106900001Y-54971168D01*
X107030877Y-55025430D01*
X107075334Y-55010163D01*
X107121933Y-55020329D01*
X107244362Y-55140104D01*
X107416566Y-55343843D01*
X107424380Y-55353705D01*
X107627468Y-55587591D01*
X107813438Y-55762731D01*
X107932380Y-55836849D01*
X108064301Y-55922154D01*
X108091334Y-55992884D01*
X108032402Y-56068843D01*
X107964334Y-56058618D01*
X107855597Y-56062343D01*
X107837334Y-56103608D01*
X107799013Y-56187280D01*
X107673670Y-56160511D01*
X107445734Y-56019224D01*
X107405354Y-55990508D01*
X107135540Y-55812241D01*
X106857222Y-55650545D01*
X106828241Y-55635428D01*
X106713359Y-55562334D01*
X107160000Y-55562334D01*
X107202334Y-55604667D01*
X107244667Y-55562334D01*
X107202334Y-55520000D01*
X107160000Y-55562334D01*
X106713359Y-55562334D01*
X106670885Y-55535310D01*
X106627484Y-55464269D01*
X106643932Y-55452134D01*
X106663541Y-55393000D01*
X107075334Y-55393000D01*
X107117667Y-55435334D01*
X107160000Y-55393000D01*
X107117667Y-55350667D01*
X107075334Y-55393000D01*
X106663541Y-55393000D01*
X106667403Y-55381355D01*
X106595491Y-55256502D01*
X106469094Y-55124005D01*
X106329110Y-55030295D01*
X106256242Y-55012000D01*
X106159690Y-54974297D01*
X106154026Y-54948500D01*
X106145398Y-54755784D01*
X106057049Y-54673801D01*
X106047392Y-54673334D01*
X105941737Y-54616519D01*
X105762973Y-54468555D01*
X105577917Y-54289690D01*
X105373215Y-54098419D01*
X105207845Y-53978741D01*
X105124192Y-53956020D01*
X105050523Y-53966052D01*
X105056866Y-53887851D01*
X105132670Y-53776263D01*
X105164429Y-53746901D01*
X105273767Y-53699670D01*
X105365019Y-53795783D01*
G36*
X103338649Y-55423578D02*
G01*
X103470862Y-55462428D01*
X103439848Y-55494498D01*
X103413500Y-55500836D01*
X103287552Y-55587420D01*
X103265334Y-55658205D01*
X103311593Y-55738579D01*
X103363082Y-55723582D01*
X103421146Y-55713639D01*
X103401500Y-55759169D01*
X103390412Y-55902547D01*
X103433730Y-56026250D01*
X103488845Y-56158035D01*
X103482958Y-56197334D01*
X103415603Y-56132136D01*
X103343684Y-56016199D01*
X103243834Y-55790041D01*
X103181188Y-55606483D01*
X103148966Y-55446541D01*
X103209950Y-55403922D01*
X103338649Y-55423578D01*
X103338649Y-55423578D01*
G37*
X103338649Y-55423578D02*
X103470862Y-55462428D01*
X103439848Y-55494498D01*
X103413500Y-55500836D01*
X103287552Y-55587420D01*
X103265334Y-55658205D01*
X103311593Y-55738579D01*
X103363082Y-55723582D01*
X103421146Y-55713639D01*
X103401500Y-55759169D01*
X103390412Y-55902547D01*
X103433730Y-56026250D01*
X103488845Y-56158035D01*
X103482958Y-56197334D01*
X103415603Y-56132136D01*
X103343684Y-56016199D01*
X103243834Y-55790041D01*
X103181188Y-55606483D01*
X103148966Y-55446541D01*
X103209950Y-55403922D01*
X103338649Y-55423578D01*
G36*
X115034000Y-56239667D02*
G01*
X114991667Y-56282000D01*
X114949334Y-56239667D01*
X114991667Y-56197334D01*
X115034000Y-56239667D01*
X115034000Y-56239667D01*
G37*
X115034000Y-56239667D02*
X114991667Y-56282000D01*
X114949334Y-56239667D01*
X114991667Y-56197334D01*
X115034000Y-56239667D01*
G36*
X103688667Y-56239667D02*
G01*
X103646334Y-56282000D01*
X103604000Y-56239667D01*
X103646334Y-56197334D01*
X103688667Y-56239667D01*
X103688667Y-56239667D01*
G37*
X103688667Y-56239667D02*
X103646334Y-56282000D01*
X103604000Y-56239667D01*
X103646334Y-56197334D01*
X103688667Y-56239667D01*
G36*
X114261198Y-53920294D02*
G01*
X114203310Y-53982208D01*
X114145000Y-54015641D01*
X113967486Y-54139851D01*
X113799836Y-54297717D01*
X113682823Y-54445064D01*
X113657220Y-54537719D01*
X113659997Y-54541108D01*
X113634607Y-54581212D01*
X113566445Y-54588667D01*
X113444981Y-54629361D01*
X113425334Y-54671280D01*
X113360144Y-54794490D01*
X113196468Y-54963538D01*
X112982148Y-55139045D01*
X112765024Y-55281628D01*
X112599999Y-55350667D01*
X112423275Y-55426131D01*
X112346373Y-55520000D01*
X112346556Y-55591143D01*
X112381721Y-55562334D01*
X112518070Y-55477781D01*
X112621000Y-55448284D01*
X112703435Y-55449677D01*
X112656714Y-55514340D01*
X112536334Y-55610496D01*
X112308304Y-55793096D01*
X112052889Y-56012149D01*
X111986000Y-56072265D01*
X111788638Y-56234627D01*
X111605819Y-56357058D01*
X111471216Y-56421585D01*
X111418501Y-56410234D01*
X111436266Y-56365697D01*
X111423304Y-56288873D01*
X111387963Y-56282000D01*
X111339820Y-56242577D01*
X111404133Y-56138748D01*
X111476427Y-56038524D01*
X111432390Y-56042791D01*
X111393334Y-56062684D01*
X111374784Y-56057502D01*
X111468663Y-55969605D01*
X111562667Y-55892033D01*
X111813549Y-55679913D01*
X112086408Y-55433954D01*
X112170690Y-55354263D01*
X112370208Y-55176221D01*
X112532608Y-55055511D01*
X112588079Y-55028093D01*
X112792017Y-54929293D01*
X113074935Y-54725265D01*
X113406056Y-54439723D01*
X113625708Y-54228504D01*
X113899320Y-53980927D01*
X114090636Y-53870280D01*
X114176041Y-53869425D01*
X114261198Y-53920294D01*
X114261198Y-53920294D01*
G37*
X114261198Y-53920294D02*
X114203310Y-53982208D01*
X114145000Y-54015641D01*
X113967486Y-54139851D01*
X113799836Y-54297717D01*
X113682823Y-54445064D01*
X113657220Y-54537719D01*
X113659997Y-54541108D01*
X113634607Y-54581212D01*
X113566445Y-54588667D01*
X113444981Y-54629361D01*
X113425334Y-54671280D01*
X113360144Y-54794490D01*
X113196468Y-54963538D01*
X112982148Y-55139045D01*
X112765024Y-55281628D01*
X112599999Y-55350667D01*
X112423275Y-55426131D01*
X112346373Y-55520000D01*
X112346556Y-55591143D01*
X112381721Y-55562334D01*
X112518070Y-55477781D01*
X112621000Y-55448284D01*
X112703435Y-55449677D01*
X112656714Y-55514340D01*
X112536334Y-55610496D01*
X112308304Y-55793096D01*
X112052889Y-56012149D01*
X111986000Y-56072265D01*
X111788638Y-56234627D01*
X111605819Y-56357058D01*
X111471216Y-56421585D01*
X111418501Y-56410234D01*
X111436266Y-56365697D01*
X111423304Y-56288873D01*
X111387963Y-56282000D01*
X111339820Y-56242577D01*
X111404133Y-56138748D01*
X111476427Y-56038524D01*
X111432390Y-56042791D01*
X111393334Y-56062684D01*
X111374784Y-56057502D01*
X111468663Y-55969605D01*
X111562667Y-55892033D01*
X111813549Y-55679913D01*
X112086408Y-55433954D01*
X112170690Y-55354263D01*
X112370208Y-55176221D01*
X112532608Y-55055511D01*
X112588079Y-55028093D01*
X112792017Y-54929293D01*
X113074935Y-54725265D01*
X113406056Y-54439723D01*
X113625708Y-54228504D01*
X113899320Y-53980927D01*
X114090636Y-53870280D01*
X114176041Y-53869425D01*
X114261198Y-53920294D01*
G36*
X105269111Y-56394889D02*
G01*
X105257489Y-56445223D01*
X105212667Y-56451334D01*
X105142977Y-56420355D01*
X105156222Y-56394889D01*
X105256702Y-56384756D01*
X105269111Y-56394889D01*
X105269111Y-56394889D01*
G37*
X105269111Y-56394889D02*
X105257489Y-56445223D01*
X105212667Y-56451334D01*
X105142977Y-56420355D01*
X105156222Y-56394889D01*
X105256702Y-56384756D01*
X105269111Y-56394889D01*
G36*
X104935736Y-56400181D02*
G01*
X104910485Y-56438663D01*
X104824611Y-56444649D01*
X104734269Y-56423972D01*
X104773459Y-56393497D01*
X104905782Y-56383403D01*
X104935736Y-56400181D01*
X104935736Y-56400181D01*
G37*
X104935736Y-56400181D02*
X104910485Y-56438663D01*
X104824611Y-56444649D01*
X104734269Y-56423972D01*
X104773459Y-56393497D01*
X104905782Y-56383403D01*
X104935736Y-56400181D01*
G36*
X104620000Y-56409000D02*
G01*
X104577667Y-56451334D01*
X104535334Y-56409000D01*
X104577667Y-56366667D01*
X104620000Y-56409000D01*
X104620000Y-56409000D01*
G37*
X104620000Y-56409000D02*
X104577667Y-56451334D01*
X104535334Y-56409000D01*
X104577667Y-56366667D01*
X104620000Y-56409000D01*
G36*
X114633445Y-56565131D02*
G01*
X114636259Y-56592926D01*
X114503717Y-56604277D01*
X114483667Y-56604161D01*
X114352353Y-56591953D01*
X114364888Y-56566183D01*
X114379445Y-56561994D01*
X114563875Y-56549599D01*
X114633445Y-56565131D01*
X114633445Y-56565131D01*
G37*
X114633445Y-56565131D02*
X114636259Y-56592926D01*
X114503717Y-56604277D01*
X114483667Y-56604161D01*
X114352353Y-56591953D01*
X114364888Y-56566183D01*
X114379445Y-56561994D01*
X114563875Y-56549599D01*
X114633445Y-56565131D01*
G36*
X105629982Y-56079454D02*
G01*
X105803181Y-56195653D01*
X105805334Y-56197334D01*
X105984336Y-56314761D01*
X106117731Y-56364782D01*
X106117837Y-56364784D01*
X106251004Y-56429882D01*
X106279893Y-56465722D01*
X106284040Y-56529810D01*
X106205693Y-56512811D01*
X106070462Y-56516969D01*
X106029154Y-56561923D01*
X105991538Y-56614478D01*
X105981351Y-56557167D01*
X105901950Y-56480951D01*
X105716540Y-56439629D01*
X105699500Y-56438648D01*
X105519398Y-56428721D01*
X105502675Y-56416840D01*
X105643550Y-56393384D01*
X105669947Y-56389457D01*
X105915561Y-56352953D01*
X105669947Y-56191034D01*
X105530854Y-56086200D01*
X105498492Y-56032385D01*
X105509000Y-56030441D01*
X105629982Y-56079454D01*
X105629982Y-56079454D01*
G37*
X105629982Y-56079454D02*
X105803181Y-56195653D01*
X105805334Y-56197334D01*
X105984336Y-56314761D01*
X106117731Y-56364782D01*
X106117837Y-56364784D01*
X106251004Y-56429882D01*
X106279893Y-56465722D01*
X106284040Y-56529810D01*
X106205693Y-56512811D01*
X106070462Y-56516969D01*
X106029154Y-56561923D01*
X105991538Y-56614478D01*
X105981351Y-56557167D01*
X105901950Y-56480951D01*
X105716540Y-56439629D01*
X105699500Y-56438648D01*
X105519398Y-56428721D01*
X105502675Y-56416840D01*
X105643550Y-56393384D01*
X105669947Y-56389457D01*
X105915561Y-56352953D01*
X105669947Y-56191034D01*
X105530854Y-56086200D01*
X105498492Y-56032385D01*
X105509000Y-56030441D01*
X105629982Y-56079454D01*
G36*
X113989778Y-56648889D02*
G01*
X113978156Y-56699223D01*
X113933334Y-56705334D01*
X113863643Y-56674355D01*
X113876889Y-56648889D01*
X113977369Y-56638756D01*
X113989778Y-56648889D01*
X113989778Y-56648889D01*
G37*
X113989778Y-56648889D02*
X113978156Y-56699223D01*
X113933334Y-56705334D01*
X113863643Y-56674355D01*
X113876889Y-56648889D01*
X113977369Y-56638756D01*
X113989778Y-56648889D01*
G36*
X114949334Y-56747667D02*
G01*
X114907000Y-56790000D01*
X114864667Y-56747667D01*
X114907000Y-56705334D01*
X114949334Y-56747667D01*
X114949334Y-56747667D01*
G37*
X114949334Y-56747667D02*
X114907000Y-56790000D01*
X114864667Y-56747667D01*
X114907000Y-56705334D01*
X114949334Y-56747667D01*
G36*
X104620000Y-56614266D02*
G01*
X104552688Y-56704432D01*
X104493000Y-56735951D01*
X104383763Y-56742013D01*
X104366000Y-56711735D01*
X104433312Y-56621568D01*
X104493000Y-56590049D01*
X104602238Y-56583988D01*
X104620000Y-56614266D01*
X104620000Y-56614266D01*
G37*
X104620000Y-56614266D02*
X104552688Y-56704432D01*
X104493000Y-56735951D01*
X104383763Y-56742013D01*
X104366000Y-56711735D01*
X104433312Y-56621568D01*
X104493000Y-56590049D01*
X104602238Y-56583988D01*
X104620000Y-56614266D01*
G36*
X114780000Y-56832334D02*
G01*
X114737667Y-56874667D01*
X114695334Y-56832334D01*
X114737667Y-56790000D01*
X114780000Y-56832334D01*
X114780000Y-56832334D01*
G37*
X114780000Y-56832334D02*
X114737667Y-56874667D01*
X114695334Y-56832334D01*
X114737667Y-56790000D01*
X114780000Y-56832334D01*
G36*
X116063602Y-54857590D02*
G01*
X115874830Y-54961138D01*
X115604983Y-55094884D01*
X115520834Y-55134615D01*
X114907000Y-55421416D01*
X115288000Y-55435059D01*
X115484975Y-55451638D01*
X115562366Y-55478683D01*
X115542000Y-55495399D01*
X115378254Y-55584394D01*
X115247126Y-55679215D01*
X115132879Y-55768762D01*
X115134744Y-55746637D01*
X115193993Y-55668167D01*
X115252971Y-55570194D01*
X115202510Y-55528685D01*
X115013024Y-55520001D01*
X115008530Y-55520000D01*
X114786641Y-55558686D01*
X114563697Y-55656350D01*
X114377460Y-55785404D01*
X114265694Y-55918260D01*
X114266161Y-56027330D01*
X114287244Y-56046956D01*
X114349578Y-56102586D01*
X114272000Y-56089234D01*
X114135859Y-56118936D01*
X113940781Y-56236257D01*
X113854202Y-56305592D01*
X113559614Y-56522411D01*
X113229524Y-56706003D01*
X112919930Y-56829068D01*
X112705667Y-56865530D01*
X112611554Y-56853516D01*
X112671362Y-56819983D01*
X112748000Y-56795324D01*
X113081224Y-56665778D01*
X113433663Y-56485425D01*
X113750038Y-56286441D01*
X113975074Y-56101004D01*
X114010833Y-56060214D01*
X114122384Y-55900057D01*
X114160771Y-55806317D01*
X114158420Y-55801531D01*
X114075329Y-55825089D01*
X113868649Y-55911244D01*
X113566574Y-56047521D01*
X113197298Y-56221444D01*
X113062047Y-56286645D01*
X112649849Y-56479489D01*
X112268268Y-56645300D01*
X111954546Y-56768766D01*
X111745923Y-56834574D01*
X111716314Y-56839998D01*
X111435667Y-56876951D01*
X111689667Y-56758702D01*
X111841819Y-56689189D01*
X112121319Y-56562760D01*
X112500956Y-56391672D01*
X112953517Y-56188185D01*
X113451792Y-55964558D01*
X113594667Y-55900508D01*
X114002796Y-55717556D01*
X114215556Y-55717556D01*
X114227178Y-55767890D01*
X114272000Y-55774000D01*
X114341690Y-55743022D01*
X114328445Y-55717556D01*
X114227965Y-55707423D01*
X114215556Y-55717556D01*
X114002796Y-55717556D01*
X114116433Y-55666616D01*
X114614769Y-55443140D01*
X115058517Y-55244060D01*
X115416521Y-55083354D01*
X115657622Y-54975001D01*
X115690167Y-54960350D01*
X115928030Y-54860061D01*
X116089332Y-54805163D01*
X116134667Y-54803974D01*
X116063602Y-54857590D01*
X116063602Y-54857590D01*
G37*
X116063602Y-54857590D02*
X115874830Y-54961138D01*
X115604983Y-55094884D01*
X115520834Y-55134615D01*
X114907000Y-55421416D01*
X115288000Y-55435059D01*
X115484975Y-55451638D01*
X115562366Y-55478683D01*
X115542000Y-55495399D01*
X115378254Y-55584394D01*
X115247126Y-55679215D01*
X115132879Y-55768762D01*
X115134744Y-55746637D01*
X115193993Y-55668167D01*
X115252971Y-55570194D01*
X115202510Y-55528685D01*
X115013024Y-55520001D01*
X115008530Y-55520000D01*
X114786641Y-55558686D01*
X114563697Y-55656350D01*
X114377460Y-55785404D01*
X114265694Y-55918260D01*
X114266161Y-56027330D01*
X114287244Y-56046956D01*
X114349578Y-56102586D01*
X114272000Y-56089234D01*
X114135859Y-56118936D01*
X113940781Y-56236257D01*
X113854202Y-56305592D01*
X113559614Y-56522411D01*
X113229524Y-56706003D01*
X112919930Y-56829068D01*
X112705667Y-56865530D01*
X112611554Y-56853516D01*
X112671362Y-56819983D01*
X112748000Y-56795324D01*
X113081224Y-56665778D01*
X113433663Y-56485425D01*
X113750038Y-56286441D01*
X113975074Y-56101004D01*
X114010833Y-56060214D01*
X114122384Y-55900057D01*
X114160771Y-55806317D01*
X114158420Y-55801531D01*
X114075329Y-55825089D01*
X113868649Y-55911244D01*
X113566574Y-56047521D01*
X113197298Y-56221444D01*
X113062047Y-56286645D01*
X112649849Y-56479489D01*
X112268268Y-56645300D01*
X111954546Y-56768766D01*
X111745923Y-56834574D01*
X111716314Y-56839998D01*
X111435667Y-56876951D01*
X111689667Y-56758702D01*
X111841819Y-56689189D01*
X112121319Y-56562760D01*
X112500956Y-56391672D01*
X112953517Y-56188185D01*
X113451792Y-55964558D01*
X113594667Y-55900508D01*
X114002796Y-55717556D01*
X114215556Y-55717556D01*
X114227178Y-55767890D01*
X114272000Y-55774000D01*
X114341690Y-55743022D01*
X114328445Y-55717556D01*
X114227965Y-55707423D01*
X114215556Y-55717556D01*
X114002796Y-55717556D01*
X114116433Y-55666616D01*
X114614769Y-55443140D01*
X115058517Y-55244060D01*
X115416521Y-55083354D01*
X115657622Y-54975001D01*
X115690167Y-54960350D01*
X115928030Y-54860061D01*
X116089332Y-54805163D01*
X116134667Y-54803974D01*
X116063602Y-54857590D01*
G36*
X112465778Y-56902889D02*
G01*
X112454156Y-56953223D01*
X112409334Y-56959334D01*
X112339643Y-56928355D01*
X112352889Y-56902889D01*
X112453369Y-56892756D01*
X112465778Y-56902889D01*
X112465778Y-56902889D01*
G37*
X112465778Y-56902889D02*
X112454156Y-56953223D01*
X112409334Y-56959334D01*
X112339643Y-56928355D01*
X112352889Y-56902889D01*
X112453369Y-56892756D01*
X112465778Y-56902889D01*
G36*
X106002560Y-56825235D02*
G01*
X106001694Y-56923139D01*
X105872871Y-56953105D01*
X105823843Y-56952649D01*
X105694603Y-56934869D01*
X105716527Y-56899239D01*
X105720667Y-56897621D01*
X105865321Y-56808394D01*
X105899384Y-56770206D01*
X105965787Y-56764709D01*
X106002560Y-56825235D01*
X106002560Y-56825235D01*
G37*
X106002560Y-56825235D02*
X106001694Y-56923139D01*
X105872871Y-56953105D01*
X105823843Y-56952649D01*
X105694603Y-56934869D01*
X105716527Y-56899239D01*
X105720667Y-56897621D01*
X105865321Y-56808394D01*
X105899384Y-56770206D01*
X105965787Y-56764709D01*
X106002560Y-56825235D01*
G36*
X105551334Y-56917000D02*
G01*
X105509000Y-56959334D01*
X105466667Y-56917000D01*
X105509000Y-56874667D01*
X105551334Y-56917000D01*
X105551334Y-56917000D01*
G37*
X105551334Y-56917000D02*
X105509000Y-56959334D01*
X105466667Y-56917000D01*
X105509000Y-56874667D01*
X105551334Y-56917000D01*
G36*
X114780000Y-57001667D02*
G01*
X114737667Y-57044000D01*
X114695334Y-57001667D01*
X114737667Y-56959334D01*
X114780000Y-57001667D01*
X114780000Y-57001667D01*
G37*
X114780000Y-57001667D02*
X114737667Y-57044000D01*
X114695334Y-57001667D01*
X114737667Y-56959334D01*
X114780000Y-57001667D01*
G36*
X112211778Y-56987556D02*
G01*
X112200156Y-57037890D01*
X112155334Y-57044000D01*
X112085643Y-57013022D01*
X112098889Y-56987556D01*
X112199369Y-56977423D01*
X112211778Y-56987556D01*
X112211778Y-56987556D01*
G37*
X112211778Y-56987556D02*
X112200156Y-57037890D01*
X112155334Y-57044000D01*
X112085643Y-57013022D01*
X112098889Y-56987556D01*
X112199369Y-56977423D01*
X112211778Y-56987556D01*
G36*
X106539111Y-56987556D02*
G01*
X106527489Y-57037890D01*
X106482667Y-57044000D01*
X106412977Y-57013022D01*
X106426222Y-56987556D01*
X106526702Y-56977423D01*
X106539111Y-56987556D01*
X106539111Y-56987556D01*
G37*
X106539111Y-56987556D02*
X106527489Y-57037890D01*
X106482667Y-57044000D01*
X106412977Y-57013022D01*
X106426222Y-56987556D01*
X106526702Y-56977423D01*
X106539111Y-56987556D01*
G36*
X106313334Y-57001667D02*
G01*
X106271000Y-57044000D01*
X106228667Y-57001667D01*
X106271000Y-56959334D01*
X106313334Y-57001667D01*
X106313334Y-57001667D01*
G37*
X106313334Y-57001667D02*
X106271000Y-57044000D01*
X106228667Y-57001667D01*
X106271000Y-56959334D01*
X106313334Y-57001667D01*
G36*
X111816667Y-57086334D02*
G01*
X111774334Y-57128667D01*
X111732000Y-57086334D01*
X111774334Y-57044000D01*
X111816667Y-57086334D01*
X111816667Y-57086334D01*
G37*
X111816667Y-57086334D02*
X111774334Y-57128667D01*
X111732000Y-57086334D01*
X111774334Y-57044000D01*
X111816667Y-57086334D01*
G36*
X107137070Y-57077514D02*
G01*
X107111819Y-57115996D01*
X107025945Y-57121983D01*
X106935602Y-57101305D01*
X106974792Y-57070830D01*
X107107116Y-57060736D01*
X107137070Y-57077514D01*
X107137070Y-57077514D01*
G37*
X107137070Y-57077514D02*
X107111819Y-57115996D01*
X107025945Y-57121983D01*
X106935602Y-57101305D01*
X106974792Y-57070830D01*
X107107116Y-57060736D01*
X107137070Y-57077514D01*
G36*
X114780000Y-57171000D02*
G01*
X114737667Y-57213334D01*
X114695334Y-57171000D01*
X114737667Y-57128667D01*
X114780000Y-57171000D01*
X114780000Y-57171000D01*
G37*
X114780000Y-57171000D02*
X114737667Y-57213334D01*
X114695334Y-57171000D01*
X114737667Y-57128667D01*
X114780000Y-57171000D01*
G36*
X113995070Y-57246847D02*
G01*
X113969819Y-57285329D01*
X113883945Y-57291316D01*
X113793602Y-57270639D01*
X113832792Y-57240163D01*
X113965116Y-57230070D01*
X113995070Y-57246847D01*
X113995070Y-57246847D01*
G37*
X113995070Y-57246847D02*
X113969819Y-57285329D01*
X113883945Y-57291316D01*
X113793602Y-57270639D01*
X113832792Y-57240163D01*
X113965116Y-57230070D01*
X113995070Y-57246847D01*
G36*
X112938500Y-57326594D02*
G01*
X112949136Y-57357496D01*
X112832667Y-57369298D01*
X112712471Y-57355993D01*
X112726834Y-57326594D01*
X112900176Y-57315411D01*
X112938500Y-57326594D01*
X112938500Y-57326594D01*
G37*
X112938500Y-57326594D02*
X112949136Y-57357496D01*
X112832667Y-57369298D01*
X112712471Y-57355993D01*
X112726834Y-57326594D01*
X112900176Y-57315411D01*
X112938500Y-57326594D01*
G36*
X105551334Y-57509667D02*
G01*
X105509000Y-57552000D01*
X105466667Y-57509667D01*
X105509000Y-57467334D01*
X105551334Y-57509667D01*
X105551334Y-57509667D01*
G37*
X105551334Y-57509667D02*
X105509000Y-57552000D01*
X105466667Y-57509667D01*
X105509000Y-57467334D01*
X105551334Y-57509667D01*
G36*
X113848667Y-57679000D02*
G01*
X113806334Y-57721334D01*
X113764000Y-57679000D01*
X113806334Y-57636667D01*
X113848667Y-57679000D01*
X113848667Y-57679000D01*
G37*
X113848667Y-57679000D02*
X113806334Y-57721334D01*
X113764000Y-57679000D01*
X113806334Y-57636667D01*
X113848667Y-57679000D01*
G36*
X114328445Y-57749556D02*
G01*
X114316822Y-57799890D01*
X114272000Y-57806000D01*
X114202310Y-57775022D01*
X114215556Y-57749556D01*
X114316035Y-57739423D01*
X114328445Y-57749556D01*
X114328445Y-57749556D01*
G37*
X114328445Y-57749556D02*
X114316822Y-57799890D01*
X114272000Y-57806000D01*
X114202310Y-57775022D01*
X114215556Y-57749556D01*
X114316035Y-57739423D01*
X114328445Y-57749556D01*
G36*
X105355170Y-57620792D02*
G01*
X105365264Y-57753116D01*
X105348486Y-57783070D01*
X105310004Y-57757819D01*
X105304018Y-57671945D01*
X105324695Y-57581602D01*
X105355170Y-57620792D01*
X105355170Y-57620792D01*
G37*
X105355170Y-57620792D02*
X105365264Y-57753116D01*
X105348486Y-57783070D01*
X105310004Y-57757819D01*
X105304018Y-57671945D01*
X105324695Y-57581602D01*
X105355170Y-57620792D01*
G36*
X113933334Y-57933000D02*
G01*
X113891000Y-57975334D01*
X113848667Y-57933000D01*
X113891000Y-57890667D01*
X113933334Y-57933000D01*
X113933334Y-57933000D01*
G37*
X113933334Y-57933000D02*
X113891000Y-57975334D01*
X113848667Y-57933000D01*
X113891000Y-57890667D01*
X113933334Y-57933000D01*
G36*
X107414000Y-57933000D02*
G01*
X107371667Y-57975334D01*
X107329334Y-57933000D01*
X107371667Y-57890667D01*
X107414000Y-57933000D01*
X107414000Y-57933000D01*
G37*
X107414000Y-57933000D02*
X107371667Y-57975334D01*
X107329334Y-57933000D01*
X107371667Y-57890667D01*
X107414000Y-57933000D01*
G36*
X107259786Y-57566233D02*
G01*
X107488789Y-57576383D01*
X107555807Y-57588707D01*
X107468191Y-57605632D01*
X107401954Y-57613133D01*
X107199450Y-57649916D01*
X107127804Y-57719841D01*
X107136662Y-57810567D01*
X107149955Y-57943592D01*
X107127542Y-57975334D01*
X107076187Y-57910865D01*
X107075334Y-57896714D01*
X107021301Y-57779533D01*
X106942286Y-57685048D01*
X106881487Y-57609060D01*
X106915073Y-57571535D01*
X107070923Y-57562040D01*
X107259786Y-57566233D01*
X107259786Y-57566233D01*
G37*
X107259786Y-57566233D02*
X107488789Y-57576383D01*
X107555807Y-57588707D01*
X107468191Y-57605632D01*
X107401954Y-57613133D01*
X107199450Y-57649916D01*
X107127804Y-57719841D01*
X107136662Y-57810567D01*
X107149955Y-57943592D01*
X107127542Y-57975334D01*
X107076187Y-57910865D01*
X107075334Y-57896714D01*
X107021301Y-57779533D01*
X106942286Y-57685048D01*
X106881487Y-57609060D01*
X106915073Y-57571535D01*
X107070923Y-57562040D01*
X107259786Y-57566233D01*
G36*
X114187334Y-58017667D02*
G01*
X114145000Y-58060000D01*
X114102667Y-58017667D01*
X114145000Y-57975334D01*
X114187334Y-58017667D01*
X114187334Y-58017667D01*
G37*
X114187334Y-58017667D02*
X114145000Y-58060000D01*
X114102667Y-58017667D01*
X114145000Y-57975334D01*
X114187334Y-58017667D01*
G36*
X113058445Y-58257556D02*
G01*
X113046822Y-58307890D01*
X113002000Y-58314000D01*
X112932310Y-58283022D01*
X112945556Y-58257556D01*
X113046035Y-58247423D01*
X113058445Y-58257556D01*
X113058445Y-58257556D01*
G37*
X113058445Y-58257556D02*
X113046822Y-58307890D01*
X113002000Y-58314000D01*
X112932310Y-58283022D01*
X112945556Y-58257556D01*
X113046035Y-58247423D01*
X113058445Y-58257556D01*
G36*
X105720667Y-61997000D02*
G01*
X105678334Y-62039334D01*
X105636000Y-61997000D01*
X105678334Y-61954667D01*
X105720667Y-61997000D01*
X105720667Y-61997000D01*
G37*
X105720667Y-61997000D02*
X105678334Y-62039334D01*
X105636000Y-61997000D01*
X105678334Y-61954667D01*
X105720667Y-61997000D01*
G36*
X112806818Y-62422992D02*
G01*
X112758506Y-62485245D01*
X112687318Y-62538749D01*
X112705083Y-62453911D01*
X112711110Y-62437849D01*
X112778183Y-62334171D01*
X112816315Y-62333426D01*
X112806818Y-62422992D01*
X112806818Y-62422992D01*
G37*
X112806818Y-62422992D02*
X112758506Y-62485245D01*
X112687318Y-62538749D01*
X112705083Y-62453911D01*
X112711110Y-62437849D01*
X112778183Y-62334171D01*
X112816315Y-62333426D01*
X112806818Y-62422992D01*
G36*
X110123334Y-63605667D02*
G01*
X110081000Y-63648000D01*
X110038667Y-63605667D01*
X110081000Y-63563334D01*
X110123334Y-63605667D01*
X110123334Y-63605667D01*
G37*
X110123334Y-63605667D02*
X110081000Y-63648000D01*
X110038667Y-63605667D01*
X110081000Y-63563334D01*
X110123334Y-63605667D01*
G36*
X109954000Y-63775000D02*
G01*
X109911667Y-63817334D01*
X109869334Y-63775000D01*
X109911667Y-63732667D01*
X109954000Y-63775000D01*
X109954000Y-63775000D01*
G37*
X109954000Y-63775000D02*
X109911667Y-63817334D01*
X109869334Y-63775000D01*
X109911667Y-63732667D01*
X109954000Y-63775000D01*
G36*
X111224000Y-63859667D02*
G01*
X111181667Y-63902000D01*
X111139334Y-63859667D01*
X111181667Y-63817334D01*
X111224000Y-63859667D01*
X111224000Y-63859667D01*
G37*
X111224000Y-63859667D02*
X111181667Y-63902000D01*
X111139334Y-63859667D01*
X111181667Y-63817334D01*
X111224000Y-63859667D01*
G36*
X110590251Y-63881517D02*
G01*
X110786965Y-63940341D01*
X110826691Y-64000794D01*
X110706009Y-64046021D01*
X110625476Y-64055115D01*
X110429492Y-64035102D01*
X110377334Y-63957419D01*
X110442119Y-63875870D01*
X110590251Y-63881517D01*
X110590251Y-63881517D01*
G37*
X110590251Y-63881517D02*
X110786965Y-63940341D01*
X110826691Y-64000794D01*
X110706009Y-64046021D01*
X110625476Y-64055115D01*
X110429492Y-64035102D01*
X110377334Y-63957419D01*
X110442119Y-63875870D01*
X110590251Y-63881517D01*
G36*
X110462000Y-64621667D02*
G01*
X110419667Y-64664000D01*
X110377334Y-64621667D01*
X110419667Y-64579334D01*
X110462000Y-64621667D01*
X110462000Y-64621667D01*
G37*
X110462000Y-64621667D02*
X110419667Y-64664000D01*
X110377334Y-64621667D01*
X110419667Y-64579334D01*
X110462000Y-64621667D01*
G36*
X110114095Y-64563284D02*
G01*
X110123334Y-64621667D01*
X110105219Y-64734630D01*
X110090059Y-64748667D01*
X110035465Y-64682461D01*
X110008049Y-64621667D01*
X110006289Y-64512645D01*
X110041324Y-64494667D01*
X110114095Y-64563284D01*
X110114095Y-64563284D01*
G37*
X110114095Y-64563284D02*
X110123334Y-64621667D01*
X110105219Y-64734630D01*
X110090059Y-64748667D01*
X110035465Y-64682461D01*
X110008049Y-64621667D01*
X110006289Y-64512645D01*
X110041324Y-64494667D01*
X110114095Y-64563284D01*
G36*
X102454829Y-53937692D02*
G01*
X102740466Y-53995033D01*
X103068539Y-54106500D01*
X103459623Y-54281003D01*
X103934291Y-54527453D01*
X104513116Y-54854760D01*
X105001000Y-55142555D01*
X105569995Y-55477597D01*
X106123536Y-55794923D01*
X106635976Y-56080482D01*
X107081669Y-56320218D01*
X107434969Y-56500080D01*
X107670230Y-56606014D01*
X107675056Y-56607850D01*
X107836018Y-56649841D01*
X107891546Y-56599119D01*
X107893778Y-56567229D01*
X107835603Y-56481855D01*
X107780889Y-56487366D01*
X107676393Y-56509350D01*
X107696207Y-56462072D01*
X107825746Y-56373135D01*
X107847551Y-56361199D01*
X107963277Y-56317577D01*
X107975503Y-56348594D01*
X108001646Y-56431806D01*
X108097125Y-56477380D01*
X108213843Y-56493549D01*
X108191608Y-56428706D01*
X108170472Y-56402339D01*
X108125024Y-56310945D01*
X108218714Y-56275858D01*
X108271467Y-56272179D01*
X108389343Y-56257098D01*
X108342780Y-56228717D01*
X108324167Y-56223637D01*
X108198609Y-56153895D01*
X108176000Y-56106459D01*
X108190542Y-56055391D01*
X108260808Y-56024717D01*
X108426760Y-56005004D01*
X108669337Y-55990016D01*
X108885601Y-55945431D01*
X109024228Y-55858490D01*
X109027874Y-55853141D01*
X109092236Y-55789904D01*
X109106037Y-55816334D01*
X109184521Y-55860528D01*
X109391311Y-55887745D01*
X109636500Y-55893147D01*
X109927737Y-55898554D01*
X110152604Y-55920515D01*
X110250334Y-55948602D01*
X110400794Y-56015691D01*
X110504334Y-56041122D01*
X110696011Y-56116519D01*
X110893607Y-56292144D01*
X111127149Y-56594999D01*
X111138531Y-56611394D01*
X111259794Y-56796816D01*
X111287921Y-56900847D01*
X111227904Y-56980098D01*
X111174735Y-57021799D01*
X111080709Y-57101475D01*
X111112655Y-57119501D01*
X111287500Y-57087845D01*
X111496232Y-57066026D01*
X111554498Y-57114979D01*
X111458688Y-57229673D01*
X111414500Y-57264807D01*
X111312662Y-57351237D01*
X111348228Y-57377425D01*
X111414500Y-57379974D01*
X111540259Y-57419933D01*
X111562667Y-57462337D01*
X111509025Y-57575717D01*
X111365605Y-57565934D01*
X111191618Y-57460035D01*
X111043667Y-57357674D01*
X110971411Y-57335196D01*
X110970000Y-57340236D01*
X111031928Y-57453174D01*
X111165885Y-57575216D01*
X111294131Y-57636452D01*
X111299640Y-57636667D01*
X111399434Y-57703285D01*
X111504355Y-57851464D01*
X111561489Y-58003689D01*
X111562667Y-58021976D01*
X111494017Y-58048634D01*
X111375291Y-58030750D01*
X111278605Y-58016765D01*
X111298365Y-58066809D01*
X111443230Y-58199621D01*
X111459957Y-58213934D01*
X111629754Y-58383703D01*
X111724727Y-58526895D01*
X111732000Y-58559002D01*
X111799232Y-58637026D01*
X111981529Y-58635263D01*
X112142041Y-58629600D01*
X112189211Y-58666018D01*
X112187584Y-58668981D01*
X112228641Y-58731306D01*
X112387178Y-58787774D01*
X112403722Y-58791245D01*
X112583956Y-58846327D01*
X112663166Y-58908221D01*
X112663334Y-58910684D01*
X112735213Y-58978951D01*
X112912059Y-59059675D01*
X112950739Y-59073054D01*
X113183938Y-59200640D01*
X113286047Y-59351089D01*
X113342906Y-59472253D01*
X113388742Y-59479481D01*
X113479427Y-59494408D01*
X113632860Y-59601403D01*
X113666401Y-59631345D01*
X113850248Y-59772399D01*
X114004051Y-59843130D01*
X114017135Y-59844684D01*
X114087150Y-59865341D01*
X114039923Y-59893821D01*
X113977329Y-59954396D01*
X114039923Y-60051181D01*
X114211519Y-60249199D01*
X114386181Y-60466671D01*
X114532607Y-60662408D01*
X114619499Y-60795224D01*
X114629987Y-60827641D01*
X114660097Y-60907651D01*
X114761248Y-61089078D01*
X114905154Y-61322492D01*
X115057533Y-61566077D01*
X115165009Y-61748157D01*
X115203334Y-61826671D01*
X115246207Y-61910210D01*
X115360550Y-62100139D01*
X115524942Y-62361266D01*
X115594737Y-62469767D01*
X115790451Y-62787733D01*
X115890602Y-62993764D01*
X115904158Y-63109146D01*
X115877861Y-63141734D01*
X115763937Y-63125967D01*
X115628231Y-62947032D01*
X115613458Y-62920327D01*
X115460262Y-62637293D01*
X115303819Y-62348097D01*
X115297620Y-62336634D01*
X115133946Y-62077076D01*
X114929244Y-61805379D01*
X114881758Y-61749531D01*
X114711189Y-61530564D01*
X114590394Y-61331060D01*
X114568560Y-61278047D01*
X114448524Y-61109202D01*
X114310227Y-61021772D01*
X114139484Y-60904319D01*
X113954661Y-60702528D01*
X113899343Y-60624456D01*
X113553742Y-60160838D01*
X113200959Y-59807346D01*
X112959667Y-59638768D01*
X112702731Y-59478920D01*
X112472603Y-59312736D01*
X112271573Y-59192931D01*
X112153890Y-59212910D01*
X112152344Y-59325597D01*
X112286334Y-59529125D01*
X112412085Y-59674113D01*
X112638965Y-59947881D01*
X112844184Y-60238472D01*
X112932672Y-60388334D01*
X113050329Y-60601971D01*
X113140128Y-60744264D01*
X113161540Y-60769334D01*
X113226821Y-60880877D01*
X113245044Y-60938667D01*
X113284659Y-61091365D01*
X113350207Y-61337220D01*
X113389334Y-61482190D01*
X113446752Y-61732326D01*
X113469158Y-61912903D01*
X113462410Y-61963173D01*
X113484016Y-62057444D01*
X113521701Y-62088898D01*
X113580322Y-62100988D01*
X113552333Y-62039333D01*
X113529898Y-61968563D01*
X113585696Y-61991456D01*
X113643464Y-62078807D01*
X113590946Y-62170817D01*
X113547716Y-62283509D01*
X113557839Y-62478566D01*
X113623891Y-62791046D01*
X113641742Y-62861780D01*
X113717991Y-63171139D01*
X113775851Y-63428527D01*
X113802678Y-63577437D01*
X113866673Y-63760405D01*
X113927471Y-63852603D01*
X113993328Y-63958729D01*
X113933334Y-63986667D01*
X113872041Y-64017855D01*
X113922232Y-64100290D01*
X113982179Y-64217529D01*
X113973861Y-64256584D01*
X113970206Y-64358185D01*
X114016343Y-64554904D01*
X114092644Y-64789884D01*
X114179484Y-65006272D01*
X114257237Y-65147214D01*
X114289858Y-65172000D01*
X114328391Y-65224633D01*
X114314334Y-65256667D01*
X114198212Y-65347980D01*
X114080880Y-65292268D01*
X113991152Y-65109156D01*
X113972463Y-65023834D01*
X113884429Y-64621324D01*
X113754185Y-64165505D01*
X113608643Y-63746446D01*
X113544887Y-63592871D01*
X113461293Y-63356257D01*
X113425360Y-63155262D01*
X113425334Y-63151506D01*
X113395351Y-62972153D01*
X113319144Y-62713131D01*
X113267889Y-62571635D01*
X113184249Y-62319301D01*
X113144831Y-62123334D01*
X113147945Y-62060500D01*
X113154869Y-61963450D01*
X113067432Y-61997124D01*
X112961534Y-62091895D01*
X112864860Y-62176604D01*
X112852247Y-62126625D01*
X112875339Y-62025793D01*
X112886143Y-61790720D01*
X112841977Y-61460233D01*
X112753864Y-61094861D01*
X112652459Y-60801628D01*
X112574886Y-60598197D01*
X112532391Y-60462571D01*
X112485206Y-60329640D01*
X112393222Y-60117844D01*
X112364793Y-60056974D01*
X112256693Y-59859325D01*
X112146729Y-59781592D01*
X111971688Y-59785861D01*
X111924666Y-59793003D01*
X111718223Y-59807752D01*
X111619115Y-59751106D01*
X111588931Y-59675291D01*
X111521624Y-59550152D01*
X111495499Y-59527556D01*
X111675556Y-59527556D01*
X111687178Y-59577890D01*
X111732000Y-59584000D01*
X111801690Y-59553022D01*
X111788445Y-59527556D01*
X111687965Y-59517423D01*
X111675556Y-59527556D01*
X111495499Y-59527556D01*
X111423695Y-59465454D01*
X111344953Y-59451224D01*
X111330849Y-59519699D01*
X111285226Y-59613719D01*
X111247912Y-59622485D01*
X111108876Y-59676622D01*
X110979901Y-59767545D01*
X110845934Y-59862107D01*
X110782719Y-59876496D01*
X110690023Y-59878296D01*
X110486021Y-59917308D01*
X110309896Y-59960455D01*
X110038049Y-60021277D01*
X109899051Y-60021571D01*
X109866759Y-59978503D01*
X109831947Y-59958898D01*
X109775258Y-60033195D01*
X109679886Y-60134603D01*
X109566166Y-60086328D01*
X109469972Y-60034233D01*
X109446000Y-60120988D01*
X109513493Y-60264295D01*
X109615334Y-60346000D01*
X109745878Y-60395549D01*
X109784667Y-60380945D01*
X109836242Y-60377166D01*
X109898290Y-60419565D01*
X110021748Y-60473275D01*
X110067624Y-60458154D01*
X110117880Y-60469337D01*
X110123334Y-60510281D01*
X110183864Y-60579869D01*
X110247622Y-60570423D01*
X110385769Y-60574397D01*
X110425519Y-60609470D01*
X110539610Y-60664031D01*
X110587247Y-60654722D01*
X110736233Y-60669214D01*
X110802771Y-60712450D01*
X110873392Y-60765097D01*
X110839515Y-60685287D01*
X110839169Y-60684667D01*
X110803623Y-60602803D01*
X110869492Y-60640270D01*
X110906002Y-60669376D01*
X111065826Y-60737030D01*
X111218588Y-60687563D01*
X111351718Y-60637582D01*
X111393334Y-60654113D01*
X111445860Y-60644847D01*
X111574637Y-60543469D01*
X111597923Y-60521982D01*
X111752365Y-60304582D01*
X111764371Y-60119444D01*
X111754145Y-59967782D01*
X111794850Y-59952771D01*
X111870457Y-60055530D01*
X111964940Y-60257175D01*
X112028204Y-60430277D01*
X112092197Y-60703353D01*
X112137115Y-61051207D01*
X112161326Y-61426003D01*
X112163198Y-61779903D01*
X112141100Y-62065070D01*
X112093398Y-62233666D01*
X112089901Y-62238740D01*
X112038559Y-62395811D01*
X112033258Y-62530876D01*
X112016518Y-62670652D01*
X111919881Y-62676861D01*
X111913747Y-62674568D01*
X111828459Y-62657798D01*
X111838183Y-62681739D01*
X111845363Y-62793170D01*
X111763322Y-62962654D01*
X111628936Y-63135225D01*
X111479083Y-63255921D01*
X111442143Y-63272020D01*
X111053178Y-63372856D01*
X110821834Y-63409909D01*
X110719057Y-63480648D01*
X110710049Y-63513945D01*
X110679491Y-63523562D01*
X110631334Y-63436334D01*
X110573990Y-63346664D01*
X110552618Y-63377830D01*
X110495000Y-63443837D01*
X110448984Y-63428289D01*
X110286716Y-63370954D01*
X110088024Y-63351259D01*
X109912534Y-63367432D01*
X109819875Y-63417698D01*
X109819385Y-63447018D01*
X109803754Y-63519056D01*
X109738022Y-63507630D01*
X109631945Y-63513702D01*
X109615334Y-63554275D01*
X109677943Y-63643614D01*
X109704997Y-63648000D01*
X109755563Y-63699870D01*
X109742334Y-63732667D01*
X109757658Y-63816003D01*
X109800837Y-63830229D01*
X109968239Y-63856783D01*
X109996334Y-63862797D01*
X110158645Y-63889278D01*
X110186834Y-63892234D01*
X110285422Y-63961063D01*
X110292667Y-63995725D01*
X110230828Y-64051667D01*
X110162462Y-64039486D01*
X110024499Y-64059643D01*
X109982203Y-64119960D01*
X109881995Y-64210285D01*
X109816075Y-64205857D01*
X109713900Y-64209863D01*
X109700000Y-64243324D01*
X109637312Y-64306331D01*
X109603103Y-64304167D01*
X109532065Y-64363937D01*
X109487280Y-64545122D01*
X109484141Y-64579334D01*
X109479229Y-64722551D01*
X109493754Y-64720525D01*
X109495680Y-64712515D01*
X109627239Y-64712515D01*
X109669136Y-64847494D01*
X109730212Y-64917945D01*
X109731750Y-64918000D01*
X109743341Y-64849465D01*
X109723654Y-64745309D01*
X109671723Y-64625325D01*
X109636454Y-64614657D01*
X109627239Y-64712515D01*
X109495680Y-64712515D01*
X109502260Y-64685167D01*
X109565519Y-64536551D01*
X109627270Y-64494667D01*
X109755063Y-64546647D01*
X109863966Y-64659890D01*
X109898239Y-64770350D01*
X109886468Y-64792495D01*
X109914495Y-64823770D01*
X110062901Y-64813461D01*
X110079390Y-64810577D01*
X110244026Y-64785989D01*
X110260727Y-64810822D01*
X110169041Y-64883669D01*
X109957216Y-64974237D01*
X109703839Y-64995542D01*
X109454500Y-64957746D01*
X109254790Y-64871008D01*
X109150300Y-64745489D01*
X109151895Y-64656981D01*
X109144367Y-64502686D01*
X109097696Y-64446377D01*
X109036191Y-64432918D01*
X109056915Y-64481585D01*
X109077030Y-64631168D01*
X109060596Y-64671126D01*
X108975192Y-64665946D01*
X108805617Y-64543794D01*
X108664921Y-64410000D01*
X109276667Y-64410000D01*
X109307645Y-64479690D01*
X109333111Y-64466445D01*
X109343244Y-64365965D01*
X109333111Y-64353556D01*
X109282777Y-64365178D01*
X109276667Y-64410000D01*
X108664921Y-64410000D01*
X108611099Y-64358819D01*
X108448444Y-64198334D01*
X109361334Y-64198334D01*
X109403667Y-64240667D01*
X109446000Y-64198334D01*
X109403667Y-64156000D01*
X109361334Y-64198334D01*
X108448444Y-64198334D01*
X108407365Y-64157804D01*
X108252077Y-64020567D01*
X108179306Y-63976958D01*
X108123256Y-63930230D01*
X108091334Y-63859667D01*
X108015238Y-63754264D01*
X107969119Y-63747568D01*
X107892867Y-63693995D01*
X107833248Y-63605667D01*
X108768667Y-63605667D01*
X108811000Y-63648000D01*
X108853334Y-63605667D01*
X108938000Y-63605667D01*
X108980334Y-63648000D01*
X109000584Y-63627750D01*
X109285123Y-63627750D01*
X109324959Y-63727087D01*
X109382500Y-63756519D01*
X109535048Y-63763898D01*
X109576489Y-63659525D01*
X109562296Y-63608301D01*
X109458708Y-63527843D01*
X109396660Y-63535405D01*
X109285123Y-63627750D01*
X109000584Y-63627750D01*
X109022667Y-63605667D01*
X108980334Y-63563334D01*
X108938000Y-63605667D01*
X108853334Y-63605667D01*
X108811000Y-63563334D01*
X108768667Y-63605667D01*
X107833248Y-63605667D01*
X107777977Y-63523781D01*
X107644943Y-63278958D01*
X107514257Y-63001560D01*
X107406415Y-62733618D01*
X107341910Y-62517166D01*
X107332315Y-62441500D01*
X107310186Y-62272392D01*
X107265834Y-62208662D01*
X107238262Y-62130333D01*
X107234482Y-62084265D01*
X110553978Y-62084265D01*
X110603111Y-62152222D01*
X110753231Y-62207015D01*
X110890027Y-62129316D01*
X110915951Y-62081667D01*
X110905406Y-61983573D01*
X110755676Y-61954667D01*
X110582617Y-61990199D01*
X110553978Y-62084265D01*
X107234482Y-62084265D01*
X107221008Y-61920059D01*
X107213922Y-61614906D01*
X107216853Y-61251940D01*
X107220712Y-61136222D01*
X110659556Y-61136222D01*
X110671178Y-61186557D01*
X110716000Y-61192667D01*
X110785690Y-61161689D01*
X110772445Y-61136222D01*
X110671965Y-61126089D01*
X110659556Y-61136222D01*
X107220712Y-61136222D01*
X107229650Y-60868225D01*
X107252163Y-60500827D01*
X107252578Y-60496427D01*
X109028241Y-60496427D01*
X109058553Y-60548797D01*
X109192000Y-60495685D01*
X109323917Y-60389200D01*
X109361334Y-60325634D01*
X109308770Y-60263817D01*
X109186732Y-60310016D01*
X109124267Y-60362934D01*
X109028241Y-60496427D01*
X107252578Y-60496427D01*
X107266767Y-60346000D01*
X108853334Y-60346000D01*
X108884312Y-60415690D01*
X108909778Y-60402445D01*
X108919911Y-60301965D01*
X108909778Y-60289556D01*
X108859444Y-60301178D01*
X108853334Y-60346000D01*
X107266767Y-60346000D01*
X107273699Y-60272521D01*
X107296736Y-60134334D01*
X108430000Y-60134334D01*
X108472334Y-60176667D01*
X108492576Y-60156425D01*
X109144055Y-60156425D01*
X109227278Y-60169983D01*
X109337092Y-60154416D01*
X109338403Y-60125514D01*
X109225086Y-60105303D01*
X109176125Y-60118830D01*
X109144055Y-60156425D01*
X108492576Y-60156425D01*
X108514667Y-60134334D01*
X108472334Y-60092000D01*
X108430000Y-60134334D01*
X107296736Y-60134334D01*
X107317908Y-60007334D01*
X108768667Y-60007334D01*
X108799645Y-60077024D01*
X108825111Y-60063778D01*
X108835072Y-59965000D01*
X109615334Y-59965000D01*
X109657667Y-60007334D01*
X109700000Y-59965000D01*
X109657667Y-59922667D01*
X109615334Y-59965000D01*
X108835072Y-59965000D01*
X108835244Y-59963298D01*
X108825111Y-59950889D01*
X108774777Y-59962511D01*
X108768667Y-60007334D01*
X107317908Y-60007334D01*
X107320136Y-59993974D01*
X107382942Y-59776072D01*
X107422282Y-59701021D01*
X107462774Y-59615852D01*
X107368535Y-59585731D01*
X107297367Y-59584000D01*
X107122831Y-59620581D01*
X107061255Y-59753597D01*
X107069013Y-59901500D01*
X107028964Y-59999134D01*
X106997036Y-60007334D01*
X106947268Y-60069245D01*
X106960049Y-60134334D01*
X106959156Y-60243218D01*
X106921131Y-60261334D01*
X106858051Y-60337029D01*
X106784026Y-60533308D01*
X106728750Y-60748167D01*
X106662418Y-61025756D01*
X106599707Y-61237756D01*
X106564668Y-61319667D01*
X106524075Y-61462332D01*
X106517667Y-61630633D01*
X106502476Y-61778584D01*
X106451662Y-61808505D01*
X106412729Y-61840277D01*
X106436692Y-62013731D01*
X106521359Y-62314223D01*
X106532520Y-62348968D01*
X106546638Y-62431285D01*
X106484759Y-62382340D01*
X106422999Y-62309614D01*
X106262901Y-62114228D01*
X106014757Y-62902281D01*
X105910574Y-63245207D01*
X105832162Y-63526676D01*
X105789794Y-63708449D01*
X105785973Y-63753834D01*
X105742284Y-63815083D01*
X105720667Y-63817334D01*
X105648614Y-63887242D01*
X105635479Y-63965500D01*
X105596885Y-64150048D01*
X105523286Y-64327636D01*
X105393337Y-64628111D01*
X105355197Y-64844257D01*
X105412155Y-64949590D01*
X105419672Y-64981757D01*
X105318500Y-64995983D01*
X105169736Y-64950464D01*
X105130780Y-64793912D01*
X105200616Y-64517806D01*
X105247292Y-64399173D01*
X105331573Y-64187101D01*
X105382154Y-64040635D01*
X105385072Y-64029000D01*
X105504782Y-63632162D01*
X105522442Y-63584500D01*
X105564395Y-63430609D01*
X105566600Y-63378307D01*
X105586062Y-63270186D01*
X105648691Y-63064112D01*
X105686589Y-62954974D01*
X105773041Y-62705014D01*
X105834690Y-62508776D01*
X105846808Y-62462667D01*
X105901108Y-62277632D01*
X105940897Y-62166334D01*
X105976225Y-62051512D01*
X105923733Y-62063394D01*
X105842352Y-62124000D01*
X105731219Y-62205382D01*
X105736479Y-62178141D01*
X105783432Y-62116210D01*
X105842588Y-61977020D01*
X105825766Y-61912136D01*
X105820054Y-61878819D01*
X105853910Y-61894533D01*
X105927968Y-61851993D01*
X106010783Y-61668278D01*
X106053362Y-61522708D01*
X106147698Y-61227685D01*
X106290367Y-60862473D01*
X106449285Y-60508696D01*
X106585634Y-60221950D01*
X106686976Y-59996291D01*
X106735049Y-59872713D01*
X106736667Y-59863595D01*
X106786649Y-59765721D01*
X106884834Y-59639810D01*
X106977857Y-59523057D01*
X106955362Y-59501566D01*
X106896092Y-59520333D01*
X106807177Y-59534578D01*
X106816159Y-59452368D01*
X106851007Y-59372334D01*
X111647334Y-59372334D01*
X111689667Y-59414667D01*
X111732000Y-59372334D01*
X111689667Y-59330000D01*
X111647334Y-59372334D01*
X106851007Y-59372334D01*
X106853759Y-59366016D01*
X106967914Y-59211854D01*
X107075334Y-59158635D01*
X107240099Y-59107401D01*
X107366682Y-59030974D01*
X107579984Y-58930576D01*
X107726516Y-58906667D01*
X107877763Y-58878606D01*
X107922000Y-58830467D01*
X107851084Y-58772120D01*
X107681211Y-58754709D01*
X107476691Y-58774255D01*
X107301835Y-58826781D01*
X107237640Y-58872800D01*
X107101047Y-58975231D01*
X107035755Y-58991334D01*
X106905430Y-59044729D01*
X106778463Y-59165904D01*
X106705026Y-59296337D01*
X106715315Y-59365093D01*
X106721102Y-59408185D01*
X106694334Y-59403304D01*
X106571215Y-59420629D01*
X106362072Y-59494362D01*
X106271000Y-59534172D01*
X106060664Y-59674182D01*
X105800686Y-59908112D01*
X105523442Y-60198786D01*
X105261309Y-60509032D01*
X105046664Y-60801675D01*
X104911884Y-61039542D01*
X104884617Y-61125972D01*
X104854879Y-61253317D01*
X104819086Y-61222827D01*
X104797129Y-61166614D01*
X104750899Y-61107862D01*
X104672216Y-61146596D01*
X104539819Y-61299954D01*
X104405512Y-61482289D01*
X104228191Y-61717949D01*
X104084942Y-61886873D01*
X104006517Y-61952824D01*
X104006167Y-61952841D01*
X103949706Y-62023523D01*
X103942667Y-62081667D01*
X103901348Y-62194402D01*
X103866283Y-62208667D01*
X103782733Y-62278179D01*
X103691959Y-62441500D01*
X103534425Y-62790286D01*
X103415337Y-62987470D01*
X103324691Y-63043703D01*
X103252483Y-62969638D01*
X103234716Y-62928334D01*
X103226482Y-62818989D01*
X103254400Y-62801334D01*
X103327052Y-62734214D01*
X103421324Y-62581001D01*
X103498750Y-62413918D01*
X103520864Y-62305186D01*
X103519931Y-62302800D01*
X103559294Y-62231325D01*
X103575602Y-62218133D01*
X103668317Y-62109668D01*
X103752884Y-61975834D01*
X103814556Y-61831765D01*
X103771382Y-61785868D01*
X103757869Y-61785334D01*
X103722864Y-61747845D01*
X103788510Y-61679500D01*
X103953767Y-61529181D01*
X104127806Y-61343843D01*
X104283649Y-61157188D01*
X104394320Y-61002915D01*
X104432842Y-60914723D01*
X104405040Y-60909313D01*
X104318885Y-60930869D01*
X104351462Y-60872035D01*
X104435968Y-60784032D01*
X104566146Y-60633872D01*
X104620000Y-60532232D01*
X104675914Y-60445943D01*
X104825702Y-60271547D01*
X105042430Y-60039592D01*
X105164573Y-59914512D01*
X105408879Y-59657802D01*
X105602961Y-59435065D01*
X105717828Y-59280438D01*
X105736073Y-59241625D01*
X105822287Y-59141425D01*
X106011470Y-59010830D01*
X106248604Y-58880378D01*
X106478668Y-58780610D01*
X106635830Y-58742214D01*
X106680649Y-58717375D01*
X111251766Y-58717375D01*
X111328207Y-58840718D01*
X111462514Y-58984323D01*
X111572994Y-59033667D01*
X111720599Y-59097261D01*
X111757374Y-59139500D01*
X111892509Y-59234528D01*
X112048675Y-59220915D01*
X112110772Y-59164273D01*
X112075453Y-59075086D01*
X111903074Y-58952390D01*
X111618605Y-58811873D01*
X111424288Y-58733007D01*
X111270593Y-58681403D01*
X111251766Y-58717375D01*
X106680649Y-58717375D01*
X106712410Y-58699773D01*
X106705546Y-58670810D01*
X106737067Y-58607914D01*
X106806383Y-58589959D01*
X107033002Y-58560716D01*
X107245926Y-58523696D01*
X107378430Y-58491006D01*
X107392834Y-58483556D01*
X107477500Y-58447422D01*
X107747848Y-58354207D01*
X107899813Y-58239082D01*
X107917974Y-58122843D01*
X107789162Y-58027142D01*
X107696035Y-57917167D01*
X107698860Y-57890667D01*
X108218334Y-57890667D01*
X108222204Y-57968810D01*
X108250673Y-57975334D01*
X108370365Y-57913548D01*
X108387667Y-57890667D01*
X108383797Y-57812523D01*
X108355327Y-57806000D01*
X108235636Y-57867786D01*
X108218334Y-57890667D01*
X107698860Y-57890667D01*
X107706652Y-57817600D01*
X107713062Y-57696163D01*
X107974864Y-57696163D01*
X108091334Y-57707965D01*
X108211529Y-57694660D01*
X108204002Y-57679250D01*
X108451839Y-57679250D01*
X108532549Y-57780459D01*
X108604330Y-57806000D01*
X108682415Y-57742134D01*
X108684000Y-57726330D01*
X108677883Y-57714707D01*
X110672164Y-57714707D01*
X110800667Y-57790975D01*
X110994467Y-57867427D01*
X111051982Y-57868857D01*
X110990759Y-57791020D01*
X110954125Y-57753839D01*
X110801222Y-57662139D01*
X110703149Y-57659515D01*
X110672164Y-57714707D01*
X108677883Y-57714707D01*
X108627755Y-57619465D01*
X108517309Y-57563206D01*
X108458222Y-57580222D01*
X108451839Y-57679250D01*
X108204002Y-57679250D01*
X108197167Y-57665260D01*
X108023825Y-57654078D01*
X107985500Y-57665260D01*
X107974864Y-57696163D01*
X107713062Y-57696163D01*
X107718455Y-57594019D01*
X107641874Y-57380222D01*
X107506758Y-57238288D01*
X107463902Y-57226492D01*
X108030880Y-57226492D01*
X108057088Y-57273951D01*
X108091334Y-57298000D01*
X108272075Y-57368201D01*
X108345334Y-57375420D01*
X108395964Y-57351245D01*
X108303000Y-57298000D01*
X108514667Y-57298000D01*
X108583243Y-57373115D01*
X108641667Y-57382667D01*
X108754339Y-57336949D01*
X108768667Y-57298000D01*
X108700090Y-57222886D01*
X108641667Y-57213334D01*
X108528995Y-57259051D01*
X108514667Y-57298000D01*
X108303000Y-57298000D01*
X108123496Y-57234508D01*
X108030880Y-57226492D01*
X107463902Y-57226492D01*
X107416096Y-57213334D01*
X107277353Y-57180072D01*
X107244667Y-57133071D01*
X107314032Y-57098534D01*
X107496868Y-57140726D01*
X107705825Y-57192963D01*
X107851075Y-57194642D01*
X107821475Y-57154280D01*
X107660233Y-57072579D01*
X107395981Y-56962849D01*
X107172801Y-56879283D01*
X106846232Y-56757128D01*
X106594127Y-56654371D01*
X106448784Y-56584679D01*
X106426812Y-56563633D01*
X106516663Y-56574506D01*
X106721893Y-56634968D01*
X107000381Y-56732419D01*
X107037507Y-56746296D01*
X107331423Y-56848879D01*
X107566822Y-56916286D01*
X107696582Y-56935197D01*
X107701620Y-56934016D01*
X107688924Y-56915125D01*
X109572276Y-56915125D01*
X109602536Y-57022816D01*
X109625149Y-57074064D01*
X109757727Y-57236145D01*
X109878011Y-57253996D01*
X110032544Y-57265074D01*
X110084217Y-57303204D01*
X110163265Y-57380043D01*
X110175660Y-57382667D01*
X110181335Y-57327911D01*
X110165612Y-57298000D01*
X110631334Y-57298000D01*
X110695763Y-57380207D01*
X110716000Y-57382667D01*
X110798207Y-57318238D01*
X110800667Y-57298000D01*
X110736238Y-57215794D01*
X110716000Y-57213334D01*
X110633794Y-57277763D01*
X110631334Y-57298000D01*
X110165612Y-57298000D01*
X110165297Y-57297402D01*
X110182086Y-57199459D01*
X110236616Y-57164548D01*
X110333308Y-57057610D01*
X110309660Y-56897768D01*
X110181466Y-56748750D01*
X110087859Y-56647538D01*
X110087961Y-56599595D01*
X110081402Y-56561815D01*
X109977658Y-56567221D01*
X109839919Y-56604643D01*
X109731775Y-56662555D01*
X109672145Y-56806409D01*
X109682664Y-56866944D01*
X109682983Y-56944400D01*
X109629079Y-56925495D01*
X109572276Y-56915125D01*
X107688924Y-56915125D01*
X107668102Y-56884146D01*
X107511500Y-56770326D01*
X107257387Y-56609691D01*
X106945499Y-56427378D01*
X106534979Y-56192882D01*
X106111324Y-55947159D01*
X105735739Y-55725872D01*
X105551334Y-55615048D01*
X105285270Y-55459901D01*
X105079842Y-55352822D01*
X104972587Y-55313070D01*
X104966241Y-55314873D01*
X104987840Y-55397093D01*
X105085752Y-55540648D01*
X105108830Y-55580613D01*
X105030482Y-55513768D01*
X104867340Y-55354695D01*
X104824177Y-55311255D01*
X104395167Y-54954614D01*
X103803589Y-54588803D01*
X103527156Y-54442655D01*
X103178522Y-54270557D01*
X102887364Y-54136681D01*
X102684889Y-54054704D01*
X102602878Y-54037567D01*
X102594909Y-54107433D01*
X102595056Y-54107545D01*
X102674675Y-54168436D01*
X102852906Y-54304836D01*
X103093906Y-54489314D01*
X103138334Y-54523326D01*
X103429287Y-54722739D01*
X103730608Y-54891520D01*
X104003426Y-55012045D01*
X104208873Y-55066689D01*
X104299814Y-55049964D01*
X104324409Y-55093533D01*
X104329714Y-55177458D01*
X104313328Y-55282713D01*
X104233792Y-55265006D01*
X104159685Y-55215760D01*
X103980452Y-55112468D01*
X103884112Y-55135463D01*
X103833086Y-55287167D01*
X103806068Y-55402281D01*
X103791824Y-55360621D01*
X103784864Y-55250539D01*
X103715822Y-55040641D01*
X103558032Y-54956409D01*
X103344353Y-55005677D01*
X103194630Y-55109842D01*
X102969000Y-55308334D01*
X103173945Y-55075834D01*
X103298347Y-54918687D01*
X103346345Y-54824622D01*
X103343278Y-54817146D01*
X103265358Y-54753708D01*
X103093415Y-54611100D01*
X102863172Y-54418961D01*
X102840206Y-54399745D01*
X102511066Y-54152517D01*
X102236988Y-54017198D01*
X102035873Y-53974165D01*
X101881307Y-53954889D01*
X101874746Y-53941419D01*
X102024405Y-53931182D01*
X102191055Y-53925566D01*
X102454829Y-53937692D01*
X102454829Y-53937692D01*
G37*
X102454829Y-53937692D02*
X102740466Y-53995033D01*
X103068539Y-54106500D01*
X103459623Y-54281003D01*
X103934291Y-54527453D01*
X104513116Y-54854760D01*
X105001000Y-55142555D01*
X105569995Y-55477597D01*
X106123536Y-55794923D01*
X106635976Y-56080482D01*
X107081669Y-56320218D01*
X107434969Y-56500080D01*
X107670230Y-56606014D01*
X107675056Y-56607850D01*
X107836018Y-56649841D01*
X107891546Y-56599119D01*
X107893778Y-56567229D01*
X107835603Y-56481855D01*
X107780889Y-56487366D01*
X107676393Y-56509350D01*
X107696207Y-56462072D01*
X107825746Y-56373135D01*
X107847551Y-56361199D01*
X107963277Y-56317577D01*
X107975503Y-56348594D01*
X108001646Y-56431806D01*
X108097125Y-56477380D01*
X108213843Y-56493549D01*
X108191608Y-56428706D01*
X108170472Y-56402339D01*
X108125024Y-56310945D01*
X108218714Y-56275858D01*
X108271467Y-56272179D01*
X108389343Y-56257098D01*
X108342780Y-56228717D01*
X108324167Y-56223637D01*
X108198609Y-56153895D01*
X108176000Y-56106459D01*
X108190542Y-56055391D01*
X108260808Y-56024717D01*
X108426760Y-56005004D01*
X108669337Y-55990016D01*
X108885601Y-55945431D01*
X109024228Y-55858490D01*
X109027874Y-55853141D01*
X109092236Y-55789904D01*
X109106037Y-55816334D01*
X109184521Y-55860528D01*
X109391311Y-55887745D01*
X109636500Y-55893147D01*
X109927737Y-55898554D01*
X110152604Y-55920515D01*
X110250334Y-55948602D01*
X110400794Y-56015691D01*
X110504334Y-56041122D01*
X110696011Y-56116519D01*
X110893607Y-56292144D01*
X111127149Y-56594999D01*
X111138531Y-56611394D01*
X111259794Y-56796816D01*
X111287921Y-56900847D01*
X111227904Y-56980098D01*
X111174735Y-57021799D01*
X111080709Y-57101475D01*
X111112655Y-57119501D01*
X111287500Y-57087845D01*
X111496232Y-57066026D01*
X111554498Y-57114979D01*
X111458688Y-57229673D01*
X111414500Y-57264807D01*
X111312662Y-57351237D01*
X111348228Y-57377425D01*
X111414500Y-57379974D01*
X111540259Y-57419933D01*
X111562667Y-57462337D01*
X111509025Y-57575717D01*
X111365605Y-57565934D01*
X111191618Y-57460035D01*
X111043667Y-57357674D01*
X110971411Y-57335196D01*
X110970000Y-57340236D01*
X111031928Y-57453174D01*
X111165885Y-57575216D01*
X111294131Y-57636452D01*
X111299640Y-57636667D01*
X111399434Y-57703285D01*
X111504355Y-57851464D01*
X111561489Y-58003689D01*
X111562667Y-58021976D01*
X111494017Y-58048634D01*
X111375291Y-58030750D01*
X111278605Y-58016765D01*
X111298365Y-58066809D01*
X111443230Y-58199621D01*
X111459957Y-58213934D01*
X111629754Y-58383703D01*
X111724727Y-58526895D01*
X111732000Y-58559002D01*
X111799232Y-58637026D01*
X111981529Y-58635263D01*
X112142041Y-58629600D01*
X112189211Y-58666018D01*
X112187584Y-58668981D01*
X112228641Y-58731306D01*
X112387178Y-58787774D01*
X112403722Y-58791245D01*
X112583956Y-58846327D01*
X112663166Y-58908221D01*
X112663334Y-58910684D01*
X112735213Y-58978951D01*
X112912059Y-59059675D01*
X112950739Y-59073054D01*
X113183938Y-59200640D01*
X113286047Y-59351089D01*
X113342906Y-59472253D01*
X113388742Y-59479481D01*
X113479427Y-59494408D01*
X113632860Y-59601403D01*
X113666401Y-59631345D01*
X113850248Y-59772399D01*
X114004051Y-59843130D01*
X114017135Y-59844684D01*
X114087150Y-59865341D01*
X114039923Y-59893821D01*
X113977329Y-59954396D01*
X114039923Y-60051181D01*
X114211519Y-60249199D01*
X114386181Y-60466671D01*
X114532607Y-60662408D01*
X114619499Y-60795224D01*
X114629987Y-60827641D01*
X114660097Y-60907651D01*
X114761248Y-61089078D01*
X114905154Y-61322492D01*
X115057533Y-61566077D01*
X115165009Y-61748157D01*
X115203334Y-61826671D01*
X115246207Y-61910210D01*
X115360550Y-62100139D01*
X115524942Y-62361266D01*
X115594737Y-62469767D01*
X115790451Y-62787733D01*
X115890602Y-62993764D01*
X115904158Y-63109146D01*
X115877861Y-63141734D01*
X115763937Y-63125967D01*
X115628231Y-62947032D01*
X115613458Y-62920327D01*
X115460262Y-62637293D01*
X115303819Y-62348097D01*
X115297620Y-62336634D01*
X115133946Y-62077076D01*
X114929244Y-61805379D01*
X114881758Y-61749531D01*
X114711189Y-61530564D01*
X114590394Y-61331060D01*
X114568560Y-61278047D01*
X114448524Y-61109202D01*
X114310227Y-61021772D01*
X114139484Y-60904319D01*
X113954661Y-60702528D01*
X113899343Y-60624456D01*
X113553742Y-60160838D01*
X113200959Y-59807346D01*
X112959667Y-59638768D01*
X112702731Y-59478920D01*
X112472603Y-59312736D01*
X112271573Y-59192931D01*
X112153890Y-59212910D01*
X112152344Y-59325597D01*
X112286334Y-59529125D01*
X112412085Y-59674113D01*
X112638965Y-59947881D01*
X112844184Y-60238472D01*
X112932672Y-60388334D01*
X113050329Y-60601971D01*
X113140128Y-60744264D01*
X113161540Y-60769334D01*
X113226821Y-60880877D01*
X113245044Y-60938667D01*
X113284659Y-61091365D01*
X113350207Y-61337220D01*
X113389334Y-61482190D01*
X113446752Y-61732326D01*
X113469158Y-61912903D01*
X113462410Y-61963173D01*
X113484016Y-62057444D01*
X113521701Y-62088898D01*
X113580322Y-62100988D01*
X113552333Y-62039333D01*
X113529898Y-61968563D01*
X113585696Y-61991456D01*
X113643464Y-62078807D01*
X113590946Y-62170817D01*
X113547716Y-62283509D01*
X113557839Y-62478566D01*
X113623891Y-62791046D01*
X113641742Y-62861780D01*
X113717991Y-63171139D01*
X113775851Y-63428527D01*
X113802678Y-63577437D01*
X113866673Y-63760405D01*
X113927471Y-63852603D01*
X113993328Y-63958729D01*
X113933334Y-63986667D01*
X113872041Y-64017855D01*
X113922232Y-64100290D01*
X113982179Y-64217529D01*
X113973861Y-64256584D01*
X113970206Y-64358185D01*
X114016343Y-64554904D01*
X114092644Y-64789884D01*
X114179484Y-65006272D01*
X114257237Y-65147214D01*
X114289858Y-65172000D01*
X114328391Y-65224633D01*
X114314334Y-65256667D01*
X114198212Y-65347980D01*
X114080880Y-65292268D01*
X113991152Y-65109156D01*
X113972463Y-65023834D01*
X113884429Y-64621324D01*
X113754185Y-64165505D01*
X113608643Y-63746446D01*
X113544887Y-63592871D01*
X113461293Y-63356257D01*
X113425360Y-63155262D01*
X113425334Y-63151506D01*
X113395351Y-62972153D01*
X113319144Y-62713131D01*
X113267889Y-62571635D01*
X113184249Y-62319301D01*
X113144831Y-62123334D01*
X113147945Y-62060500D01*
X113154869Y-61963450D01*
X113067432Y-61997124D01*
X112961534Y-62091895D01*
X112864860Y-62176604D01*
X112852247Y-62126625D01*
X112875339Y-62025793D01*
X112886143Y-61790720D01*
X112841977Y-61460233D01*
X112753864Y-61094861D01*
X112652459Y-60801628D01*
X112574886Y-60598197D01*
X112532391Y-60462571D01*
X112485206Y-60329640D01*
X112393222Y-60117844D01*
X112364793Y-60056974D01*
X112256693Y-59859325D01*
X112146729Y-59781592D01*
X111971688Y-59785861D01*
X111924666Y-59793003D01*
X111718223Y-59807752D01*
X111619115Y-59751106D01*
X111588931Y-59675291D01*
X111521624Y-59550152D01*
X111495499Y-59527556D01*
X111675556Y-59527556D01*
X111687178Y-59577890D01*
X111732000Y-59584000D01*
X111801690Y-59553022D01*
X111788445Y-59527556D01*
X111687965Y-59517423D01*
X111675556Y-59527556D01*
X111495499Y-59527556D01*
X111423695Y-59465454D01*
X111344953Y-59451224D01*
X111330849Y-59519699D01*
X111285226Y-59613719D01*
X111247912Y-59622485D01*
X111108876Y-59676622D01*
X110979901Y-59767545D01*
X110845934Y-59862107D01*
X110782719Y-59876496D01*
X110690023Y-59878296D01*
X110486021Y-59917308D01*
X110309896Y-59960455D01*
X110038049Y-60021277D01*
X109899051Y-60021571D01*
X109866759Y-59978503D01*
X109831947Y-59958898D01*
X109775258Y-60033195D01*
X109679886Y-60134603D01*
X109566166Y-60086328D01*
X109469972Y-60034233D01*
X109446000Y-60120988D01*
X109513493Y-60264295D01*
X109615334Y-60346000D01*
X109745878Y-60395549D01*
X109784667Y-60380945D01*
X109836242Y-60377166D01*
X109898290Y-60419565D01*
X110021748Y-60473275D01*
X110067624Y-60458154D01*
X110117880Y-60469337D01*
X110123334Y-60510281D01*
X110183864Y-60579869D01*
X110247622Y-60570423D01*
X110385769Y-60574397D01*
X110425519Y-60609470D01*
X110539610Y-60664031D01*
X110587247Y-60654722D01*
X110736233Y-60669214D01*
X110802771Y-60712450D01*
X110873392Y-60765097D01*
X110839515Y-60685287D01*
X110839169Y-60684667D01*
X110803623Y-60602803D01*
X110869492Y-60640270D01*
X110906002Y-60669376D01*
X111065826Y-60737030D01*
X111218588Y-60687563D01*
X111351718Y-60637582D01*
X111393334Y-60654113D01*
X111445860Y-60644847D01*
X111574637Y-60543469D01*
X111597923Y-60521982D01*
X111752365Y-60304582D01*
X111764371Y-60119444D01*
X111754145Y-59967782D01*
X111794850Y-59952771D01*
X111870457Y-60055530D01*
X111964940Y-60257175D01*
X112028204Y-60430277D01*
X112092197Y-60703353D01*
X112137115Y-61051207D01*
X112161326Y-61426003D01*
X112163198Y-61779903D01*
X112141100Y-62065070D01*
X112093398Y-62233666D01*
X112089901Y-62238740D01*
X112038559Y-62395811D01*
X112033258Y-62530876D01*
X112016518Y-62670652D01*
X111919881Y-62676861D01*
X111913747Y-62674568D01*
X111828459Y-62657798D01*
X111838183Y-62681739D01*
X111845363Y-62793170D01*
X111763322Y-62962654D01*
X111628936Y-63135225D01*
X111479083Y-63255921D01*
X111442143Y-63272020D01*
X111053178Y-63372856D01*
X110821834Y-63409909D01*
X110719057Y-63480648D01*
X110710049Y-63513945D01*
X110679491Y-63523562D01*
X110631334Y-63436334D01*
X110573990Y-63346664D01*
X110552618Y-63377830D01*
X110495000Y-63443837D01*
X110448984Y-63428289D01*
X110286716Y-63370954D01*
X110088024Y-63351259D01*
X109912534Y-63367432D01*
X109819875Y-63417698D01*
X109819385Y-63447018D01*
X109803754Y-63519056D01*
X109738022Y-63507630D01*
X109631945Y-63513702D01*
X109615334Y-63554275D01*
X109677943Y-63643614D01*
X109704997Y-63648000D01*
X109755563Y-63699870D01*
X109742334Y-63732667D01*
X109757658Y-63816003D01*
X109800837Y-63830229D01*
X109968239Y-63856783D01*
X109996334Y-63862797D01*
X110158645Y-63889278D01*
X110186834Y-63892234D01*
X110285422Y-63961063D01*
X110292667Y-63995725D01*
X110230828Y-64051667D01*
X110162462Y-64039486D01*
X110024499Y-64059643D01*
X109982203Y-64119960D01*
X109881995Y-64210285D01*
X109816075Y-64205857D01*
X109713900Y-64209863D01*
X109700000Y-64243324D01*
X109637312Y-64306331D01*
X109603103Y-64304167D01*
X109532065Y-64363937D01*
X109487280Y-64545122D01*
X109484141Y-64579334D01*
X109479229Y-64722551D01*
X109493754Y-64720525D01*
X109495680Y-64712515D01*
X109627239Y-64712515D01*
X109669136Y-64847494D01*
X109730212Y-64917945D01*
X109731750Y-64918000D01*
X109743341Y-64849465D01*
X109723654Y-64745309D01*
X109671723Y-64625325D01*
X109636454Y-64614657D01*
X109627239Y-64712515D01*
X109495680Y-64712515D01*
X109502260Y-64685167D01*
X109565519Y-64536551D01*
X109627270Y-64494667D01*
X109755063Y-64546647D01*
X109863966Y-64659890D01*
X109898239Y-64770350D01*
X109886468Y-64792495D01*
X109914495Y-64823770D01*
X110062901Y-64813461D01*
X110079390Y-64810577D01*
X110244026Y-64785989D01*
X110260727Y-64810822D01*
X110169041Y-64883669D01*
X109957216Y-64974237D01*
X109703839Y-64995542D01*
X109454500Y-64957746D01*
X109254790Y-64871008D01*
X109150300Y-64745489D01*
X109151895Y-64656981D01*
X109144367Y-64502686D01*
X109097696Y-64446377D01*
X109036191Y-64432918D01*
X109056915Y-64481585D01*
X109077030Y-64631168D01*
X109060596Y-64671126D01*
X108975192Y-64665946D01*
X108805617Y-64543794D01*
X108664921Y-64410000D01*
X109276667Y-64410000D01*
X109307645Y-64479690D01*
X109333111Y-64466445D01*
X109343244Y-64365965D01*
X109333111Y-64353556D01*
X109282777Y-64365178D01*
X109276667Y-64410000D01*
X108664921Y-64410000D01*
X108611099Y-64358819D01*
X108448444Y-64198334D01*
X109361334Y-64198334D01*
X109403667Y-64240667D01*
X109446000Y-64198334D01*
X109403667Y-64156000D01*
X109361334Y-64198334D01*
X108448444Y-64198334D01*
X108407365Y-64157804D01*
X108252077Y-64020567D01*
X108179306Y-63976958D01*
X108123256Y-63930230D01*
X108091334Y-63859667D01*
X108015238Y-63754264D01*
X107969119Y-63747568D01*
X107892867Y-63693995D01*
X107833248Y-63605667D01*
X108768667Y-63605667D01*
X108811000Y-63648000D01*
X108853334Y-63605667D01*
X108938000Y-63605667D01*
X108980334Y-63648000D01*
X109000584Y-63627750D01*
X109285123Y-63627750D01*
X109324959Y-63727087D01*
X109382500Y-63756519D01*
X109535048Y-63763898D01*
X109576489Y-63659525D01*
X109562296Y-63608301D01*
X109458708Y-63527843D01*
X109396660Y-63535405D01*
X109285123Y-63627750D01*
X109000584Y-63627750D01*
X109022667Y-63605667D01*
X108980334Y-63563334D01*
X108938000Y-63605667D01*
X108853334Y-63605667D01*
X108811000Y-63563334D01*
X108768667Y-63605667D01*
X107833248Y-63605667D01*
X107777977Y-63523781D01*
X107644943Y-63278958D01*
X107514257Y-63001560D01*
X107406415Y-62733618D01*
X107341910Y-62517166D01*
X107332315Y-62441500D01*
X107310186Y-62272392D01*
X107265834Y-62208662D01*
X107238262Y-62130333D01*
X107234482Y-62084265D01*
X110553978Y-62084265D01*
X110603111Y-62152222D01*
X110753231Y-62207015D01*
X110890027Y-62129316D01*
X110915951Y-62081667D01*
X110905406Y-61983573D01*
X110755676Y-61954667D01*
X110582617Y-61990199D01*
X110553978Y-62084265D01*
X107234482Y-62084265D01*
X107221008Y-61920059D01*
X107213922Y-61614906D01*
X107216853Y-61251940D01*
X107220712Y-61136222D01*
X110659556Y-61136222D01*
X110671178Y-61186557D01*
X110716000Y-61192667D01*
X110785690Y-61161689D01*
X110772445Y-61136222D01*
X110671965Y-61126089D01*
X110659556Y-61136222D01*
X107220712Y-61136222D01*
X107229650Y-60868225D01*
X107252163Y-60500827D01*
X107252578Y-60496427D01*
X109028241Y-60496427D01*
X109058553Y-60548797D01*
X109192000Y-60495685D01*
X109323917Y-60389200D01*
X109361334Y-60325634D01*
X109308770Y-60263817D01*
X109186732Y-60310016D01*
X109124267Y-60362934D01*
X109028241Y-60496427D01*
X107252578Y-60496427D01*
X107266767Y-60346000D01*
X108853334Y-60346000D01*
X108884312Y-60415690D01*
X108909778Y-60402445D01*
X108919911Y-60301965D01*
X108909778Y-60289556D01*
X108859444Y-60301178D01*
X108853334Y-60346000D01*
X107266767Y-60346000D01*
X107273699Y-60272521D01*
X107296736Y-60134334D01*
X108430000Y-60134334D01*
X108472334Y-60176667D01*
X108492576Y-60156425D01*
X109144055Y-60156425D01*
X109227278Y-60169983D01*
X109337092Y-60154416D01*
X109338403Y-60125514D01*
X109225086Y-60105303D01*
X109176125Y-60118830D01*
X109144055Y-60156425D01*
X108492576Y-60156425D01*
X108514667Y-60134334D01*
X108472334Y-60092000D01*
X108430000Y-60134334D01*
X107296736Y-60134334D01*
X107317908Y-60007334D01*
X108768667Y-60007334D01*
X108799645Y-60077024D01*
X108825111Y-60063778D01*
X108835072Y-59965000D01*
X109615334Y-59965000D01*
X109657667Y-60007334D01*
X109700000Y-59965000D01*
X109657667Y-59922667D01*
X109615334Y-59965000D01*
X108835072Y-59965000D01*
X108835244Y-59963298D01*
X108825111Y-59950889D01*
X108774777Y-59962511D01*
X108768667Y-60007334D01*
X107317908Y-60007334D01*
X107320136Y-59993974D01*
X107382942Y-59776072D01*
X107422282Y-59701021D01*
X107462774Y-59615852D01*
X107368535Y-59585731D01*
X107297367Y-59584000D01*
X107122831Y-59620581D01*
X107061255Y-59753597D01*
X107069013Y-59901500D01*
X107028964Y-59999134D01*
X106997036Y-60007334D01*
X106947268Y-60069245D01*
X106960049Y-60134334D01*
X106959156Y-60243218D01*
X106921131Y-60261334D01*
X106858051Y-60337029D01*
X106784026Y-60533308D01*
X106728750Y-60748167D01*
X106662418Y-61025756D01*
X106599707Y-61237756D01*
X106564668Y-61319667D01*
X106524075Y-61462332D01*
X106517667Y-61630633D01*
X106502476Y-61778584D01*
X106451662Y-61808505D01*
X106412729Y-61840277D01*
X106436692Y-62013731D01*
X106521359Y-62314223D01*
X106532520Y-62348968D01*
X106546638Y-62431285D01*
X106484759Y-62382340D01*
X106422999Y-62309614D01*
X106262901Y-62114228D01*
X106014757Y-62902281D01*
X105910574Y-63245207D01*
X105832162Y-63526676D01*
X105789794Y-63708449D01*
X105785973Y-63753834D01*
X105742284Y-63815083D01*
X105720667Y-63817334D01*
X105648614Y-63887242D01*
X105635479Y-63965500D01*
X105596885Y-64150048D01*
X105523286Y-64327636D01*
X105393337Y-64628111D01*
X105355197Y-64844257D01*
X105412155Y-64949590D01*
X105419672Y-64981757D01*
X105318500Y-64995983D01*
X105169736Y-64950464D01*
X105130780Y-64793912D01*
X105200616Y-64517806D01*
X105247292Y-64399173D01*
X105331573Y-64187101D01*
X105382154Y-64040635D01*
X105385072Y-64029000D01*
X105504782Y-63632162D01*
X105522442Y-63584500D01*
X105564395Y-63430609D01*
X105566600Y-63378307D01*
X105586062Y-63270186D01*
X105648691Y-63064112D01*
X105686589Y-62954974D01*
X105773041Y-62705014D01*
X105834690Y-62508776D01*
X105846808Y-62462667D01*
X105901108Y-62277632D01*
X105940897Y-62166334D01*
X105976225Y-62051512D01*
X105923733Y-62063394D01*
X105842352Y-62124000D01*
X105731219Y-62205382D01*
X105736479Y-62178141D01*
X105783432Y-62116210D01*
X105842588Y-61977020D01*
X105825766Y-61912136D01*
X105820054Y-61878819D01*
X105853910Y-61894533D01*
X105927968Y-61851993D01*
X106010783Y-61668278D01*
X106053362Y-61522708D01*
X106147698Y-61227685D01*
X106290367Y-60862473D01*
X106449285Y-60508696D01*
X106585634Y-60221950D01*
X106686976Y-59996291D01*
X106735049Y-59872713D01*
X106736667Y-59863595D01*
X106786649Y-59765721D01*
X106884834Y-59639810D01*
X106977857Y-59523057D01*
X106955362Y-59501566D01*
X106896092Y-59520333D01*
X106807177Y-59534578D01*
X106816159Y-59452368D01*
X106851007Y-59372334D01*
X111647334Y-59372334D01*
X111689667Y-59414667D01*
X111732000Y-59372334D01*
X111689667Y-59330000D01*
X111647334Y-59372334D01*
X106851007Y-59372334D01*
X106853759Y-59366016D01*
X106967914Y-59211854D01*
X107075334Y-59158635D01*
X107240099Y-59107401D01*
X107366682Y-59030974D01*
X107579984Y-58930576D01*
X107726516Y-58906667D01*
X107877763Y-58878606D01*
X107922000Y-58830467D01*
X107851084Y-58772120D01*
X107681211Y-58754709D01*
X107476691Y-58774255D01*
X107301835Y-58826781D01*
X107237640Y-58872800D01*
X107101047Y-58975231D01*
X107035755Y-58991334D01*
X106905430Y-59044729D01*
X106778463Y-59165904D01*
X106705026Y-59296337D01*
X106715315Y-59365093D01*
X106721102Y-59408185D01*
X106694334Y-59403304D01*
X106571215Y-59420629D01*
X106362072Y-59494362D01*
X106271000Y-59534172D01*
X106060664Y-59674182D01*
X105800686Y-59908112D01*
X105523442Y-60198786D01*
X105261309Y-60509032D01*
X105046664Y-60801675D01*
X104911884Y-61039542D01*
X104884617Y-61125972D01*
X104854879Y-61253317D01*
X104819086Y-61222827D01*
X104797129Y-61166614D01*
X104750899Y-61107862D01*
X104672216Y-61146596D01*
X104539819Y-61299954D01*
X104405512Y-61482289D01*
X104228191Y-61717949D01*
X104084942Y-61886873D01*
X104006517Y-61952824D01*
X104006167Y-61952841D01*
X103949706Y-62023523D01*
X103942667Y-62081667D01*
X103901348Y-62194402D01*
X103866283Y-62208667D01*
X103782733Y-62278179D01*
X103691959Y-62441500D01*
X103534425Y-62790286D01*
X103415337Y-62987470D01*
X103324691Y-63043703D01*
X103252483Y-62969638D01*
X103234716Y-62928334D01*
X103226482Y-62818989D01*
X103254400Y-62801334D01*
X103327052Y-62734214D01*
X103421324Y-62581001D01*
X103498750Y-62413918D01*
X103520864Y-62305186D01*
X103519931Y-62302800D01*
X103559294Y-62231325D01*
X103575602Y-62218133D01*
X103668317Y-62109668D01*
X103752884Y-61975834D01*
X103814556Y-61831765D01*
X103771382Y-61785868D01*
X103757869Y-61785334D01*
X103722864Y-61747845D01*
X103788510Y-61679500D01*
X103953767Y-61529181D01*
X104127806Y-61343843D01*
X104283649Y-61157188D01*
X104394320Y-61002915D01*
X104432842Y-60914723D01*
X104405040Y-60909313D01*
X104318885Y-60930869D01*
X104351462Y-60872035D01*
X104435968Y-60784032D01*
X104566146Y-60633872D01*
X104620000Y-60532232D01*
X104675914Y-60445943D01*
X104825702Y-60271547D01*
X105042430Y-60039592D01*
X105164573Y-59914512D01*
X105408879Y-59657802D01*
X105602961Y-59435065D01*
X105717828Y-59280438D01*
X105736073Y-59241625D01*
X105822287Y-59141425D01*
X106011470Y-59010830D01*
X106248604Y-58880378D01*
X106478668Y-58780610D01*
X106635830Y-58742214D01*
X106680649Y-58717375D01*
X111251766Y-58717375D01*
X111328207Y-58840718D01*
X111462514Y-58984323D01*
X111572994Y-59033667D01*
X111720599Y-59097261D01*
X111757374Y-59139500D01*
X111892509Y-59234528D01*
X112048675Y-59220915D01*
X112110772Y-59164273D01*
X112075453Y-59075086D01*
X111903074Y-58952390D01*
X111618605Y-58811873D01*
X111424288Y-58733007D01*
X111270593Y-58681403D01*
X111251766Y-58717375D01*
X106680649Y-58717375D01*
X106712410Y-58699773D01*
X106705546Y-58670810D01*
X106737067Y-58607914D01*
X106806383Y-58589959D01*
X107033002Y-58560716D01*
X107245926Y-58523696D01*
X107378430Y-58491006D01*
X107392834Y-58483556D01*
X107477500Y-58447422D01*
X107747848Y-58354207D01*
X107899813Y-58239082D01*
X107917974Y-58122843D01*
X107789162Y-58027142D01*
X107696035Y-57917167D01*
X107698860Y-57890667D01*
X108218334Y-57890667D01*
X108222204Y-57968810D01*
X108250673Y-57975334D01*
X108370365Y-57913548D01*
X108387667Y-57890667D01*
X108383797Y-57812523D01*
X108355327Y-57806000D01*
X108235636Y-57867786D01*
X108218334Y-57890667D01*
X107698860Y-57890667D01*
X107706652Y-57817600D01*
X107713062Y-57696163D01*
X107974864Y-57696163D01*
X108091334Y-57707965D01*
X108211529Y-57694660D01*
X108204002Y-57679250D01*
X108451839Y-57679250D01*
X108532549Y-57780459D01*
X108604330Y-57806000D01*
X108682415Y-57742134D01*
X108684000Y-57726330D01*
X108677883Y-57714707D01*
X110672164Y-57714707D01*
X110800667Y-57790975D01*
X110994467Y-57867427D01*
X111051982Y-57868857D01*
X110990759Y-57791020D01*
X110954125Y-57753839D01*
X110801222Y-57662139D01*
X110703149Y-57659515D01*
X110672164Y-57714707D01*
X108677883Y-57714707D01*
X108627755Y-57619465D01*
X108517309Y-57563206D01*
X108458222Y-57580222D01*
X108451839Y-57679250D01*
X108204002Y-57679250D01*
X108197167Y-57665260D01*
X108023825Y-57654078D01*
X107985500Y-57665260D01*
X107974864Y-57696163D01*
X107713062Y-57696163D01*
X107718455Y-57594019D01*
X107641874Y-57380222D01*
X107506758Y-57238288D01*
X107463902Y-57226492D01*
X108030880Y-57226492D01*
X108057088Y-57273951D01*
X108091334Y-57298000D01*
X108272075Y-57368201D01*
X108345334Y-57375420D01*
X108395964Y-57351245D01*
X108303000Y-57298000D01*
X108514667Y-57298000D01*
X108583243Y-57373115D01*
X108641667Y-57382667D01*
X108754339Y-57336949D01*
X108768667Y-57298000D01*
X108700090Y-57222886D01*
X108641667Y-57213334D01*
X108528995Y-57259051D01*
X108514667Y-57298000D01*
X108303000Y-57298000D01*
X108123496Y-57234508D01*
X108030880Y-57226492D01*
X107463902Y-57226492D01*
X107416096Y-57213334D01*
X107277353Y-57180072D01*
X107244667Y-57133071D01*
X107314032Y-57098534D01*
X107496868Y-57140726D01*
X107705825Y-57192963D01*
X107851075Y-57194642D01*
X107821475Y-57154280D01*
X107660233Y-57072579D01*
X107395981Y-56962849D01*
X107172801Y-56879283D01*
X106846232Y-56757128D01*
X106594127Y-56654371D01*
X106448784Y-56584679D01*
X106426812Y-56563633D01*
X106516663Y-56574506D01*
X106721893Y-56634968D01*
X107000381Y-56732419D01*
X107037507Y-56746296D01*
X107331423Y-56848879D01*
X107566822Y-56916286D01*
X107696582Y-56935197D01*
X107701620Y-56934016D01*
X107688924Y-56915125D01*
X109572276Y-56915125D01*
X109602536Y-57022816D01*
X109625149Y-57074064D01*
X109757727Y-57236145D01*
X109878011Y-57253996D01*
X110032544Y-57265074D01*
X110084217Y-57303204D01*
X110163265Y-57380043D01*
X110175660Y-57382667D01*
X110181335Y-57327911D01*
X110165612Y-57298000D01*
X110631334Y-57298000D01*
X110695763Y-57380207D01*
X110716000Y-57382667D01*
X110798207Y-57318238D01*
X110800667Y-57298000D01*
X110736238Y-57215794D01*
X110716000Y-57213334D01*
X110633794Y-57277763D01*
X110631334Y-57298000D01*
X110165612Y-57298000D01*
X110165297Y-57297402D01*
X110182086Y-57199459D01*
X110236616Y-57164548D01*
X110333308Y-57057610D01*
X110309660Y-56897768D01*
X110181466Y-56748750D01*
X110087859Y-56647538D01*
X110087961Y-56599595D01*
X110081402Y-56561815D01*
X109977658Y-56567221D01*
X109839919Y-56604643D01*
X109731775Y-56662555D01*
X109672145Y-56806409D01*
X109682664Y-56866944D01*
X109682983Y-56944400D01*
X109629079Y-56925495D01*
X109572276Y-56915125D01*
X107688924Y-56915125D01*
X107668102Y-56884146D01*
X107511500Y-56770326D01*
X107257387Y-56609691D01*
X106945499Y-56427378D01*
X106534979Y-56192882D01*
X106111324Y-55947159D01*
X105735739Y-55725872D01*
X105551334Y-55615048D01*
X105285270Y-55459901D01*
X105079842Y-55352822D01*
X104972587Y-55313070D01*
X104966241Y-55314873D01*
X104987840Y-55397093D01*
X105085752Y-55540648D01*
X105108830Y-55580613D01*
X105030482Y-55513768D01*
X104867340Y-55354695D01*
X104824177Y-55311255D01*
X104395167Y-54954614D01*
X103803589Y-54588803D01*
X103527156Y-54442655D01*
X103178522Y-54270557D01*
X102887364Y-54136681D01*
X102684889Y-54054704D01*
X102602878Y-54037567D01*
X102594909Y-54107433D01*
X102595056Y-54107545D01*
X102674675Y-54168436D01*
X102852906Y-54304836D01*
X103093906Y-54489314D01*
X103138334Y-54523326D01*
X103429287Y-54722739D01*
X103730608Y-54891520D01*
X104003426Y-55012045D01*
X104208873Y-55066689D01*
X104299814Y-55049964D01*
X104324409Y-55093533D01*
X104329714Y-55177458D01*
X104313328Y-55282713D01*
X104233792Y-55265006D01*
X104159685Y-55215760D01*
X103980452Y-55112468D01*
X103884112Y-55135463D01*
X103833086Y-55287167D01*
X103806068Y-55402281D01*
X103791824Y-55360621D01*
X103784864Y-55250539D01*
X103715822Y-55040641D01*
X103558032Y-54956409D01*
X103344353Y-55005677D01*
X103194630Y-55109842D01*
X102969000Y-55308334D01*
X103173945Y-55075834D01*
X103298347Y-54918687D01*
X103346345Y-54824622D01*
X103343278Y-54817146D01*
X103265358Y-54753708D01*
X103093415Y-54611100D01*
X102863172Y-54418961D01*
X102840206Y-54399745D01*
X102511066Y-54152517D01*
X102236988Y-54017198D01*
X102035873Y-53974165D01*
X101881307Y-53954889D01*
X101874746Y-53941419D01*
X102024405Y-53931182D01*
X102191055Y-53925566D01*
X102454829Y-53937692D01*
G36*
X127805136Y-111855921D02*
G01*
X128033398Y-111858491D01*
X128217715Y-111862424D01*
X128345520Y-111867432D01*
X128404247Y-111873226D01*
X128406666Y-111874705D01*
X128399232Y-111896743D01*
X128375692Y-111952472D01*
X128334194Y-112045899D01*
X128272884Y-112181031D01*
X128189907Y-112361874D01*
X128083410Y-112592433D01*
X127951540Y-112876717D01*
X127792441Y-113218730D01*
X127604261Y-113622480D01*
X127385146Y-114091972D01*
X127133242Y-114631214D01*
X126930400Y-115065177D01*
X126750759Y-115449770D01*
X126582427Y-115810806D01*
X126428735Y-116141099D01*
X126293012Y-116433462D01*
X126178587Y-116680711D01*
X126088788Y-116875659D01*
X126026944Y-117011121D01*
X125996386Y-117079911D01*
X125993666Y-117087122D01*
X126030091Y-117072946D01*
X126133878Y-117024659D01*
X126296798Y-116946285D01*
X126510619Y-116841848D01*
X126767111Y-116715370D01*
X127058045Y-116570875D01*
X127375190Y-116412386D01*
X127422405Y-116388712D01*
X127743104Y-116228161D01*
X128039115Y-116080578D01*
X128302142Y-115950056D01*
X128523884Y-115840684D01*
X128696044Y-115756554D01*
X128810323Y-115701757D01*
X128858422Y-115680385D01*
X128859399Y-115680288D01*
X128856135Y-115729414D01*
X128826603Y-115857412D01*
X128770690Y-116064713D01*
X128688284Y-116351745D01*
X128641154Y-116511667D01*
X128582414Y-116710754D01*
X128506143Y-116970818D01*
X128418289Y-117271488D01*
X128324801Y-117592395D01*
X128231627Y-117913169D01*
X128196128Y-118035667D01*
X128100894Y-118363791D01*
X127999395Y-118712205D01*
X127898552Y-119057235D01*
X127805288Y-119375207D01*
X127726526Y-119642450D01*
X127707163Y-119707834D01*
X127620837Y-119996648D01*
X127556572Y-120213777D01*
X127514568Y-120369331D01*
X127495025Y-120473421D01*
X127498145Y-120536157D01*
X127524129Y-120567649D01*
X127573177Y-120578008D01*
X127645489Y-120577345D01*
X127724398Y-120575667D01*
X127859814Y-120581816D01*
X127953533Y-120597824D01*
X127983333Y-120617031D01*
X127958861Y-120657174D01*
X127891195Y-120752872D01*
X127788963Y-120892724D01*
X127660790Y-121065327D01*
X127515302Y-121259281D01*
X127361125Y-121463184D01*
X127206887Y-121665633D01*
X127061212Y-121855228D01*
X126932728Y-122020567D01*
X126830061Y-122150249D01*
X126761836Y-122232871D01*
X126754713Y-122240939D01*
X126708550Y-122247329D01*
X126697154Y-122234737D01*
X126673148Y-122179597D01*
X126627435Y-122060986D01*
X126565380Y-121893955D01*
X126492349Y-121693560D01*
X126413707Y-121474853D01*
X126334820Y-121252887D01*
X126261054Y-121042717D01*
X126197774Y-120859394D01*
X126150347Y-120717974D01*
X126124138Y-120633509D01*
X126120666Y-120617407D01*
X126159872Y-120596749D01*
X126265126Y-120582049D01*
X126417884Y-120575743D01*
X126438166Y-120575667D01*
X126607951Y-120571933D01*
X126707427Y-120558957D01*
X126750697Y-120534073D01*
X126755666Y-120515680D01*
X126761464Y-120455471D01*
X126777516Y-120326653D01*
X126801815Y-120144389D01*
X126832350Y-119923844D01*
X126858041Y-119743097D01*
X126933955Y-119209654D01*
X126997673Y-118751150D01*
X127049018Y-118368995D01*
X127087810Y-118064599D01*
X127113870Y-117839374D01*
X127127020Y-117694729D01*
X127127080Y-117632077D01*
X127125938Y-117629828D01*
X127083915Y-117641773D01*
X126974263Y-117685196D01*
X126806228Y-117756097D01*
X126589056Y-117850477D01*
X126331994Y-117964336D01*
X126044288Y-118093676D01*
X125861638Y-118176665D01*
X125470668Y-118353295D01*
X125154062Y-118492557D01*
X124910481Y-118594997D01*
X124738586Y-118661160D01*
X124637037Y-118691593D01*
X124604631Y-118688686D01*
X124612374Y-118631421D01*
X124642222Y-118508336D01*
X124690176Y-118334152D01*
X124752238Y-118123593D01*
X124801413Y-117964103D01*
X124887251Y-117689795D01*
X124978587Y-117396703D01*
X125066131Y-117114709D01*
X125140597Y-116873690D01*
X125160790Y-116808000D01*
X125231584Y-116577586D01*
X125317121Y-116299617D01*
X125407138Y-116007428D01*
X125491369Y-115734353D01*
X125499711Y-115707334D01*
X125585208Y-115429558D01*
X125683834Y-115107747D01*
X125784266Y-114778923D01*
X125875179Y-114480110D01*
X125888153Y-114437334D01*
X125962258Y-114193654D01*
X126034049Y-113958970D01*
X126097174Y-113753947D01*
X126145282Y-113599249D01*
X126161368Y-113548334D01*
X126198566Y-113430228D01*
X126254734Y-113249956D01*
X126324045Y-113026304D01*
X126400675Y-112778059D01*
X126459995Y-112585250D01*
X126684320Y-111855000D01*
X127545493Y-111855000D01*
X127805136Y-111855921D01*
X127805136Y-111855921D01*
G37*
X127805136Y-111855921D02*
X128033398Y-111858491D01*
X128217715Y-111862424D01*
X128345520Y-111867432D01*
X128404247Y-111873226D01*
X128406666Y-111874705D01*
X128399232Y-111896743D01*
X128375692Y-111952472D01*
X128334194Y-112045899D01*
X128272884Y-112181031D01*
X128189907Y-112361874D01*
X128083410Y-112592433D01*
X127951540Y-112876717D01*
X127792441Y-113218730D01*
X127604261Y-113622480D01*
X127385146Y-114091972D01*
X127133242Y-114631214D01*
X126930400Y-115065177D01*
X126750759Y-115449770D01*
X126582427Y-115810806D01*
X126428735Y-116141099D01*
X126293012Y-116433462D01*
X126178587Y-116680711D01*
X126088788Y-116875659D01*
X126026944Y-117011121D01*
X125996386Y-117079911D01*
X125993666Y-117087122D01*
X126030091Y-117072946D01*
X126133878Y-117024659D01*
X126296798Y-116946285D01*
X126510619Y-116841848D01*
X126767111Y-116715370D01*
X127058045Y-116570875D01*
X127375190Y-116412386D01*
X127422405Y-116388712D01*
X127743104Y-116228161D01*
X128039115Y-116080578D01*
X128302142Y-115950056D01*
X128523884Y-115840684D01*
X128696044Y-115756554D01*
X128810323Y-115701757D01*
X128858422Y-115680385D01*
X128859399Y-115680288D01*
X128856135Y-115729414D01*
X128826603Y-115857412D01*
X128770690Y-116064713D01*
X128688284Y-116351745D01*
X128641154Y-116511667D01*
X128582414Y-116710754D01*
X128506143Y-116970818D01*
X128418289Y-117271488D01*
X128324801Y-117592395D01*
X128231627Y-117913169D01*
X128196128Y-118035667D01*
X128100894Y-118363791D01*
X127999395Y-118712205D01*
X127898552Y-119057235D01*
X127805288Y-119375207D01*
X127726526Y-119642450D01*
X127707163Y-119707834D01*
X127620837Y-119996648D01*
X127556572Y-120213777D01*
X127514568Y-120369331D01*
X127495025Y-120473421D01*
X127498145Y-120536157D01*
X127524129Y-120567649D01*
X127573177Y-120578008D01*
X127645489Y-120577345D01*
X127724398Y-120575667D01*
X127859814Y-120581816D01*
X127953533Y-120597824D01*
X127983333Y-120617031D01*
X127958861Y-120657174D01*
X127891195Y-120752872D01*
X127788963Y-120892724D01*
X127660790Y-121065327D01*
X127515302Y-121259281D01*
X127361125Y-121463184D01*
X127206887Y-121665633D01*
X127061212Y-121855228D01*
X126932728Y-122020567D01*
X126830061Y-122150249D01*
X126761836Y-122232871D01*
X126754713Y-122240939D01*
X126708550Y-122247329D01*
X126697154Y-122234737D01*
X126673148Y-122179597D01*
X126627435Y-122060986D01*
X126565380Y-121893955D01*
X126492349Y-121693560D01*
X126413707Y-121474853D01*
X126334820Y-121252887D01*
X126261054Y-121042717D01*
X126197774Y-120859394D01*
X126150347Y-120717974D01*
X126124138Y-120633509D01*
X126120666Y-120617407D01*
X126159872Y-120596749D01*
X126265126Y-120582049D01*
X126417884Y-120575743D01*
X126438166Y-120575667D01*
X126607951Y-120571933D01*
X126707427Y-120558957D01*
X126750697Y-120534073D01*
X126755666Y-120515680D01*
X126761464Y-120455471D01*
X126777516Y-120326653D01*
X126801815Y-120144389D01*
X126832350Y-119923844D01*
X126858041Y-119743097D01*
X126933955Y-119209654D01*
X126997673Y-118751150D01*
X127049018Y-118368995D01*
X127087810Y-118064599D01*
X127113870Y-117839374D01*
X127127020Y-117694729D01*
X127127080Y-117632077D01*
X127125938Y-117629828D01*
X127083915Y-117641773D01*
X126974263Y-117685196D01*
X126806228Y-117756097D01*
X126589056Y-117850477D01*
X126331994Y-117964336D01*
X126044288Y-118093676D01*
X125861638Y-118176665D01*
X125470668Y-118353295D01*
X125154062Y-118492557D01*
X124910481Y-118594997D01*
X124738586Y-118661160D01*
X124637037Y-118691593D01*
X124604631Y-118688686D01*
X124612374Y-118631421D01*
X124642222Y-118508336D01*
X124690176Y-118334152D01*
X124752238Y-118123593D01*
X124801413Y-117964103D01*
X124887251Y-117689795D01*
X124978587Y-117396703D01*
X125066131Y-117114709D01*
X125140597Y-116873690D01*
X125160790Y-116808000D01*
X125231584Y-116577586D01*
X125317121Y-116299617D01*
X125407138Y-116007428D01*
X125491369Y-115734353D01*
X125499711Y-115707334D01*
X125585208Y-115429558D01*
X125683834Y-115107747D01*
X125784266Y-114778923D01*
X125875179Y-114480110D01*
X125888153Y-114437334D01*
X125962258Y-114193654D01*
X126034049Y-113958970D01*
X126097174Y-113753947D01*
X126145282Y-113599249D01*
X126161368Y-113548334D01*
X126198566Y-113430228D01*
X126254734Y-113249956D01*
X126324045Y-113026304D01*
X126400675Y-112778059D01*
X126459995Y-112585250D01*
X126684320Y-111855000D01*
X127545493Y-111855000D01*
X127805136Y-111855921D01*
G36*
X127561203Y-107015530D02*
G01*
X127592411Y-107063258D01*
X127664643Y-107183205D01*
X127777092Y-107373980D01*
X127928948Y-107634192D01*
X128119404Y-107962449D01*
X128347651Y-108357361D01*
X128612883Y-108817535D01*
X128914290Y-109341581D01*
X129105701Y-109674834D01*
X129342425Y-110086850D01*
X129599253Y-110533307D01*
X129868492Y-111000865D01*
X130142448Y-111476190D01*
X130413428Y-111945944D01*
X130673738Y-112396791D01*
X130915683Y-112815394D01*
X131131572Y-113188415D01*
X131313710Y-113502520D01*
X131328023Y-113527167D01*
X131455839Y-113747660D01*
X131614555Y-114022129D01*
X131792937Y-114331108D01*
X131979754Y-114655135D01*
X132163772Y-114974744D01*
X132268574Y-115157000D01*
X132417418Y-115415836D01*
X132600328Y-115733658D01*
X132809043Y-116096127D01*
X133035303Y-116488903D01*
X133270846Y-116897646D01*
X133507411Y-117308016D01*
X133736738Y-117705673D01*
X133804996Y-117824000D01*
X134023924Y-118203485D01*
X134247212Y-118590530D01*
X134467597Y-118972547D01*
X134677820Y-119336949D01*
X134870617Y-119671147D01*
X135038727Y-119962554D01*
X135174887Y-120198582D01*
X135221471Y-120279334D01*
X135474185Y-120717373D01*
X135736248Y-121171552D01*
X135997763Y-121624723D01*
X136248834Y-122059734D01*
X136479562Y-122459438D01*
X136680050Y-122806684D01*
X136718777Y-122873748D01*
X136814452Y-123042852D01*
X136891919Y-123186297D01*
X136942533Y-123287641D01*
X136958000Y-123328831D01*
X136915874Y-123333735D01*
X136790328Y-123338350D01*
X136582606Y-123342671D01*
X136293954Y-123346692D01*
X135925617Y-123350408D01*
X135478840Y-123353815D01*
X134954870Y-123356905D01*
X134354950Y-123359675D01*
X133680328Y-123362118D01*
X132932247Y-123364229D01*
X132111953Y-123366003D01*
X131220692Y-123367434D01*
X130259708Y-123368517D01*
X129230248Y-123369247D01*
X128133557Y-123369618D01*
X127538833Y-123369667D01*
X126594980Y-123369502D01*
X125683344Y-123369014D01*
X124807227Y-123368218D01*
X123969932Y-123367127D01*
X123174759Y-123365752D01*
X122425012Y-123364108D01*
X121723992Y-123362208D01*
X121075002Y-123360064D01*
X120481343Y-123357689D01*
X119946317Y-123355097D01*
X119473226Y-123352301D01*
X119065373Y-123349314D01*
X118726058Y-123346148D01*
X118458586Y-123342817D01*
X118266257Y-123339334D01*
X118152373Y-123335713D01*
X118119666Y-123332405D01*
X118140034Y-123287706D01*
X118197692Y-123179037D01*
X118287473Y-123015678D01*
X118404210Y-122806913D01*
X118498875Y-122639558D01*
X119323057Y-122639558D01*
X119324317Y-122647009D01*
X119367492Y-122649387D01*
X119491257Y-122651592D01*
X119691534Y-122653617D01*
X119964246Y-122655456D01*
X120305316Y-122657101D01*
X120710667Y-122658547D01*
X121176222Y-122659787D01*
X121697903Y-122660814D01*
X122271633Y-122661621D01*
X122893336Y-122662203D01*
X123558934Y-122662551D01*
X124264350Y-122662660D01*
X125005507Y-122662524D01*
X125778327Y-122662134D01*
X126578734Y-122661486D01*
X127402651Y-122660572D01*
X127559277Y-122660370D01*
X135779308Y-122649574D01*
X135696892Y-122512204D01*
X135627588Y-122394206D01*
X135542076Y-122245344D01*
X135495590Y-122163167D01*
X135425304Y-122039720D01*
X135326145Y-121867752D01*
X135212237Y-121671679D01*
X135115955Y-121507000D01*
X135002047Y-121311978D01*
X134892555Y-121123042D01*
X134800999Y-120963605D01*
X134747153Y-120868362D01*
X134701398Y-120787538D01*
X134618774Y-120643024D01*
X134504802Y-120444422D01*
X134365004Y-120201332D01*
X134204901Y-119923356D01*
X134030015Y-119620094D01*
X133846376Y-119302028D01*
X133633549Y-118933522D01*
X133389930Y-118511516D01*
X133126982Y-118055879D01*
X132856166Y-117586480D01*
X132588948Y-117123188D01*
X132336790Y-116685871D01*
X132163175Y-116384667D01*
X131958788Y-116030064D01*
X131755437Y-115677352D01*
X131559719Y-115337968D01*
X131378233Y-115023352D01*
X131217577Y-114744942D01*
X131084351Y-114514176D01*
X130985152Y-114342492D01*
X130966552Y-114310334D01*
X130865476Y-114135363D01*
X130730814Y-113901864D01*
X130571144Y-113624731D01*
X130395044Y-113318856D01*
X130211089Y-112999134D01*
X130027857Y-112680458D01*
X129991386Y-112617000D01*
X129793312Y-112272555D01*
X129565515Y-111876800D01*
X129320661Y-111451716D01*
X129071417Y-111019284D01*
X128830448Y-110601486D01*
X128610422Y-110220302D01*
X128576556Y-110161667D01*
X128396068Y-109849095D01*
X128223232Y-109549579D01*
X128064086Y-109273596D01*
X127924667Y-109031623D01*
X127811013Y-108834137D01*
X127729161Y-108691616D01*
X127692266Y-108627084D01*
X127620019Y-108503739D01*
X127564762Y-108416165D01*
X127538833Y-108383667D01*
X127512287Y-108417597D01*
X127457283Y-108506423D01*
X127387898Y-108627084D01*
X127293689Y-108793083D01*
X127194757Y-108963373D01*
X127136652Y-109061000D01*
X127084985Y-109148341D01*
X126998155Y-109297344D01*
X126883008Y-109496162D01*
X126746391Y-109732949D01*
X126595152Y-109995859D01*
X126439315Y-110267500D01*
X126277225Y-110550251D01*
X126120253Y-110823755D01*
X125975900Y-111074964D01*
X125851670Y-111290830D01*
X125755064Y-111458305D01*
X125696894Y-111558667D01*
X125587872Y-111746057D01*
X125459792Y-111966687D01*
X125320465Y-112207048D01*
X125177704Y-112453634D01*
X125039321Y-112692935D01*
X124913127Y-112911445D01*
X124806935Y-113095654D01*
X124728556Y-113232056D01*
X124688757Y-113301882D01*
X124644713Y-113379172D01*
X124561192Y-113524817D01*
X124441055Y-113733851D01*
X124287165Y-114001309D01*
X124102381Y-114322224D01*
X123889566Y-114691631D01*
X123651580Y-115104565D01*
X123391285Y-115556058D01*
X123111543Y-116041146D01*
X122815215Y-116554864D01*
X122505161Y-117092244D01*
X122205015Y-117612334D01*
X122125730Y-117749781D01*
X122009299Y-117951734D01*
X121860828Y-118209332D01*
X121685424Y-118513711D01*
X121488193Y-118856009D01*
X121274243Y-119227362D01*
X121048681Y-119618909D01*
X120816613Y-120021785D01*
X120690389Y-120240931D01*
X120465587Y-120631097D01*
X120251369Y-121002631D01*
X120051834Y-121348444D01*
X119871079Y-121661446D01*
X119713201Y-121934547D01*
X119582298Y-122160660D01*
X119482468Y-122332693D01*
X119417809Y-122443559D01*
X119395284Y-122481606D01*
X119343997Y-122577181D01*
X119323057Y-122639558D01*
X118498875Y-122639558D01*
X118542735Y-122562021D01*
X118697882Y-122290285D01*
X118761902Y-122178822D01*
X119144981Y-121513037D01*
X119488878Y-120915513D01*
X119796569Y-120381086D01*
X120071027Y-119904592D01*
X120315230Y-119480867D01*
X120532150Y-119104748D01*
X120724765Y-118771070D01*
X120886404Y-118491349D01*
X121044471Y-118217786D01*
X121228696Y-117898655D01*
X121423026Y-117561783D01*
X121611406Y-117234997D01*
X121753380Y-116988516D01*
X121908143Y-116719822D01*
X122092503Y-116399930D01*
X122293708Y-116050955D01*
X122499006Y-115695014D01*
X122695644Y-115354222D01*
X122797267Y-115178167D01*
X122991749Y-114841283D01*
X123209660Y-114463798D01*
X123436196Y-114071355D01*
X123656552Y-113689602D01*
X123855926Y-113344185D01*
X123933565Y-113209667D01*
X124116253Y-112893151D01*
X124316318Y-112546552D01*
X124520049Y-112193624D01*
X124713733Y-111858120D01*
X124883659Y-111563792D01*
X124935503Y-111474000D01*
X125189825Y-111033507D01*
X125408350Y-110654941D01*
X125597639Y-110326920D01*
X125764253Y-110038062D01*
X125914753Y-109776985D01*
X126055699Y-109532308D01*
X126193653Y-109292647D01*
X126335176Y-109046620D01*
X126486828Y-108782847D01*
X126521610Y-108722334D01*
X126754612Y-108317278D01*
X126949226Y-107979884D01*
X127109033Y-107704276D01*
X127237608Y-107484581D01*
X127338532Y-107314923D01*
X127415380Y-107189429D01*
X127471732Y-107102225D01*
X127511166Y-107047436D01*
X127537258Y-107019187D01*
X127553588Y-107011605D01*
X127561203Y-107015530D01*
X127561203Y-107015530D01*
G37*
X127561203Y-107015530D02*
X127592411Y-107063258D01*
X127664643Y-107183205D01*
X127777092Y-107373980D01*
X127928948Y-107634192D01*
X128119404Y-107962449D01*
X128347651Y-108357361D01*
X128612883Y-108817535D01*
X128914290Y-109341581D01*
X129105701Y-109674834D01*
X129342425Y-110086850D01*
X129599253Y-110533307D01*
X129868492Y-111000865D01*
X130142448Y-111476190D01*
X130413428Y-111945944D01*
X130673738Y-112396791D01*
X130915683Y-112815394D01*
X131131572Y-113188415D01*
X131313710Y-113502520D01*
X131328023Y-113527167D01*
X131455839Y-113747660D01*
X131614555Y-114022129D01*
X131792937Y-114331108D01*
X131979754Y-114655135D01*
X132163772Y-114974744D01*
X132268574Y-115157000D01*
X132417418Y-115415836D01*
X132600328Y-115733658D01*
X132809043Y-116096127D01*
X133035303Y-116488903D01*
X133270846Y-116897646D01*
X133507411Y-117308016D01*
X133736738Y-117705673D01*
X133804996Y-117824000D01*
X134023924Y-118203485D01*
X134247212Y-118590530D01*
X134467597Y-118972547D01*
X134677820Y-119336949D01*
X134870617Y-119671147D01*
X135038727Y-119962554D01*
X135174887Y-120198582D01*
X135221471Y-120279334D01*
X135474185Y-120717373D01*
X135736248Y-121171552D01*
X135997763Y-121624723D01*
X136248834Y-122059734D01*
X136479562Y-122459438D01*
X136680050Y-122806684D01*
X136718777Y-122873748D01*
X136814452Y-123042852D01*
X136891919Y-123186297D01*
X136942533Y-123287641D01*
X136958000Y-123328831D01*
X136915874Y-123333735D01*
X136790328Y-123338350D01*
X136582606Y-123342671D01*
X136293954Y-123346692D01*
X135925617Y-123350408D01*
X135478840Y-123353815D01*
X134954870Y-123356905D01*
X134354950Y-123359675D01*
X133680328Y-123362118D01*
X132932247Y-123364229D01*
X132111953Y-123366003D01*
X131220692Y-123367434D01*
X130259708Y-123368517D01*
X129230248Y-123369247D01*
X128133557Y-123369618D01*
X127538833Y-123369667D01*
X126594980Y-123369502D01*
X125683344Y-123369014D01*
X124807227Y-123368218D01*
X123969932Y-123367127D01*
X123174759Y-123365752D01*
X122425012Y-123364108D01*
X121723992Y-123362208D01*
X121075002Y-123360064D01*
X120481343Y-123357689D01*
X119946317Y-123355097D01*
X119473226Y-123352301D01*
X119065373Y-123349314D01*
X118726058Y-123346148D01*
X118458586Y-123342817D01*
X118266257Y-123339334D01*
X118152373Y-123335713D01*
X118119666Y-123332405D01*
X118140034Y-123287706D01*
X118197692Y-123179037D01*
X118287473Y-123015678D01*
X118404210Y-122806913D01*
X118498875Y-122639558D01*
X119323057Y-122639558D01*
X119324317Y-122647009D01*
X119367492Y-122649387D01*
X119491257Y-122651592D01*
X119691534Y-122653617D01*
X119964246Y-122655456D01*
X120305316Y-122657101D01*
X120710667Y-122658547D01*
X121176222Y-122659787D01*
X121697903Y-122660814D01*
X122271633Y-122661621D01*
X122893336Y-122662203D01*
X123558934Y-122662551D01*
X124264350Y-122662660D01*
X125005507Y-122662524D01*
X125778327Y-122662134D01*
X126578734Y-122661486D01*
X127402651Y-122660572D01*
X127559277Y-122660370D01*
X135779308Y-122649574D01*
X135696892Y-122512204D01*
X135627588Y-122394206D01*
X135542076Y-122245344D01*
X135495590Y-122163167D01*
X135425304Y-122039720D01*
X135326145Y-121867752D01*
X135212237Y-121671679D01*
X135115955Y-121507000D01*
X135002047Y-121311978D01*
X134892555Y-121123042D01*
X134800999Y-120963605D01*
X134747153Y-120868362D01*
X134701398Y-120787538D01*
X134618774Y-120643024D01*
X134504802Y-120444422D01*
X134365004Y-120201332D01*
X134204901Y-119923356D01*
X134030015Y-119620094D01*
X133846376Y-119302028D01*
X133633549Y-118933522D01*
X133389930Y-118511516D01*
X133126982Y-118055879D01*
X132856166Y-117586480D01*
X132588948Y-117123188D01*
X132336790Y-116685871D01*
X132163175Y-116384667D01*
X131958788Y-116030064D01*
X131755437Y-115677352D01*
X131559719Y-115337968D01*
X131378233Y-115023352D01*
X131217577Y-114744942D01*
X131084351Y-114514176D01*
X130985152Y-114342492D01*
X130966552Y-114310334D01*
X130865476Y-114135363D01*
X130730814Y-113901864D01*
X130571144Y-113624731D01*
X130395044Y-113318856D01*
X130211089Y-112999134D01*
X130027857Y-112680458D01*
X129991386Y-112617000D01*
X129793312Y-112272555D01*
X129565515Y-111876800D01*
X129320661Y-111451716D01*
X129071417Y-111019284D01*
X128830448Y-110601486D01*
X128610422Y-110220302D01*
X128576556Y-110161667D01*
X128396068Y-109849095D01*
X128223232Y-109549579D01*
X128064086Y-109273596D01*
X127924667Y-109031623D01*
X127811013Y-108834137D01*
X127729161Y-108691616D01*
X127692266Y-108627084D01*
X127620019Y-108503739D01*
X127564762Y-108416165D01*
X127538833Y-108383667D01*
X127512287Y-108417597D01*
X127457283Y-108506423D01*
X127387898Y-108627084D01*
X127293689Y-108793083D01*
X127194757Y-108963373D01*
X127136652Y-109061000D01*
X127084985Y-109148341D01*
X126998155Y-109297344D01*
X126883008Y-109496162D01*
X126746391Y-109732949D01*
X126595152Y-109995859D01*
X126439315Y-110267500D01*
X126277225Y-110550251D01*
X126120253Y-110823755D01*
X125975900Y-111074964D01*
X125851670Y-111290830D01*
X125755064Y-111458305D01*
X125696894Y-111558667D01*
X125587872Y-111746057D01*
X125459792Y-111966687D01*
X125320465Y-112207048D01*
X125177704Y-112453634D01*
X125039321Y-112692935D01*
X124913127Y-112911445D01*
X124806935Y-113095654D01*
X124728556Y-113232056D01*
X124688757Y-113301882D01*
X124644713Y-113379172D01*
X124561192Y-113524817D01*
X124441055Y-113733851D01*
X124287165Y-114001309D01*
X124102381Y-114322224D01*
X123889566Y-114691631D01*
X123651580Y-115104565D01*
X123391285Y-115556058D01*
X123111543Y-116041146D01*
X122815215Y-116554864D01*
X122505161Y-117092244D01*
X122205015Y-117612334D01*
X122125730Y-117749781D01*
X122009299Y-117951734D01*
X121860828Y-118209332D01*
X121685424Y-118513711D01*
X121488193Y-118856009D01*
X121274243Y-119227362D01*
X121048681Y-119618909D01*
X120816613Y-120021785D01*
X120690389Y-120240931D01*
X120465587Y-120631097D01*
X120251369Y-121002631D01*
X120051834Y-121348444D01*
X119871079Y-121661446D01*
X119713201Y-121934547D01*
X119582298Y-122160660D01*
X119482468Y-122332693D01*
X119417809Y-122443559D01*
X119395284Y-122481606D01*
X119343997Y-122577181D01*
X119323057Y-122639558D01*
X118498875Y-122639558D01*
X118542735Y-122562021D01*
X118697882Y-122290285D01*
X118761902Y-122178822D01*
X119144981Y-121513037D01*
X119488878Y-120915513D01*
X119796569Y-120381086D01*
X120071027Y-119904592D01*
X120315230Y-119480867D01*
X120532150Y-119104748D01*
X120724765Y-118771070D01*
X120886404Y-118491349D01*
X121044471Y-118217786D01*
X121228696Y-117898655D01*
X121423026Y-117561783D01*
X121611406Y-117234997D01*
X121753380Y-116988516D01*
X121908143Y-116719822D01*
X122092503Y-116399930D01*
X122293708Y-116050955D01*
X122499006Y-115695014D01*
X122695644Y-115354222D01*
X122797267Y-115178167D01*
X122991749Y-114841283D01*
X123209660Y-114463798D01*
X123436196Y-114071355D01*
X123656552Y-113689602D01*
X123855926Y-113344185D01*
X123933565Y-113209667D01*
X124116253Y-112893151D01*
X124316318Y-112546552D01*
X124520049Y-112193624D01*
X124713733Y-111858120D01*
X124883659Y-111563792D01*
X124935503Y-111474000D01*
X125189825Y-111033507D01*
X125408350Y-110654941D01*
X125597639Y-110326920D01*
X125764253Y-110038062D01*
X125914753Y-109776985D01*
X126055699Y-109532308D01*
X126193653Y-109292647D01*
X126335176Y-109046620D01*
X126486828Y-108782847D01*
X126521610Y-108722334D01*
X126754612Y-108317278D01*
X126949226Y-107979884D01*
X127109033Y-107704276D01*
X127237608Y-107484581D01*
X127338532Y-107314923D01*
X127415380Y-107189429D01*
X127471732Y-107102225D01*
X127511166Y-107047436D01*
X127537258Y-107019187D01*
X127553588Y-107011605D01*
X127561203Y-107015530D01*
G36*
X127538257Y-106118826D02*
G01*
X127540133Y-106118834D01*
X127602546Y-106151123D01*
X127686988Y-106251362D01*
X127797589Y-106424603D01*
X127816866Y-106457500D01*
X127880855Y-106567989D01*
X127981405Y-106742012D01*
X128112839Y-106969725D01*
X128269480Y-107241284D01*
X128445650Y-107546846D01*
X128635672Y-107876565D01*
X128833867Y-108220599D01*
X128915593Y-108362500D01*
X129154983Y-108778028D01*
X129424387Y-109245378D01*
X129711422Y-109743086D01*
X130003705Y-110249687D01*
X130288851Y-110743718D01*
X130554479Y-111203713D01*
X130735101Y-111516334D01*
X130922177Y-111840117D01*
X131128015Y-112196526D01*
X131348248Y-112577991D01*
X131578513Y-112976943D01*
X131814445Y-113385812D01*
X132051679Y-113797030D01*
X132285850Y-114203026D01*
X132512593Y-114596233D01*
X132727543Y-114969080D01*
X132926337Y-115313999D01*
X133104608Y-115623420D01*
X133257992Y-115889774D01*
X133382125Y-116105492D01*
X133472641Y-116263004D01*
X133525088Y-116354588D01*
X133607727Y-116499069D01*
X133726383Y-116705719D01*
X133874905Y-116963888D01*
X134047144Y-117262923D01*
X134236950Y-117592172D01*
X134438173Y-117940983D01*
X134644663Y-118298706D01*
X134850270Y-118654687D01*
X135048844Y-118998275D01*
X135234235Y-119318819D01*
X135400293Y-119605665D01*
X135540868Y-119848163D01*
X135649811Y-120035661D01*
X135705529Y-120131167D01*
X135859258Y-120394771D01*
X136035169Y-120697905D01*
X136213550Y-121006524D01*
X136374693Y-121286581D01*
X136403976Y-121337667D01*
X136534418Y-121565127D01*
X136694483Y-121843803D01*
X136871462Y-122151590D01*
X137052642Y-122466382D01*
X137225310Y-122766074D01*
X137258943Y-122824404D01*
X137400691Y-123073005D01*
X137526995Y-123299889D01*
X137631934Y-123493979D01*
X137709590Y-123644199D01*
X137754041Y-123739472D01*
X137762333Y-123766320D01*
X137757881Y-123773758D01*
X137742454Y-123780645D01*
X137712944Y-123787002D01*
X137666245Y-123792851D01*
X137599249Y-123798212D01*
X137508849Y-123803107D01*
X137391939Y-123807556D01*
X137245412Y-123811580D01*
X137066159Y-123815200D01*
X136851074Y-123818438D01*
X136597051Y-123821314D01*
X136300982Y-123823849D01*
X135959759Y-123826064D01*
X135570276Y-123827980D01*
X135129427Y-123829618D01*
X134634103Y-123831000D01*
X134081197Y-123832145D01*
X133467603Y-123833076D01*
X132790214Y-123833812D01*
X132045922Y-123834376D01*
X131231621Y-123834787D01*
X130344203Y-123835067D01*
X129380561Y-123835237D01*
X128337589Y-123835319D01*
X127538833Y-123835334D01*
X126437040Y-123835303D01*
X125416807Y-123835199D01*
X124475026Y-123835000D01*
X123608590Y-123834685D01*
X122814393Y-123834233D01*
X122089328Y-123833622D01*
X121430286Y-123832833D01*
X120834162Y-123831844D01*
X120297848Y-123830634D01*
X119818237Y-123829182D01*
X119392222Y-123827467D01*
X119016696Y-123825469D01*
X118688552Y-123823165D01*
X118404683Y-123820536D01*
X118161981Y-123817560D01*
X117957340Y-123814217D01*
X117787653Y-123810484D01*
X117649812Y-123806342D01*
X117540710Y-123801769D01*
X117457241Y-123796745D01*
X117396298Y-123791248D01*
X117354772Y-123785258D01*
X117329558Y-123778753D01*
X117317548Y-123771712D01*
X117315333Y-123766320D01*
X117321193Y-123750667D01*
X117393094Y-123750667D01*
X137674811Y-123750667D01*
X137595592Y-123613084D01*
X137549033Y-123532386D01*
X137468581Y-123393115D01*
X137362739Y-123209985D01*
X137240011Y-122997707D01*
X137124616Y-122798167D01*
X136977870Y-122543908D01*
X136825268Y-122278574D01*
X136680104Y-122025342D01*
X136555673Y-121807387D01*
X136493276Y-121697500D01*
X136390420Y-121516707D01*
X136257855Y-121285097D01*
X136108433Y-121025047D01*
X135955004Y-120758933D01*
X135848996Y-120575667D01*
X135715579Y-120345135D01*
X135590962Y-120129338D01*
X135483682Y-119943094D01*
X135402275Y-119801221D01*
X135356756Y-119721178D01*
X135274222Y-119578843D01*
X135183297Y-119428483D01*
X135167834Y-119403678D01*
X135086250Y-119268870D01*
X134993175Y-119108301D01*
X134949532Y-119030500D01*
X134899907Y-118942402D01*
X134810161Y-118785035D01*
X134682600Y-118562403D01*
X134519529Y-118278507D01*
X134323254Y-117937349D01*
X134096079Y-117542932D01*
X133840310Y-117099257D01*
X133558253Y-116610326D01*
X133252211Y-116080142D01*
X132924492Y-115512706D01*
X132577400Y-114912021D01*
X132511016Y-114797167D01*
X132358418Y-114532956D01*
X132214889Y-114284062D01*
X132087466Y-114062718D01*
X131983185Y-113881156D01*
X131909082Y-113751608D01*
X131877857Y-113696500D01*
X131821612Y-113597514D01*
X131733633Y-113444374D01*
X131624859Y-113256052D01*
X131506230Y-113051520D01*
X131475106Y-112998000D01*
X131342583Y-112769840D01*
X131184198Y-112496508D01*
X131016287Y-112206233D01*
X130855186Y-111927245D01*
X130789128Y-111812667D01*
X130658302Y-111585702D01*
X130496559Y-111305255D01*
X130315341Y-110991155D01*
X130126090Y-110663231D01*
X129940246Y-110341311D01*
X129836507Y-110161667D01*
X129677777Y-109886809D01*
X129486216Y-109555070D01*
X129271320Y-109182894D01*
X129042584Y-108786728D01*
X128809503Y-108383017D01*
X128581572Y-107988206D01*
X128406633Y-107685167D01*
X128220594Y-107363053D01*
X128047992Y-107064515D01*
X127893352Y-106797355D01*
X127761198Y-106569374D01*
X127656052Y-106388375D01*
X127582440Y-106262159D01*
X127544885Y-106198527D01*
X127541011Y-106192382D01*
X127517731Y-106223177D01*
X127460305Y-106315422D01*
X127376128Y-106456789D01*
X127272592Y-106634953D01*
X127210898Y-106742715D01*
X127065673Y-106997005D01*
X126903136Y-107280539D01*
X126742625Y-107559641D01*
X126603477Y-107800633D01*
X126596797Y-107812167D01*
X126515346Y-107952930D01*
X126397265Y-108157228D01*
X126248220Y-108415247D01*
X126073877Y-108717176D01*
X125879899Y-109053202D01*
X125671953Y-109413514D01*
X125455703Y-109788298D01*
X125252529Y-110140500D01*
X125025647Y-110533838D01*
X124795226Y-110933307D01*
X124568032Y-111327173D01*
X124350833Y-111703707D01*
X124150397Y-112051175D01*
X123973490Y-112357845D01*
X123826881Y-112611986D01*
X123738509Y-112765167D01*
X123596973Y-113010536D01*
X123464782Y-113239784D01*
X123349552Y-113439697D01*
X123258900Y-113597059D01*
X123200441Y-113698657D01*
X123189529Y-113717667D01*
X123147045Y-113791556D01*
X123068386Y-113928142D01*
X122959687Y-114116785D01*
X122827078Y-114346845D01*
X122676694Y-114607679D01*
X122514668Y-114888647D01*
X122469766Y-114966500D01*
X122277163Y-115300513D01*
X122068842Y-115661911D01*
X121856905Y-116029695D01*
X121653449Y-116382867D01*
X121470575Y-116700426D01*
X121347736Y-116913834D01*
X121200859Y-117168585D01*
X121061143Y-117410006D01*
X120936466Y-117624552D01*
X120834709Y-117798678D01*
X120763750Y-117918838D01*
X120744391Y-117951000D01*
X120697700Y-118029746D01*
X120614270Y-118172753D01*
X120499425Y-118370806D01*
X120358490Y-118614688D01*
X120196790Y-118895182D01*
X120019648Y-119203071D01*
X119832390Y-119529140D01*
X119790594Y-119602000D01*
X119564823Y-119995405D01*
X119331191Y-120402069D01*
X119093983Y-120814564D01*
X118857487Y-121225461D01*
X118625990Y-121627328D01*
X118403778Y-122012738D01*
X118195140Y-122374260D01*
X118004361Y-122704464D01*
X117835728Y-122995922D01*
X117693529Y-123241203D01*
X117582051Y-123432879D01*
X117505580Y-123563519D01*
X117476136Y-123613084D01*
X117393094Y-123750667D01*
X117321193Y-123750667D01*
X117335796Y-123711661D01*
X117393285Y-123594911D01*
X117481951Y-123426988D01*
X117595943Y-123218808D01*
X117729412Y-122981289D01*
X117831399Y-122803237D01*
X117982304Y-122541773D01*
X118130521Y-122284915D01*
X118281085Y-122023926D01*
X118439035Y-121750070D01*
X118609407Y-121454610D01*
X118797238Y-121128809D01*
X119007567Y-120763932D01*
X119245430Y-120351241D01*
X119515865Y-119882001D01*
X119799209Y-119390334D01*
X119989798Y-119059731D01*
X120214735Y-118669743D01*
X120465990Y-118234280D01*
X120735530Y-117767253D01*
X121015325Y-117282573D01*
X121297343Y-116794149D01*
X121573552Y-116315893D01*
X121835920Y-115861716D01*
X122076417Y-115445528D01*
X122287010Y-115081240D01*
X122365609Y-114945334D01*
X122509561Y-114696263D01*
X122681362Y-114398682D01*
X122866657Y-114077480D01*
X123051089Y-113757542D01*
X123220300Y-113463757D01*
X123220352Y-113463667D01*
X123399872Y-113151948D01*
X123604377Y-112797072D01*
X123816483Y-112429188D01*
X124018811Y-112078444D01*
X124172218Y-111812667D01*
X124541241Y-111173496D01*
X124906382Y-110540873D01*
X125261958Y-109924654D01*
X125602285Y-109334692D01*
X125921678Y-108780842D01*
X126214454Y-108272959D01*
X126474929Y-107820897D01*
X126650605Y-107515834D01*
X126855934Y-107159156D01*
X127023263Y-106868945D01*
X127156951Y-106638357D01*
X127261354Y-106460547D01*
X127340831Y-106328673D01*
X127399738Y-106235890D01*
X127442434Y-106175356D01*
X127473277Y-106140226D01*
X127496623Y-106123656D01*
X127516830Y-106118805D01*
X127538257Y-106118826D01*
X127538257Y-106118826D01*
G37*
X127538257Y-106118826D02*
X127540133Y-106118834D01*
X127602546Y-106151123D01*
X127686988Y-106251362D01*
X127797589Y-106424603D01*
X127816866Y-106457500D01*
X127880855Y-106567989D01*
X127981405Y-106742012D01*
X128112839Y-106969725D01*
X128269480Y-107241284D01*
X128445650Y-107546846D01*
X128635672Y-107876565D01*
X128833867Y-108220599D01*
X128915593Y-108362500D01*
X129154983Y-108778028D01*
X129424387Y-109245378D01*
X129711422Y-109743086D01*
X130003705Y-110249687D01*
X130288851Y-110743718D01*
X130554479Y-111203713D01*
X130735101Y-111516334D01*
X130922177Y-111840117D01*
X131128015Y-112196526D01*
X131348248Y-112577991D01*
X131578513Y-112976943D01*
X131814445Y-113385812D01*
X132051679Y-113797030D01*
X132285850Y-114203026D01*
X132512593Y-114596233D01*
X132727543Y-114969080D01*
X132926337Y-115313999D01*
X133104608Y-115623420D01*
X133257992Y-115889774D01*
X133382125Y-116105492D01*
X133472641Y-116263004D01*
X133525088Y-116354588D01*
X133607727Y-116499069D01*
X133726383Y-116705719D01*
X133874905Y-116963888D01*
X134047144Y-117262923D01*
X134236950Y-117592172D01*
X134438173Y-117940983D01*
X134644663Y-118298706D01*
X134850270Y-118654687D01*
X135048844Y-118998275D01*
X135234235Y-119318819D01*
X135400293Y-119605665D01*
X135540868Y-119848163D01*
X135649811Y-120035661D01*
X135705529Y-120131167D01*
X135859258Y-120394771D01*
X136035169Y-120697905D01*
X136213550Y-121006524D01*
X136374693Y-121286581D01*
X136403976Y-121337667D01*
X136534418Y-121565127D01*
X136694483Y-121843803D01*
X136871462Y-122151590D01*
X137052642Y-122466382D01*
X137225310Y-122766074D01*
X137258943Y-122824404D01*
X137400691Y-123073005D01*
X137526995Y-123299889D01*
X137631934Y-123493979D01*
X137709590Y-123644199D01*
X137754041Y-123739472D01*
X137762333Y-123766320D01*
X137757881Y-123773758D01*
X137742454Y-123780645D01*
X137712944Y-123787002D01*
X137666245Y-123792851D01*
X137599249Y-123798212D01*
X137508849Y-123803107D01*
X137391939Y-123807556D01*
X137245412Y-123811580D01*
X137066159Y-123815200D01*
X136851074Y-123818438D01*
X136597051Y-123821314D01*
X136300982Y-123823849D01*
X135959759Y-123826064D01*
X135570276Y-123827980D01*
X135129427Y-123829618D01*
X134634103Y-123831000D01*
X134081197Y-123832145D01*
X133467603Y-123833076D01*
X132790214Y-123833812D01*
X132045922Y-123834376D01*
X131231621Y-123834787D01*
X130344203Y-123835067D01*
X129380561Y-123835237D01*
X128337589Y-123835319D01*
X127538833Y-123835334D01*
X126437040Y-123835303D01*
X125416807Y-123835199D01*
X124475026Y-123835000D01*
X123608590Y-123834685D01*
X122814393Y-123834233D01*
X122089328Y-123833622D01*
X121430286Y-123832833D01*
X120834162Y-123831844D01*
X120297848Y-123830634D01*
X119818237Y-123829182D01*
X119392222Y-123827467D01*
X119016696Y-123825469D01*
X118688552Y-123823165D01*
X118404683Y-123820536D01*
X118161981Y-123817560D01*
X117957340Y-123814217D01*
X117787653Y-123810484D01*
X117649812Y-123806342D01*
X117540710Y-123801769D01*
X117457241Y-123796745D01*
X117396298Y-123791248D01*
X117354772Y-123785258D01*
X117329558Y-123778753D01*
X117317548Y-123771712D01*
X117315333Y-123766320D01*
X117321193Y-123750667D01*
X117393094Y-123750667D01*
X137674811Y-123750667D01*
X137595592Y-123613084D01*
X137549033Y-123532386D01*
X137468581Y-123393115D01*
X137362739Y-123209985D01*
X137240011Y-122997707D01*
X137124616Y-122798167D01*
X136977870Y-122543908D01*
X136825268Y-122278574D01*
X136680104Y-122025342D01*
X136555673Y-121807387D01*
X136493276Y-121697500D01*
X136390420Y-121516707D01*
X136257855Y-121285097D01*
X136108433Y-121025047D01*
X135955004Y-120758933D01*
X135848996Y-120575667D01*
X135715579Y-120345135D01*
X135590962Y-120129338D01*
X135483682Y-119943094D01*
X135402275Y-119801221D01*
X135356756Y-119721178D01*
X135274222Y-119578843D01*
X135183297Y-119428483D01*
X135167834Y-119403678D01*
X135086250Y-119268870D01*
X134993175Y-119108301D01*
X134949532Y-119030500D01*
X134899907Y-118942402D01*
X134810161Y-118785035D01*
X134682600Y-118562403D01*
X134519529Y-118278507D01*
X134323254Y-117937349D01*
X134096079Y-117542932D01*
X133840310Y-117099257D01*
X133558253Y-116610326D01*
X133252211Y-116080142D01*
X132924492Y-115512706D01*
X132577400Y-114912021D01*
X132511016Y-114797167D01*
X132358418Y-114532956D01*
X132214889Y-114284062D01*
X132087466Y-114062718D01*
X131983185Y-113881156D01*
X131909082Y-113751608D01*
X131877857Y-113696500D01*
X131821612Y-113597514D01*
X131733633Y-113444374D01*
X131624859Y-113256052D01*
X131506230Y-113051520D01*
X131475106Y-112998000D01*
X131342583Y-112769840D01*
X131184198Y-112496508D01*
X131016287Y-112206233D01*
X130855186Y-111927245D01*
X130789128Y-111812667D01*
X130658302Y-111585702D01*
X130496559Y-111305255D01*
X130315341Y-110991155D01*
X130126090Y-110663231D01*
X129940246Y-110341311D01*
X129836507Y-110161667D01*
X129677777Y-109886809D01*
X129486216Y-109555070D01*
X129271320Y-109182894D01*
X129042584Y-108786728D01*
X128809503Y-108383017D01*
X128581572Y-107988206D01*
X128406633Y-107685167D01*
X128220594Y-107363053D01*
X128047992Y-107064515D01*
X127893352Y-106797355D01*
X127761198Y-106569374D01*
X127656052Y-106388375D01*
X127582440Y-106262159D01*
X127544885Y-106198527D01*
X127541011Y-106192382D01*
X127517731Y-106223177D01*
X127460305Y-106315422D01*
X127376128Y-106456789D01*
X127272592Y-106634953D01*
X127210898Y-106742715D01*
X127065673Y-106997005D01*
X126903136Y-107280539D01*
X126742625Y-107559641D01*
X126603477Y-107800633D01*
X126596797Y-107812167D01*
X126515346Y-107952930D01*
X126397265Y-108157228D01*
X126248220Y-108415247D01*
X126073877Y-108717176D01*
X125879899Y-109053202D01*
X125671953Y-109413514D01*
X125455703Y-109788298D01*
X125252529Y-110140500D01*
X125025647Y-110533838D01*
X124795226Y-110933307D01*
X124568032Y-111327173D01*
X124350833Y-111703707D01*
X124150397Y-112051175D01*
X123973490Y-112357845D01*
X123826881Y-112611986D01*
X123738509Y-112765167D01*
X123596973Y-113010536D01*
X123464782Y-113239784D01*
X123349552Y-113439697D01*
X123258900Y-113597059D01*
X123200441Y-113698657D01*
X123189529Y-113717667D01*
X123147045Y-113791556D01*
X123068386Y-113928142D01*
X122959687Y-114116785D01*
X122827078Y-114346845D01*
X122676694Y-114607679D01*
X122514668Y-114888647D01*
X122469766Y-114966500D01*
X122277163Y-115300513D01*
X122068842Y-115661911D01*
X121856905Y-116029695D01*
X121653449Y-116382867D01*
X121470575Y-116700426D01*
X121347736Y-116913834D01*
X121200859Y-117168585D01*
X121061143Y-117410006D01*
X120936466Y-117624552D01*
X120834709Y-117798678D01*
X120763750Y-117918838D01*
X120744391Y-117951000D01*
X120697700Y-118029746D01*
X120614270Y-118172753D01*
X120499425Y-118370806D01*
X120358490Y-118614688D01*
X120196790Y-118895182D01*
X120019648Y-119203071D01*
X119832390Y-119529140D01*
X119790594Y-119602000D01*
X119564823Y-119995405D01*
X119331191Y-120402069D01*
X119093983Y-120814564D01*
X118857487Y-121225461D01*
X118625990Y-121627328D01*
X118403778Y-122012738D01*
X118195140Y-122374260D01*
X118004361Y-122704464D01*
X117835728Y-122995922D01*
X117693529Y-123241203D01*
X117582051Y-123432879D01*
X117505580Y-123563519D01*
X117476136Y-123613084D01*
X117393094Y-123750667D01*
X117321193Y-123750667D01*
X117335796Y-123711661D01*
X117393285Y-123594911D01*
X117481951Y-123426988D01*
X117595943Y-123218808D01*
X117729412Y-122981289D01*
X117831399Y-122803237D01*
X117982304Y-122541773D01*
X118130521Y-122284915D01*
X118281085Y-122023926D01*
X118439035Y-121750070D01*
X118609407Y-121454610D01*
X118797238Y-121128809D01*
X119007567Y-120763932D01*
X119245430Y-120351241D01*
X119515865Y-119882001D01*
X119799209Y-119390334D01*
X119989798Y-119059731D01*
X120214735Y-118669743D01*
X120465990Y-118234280D01*
X120735530Y-117767253D01*
X121015325Y-117282573D01*
X121297343Y-116794149D01*
X121573552Y-116315893D01*
X121835920Y-115861716D01*
X122076417Y-115445528D01*
X122287010Y-115081240D01*
X122365609Y-114945334D01*
X122509561Y-114696263D01*
X122681362Y-114398682D01*
X122866657Y-114077480D01*
X123051089Y-113757542D01*
X123220300Y-113463757D01*
X123220352Y-113463667D01*
X123399872Y-113151948D01*
X123604377Y-112797072D01*
X123816483Y-112429188D01*
X124018811Y-112078444D01*
X124172218Y-111812667D01*
X124541241Y-111173496D01*
X124906382Y-110540873D01*
X125261958Y-109924654D01*
X125602285Y-109334692D01*
X125921678Y-108780842D01*
X126214454Y-108272959D01*
X126474929Y-107820897D01*
X126650605Y-107515834D01*
X126855934Y-107159156D01*
X127023263Y-106868945D01*
X127156951Y-106638357D01*
X127261354Y-106460547D01*
X127340831Y-106328673D01*
X127399738Y-106235890D01*
X127442434Y-106175356D01*
X127473277Y-106140226D01*
X127496623Y-106123656D01*
X127516830Y-106118805D01*
X127538257Y-106118826D01*
D12*
X95078578Y-126355000D02*
X94561422Y-126355000D01*
X95078578Y-124935000D02*
X94561422Y-124935000D01*
X95078578Y-121935000D02*
X94561422Y-121935000D01*
X95078578Y-123355000D02*
X94561422Y-123355000D01*
X107148558Y-73562220D02*
X106631402Y-73562220D01*
X107148558Y-74982220D02*
X106631402Y-74982220D01*
X119230000Y-84033578D02*
X119230000Y-83516422D01*
X117810000Y-84033578D02*
X117810000Y-83516422D01*
X116840000Y-107096422D02*
X116840000Y-107613578D01*
X118260000Y-107096422D02*
X118260000Y-107613578D01*
X120310000Y-84033578D02*
X120310000Y-83516422D01*
X121730000Y-84033578D02*
X121730000Y-83516422D01*
X101058578Y-103785000D02*
X100541422Y-103785000D01*
X101058578Y-102365000D02*
X100541422Y-102365000D01*
X115260000Y-107096422D02*
X115260000Y-107613578D01*
X113840000Y-107096422D02*
X113840000Y-107613578D01*
X122810000Y-84033578D02*
X122810000Y-83516422D01*
X124230000Y-84033578D02*
X124230000Y-83516422D01*
X126730000Y-84033578D02*
X126730000Y-83516422D01*
X125310000Y-84033578D02*
X125310000Y-83516422D01*
X112510000Y-88683578D02*
X112510000Y-88166422D01*
X111090000Y-88683578D02*
X111090000Y-88166422D01*
X124266422Y-93315000D02*
X124783578Y-93315000D01*
X124266422Y-94735000D02*
X124783578Y-94735000D01*
X114090000Y-88683578D02*
X114090000Y-88166422D01*
X115510000Y-88683578D02*
X115510000Y-88166422D01*
X137090000Y-67028922D02*
X137090000Y-67546078D01*
X135670000Y-67028922D02*
X135670000Y-67546078D01*
X98720000Y-123776078D02*
X98720000Y-123258922D01*
X100140000Y-123776078D02*
X100140000Y-123258922D01*
X101058578Y-100215000D02*
X100541422Y-100215000D01*
X101058578Y-101635000D02*
X100541422Y-101635000D01*
X124783578Y-90315000D02*
X124266422Y-90315000D01*
X124783578Y-91735000D02*
X124266422Y-91735000D01*
X124266422Y-87815000D02*
X124783578Y-87815000D01*
X124266422Y-89235000D02*
X124783578Y-89235000D01*
D15*
X80625000Y-100780000D02*
X83400000Y-100780000D01*
X80625000Y-98630000D02*
X80625000Y-100780000D01*
X83400000Y-98630000D02*
X80625000Y-98630000D01*
X80575000Y-93528000D02*
X83350000Y-93528000D01*
X80575000Y-91378000D02*
X80575000Y-93528000D01*
X83350000Y-91378000D02*
X80575000Y-91378000D01*
X83400000Y-95049000D02*
X80625000Y-95049000D01*
X80625000Y-95049000D02*
X80625000Y-97199000D01*
X80625000Y-97199000D02*
X83400000Y-97199000D01*
X83400000Y-80646800D02*
X80625000Y-80646800D01*
X80625000Y-80646800D02*
X80625000Y-82796800D01*
X80625000Y-82796800D02*
X83400000Y-82796800D01*
X83400000Y-76938400D02*
X80625000Y-76938400D01*
X80625000Y-76938400D02*
X80625000Y-79088400D01*
X80625000Y-79088400D02*
X83400000Y-79088400D01*
X80625000Y-75380000D02*
X83400000Y-75380000D01*
X80625000Y-73230000D02*
X80625000Y-75380000D01*
X83400000Y-73230000D02*
X80625000Y-73230000D01*
D12*
X89136078Y-100415000D02*
X88618922Y-100415000D01*
X89136078Y-98995000D02*
X88618922Y-98995000D01*
X89086078Y-93163000D02*
X88568922Y-93163000D01*
X89086078Y-91743000D02*
X88568922Y-91743000D01*
X89136078Y-95414000D02*
X88618922Y-95414000D01*
X89136078Y-96834000D02*
X88618922Y-96834000D01*
X89136078Y-81011800D02*
X88618922Y-81011800D01*
X89136078Y-82431800D02*
X88618922Y-82431800D01*
X89136078Y-78723400D02*
X88618922Y-78723400D01*
X89136078Y-77303400D02*
X88618922Y-77303400D01*
X89136078Y-73595000D02*
X88618922Y-73595000D01*
X89136078Y-75015000D02*
X88618922Y-75015000D01*
X102305542Y-73595240D02*
X102822698Y-73595240D01*
X102305542Y-75015240D02*
X102822698Y-75015240D01*
X104653440Y-77605202D02*
X104653440Y-78122358D01*
X106073440Y-77605202D02*
X106073440Y-78122358D01*
X107333140Y-77635682D02*
X107333140Y-78152838D01*
X108753140Y-77635682D02*
X108753140Y-78152838D01*
D19*
X115083260Y-75085280D02*
X113083260Y-75085280D01*
X115083260Y-69085280D02*
X113083260Y-69085280D01*
X117083260Y-73085280D02*
X117083260Y-71085280D01*
X111083260Y-73085280D02*
X111083260Y-71085280D01*
D15*
X117883260Y-73285280D02*
X117883260Y-73285280D01*
X117883260Y-73085280D02*
X117883260Y-73085280D01*
X117883260Y-73085280D02*
G75*
G02X117883260Y-73285280I0J-100000D01*
G01*
X117883260Y-73285280D02*
G75*
G02X117883260Y-73085280I0J100000D01*
G01*
D19*
X120250000Y-100525000D02*
X120250000Y-100725000D01*
X118650000Y-100525000D02*
X118650000Y-100725000D01*
D15*
X118250000Y-99825000D02*
X118250000Y-99825000D01*
X118250000Y-100025000D02*
X118250000Y-100025000D01*
X118250000Y-100025000D02*
G75*
G03X118250000Y-99825000I0J100000D01*
G01*
X118250000Y-99825000D02*
G75*
G03X118250000Y-100025000I0J-100000D01*
G01*
D12*
X120366422Y-91735000D02*
X120883578Y-91735000D01*
X120366422Y-90315000D02*
X120883578Y-90315000D01*
D15*
X151180000Y-57210000D02*
X151180000Y-72450000D01*
X151180000Y-72450000D02*
X169580000Y-72450000D01*
X169580000Y-72450000D02*
X169580000Y-52030000D01*
X169580000Y-52030000D02*
X157820000Y-52030000D01*
X169540000Y-115960000D02*
X157780000Y-115960000D01*
X169540000Y-136380000D02*
X169540000Y-115960000D01*
X151140000Y-136380000D02*
X169540000Y-136380000D01*
X151140000Y-121140000D02*
X151140000Y-136380000D01*
D12*
X98980000Y-110318922D02*
X98980000Y-110836078D01*
X97560000Y-110318922D02*
X97560000Y-110836078D01*
X99840000Y-110333922D02*
X99840000Y-110851078D01*
X101260000Y-110333922D02*
X101260000Y-110851078D01*
X101030000Y-106470000D02*
X98630000Y-106470000D01*
X98630000Y-106470000D02*
X98630000Y-108070000D01*
X98630000Y-108070000D02*
X101030000Y-108070000D01*
D10*
X86022857Y-84152857D02*
X86480000Y-84152857D01*
X87422857Y-84067142D02*
X87508571Y-84095714D01*
X87537142Y-84124285D01*
X87565714Y-84181428D01*
X87565714Y-84267142D01*
X87537142Y-84324285D01*
X87508571Y-84352857D01*
X87451428Y-84381428D01*
X87222857Y-84381428D01*
X87222857Y-83781428D01*
X87422857Y-83781428D01*
X87480000Y-83810000D01*
X87508571Y-83838571D01*
X87537142Y-83895714D01*
X87537142Y-83952857D01*
X87508571Y-84010000D01*
X87480000Y-84038571D01*
X87422857Y-84067142D01*
X87222857Y-84067142D01*
X87908571Y-84381428D02*
X87851428Y-84352857D01*
X87822857Y-84324285D01*
X87794285Y-84267142D01*
X87794285Y-84095714D01*
X87822857Y-84038571D01*
X87851428Y-84010000D01*
X87908571Y-83981428D01*
X87994285Y-83981428D01*
X88051428Y-84010000D01*
X88080000Y-84038571D01*
X88108571Y-84095714D01*
X88108571Y-84267142D01*
X88080000Y-84324285D01*
X88051428Y-84352857D01*
X87994285Y-84381428D01*
X87908571Y-84381428D01*
X88451428Y-84381428D02*
X88394285Y-84352857D01*
X88365714Y-84324285D01*
X88337142Y-84267142D01*
X88337142Y-84095714D01*
X88365714Y-84038571D01*
X88394285Y-84010000D01*
X88451428Y-83981428D01*
X88537142Y-83981428D01*
X88594285Y-84010000D01*
X88622857Y-84038571D01*
X88651428Y-84095714D01*
X88651428Y-84267142D01*
X88622857Y-84324285D01*
X88594285Y-84352857D01*
X88537142Y-84381428D01*
X88451428Y-84381428D01*
X88822857Y-83981428D02*
X89051428Y-83981428D01*
X88908571Y-83781428D02*
X88908571Y-84295714D01*
X88937142Y-84352857D01*
X88994285Y-84381428D01*
X89051428Y-84381428D01*
X89365714Y-83781428D02*
X89422857Y-83781428D01*
X89480000Y-83810000D01*
X89508571Y-83838571D01*
X89537142Y-83895714D01*
X89565714Y-84010000D01*
X89565714Y-84152857D01*
X89537142Y-84267142D01*
X89508571Y-84324285D01*
X89480000Y-84352857D01*
X89422857Y-84381428D01*
X89365714Y-84381428D01*
X89308571Y-84352857D01*
X89280000Y-84324285D01*
X89251428Y-84267142D01*
X89222857Y-84152857D01*
X89222857Y-84010000D01*
X89251428Y-83895714D01*
X89280000Y-83838571D01*
X89308571Y-83810000D01*
X89365714Y-83781428D01*
X90280000Y-84152857D02*
X90737142Y-84152857D01*
X128990476Y-83028571D02*
X128657142Y-83028571D01*
X128657142Y-83552380D02*
X128657142Y-82552380D01*
X129133333Y-82552380D01*
X129514285Y-82552380D02*
X129514285Y-83361904D01*
X129561904Y-83457142D01*
X129609523Y-83504761D01*
X129704761Y-83552380D01*
X129895238Y-83552380D01*
X129990476Y-83504761D01*
X130038095Y-83457142D01*
X130085714Y-83361904D01*
X130085714Y-82552380D01*
X130514285Y-83504761D02*
X130657142Y-83552380D01*
X130895238Y-83552380D01*
X130990476Y-83504761D01*
X131038095Y-83457142D01*
X131085714Y-83361904D01*
X131085714Y-83266666D01*
X131038095Y-83171428D01*
X130990476Y-83123809D01*
X130895238Y-83076190D01*
X130704761Y-83028571D01*
X130609523Y-82980952D01*
X130561904Y-82933333D01*
X130514285Y-82838095D01*
X130514285Y-82742857D01*
X130561904Y-82647619D01*
X130609523Y-82600000D01*
X130704761Y-82552380D01*
X130942857Y-82552380D01*
X131085714Y-82600000D01*
X131514285Y-83028571D02*
X131847619Y-83028571D01*
X131990476Y-83552380D02*
X131514285Y-83552380D01*
X131514285Y-82552380D01*
X131990476Y-82552380D01*
X95880952Y-116628571D02*
X95547619Y-116628571D01*
X95547619Y-117152380D02*
X95547619Y-116152380D01*
X96023809Y-116152380D01*
X96880952Y-117152380D02*
X96404761Y-117152380D01*
X96404761Y-116152380D01*
X97071428Y-116152380D02*
X97642857Y-116152380D01*
X97357142Y-117152380D02*
X97357142Y-116152380D01*
X98500000Y-117152380D02*
X97928571Y-117152380D01*
X98214285Y-117152380D02*
X98214285Y-116152380D01*
X98119047Y-116295238D01*
X98023809Y-116390476D01*
X97928571Y-116438095D01*
D16*
X107959078Y-99375523D02*
X107959078Y-98105523D01*
X109289554Y-99254571D02*
X109229078Y-99315047D01*
X109047649Y-99375523D01*
X108926697Y-99375523D01*
X108745268Y-99315047D01*
X108624316Y-99194095D01*
X108563840Y-99073142D01*
X108503363Y-98831238D01*
X108503363Y-98649809D01*
X108563840Y-98407904D01*
X108624316Y-98286952D01*
X108745268Y-98166000D01*
X108926697Y-98105523D01*
X109047649Y-98105523D01*
X109229078Y-98166000D01*
X109289554Y-98226476D01*
X109773363Y-98226476D02*
X109833840Y-98166000D01*
X109954792Y-98105523D01*
X110257173Y-98105523D01*
X110378125Y-98166000D01*
X110438601Y-98226476D01*
X110499078Y-98347428D01*
X110499078Y-98468380D01*
X110438601Y-98649809D01*
X109712887Y-99375523D01*
X110499078Y-99375523D01*
D10*
X94653333Y-127652142D02*
X94605714Y-127699761D01*
X94462857Y-127747380D01*
X94367619Y-127747380D01*
X94224761Y-127699761D01*
X94129523Y-127604523D01*
X94081904Y-127509285D01*
X94034285Y-127318809D01*
X94034285Y-127175952D01*
X94081904Y-126985476D01*
X94129523Y-126890238D01*
X94224761Y-126795000D01*
X94367619Y-126747380D01*
X94462857Y-126747380D01*
X94605714Y-126795000D01*
X94653333Y-126842619D01*
X95605714Y-127747380D02*
X95034285Y-127747380D01*
X95320000Y-127747380D02*
X95320000Y-126747380D01*
X95224761Y-126890238D01*
X95129523Y-126985476D01*
X95034285Y-127033095D01*
X94653333Y-121357142D02*
X94605714Y-121404761D01*
X94462857Y-121452380D01*
X94367619Y-121452380D01*
X94224761Y-121404761D01*
X94129523Y-121309523D01*
X94081904Y-121214285D01*
X94034285Y-121023809D01*
X94034285Y-120880952D01*
X94081904Y-120690476D01*
X94129523Y-120595238D01*
X94224761Y-120500000D01*
X94367619Y-120452380D01*
X94462857Y-120452380D01*
X94605714Y-120500000D01*
X94653333Y-120547619D01*
X95034285Y-120547619D02*
X95081904Y-120500000D01*
X95177142Y-120452380D01*
X95415238Y-120452380D01*
X95510476Y-120500000D01*
X95558095Y-120547619D01*
X95605714Y-120642857D01*
X95605714Y-120738095D01*
X95558095Y-120880952D01*
X94986666Y-121452380D01*
X95605714Y-121452380D01*
X106723313Y-72884382D02*
X106675694Y-72932001D01*
X106532837Y-72979620D01*
X106437599Y-72979620D01*
X106294741Y-72932001D01*
X106199503Y-72836763D01*
X106151884Y-72741525D01*
X106104265Y-72551049D01*
X106104265Y-72408192D01*
X106151884Y-72217716D01*
X106199503Y-72122478D01*
X106294741Y-72027240D01*
X106437599Y-71979620D01*
X106532837Y-71979620D01*
X106675694Y-72027240D01*
X106723313Y-72074859D01*
X107056646Y-71979620D02*
X107675694Y-71979620D01*
X107342360Y-72360573D01*
X107485218Y-72360573D01*
X107580456Y-72408192D01*
X107628075Y-72455811D01*
X107675694Y-72551049D01*
X107675694Y-72789144D01*
X107628075Y-72884382D01*
X107580456Y-72932001D01*
X107485218Y-72979620D01*
X107199503Y-72979620D01*
X107104265Y-72932001D01*
X107056646Y-72884382D01*
X118411666Y-86555714D02*
X118373571Y-86593809D01*
X118259285Y-86631904D01*
X118183095Y-86631904D01*
X118068809Y-86593809D01*
X117992619Y-86517619D01*
X117954523Y-86441428D01*
X117916428Y-86289047D01*
X117916428Y-86174761D01*
X117954523Y-86022380D01*
X117992619Y-85946190D01*
X118068809Y-85870000D01*
X118183095Y-85831904D01*
X118259285Y-85831904D01*
X118373571Y-85870000D01*
X118411666Y-85908095D01*
X119135476Y-85831904D02*
X118754523Y-85831904D01*
X118716428Y-86212857D01*
X118754523Y-86174761D01*
X118830714Y-86136666D01*
X119021190Y-86136666D01*
X119097380Y-86174761D01*
X119135476Y-86212857D01*
X119173571Y-86289047D01*
X119173571Y-86479523D01*
X119135476Y-86555714D01*
X119097380Y-86593809D01*
X119021190Y-86631904D01*
X118830714Y-86631904D01*
X118754523Y-86593809D01*
X118716428Y-86555714D01*
X119557142Y-107521666D02*
X119604761Y-107569285D01*
X119652380Y-107712142D01*
X119652380Y-107807380D01*
X119604761Y-107950238D01*
X119509523Y-108045476D01*
X119414285Y-108093095D01*
X119223809Y-108140714D01*
X119080952Y-108140714D01*
X118890476Y-108093095D01*
X118795238Y-108045476D01*
X118700000Y-107950238D01*
X118652380Y-107807380D01*
X118652380Y-107712142D01*
X118700000Y-107569285D01*
X118747619Y-107521666D01*
X118652380Y-106664523D02*
X118652380Y-106855000D01*
X118700000Y-106950238D01*
X118747619Y-106997857D01*
X118890476Y-107093095D01*
X119080952Y-107140714D01*
X119461904Y-107140714D01*
X119557142Y-107093095D01*
X119604761Y-107045476D01*
X119652380Y-106950238D01*
X119652380Y-106759761D01*
X119604761Y-106664523D01*
X119557142Y-106616904D01*
X119461904Y-106569285D01*
X119223809Y-106569285D01*
X119128571Y-106616904D01*
X119080952Y-106664523D01*
X119033333Y-106759761D01*
X119033333Y-106950238D01*
X119080952Y-107045476D01*
X119128571Y-107093095D01*
X119223809Y-107140714D01*
X120836666Y-86555714D02*
X120798571Y-86593809D01*
X120684285Y-86631904D01*
X120608095Y-86631904D01*
X120493809Y-86593809D01*
X120417619Y-86517619D01*
X120379523Y-86441428D01*
X120341428Y-86289047D01*
X120341428Y-86174761D01*
X120379523Y-86022380D01*
X120417619Y-85946190D01*
X120493809Y-85870000D01*
X120608095Y-85831904D01*
X120684285Y-85831904D01*
X120798571Y-85870000D01*
X120836666Y-85908095D01*
X121103333Y-85831904D02*
X121636666Y-85831904D01*
X121293809Y-86631904D01*
X100633333Y-105082142D02*
X100585714Y-105129761D01*
X100442857Y-105177380D01*
X100347619Y-105177380D01*
X100204761Y-105129761D01*
X100109523Y-105034523D01*
X100061904Y-104939285D01*
X100014285Y-104748809D01*
X100014285Y-104605952D01*
X100061904Y-104415476D01*
X100109523Y-104320238D01*
X100204761Y-104225000D01*
X100347619Y-104177380D01*
X100442857Y-104177380D01*
X100585714Y-104225000D01*
X100633333Y-104272619D01*
X101204761Y-104605952D02*
X101109523Y-104558333D01*
X101061904Y-104510714D01*
X101014285Y-104415476D01*
X101014285Y-104367857D01*
X101061904Y-104272619D01*
X101109523Y-104225000D01*
X101204761Y-104177380D01*
X101395238Y-104177380D01*
X101490476Y-104225000D01*
X101538095Y-104272619D01*
X101585714Y-104367857D01*
X101585714Y-104415476D01*
X101538095Y-104510714D01*
X101490476Y-104558333D01*
X101395238Y-104605952D01*
X101204761Y-104605952D01*
X101109523Y-104653571D01*
X101061904Y-104701190D01*
X101014285Y-104796428D01*
X101014285Y-104986904D01*
X101061904Y-105082142D01*
X101109523Y-105129761D01*
X101204761Y-105177380D01*
X101395238Y-105177380D01*
X101490476Y-105129761D01*
X101538095Y-105082142D01*
X101585714Y-104986904D01*
X101585714Y-104796428D01*
X101538095Y-104701190D01*
X101490476Y-104653571D01*
X101395238Y-104605952D01*
X116557142Y-107521666D02*
X116604761Y-107569285D01*
X116652380Y-107712142D01*
X116652380Y-107807380D01*
X116604761Y-107950238D01*
X116509523Y-108045476D01*
X116414285Y-108093095D01*
X116223809Y-108140714D01*
X116080952Y-108140714D01*
X115890476Y-108093095D01*
X115795238Y-108045476D01*
X115700000Y-107950238D01*
X115652380Y-107807380D01*
X115652380Y-107712142D01*
X115700000Y-107569285D01*
X115747619Y-107521666D01*
X116652380Y-107045476D02*
X116652380Y-106855000D01*
X116604761Y-106759761D01*
X116557142Y-106712142D01*
X116414285Y-106616904D01*
X116223809Y-106569285D01*
X115842857Y-106569285D01*
X115747619Y-106616904D01*
X115700000Y-106664523D01*
X115652380Y-106759761D01*
X115652380Y-106950238D01*
X115700000Y-107045476D01*
X115747619Y-107093095D01*
X115842857Y-107140714D01*
X116080952Y-107140714D01*
X116176190Y-107093095D01*
X116223809Y-107045476D01*
X116271428Y-106950238D01*
X116271428Y-106759761D01*
X116223809Y-106664523D01*
X116176190Y-106616904D01*
X116080952Y-106569285D01*
X123030714Y-86555714D02*
X122992619Y-86593809D01*
X122878333Y-86631904D01*
X122802142Y-86631904D01*
X122687857Y-86593809D01*
X122611666Y-86517619D01*
X122573571Y-86441428D01*
X122535476Y-86289047D01*
X122535476Y-86174761D01*
X122573571Y-86022380D01*
X122611666Y-85946190D01*
X122687857Y-85870000D01*
X122802142Y-85831904D01*
X122878333Y-85831904D01*
X122992619Y-85870000D01*
X123030714Y-85908095D01*
X123792619Y-86631904D02*
X123335476Y-86631904D01*
X123564047Y-86631904D02*
X123564047Y-85831904D01*
X123487857Y-85946190D01*
X123411666Y-86022380D01*
X123335476Y-86060476D01*
X124287857Y-85831904D02*
X124364047Y-85831904D01*
X124440238Y-85870000D01*
X124478333Y-85908095D01*
X124516428Y-85984285D01*
X124554523Y-86136666D01*
X124554523Y-86327142D01*
X124516428Y-86479523D01*
X124478333Y-86555714D01*
X124440238Y-86593809D01*
X124364047Y-86631904D01*
X124287857Y-86631904D01*
X124211666Y-86593809D01*
X124173571Y-86555714D01*
X124135476Y-86479523D01*
X124097380Y-86327142D01*
X124097380Y-86136666D01*
X124135476Y-85984285D01*
X124173571Y-85908095D01*
X124211666Y-85870000D01*
X124287857Y-85831904D01*
X125515714Y-86555714D02*
X125477619Y-86593809D01*
X125363333Y-86631904D01*
X125287142Y-86631904D01*
X125172857Y-86593809D01*
X125096666Y-86517619D01*
X125058571Y-86441428D01*
X125020476Y-86289047D01*
X125020476Y-86174761D01*
X125058571Y-86022380D01*
X125096666Y-85946190D01*
X125172857Y-85870000D01*
X125287142Y-85831904D01*
X125363333Y-85831904D01*
X125477619Y-85870000D01*
X125515714Y-85908095D01*
X126277619Y-86631904D02*
X125820476Y-86631904D01*
X126049047Y-86631904D02*
X126049047Y-85831904D01*
X125972857Y-85946190D01*
X125896666Y-86022380D01*
X125820476Y-86060476D01*
X127039523Y-86631904D02*
X126582380Y-86631904D01*
X126810952Y-86631904D02*
X126810952Y-85831904D01*
X126734761Y-85946190D01*
X126658571Y-86022380D01*
X126582380Y-86060476D01*
X109225714Y-88695714D02*
X109187619Y-88733809D01*
X109073333Y-88771904D01*
X108997142Y-88771904D01*
X108882857Y-88733809D01*
X108806666Y-88657619D01*
X108768571Y-88581428D01*
X108730476Y-88429047D01*
X108730476Y-88314761D01*
X108768571Y-88162380D01*
X108806666Y-88086190D01*
X108882857Y-88010000D01*
X108997142Y-87971904D01*
X109073333Y-87971904D01*
X109187619Y-88010000D01*
X109225714Y-88048095D01*
X109987619Y-88771904D02*
X109530476Y-88771904D01*
X109759047Y-88771904D02*
X109759047Y-87971904D01*
X109682857Y-88086190D01*
X109606666Y-88162380D01*
X109530476Y-88200476D01*
X110292380Y-88048095D02*
X110330476Y-88010000D01*
X110406666Y-87971904D01*
X110597142Y-87971904D01*
X110673333Y-88010000D01*
X110711428Y-88048095D01*
X110749523Y-88124285D01*
X110749523Y-88200476D01*
X110711428Y-88314761D01*
X110254285Y-88771904D01*
X110749523Y-88771904D01*
X123927142Y-96167142D02*
X123879523Y-96214761D01*
X123736666Y-96262380D01*
X123641428Y-96262380D01*
X123498571Y-96214761D01*
X123403333Y-96119523D01*
X123355714Y-96024285D01*
X123308095Y-95833809D01*
X123308095Y-95690952D01*
X123355714Y-95500476D01*
X123403333Y-95405238D01*
X123498571Y-95310000D01*
X123641428Y-95262380D01*
X123736666Y-95262380D01*
X123879523Y-95310000D01*
X123927142Y-95357619D01*
X124879523Y-96262380D02*
X124308095Y-96262380D01*
X124593809Y-96262380D02*
X124593809Y-95262380D01*
X124498571Y-95405238D01*
X124403333Y-95500476D01*
X124308095Y-95548095D01*
X125212857Y-95262380D02*
X125831904Y-95262380D01*
X125498571Y-95643333D01*
X125641428Y-95643333D01*
X125736666Y-95690952D01*
X125784285Y-95738571D01*
X125831904Y-95833809D01*
X125831904Y-96071904D01*
X125784285Y-96167142D01*
X125736666Y-96214761D01*
X125641428Y-96262380D01*
X125355714Y-96262380D01*
X125260476Y-96214761D01*
X125212857Y-96167142D01*
X116295714Y-88765714D02*
X116257619Y-88803809D01*
X116143333Y-88841904D01*
X116067142Y-88841904D01*
X115952857Y-88803809D01*
X115876666Y-88727619D01*
X115838571Y-88651428D01*
X115800476Y-88499047D01*
X115800476Y-88384761D01*
X115838571Y-88232380D01*
X115876666Y-88156190D01*
X115952857Y-88080000D01*
X116067142Y-88041904D01*
X116143333Y-88041904D01*
X116257619Y-88080000D01*
X116295714Y-88118095D01*
X117057619Y-88841904D02*
X116600476Y-88841904D01*
X116829047Y-88841904D02*
X116829047Y-88041904D01*
X116752857Y-88156190D01*
X116676666Y-88232380D01*
X116600476Y-88270476D01*
X117743333Y-88308571D02*
X117743333Y-88841904D01*
X117552857Y-88003809D02*
X117362380Y-88575238D01*
X117857619Y-88575238D01*
X138387142Y-67930357D02*
X138434761Y-67977976D01*
X138482380Y-68120833D01*
X138482380Y-68216071D01*
X138434761Y-68358928D01*
X138339523Y-68454166D01*
X138244285Y-68501785D01*
X138053809Y-68549404D01*
X137910952Y-68549404D01*
X137720476Y-68501785D01*
X137625238Y-68454166D01*
X137530000Y-68358928D01*
X137482380Y-68216071D01*
X137482380Y-68120833D01*
X137530000Y-67977976D01*
X137577619Y-67930357D01*
X138482380Y-66977976D02*
X138482380Y-67549404D01*
X138482380Y-67263690D02*
X137482380Y-67263690D01*
X137625238Y-67358928D01*
X137720476Y-67454166D01*
X137768095Y-67549404D01*
X137482380Y-66120833D02*
X137482380Y-66311309D01*
X137530000Y-66406547D01*
X137577619Y-66454166D01*
X137720476Y-66549404D01*
X137910952Y-66597023D01*
X138291904Y-66597023D01*
X138387142Y-66549404D01*
X138434761Y-66501785D01*
X138482380Y-66406547D01*
X138482380Y-66216071D01*
X138434761Y-66120833D01*
X138387142Y-66073214D01*
X138291904Y-66025595D01*
X138053809Y-66025595D01*
X137958571Y-66073214D01*
X137910952Y-66120833D01*
X137863333Y-66216071D01*
X137863333Y-66406547D01*
X137910952Y-66501785D01*
X137958571Y-66549404D01*
X138053809Y-66597023D01*
X98232380Y-123684166D02*
X98232380Y-124160357D01*
X97232380Y-124160357D01*
X98232380Y-122827023D02*
X98232380Y-123398452D01*
X98232380Y-123112738D02*
X97232380Y-123112738D01*
X97375238Y-123207976D01*
X97470476Y-123303214D01*
X97518095Y-123398452D01*
X100633333Y-99652380D02*
X100157142Y-99652380D01*
X100157142Y-98652380D01*
X100919047Y-98747619D02*
X100966666Y-98700000D01*
X101061904Y-98652380D01*
X101300000Y-98652380D01*
X101395238Y-98700000D01*
X101442857Y-98747619D01*
X101490476Y-98842857D01*
X101490476Y-98938095D01*
X101442857Y-99080952D01*
X100871428Y-99652380D01*
X101490476Y-99652380D01*
X127003333Y-91512380D02*
X126527142Y-91512380D01*
X126527142Y-90512380D01*
X127241428Y-90512380D02*
X127860476Y-90512380D01*
X127527142Y-90893333D01*
X127670000Y-90893333D01*
X127765238Y-90940952D01*
X127812857Y-90988571D01*
X127860476Y-91083809D01*
X127860476Y-91321904D01*
X127812857Y-91417142D01*
X127765238Y-91464761D01*
X127670000Y-91512380D01*
X127384285Y-91512380D01*
X127289047Y-91464761D01*
X127241428Y-91417142D01*
X126953333Y-88912380D02*
X126477142Y-88912380D01*
X126477142Y-87912380D01*
X127715238Y-88245714D02*
X127715238Y-88912380D01*
X127477142Y-87864761D02*
X127239047Y-88579047D01*
X127858095Y-88579047D01*
X91702380Y-99886666D02*
X91226190Y-100220000D01*
X91702380Y-100458095D02*
X90702380Y-100458095D01*
X90702380Y-100077142D01*
X90750000Y-99981904D01*
X90797619Y-99934285D01*
X90892857Y-99886666D01*
X91035714Y-99886666D01*
X91130952Y-99934285D01*
X91178571Y-99981904D01*
X91226190Y-100077142D01*
X91226190Y-100458095D01*
X91702380Y-98934285D02*
X91702380Y-99505714D01*
X91702380Y-99220000D02*
X90702380Y-99220000D01*
X90845238Y-99315238D01*
X90940476Y-99410476D01*
X90988095Y-99505714D01*
X91822380Y-92586666D02*
X91346190Y-92920000D01*
X91822380Y-93158095D02*
X90822380Y-93158095D01*
X90822380Y-92777142D01*
X90870000Y-92681904D01*
X90917619Y-92634285D01*
X91012857Y-92586666D01*
X91155714Y-92586666D01*
X91250952Y-92634285D01*
X91298571Y-92681904D01*
X91346190Y-92777142D01*
X91346190Y-93158095D01*
X90917619Y-92205714D02*
X90870000Y-92158095D01*
X90822380Y-92062857D01*
X90822380Y-91824761D01*
X90870000Y-91729523D01*
X90917619Y-91681904D01*
X91012857Y-91634285D01*
X91108095Y-91634285D01*
X91250952Y-91681904D01*
X91822380Y-92253333D01*
X91822380Y-91634285D01*
X91822380Y-96336666D02*
X91346190Y-96670000D01*
X91822380Y-96908095D02*
X90822380Y-96908095D01*
X90822380Y-96527142D01*
X90870000Y-96431904D01*
X90917619Y-96384285D01*
X91012857Y-96336666D01*
X91155714Y-96336666D01*
X91250952Y-96384285D01*
X91298571Y-96431904D01*
X91346190Y-96527142D01*
X91346190Y-96908095D01*
X90822380Y-96003333D02*
X90822380Y-95384285D01*
X91203333Y-95717619D01*
X91203333Y-95574761D01*
X91250952Y-95479523D01*
X91298571Y-95431904D01*
X91393809Y-95384285D01*
X91631904Y-95384285D01*
X91727142Y-95431904D01*
X91774761Y-95479523D01*
X91822380Y-95574761D01*
X91822380Y-95860476D01*
X91774761Y-95955714D01*
X91727142Y-96003333D01*
X92126180Y-81946886D02*
X91649990Y-82280220D01*
X92126180Y-82518315D02*
X91126180Y-82518315D01*
X91126180Y-82137362D01*
X91173800Y-82042124D01*
X91221419Y-81994505D01*
X91316657Y-81946886D01*
X91459514Y-81946886D01*
X91554752Y-81994505D01*
X91602371Y-82042124D01*
X91649990Y-82137362D01*
X91649990Y-82518315D01*
X91459514Y-81089743D02*
X92126180Y-81089743D01*
X91078561Y-81327839D02*
X91792847Y-81565934D01*
X91792847Y-80946886D01*
X92088080Y-78274046D02*
X91611890Y-78607380D01*
X92088080Y-78845475D02*
X91088080Y-78845475D01*
X91088080Y-78464522D01*
X91135700Y-78369284D01*
X91183319Y-78321665D01*
X91278557Y-78274046D01*
X91421414Y-78274046D01*
X91516652Y-78321665D01*
X91564271Y-78369284D01*
X91611890Y-78464522D01*
X91611890Y-78845475D01*
X91088080Y-77369284D02*
X91088080Y-77845475D01*
X91564271Y-77893094D01*
X91516652Y-77845475D01*
X91469033Y-77750237D01*
X91469033Y-77512141D01*
X91516652Y-77416903D01*
X91564271Y-77369284D01*
X91659509Y-77321665D01*
X91897604Y-77321665D01*
X91992842Y-77369284D01*
X92040461Y-77416903D01*
X92088080Y-77512141D01*
X92088080Y-77750237D01*
X92040461Y-77845475D01*
X91992842Y-77893094D01*
X92047440Y-74395466D02*
X91571250Y-74728800D01*
X92047440Y-74966895D02*
X91047440Y-74966895D01*
X91047440Y-74585942D01*
X91095060Y-74490704D01*
X91142679Y-74443085D01*
X91237917Y-74395466D01*
X91380774Y-74395466D01*
X91476012Y-74443085D01*
X91523631Y-74490704D01*
X91571250Y-74585942D01*
X91571250Y-74966895D01*
X91047440Y-73538323D02*
X91047440Y-73728800D01*
X91095060Y-73824038D01*
X91142679Y-73871657D01*
X91285536Y-73966895D01*
X91476012Y-74014514D01*
X91856964Y-74014514D01*
X91952202Y-73966895D01*
X91999821Y-73919276D01*
X92047440Y-73824038D01*
X92047440Y-73633561D01*
X91999821Y-73538323D01*
X91952202Y-73490704D01*
X91856964Y-73443085D01*
X91618869Y-73443085D01*
X91523631Y-73490704D01*
X91476012Y-73538323D01*
X91428393Y-73633561D01*
X91428393Y-73824038D01*
X91476012Y-73919276D01*
X91523631Y-73966895D01*
X91618869Y-74014514D01*
X102397453Y-73107620D02*
X102064120Y-72631430D01*
X101826024Y-73107620D02*
X101826024Y-72107620D01*
X102206977Y-72107620D01*
X102302215Y-72155240D01*
X102349834Y-72202859D01*
X102397453Y-72298097D01*
X102397453Y-72440954D01*
X102349834Y-72536192D01*
X102302215Y-72583811D01*
X102206977Y-72631430D01*
X101826024Y-72631430D01*
X102730786Y-72107620D02*
X103397453Y-72107620D01*
X102968881Y-73107620D01*
X105176453Y-81143180D02*
X104843120Y-80666990D01*
X104605024Y-81143180D02*
X104605024Y-80143180D01*
X104985977Y-80143180D01*
X105081215Y-80190800D01*
X105128834Y-80238419D01*
X105176453Y-80333657D01*
X105176453Y-80476514D01*
X105128834Y-80571752D01*
X105081215Y-80619371D01*
X104985977Y-80666990D01*
X104605024Y-80666990D01*
X105747881Y-80571752D02*
X105652643Y-80524133D01*
X105605024Y-80476514D01*
X105557405Y-80381276D01*
X105557405Y-80333657D01*
X105605024Y-80238419D01*
X105652643Y-80190800D01*
X105747881Y-80143180D01*
X105938358Y-80143180D01*
X106033596Y-80190800D01*
X106081215Y-80238419D01*
X106128834Y-80333657D01*
X106128834Y-80381276D01*
X106081215Y-80476514D01*
X106033596Y-80524133D01*
X105938358Y-80571752D01*
X105747881Y-80571752D01*
X105652643Y-80619371D01*
X105605024Y-80666990D01*
X105557405Y-80762228D01*
X105557405Y-80952704D01*
X105605024Y-81047942D01*
X105652643Y-81095561D01*
X105747881Y-81143180D01*
X105938358Y-81143180D01*
X106033596Y-81095561D01*
X106081215Y-81047942D01*
X106128834Y-80952704D01*
X106128834Y-80762228D01*
X106081215Y-80666990D01*
X106033596Y-80619371D01*
X105938358Y-80571752D01*
X107876473Y-81143180D02*
X107543140Y-80666990D01*
X107305044Y-81143180D02*
X107305044Y-80143180D01*
X107685997Y-80143180D01*
X107781235Y-80190800D01*
X107828854Y-80238419D01*
X107876473Y-80333657D01*
X107876473Y-80476514D01*
X107828854Y-80571752D01*
X107781235Y-80619371D01*
X107685997Y-80666990D01*
X107305044Y-80666990D01*
X108352663Y-81143180D02*
X108543140Y-81143180D01*
X108638378Y-81095561D01*
X108685997Y-81047942D01*
X108781235Y-80905085D01*
X108828854Y-80714609D01*
X108828854Y-80333657D01*
X108781235Y-80238419D01*
X108733616Y-80190800D01*
X108638378Y-80143180D01*
X108447901Y-80143180D01*
X108352663Y-80190800D01*
X108305044Y-80238419D01*
X108257425Y-80333657D01*
X108257425Y-80571752D01*
X108305044Y-80666990D01*
X108352663Y-80714609D01*
X108447901Y-80762228D01*
X108638378Y-80762228D01*
X108733616Y-80714609D01*
X108781235Y-80666990D01*
X108828854Y-80571752D01*
D16*
X113072380Y-67834047D02*
X113253809Y-67894523D01*
X113556190Y-67894523D01*
X113677142Y-67834047D01*
X113737619Y-67773571D01*
X113798095Y-67652619D01*
X113798095Y-67531666D01*
X113737619Y-67410714D01*
X113677142Y-67350238D01*
X113556190Y-67289761D01*
X113314285Y-67229285D01*
X113193333Y-67168809D01*
X113132857Y-67108333D01*
X113072380Y-66987380D01*
X113072380Y-66866428D01*
X113132857Y-66745476D01*
X113193333Y-66685000D01*
X113314285Y-66624523D01*
X113616666Y-66624523D01*
X113798095Y-66685000D01*
X115007619Y-67894523D02*
X114281904Y-67894523D01*
X114644761Y-67894523D02*
X114644761Y-66624523D01*
X114523809Y-66805952D01*
X114402857Y-66926904D01*
X114281904Y-66987380D01*
D20*
X76701666Y-118413333D02*
X77268333Y-118413333D01*
X77335000Y-118380000D01*
X77368333Y-118346666D01*
X77401666Y-118280000D01*
X77401666Y-118146666D01*
X77368333Y-118080000D01*
X77335000Y-118046666D01*
X77268333Y-118013333D01*
X76701666Y-118013333D01*
X77401666Y-117313333D02*
X77401666Y-117713333D01*
X77401666Y-117513333D02*
X76701666Y-117513333D01*
X76801666Y-117580000D01*
X76868333Y-117646666D01*
X76901666Y-117713333D01*
X77251666Y-124905000D02*
X77251666Y-124571666D01*
X77451666Y-124971666D02*
X76751666Y-124738333D01*
X77451666Y-124505000D01*
X77451666Y-124271666D02*
X76751666Y-124271666D01*
X77451666Y-123871666D01*
X76751666Y-123871666D01*
X77451666Y-123505000D02*
X77451666Y-123371666D01*
X77418333Y-123305000D01*
X77385000Y-123271666D01*
X77285000Y-123205000D01*
X77151666Y-123171666D01*
X76885000Y-123171666D01*
X76818333Y-123205000D01*
X76785000Y-123238333D01*
X76751666Y-123305000D01*
X76751666Y-123438333D01*
X76785000Y-123505000D01*
X76818333Y-123538333D01*
X76885000Y-123571666D01*
X77051666Y-123571666D01*
X77118333Y-123538333D01*
X77151666Y-123505000D01*
X77185000Y-123438333D01*
X77185000Y-123305000D01*
X77151666Y-123238333D01*
X77118333Y-123205000D01*
X77051666Y-123171666D01*
X77451666Y-122505000D02*
X77451666Y-122905000D01*
X77451666Y-122705000D02*
X76751666Y-122705000D01*
X76851666Y-122771666D01*
X76918333Y-122838333D01*
X76951666Y-122905000D01*
X76985000Y-121905000D02*
X77451666Y-121905000D01*
X76718333Y-122071666D02*
X77218333Y-122238333D01*
X77218333Y-121805000D01*
X76985000Y-121238333D02*
X77451666Y-121238333D01*
X76718333Y-121405000D02*
X77218333Y-121571666D01*
X77218333Y-121138333D01*
X76751666Y-120538333D02*
X76751666Y-120871666D01*
X77085000Y-120905000D01*
X77051666Y-120871666D01*
X77018333Y-120805000D01*
X77018333Y-120638333D01*
X77051666Y-120571666D01*
X77085000Y-120538333D01*
X77151666Y-120505000D01*
X77318333Y-120505000D01*
X77385000Y-120538333D01*
X77418333Y-120571666D01*
X77451666Y-120638333D01*
X77451666Y-120805000D01*
X77418333Y-120871666D01*
X77385000Y-120905000D01*
D16*
X119219761Y-101229761D02*
X119824523Y-101229761D01*
X118554523Y-101653095D02*
X119219761Y-101229761D01*
X118554523Y-100806428D01*
X119824523Y-99717857D02*
X119824523Y-100443571D01*
X119824523Y-100080714D02*
X118554523Y-100080714D01*
X118735952Y-100201666D01*
X118856904Y-100322619D01*
X118917380Y-100443571D01*
D10*
X119982142Y-93322380D02*
X119648809Y-92846190D01*
X119410714Y-93322380D02*
X119410714Y-92322380D01*
X119791666Y-92322380D01*
X119886904Y-92370000D01*
X119934523Y-92417619D01*
X119982142Y-92512857D01*
X119982142Y-92655714D01*
X119934523Y-92750952D01*
X119886904Y-92798571D01*
X119791666Y-92846190D01*
X119410714Y-92846190D01*
X120934523Y-93322380D02*
X120363095Y-93322380D01*
X120648809Y-93322380D02*
X120648809Y-92322380D01*
X120553571Y-92465238D01*
X120458333Y-92560476D01*
X120363095Y-92608095D01*
X121791666Y-92655714D02*
X121791666Y-93322380D01*
X121553571Y-92274761D02*
X121315476Y-92989047D01*
X121934523Y-92989047D01*
D16*
X157124523Y-57633333D02*
X158031666Y-57633333D01*
X158213095Y-57693809D01*
X158334047Y-57814761D01*
X158394523Y-57996190D01*
X158394523Y-58117142D01*
X158394523Y-56363333D02*
X158394523Y-57089047D01*
X158394523Y-56726190D02*
X157124523Y-56726190D01*
X157305952Y-56847142D01*
X157426904Y-56968095D01*
X157487380Y-57089047D01*
X157084523Y-121563333D02*
X157991666Y-121563333D01*
X158173095Y-121623809D01*
X158294047Y-121744761D01*
X158354523Y-121926190D01*
X158354523Y-122047142D01*
X157205476Y-121019047D02*
X157145000Y-120958571D01*
X157084523Y-120837619D01*
X157084523Y-120535238D01*
X157145000Y-120414285D01*
X157205476Y-120353809D01*
X157326428Y-120293333D01*
X157447380Y-120293333D01*
X157628809Y-120353809D01*
X158354523Y-121079523D01*
X158354523Y-120293333D01*
D10*
X95197142Y-110947142D02*
X95149523Y-110994761D01*
X95006666Y-111042380D01*
X94911428Y-111042380D01*
X94768571Y-110994761D01*
X94673333Y-110899523D01*
X94625714Y-110804285D01*
X94578095Y-110613809D01*
X94578095Y-110470952D01*
X94625714Y-110280476D01*
X94673333Y-110185238D01*
X94768571Y-110090000D01*
X94911428Y-110042380D01*
X95006666Y-110042380D01*
X95149523Y-110090000D01*
X95197142Y-110137619D01*
X96149523Y-111042380D02*
X95578095Y-111042380D01*
X95863809Y-111042380D02*
X95863809Y-110042380D01*
X95768571Y-110185238D01*
X95673333Y-110280476D01*
X95578095Y-110328095D01*
X96482857Y-110042380D02*
X97149523Y-110042380D01*
X96720952Y-111042380D01*
X102257142Y-110987142D02*
X102209523Y-111034761D01*
X102066666Y-111082380D01*
X101971428Y-111082380D01*
X101828571Y-111034761D01*
X101733333Y-110939523D01*
X101685714Y-110844285D01*
X101638095Y-110653809D01*
X101638095Y-110510952D01*
X101685714Y-110320476D01*
X101733333Y-110225238D01*
X101828571Y-110130000D01*
X101971428Y-110082380D01*
X102066666Y-110082380D01*
X102209523Y-110130000D01*
X102257142Y-110177619D01*
X103209523Y-111082380D02*
X102638095Y-111082380D01*
X102923809Y-111082380D02*
X102923809Y-110082380D01*
X102828571Y-110225238D01*
X102733333Y-110320476D01*
X102638095Y-110368095D01*
X103780952Y-110510952D02*
X103685714Y-110463333D01*
X103638095Y-110415714D01*
X103590476Y-110320476D01*
X103590476Y-110272857D01*
X103638095Y-110177619D01*
X103685714Y-110130000D01*
X103780952Y-110082380D01*
X103971428Y-110082380D01*
X104066666Y-110130000D01*
X104114285Y-110177619D01*
X104161904Y-110272857D01*
X104161904Y-110320476D01*
X104114285Y-110415714D01*
X104066666Y-110463333D01*
X103971428Y-110510952D01*
X103780952Y-110510952D01*
X103685714Y-110558571D01*
X103638095Y-110606190D01*
X103590476Y-110701428D01*
X103590476Y-110891904D01*
X103638095Y-110987142D01*
X103685714Y-111034761D01*
X103780952Y-111082380D01*
X103971428Y-111082380D01*
X104066666Y-111034761D01*
X104114285Y-110987142D01*
X104161904Y-110891904D01*
X104161904Y-110701428D01*
X104114285Y-110606190D01*
X104066666Y-110558571D01*
X103971428Y-110510952D01*
X99353809Y-105446190D02*
X99353809Y-105922380D01*
X99020476Y-104922380D02*
X99353809Y-105446190D01*
X99687142Y-104922380D01*
X99972857Y-105017619D02*
X100020476Y-104970000D01*
X100115714Y-104922380D01*
X100353809Y-104922380D01*
X100449047Y-104970000D01*
X100496666Y-105017619D01*
X100544285Y-105112857D01*
X100544285Y-105208095D01*
X100496666Y-105350952D01*
X99925238Y-105922380D01*
X100544285Y-105922380D01*
M02*
