solid
 facet normal  0.000000e+00  1.000000e+00 -0.000000e+00
   outer loop
     vertex  3.200000e+00  2.400000e+00  1.600000e+00
     vertex -3.200000e+00  2.400000e+00  1.000000e-01
     vertex -3.200000e+00  2.400000e+00  1.600000e+00
   endloop
 endfacet
 facet normal  0.000000e+00  1.000000e+00 -0.000000e+00
   outer loop
     vertex  3.200000e+00  2.400000e+00  1.000000e-01
     vertex -3.200000e+00  2.400000e+00  1.000000e-01
     vertex  3.200000e+00  2.400000e+00  1.600000e+00
   endloop
 endfacet
 facet normal  1.000000e+00  0.000000e+00  0.000000e+00
   outer loop
     vertex  3.200000e+00 -2.400000e+00  1.000000e-01
     vertex  3.200000e+00  2.400000e+00  1.000000e-01
     vertex  3.200000e+00  2.400000e+00  1.600000e+00
   endloop
 endfacet
 facet normal  1.000000e+00  0.000000e+00 -0.000000e+00
   outer loop
     vertex  3.200000e+00 -2.400000e+00  1.000000e-01
     vertex  3.200000e+00  2.400000e+00  1.600000e+00
     vertex  3.200000e+00 -2.400000e+00  1.600000e+00
   endloop
 endfacet
 facet normal  0.000000e+00 -1.000000e+00  0.000000e+00
   outer loop
     vertex -3.200000e+00 -2.400000e+00  1.600000e+00
     vertex  3.200000e+00 -2.400000e+00  1.000000e-01
     vertex  3.200000e+00 -2.400000e+00  1.600000e+00
   endloop
 endfacet
 facet normal  0.000000e+00 -1.000000e+00  0.000000e+00
   outer loop
     vertex -3.200000e+00 -2.400000e+00  1.000000e-01
     vertex  3.200000e+00 -2.400000e+00  1.000000e-01
     vertex -3.200000e+00 -2.400000e+00  1.600000e+00
   endloop
 endfacet
 facet normal -1.000000e+00  0.000000e+00  0.000000e+00
   outer loop
     vertex -3.200000e+00  2.400000e+00  1.000000e-01
     vertex -3.200000e+00 -2.400000e+00  1.000000e-01
     vertex -3.200000e+00 -2.400000e+00  1.600000e+00
   endloop
 endfacet
 facet normal -1.000000e+00  0.000000e+00  0.000000e+00
   outer loop
     vertex -3.200000e+00  2.400000e+00  1.000000e-01
     vertex -3.200000e+00 -2.400000e+00  1.600000e+00
     vertex -3.200000e+00  2.400000e+00  1.600000e+00
   endloop
 endfacet
 facet normal  0.000000e+00  0.000000e+00 -1.000000e+00
   outer loop
     vertex -3.200000e+00 -2.400000e+00  1.000000e-01
     vertex -3.200000e+00  2.400000e+00  1.000000e-01
     vertex  3.200000e+00 -2.400000e+00  1.000000e-01
   endloop
 endfacet
 facet normal  0.000000e+00  0.000000e+00 -1.000000e+00
   outer loop
     vertex  3.200000e+00 -2.400000e+00  1.000000e-01
     vertex -3.200000e+00  2.400000e+00  1.000000e-01
     vertex  3.200000e+00  2.400000e+00  1.000000e-01
   endloop
 endfacet
 facet normal  0.000000e+00  0.000000e+00  1.000000e+00
   outer loop
     vertex  3.200000e+00 -2.400000e+00  1.600000e+00
     vertex -3.200000e+00  2.400000e+00  1.600000e+00
     vertex -3.200000e+00 -2.400000e+00  1.600000e+00
   endloop
 endfacet
 facet normal  0.000000e+00  0.000000e+00  1.000000e+00
   outer loop
     vertex  3.200000e+00  2.400000e+00  1.600000e+00
     vertex -3.200000e+00  2.400000e+00  1.600000e+00
     vertex  3.200000e+00 -2.400000e+00  1.600000e+00
   endloop
 endfacet
 facet normal -1.000000e+00 -0.000000e+00 -0.000000e+00
   outer loop
     vertex -1.800000e+00 -1.750000e+00  1.000000e-01
     vertex -1.800000e+00 -1.750000e+00  0.000000e+00
     vertex -1.800000e+00 -2.350000e+00  0.000000e+00
   endloop
 endfacet
 facet normal -1.000000e+00 -0.000000e+00  0.000000e+00
   outer loop
     vertex -1.800000e+00 -1.750000e+00  1.000000e-01
     vertex -1.800000e+00 -2.350000e+00  0.000000e+00
     vertex -1.800000e+00 -2.350000e+00  1.000000e-01
   endloop
 endfacet
 facet normal  1.000000e+00  0.000000e+00  0.000000e+00
   outer loop
     vertex -1.400000e+00 -2.350000e+00  0.000000e+00
     vertex -1.400000e+00 -1.750000e+00  0.000000e+00
     vertex -1.400000e+00 -1.750000e+00  1.000000e-01
   endloop
 endfacet
 facet normal  1.000000e+00 -0.000000e+00  0.000000e+00
   outer loop
     vertex -1.400000e+00 -2.350000e+00  1.000000e-01
     vertex -1.400000e+00 -2.350000e+00  0.000000e+00
     vertex -1.400000e+00 -1.750000e+00  1.000000e-01
   endloop
 endfacet
 facet normal  0.000000e+00 -1.000000e+00  0.000000e+00
   outer loop
     vertex -1.800000e+00 -2.350000e+00  1.000000e-01
     vertex -1.800000e+00 -2.350000e+00  0.000000e+00
     vertex -1.400000e+00 -2.350000e+00  0.000000e+00
   endloop
 endfacet
 facet normal  0.000000e+00 -1.000000e+00  0.000000e+00
   outer loop
     vertex -1.800000e+00 -2.350000e+00  1.000000e-01
     vertex -1.400000e+00 -2.350000e+00  0.000000e+00
     vertex -1.400000e+00 -2.350000e+00  1.000000e-01
   endloop
 endfacet
 facet normal  0.000000e+00  1.000000e+00 -0.000000e+00
   outer loop
     vertex -1.400000e+00 -1.750000e+00  0.000000e+00
     vertex -1.800000e+00 -1.750000e+00  0.000000e+00
     vertex -1.800000e+00 -1.750000e+00  1.000000e-01
   endloop
 endfacet
 facet normal  0.000000e+00  1.000000e+00  0.000000e+00
   outer loop
     vertex -1.400000e+00 -1.750000e+00  1.000000e-01
     vertex -1.400000e+00 -1.750000e+00  0.000000e+00
     vertex -1.800000e+00 -1.750000e+00  1.000000e-01
   endloop
 endfacet
 facet normal  0.000000e+00  0.000000e+00 -1.000000e+00
   outer loop
     vertex -1.400000e+00 -2.350000e+00  0.000000e+00
     vertex -1.800000e+00 -2.350000e+00  0.000000e+00
     vertex -1.800000e+00 -1.750000e+00  0.000000e+00
   endloop
 endfacet
 facet normal  0.000000e+00  0.000000e+00 -1.000000e+00
   outer loop
     vertex -1.400000e+00 -2.350000e+00  0.000000e+00
     vertex -1.800000e+00 -1.750000e+00  0.000000e+00
     vertex -1.400000e+00 -1.750000e+00  0.000000e+00
   endloop
 endfacet
 facet normal -0.000000e+00  0.000000e+00  1.000000e+00
   outer loop
     vertex -1.800000e+00 -1.750000e+00  1.000000e-01
     vertex -1.800000e+00 -2.350000e+00  1.000000e-01
     vertex -1.400000e+00 -2.350000e+00  1.000000e-01
   endloop
 endfacet
 facet normal  0.000000e+00  0.000000e+00  1.000000e+00
   outer loop
     vertex -1.400000e+00 -1.750000e+00  1.000000e-01
     vertex -1.800000e+00 -1.750000e+00  1.000000e-01
     vertex -1.400000e+00 -2.350000e+00  1.000000e-01
   endloop
 endfacet
 facet normal -1.000000e+00 -0.000000e+00 -0.000000e+00
   outer loop
     vertex -2.000000e-01 -1.750000e+00  1.000000e-01
     vertex -2.000000e-01 -1.750000e+00  0.000000e+00
     vertex -2.000000e-01 -2.350000e+00  0.000000e+00
   endloop
 endfacet
 facet normal -1.000000e+00 -0.000000e+00  0.000000e+00
   outer loop
     vertex -2.000000e-01 -1.750000e+00  1.000000e-01
     vertex -2.000000e-01 -2.350000e+00  0.000000e+00
     vertex -2.000000e-01 -2.350000e+00  1.000000e-01
   endloop
 endfacet
 facet normal  1.000000e+00  0.000000e+00  0.000000e+00
   outer loop
     vertex  2.000000e-01 -2.350000e+00  0.000000e+00
     vertex  2.000000e-01 -1.750000e+00  0.000000e+00
     vertex  2.000000e-01 -1.750000e+00  1.000000e-01
   endloop
 endfacet
 facet normal  1.000000e+00 -0.000000e+00  0.000000e+00
   outer loop
     vertex  2.000000e-01 -2.350000e+00  1.000000e-01
     vertex  2.000000e-01 -2.350000e+00  0.000000e+00
     vertex  2.000000e-01 -1.750000e+00  1.000000e-01
   endloop
 endfacet
 facet normal  0.000000e+00 -1.000000e+00  0.000000e+00
   outer loop
     vertex -2.000000e-01 -2.350000e+00  0.000000e+00
     vertex  2.000000e-01 -2.350000e+00  0.000000e+00
     vertex  2.000000e-01 -2.350000e+00  1.000000e-01
   endloop
 endfacet
 facet normal  0.000000e+00 -1.000000e+00  0.000000e+00
   outer loop
     vertex -2.000000e-01 -2.350000e+00  1.000000e-01
     vertex -2.000000e-01 -2.350000e+00  0.000000e+00
     vertex  2.000000e-01 -2.350000e+00  1.000000e-01
   endloop
 endfacet
 facet normal  0.000000e+00  1.000000e+00  0.000000e+00
   outer loop
     vertex  2.000000e-01 -1.750000e+00  1.000000e-01
     vertex  2.000000e-01 -1.750000e+00  0.000000e+00
     vertex -2.000000e-01 -1.750000e+00  0.000000e+00
   endloop
 endfacet
 facet normal  0.000000e+00  1.000000e+00 -0.000000e+00
   outer loop
     vertex  2.000000e-01 -1.750000e+00  1.000000e-01
     vertex -2.000000e-01 -1.750000e+00  0.000000e+00
     vertex -2.000000e-01 -1.750000e+00  1.000000e-01
   endloop
 endfacet
 facet normal  0.000000e+00  0.000000e+00 -1.000000e+00
   outer loop
     vertex  2.000000e-01 -2.350000e+00  0.000000e+00
     vertex -2.000000e-01 -2.350000e+00  0.000000e+00
     vertex -2.000000e-01 -1.750000e+00  0.000000e+00
   endloop
 endfacet
 facet normal  0.000000e+00  0.000000e+00 -1.000000e+00
   outer loop
     vertex  2.000000e-01 -2.350000e+00  0.000000e+00
     vertex -2.000000e-01 -1.750000e+00  0.000000e+00
     vertex  2.000000e-01 -1.750000e+00  0.000000e+00
   endloop
 endfacet
 facet normal -0.000000e+00  0.000000e+00  1.000000e+00
   outer loop
     vertex -2.000000e-01 -1.750000e+00  1.000000e-01
     vertex -2.000000e-01 -2.350000e+00  1.000000e-01
     vertex  2.000000e-01 -2.350000e+00  1.000000e-01
   endloop
 endfacet
 facet normal  0.000000e+00  0.000000e+00  1.000000e+00
   outer loop
     vertex  2.000000e-01 -1.750000e+00  1.000000e-01
     vertex -2.000000e-01 -1.750000e+00  1.000000e-01
     vertex  2.000000e-01 -2.350000e+00  1.000000e-01
   endloop
 endfacet
 facet normal -1.000000e+00 -0.000000e+00 -0.000000e+00
   outer loop
     vertex  1.400000e+00 -1.750000e+00  1.000000e-01
     vertex  1.400000e+00 -1.750000e+00  0.000000e+00
     vertex  1.400000e+00 -2.350000e+00  0.000000e+00
   endloop
 endfacet
 facet normal -1.000000e+00 -0.000000e+00  0.000000e+00
   outer loop
     vertex  1.400000e+00 -1.750000e+00  1.000000e-01
     vertex  1.400000e+00 -2.350000e+00  0.000000e+00
     vertex  1.400000e+00 -2.350000e+00  1.000000e-01
   endloop
 endfacet
 facet normal  1.000000e+00  0.000000e+00  0.000000e+00
   outer loop
     vertex  1.800000e+00 -2.350000e+00  0.000000e+00
     vertex  1.800000e+00 -1.750000e+00  0.000000e+00
     vertex  1.800000e+00 -1.750000e+00  1.000000e-01
   endloop
 endfacet
 facet normal  1.000000e+00 -0.000000e+00  0.000000e+00
   outer loop
     vertex  1.800000e+00 -2.350000e+00  1.000000e-01
     vertex  1.800000e+00 -2.350000e+00  0.000000e+00
     vertex  1.800000e+00 -1.750000e+00  1.000000e-01
   endloop
 endfacet
 facet normal  0.000000e+00 -1.000000e+00  0.000000e+00
   outer loop
     vertex  1.400000e+00 -2.350000e+00  1.000000e-01
     vertex  1.400000e+00 -2.350000e+00  0.000000e+00
     vertex  1.800000e+00 -2.350000e+00  0.000000e+00
   endloop
 endfacet
 facet normal  0.000000e+00 -1.000000e+00  0.000000e+00
   outer loop
     vertex  1.400000e+00 -2.350000e+00  1.000000e-01
     vertex  1.800000e+00 -2.350000e+00  0.000000e+00
     vertex  1.800000e+00 -2.350000e+00  1.000000e-01
   endloop
 endfacet
 facet normal  0.000000e+00  1.000000e+00 -0.000000e+00
   outer loop
     vertex  1.800000e+00 -1.750000e+00  0.000000e+00
     vertex  1.400000e+00 -1.750000e+00  0.000000e+00
     vertex  1.400000e+00 -1.750000e+00  1.000000e-01
   endloop
 endfacet
 facet normal  0.000000e+00  1.000000e+00  0.000000e+00
   outer loop
     vertex  1.800000e+00 -1.750000e+00  1.000000e-01
     vertex  1.800000e+00 -1.750000e+00  0.000000e+00
     vertex  1.400000e+00 -1.750000e+00  1.000000e-01
   endloop
 endfacet
 facet normal  0.000000e+00  0.000000e+00 -1.000000e+00
   outer loop
     vertex  1.800000e+00 -2.350000e+00  0.000000e+00
     vertex  1.400000e+00 -2.350000e+00  0.000000e+00
     vertex  1.400000e+00 -1.750000e+00  0.000000e+00
   endloop
 endfacet
 facet normal  0.000000e+00  0.000000e+00 -1.000000e+00
   outer loop
     vertex  1.800000e+00 -2.350000e+00  0.000000e+00
     vertex  1.400000e+00 -1.750000e+00  0.000000e+00
     vertex  1.800000e+00 -1.750000e+00  0.000000e+00
   endloop
 endfacet
 facet normal -0.000000e+00  0.000000e+00  1.000000e+00
   outer loop
     vertex  1.400000e+00 -1.750000e+00  1.000000e-01
     vertex  1.400000e+00 -2.350000e+00  1.000000e-01
     vertex  1.800000e+00 -2.350000e+00  1.000000e-01
   endloop
 endfacet
 facet normal  0.000000e+00  0.000000e+00  1.000000e+00
   outer loop
     vertex  1.800000e+00 -1.750000e+00  1.000000e-01
     vertex  1.400000e+00 -1.750000e+00  1.000000e-01
     vertex  1.800000e+00 -2.350000e+00  1.000000e-01
   endloop
 endfacet
 facet normal -1.000000e+00 -0.000000e+00 -0.000000e+00
   outer loop
     vertex  2.410000e+00  2.400000e-01  1.000000e-01
     vertex  2.410000e+00  2.400000e-01  0.000000e+00
     vertex  2.410000e+00 -2.400000e-01  1.000000e-01
   endloop
 endfacet
 facet normal -1.000000e+00  0.000000e+00  0.000000e+00
   outer loop
     vertex  2.410000e+00  2.400000e-01  0.000000e+00
     vertex  2.410000e+00 -2.400000e-01  0.000000e+00
     vertex  2.410000e+00 -2.400000e-01  1.000000e-01
   endloop
 endfacet
 facet normal  1.000000e+00 -0.000000e+00  0.000000e+00
   outer loop
     vertex  3.140000e+00 -2.400000e-01  1.000000e-01
     vertex  3.140000e+00  2.400000e-01  0.000000e+00
     vertex  3.140000e+00  2.400000e-01  1.000000e-01
   endloop
 endfacet
 facet normal  1.000000e+00 -0.000000e+00  0.000000e+00
   outer loop
     vertex  3.140000e+00 -2.400000e-01  1.000000e-01
     vertex  3.140000e+00 -2.400000e-01  0.000000e+00
     vertex  3.140000e+00  2.400000e-01  0.000000e+00
   endloop
 endfacet
 facet normal  0.000000e+00 -1.000000e+00  0.000000e+00
   outer loop
     vertex  2.410000e+00 -2.400000e-01  0.000000e+00
     vertex  3.140000e+00 -2.400000e-01  0.000000e+00
     vertex  3.140000e+00 -2.400000e-01  1.000000e-01
   endloop
 endfacet
 facet normal  0.000000e+00 -1.000000e+00  0.000000e+00
   outer loop
     vertex  2.410000e+00 -2.400000e-01  1.000000e-01
     vertex  2.410000e+00 -2.400000e-01  0.000000e+00
     vertex  3.140000e+00 -2.400000e-01  1.000000e-01
   endloop
 endfacet
 facet normal  0.000000e+00  1.000000e+00  0.000000e+00
   outer loop
     vertex  3.140000e+00  2.400000e-01  1.000000e-01
     vertex  3.140000e+00  2.400000e-01  0.000000e+00
     vertex  2.410000e+00  2.400000e-01  0.000000e+00
   endloop
 endfacet
 facet normal  0.000000e+00  1.000000e+00 -0.000000e+00
   outer loop
     vertex  3.140000e+00  2.400000e-01  1.000000e-01
     vertex  2.410000e+00  2.400000e-01  0.000000e+00
     vertex  2.410000e+00  2.400000e-01  1.000000e-01
   endloop
 endfacet
 facet normal  0.000000e+00  0.000000e+00 -1.000000e+00
   outer loop
     vertex  2.410000e+00 -2.400000e-01  0.000000e+00
     vertex  2.410000e+00  2.400000e-01  0.000000e+00
     vertex  3.140000e+00  2.400000e-01  0.000000e+00
   endloop
 endfacet
 facet normal  0.000000e+00  0.000000e+00 -1.000000e+00
   outer loop
     vertex  3.140000e+00 -2.400000e-01  0.000000e+00
     vertex  2.410000e+00 -2.400000e-01  0.000000e+00
     vertex  3.140000e+00  2.400000e-01  0.000000e+00
   endloop
 endfacet
 facet normal  0.000000e+00  0.000000e+00  1.000000e+00
   outer loop
     vertex  3.140000e+00  2.400000e-01  1.000000e-01
     vertex  2.410000e+00  2.400000e-01  1.000000e-01
     vertex  2.410000e+00 -2.400000e-01  1.000000e-01
   endloop
 endfacet
 facet normal -0.000000e+00  0.000000e+00  1.000000e+00
   outer loop
     vertex  3.140000e+00  2.400000e-01  1.000000e-01
     vertex  2.410000e+00 -2.400000e-01  1.000000e-01
     vertex  3.140000e+00 -2.400000e-01  1.000000e-01
   endloop
 endfacet
 facet normal -1.000000e+00 -0.000000e+00 -0.000000e+00
   outer loop
     vertex  7.700000e-01  2.230000e+00  1.000000e-01
     vertex  7.700000e-01  2.230000e+00  0.000000e+00
     vertex  7.700000e-01  1.720000e+00  1.000000e-01
   endloop
 endfacet
 facet normal -1.000000e+00  0.000000e+00  0.000000e+00
   outer loop
     vertex  7.700000e-01  2.230000e+00  0.000000e+00
     vertex  7.700000e-01  1.720000e+00  0.000000e+00
     vertex  7.700000e-01  1.720000e+00  1.000000e-01
   endloop
 endfacet
 facet normal  1.000000e+00 -0.000000e+00  0.000000e+00
   outer loop
     vertex  2.230000e+00  1.720000e+00  1.000000e-01
     vertex  2.230000e+00  2.230000e+00  0.000000e+00
     vertex  2.230000e+00  2.230000e+00  1.000000e-01
   endloop
 endfacet
 facet normal  1.000000e+00 -0.000000e+00  0.000000e+00
   outer loop
     vertex  2.230000e+00  1.720000e+00  1.000000e-01
     vertex  2.230000e+00  1.720000e+00  0.000000e+00
     vertex  2.230000e+00  2.230000e+00  0.000000e+00
   endloop
 endfacet
 facet normal  0.000000e+00 -1.000000e+00  0.000000e+00
   outer loop
     vertex  7.700000e-01  1.720000e+00  0.000000e+00
     vertex  2.230000e+00  1.720000e+00  0.000000e+00
     vertex  2.230000e+00  1.720000e+00  1.000000e-01
   endloop
 endfacet
 facet normal  0.000000e+00 -1.000000e+00  0.000000e+00
   outer loop
     vertex  7.700000e-01  1.720000e+00  1.000000e-01
     vertex  7.700000e-01  1.720000e+00  0.000000e+00
     vertex  2.230000e+00  1.720000e+00  1.000000e-01
   endloop
 endfacet
 facet normal  0.000000e+00  1.000000e+00  0.000000e+00
   outer loop
     vertex  2.230000e+00  2.230000e+00  1.000000e-01
     vertex  2.230000e+00  2.230000e+00  0.000000e+00
     vertex  7.700000e-01  2.230000e+00  0.000000e+00
   endloop
 endfacet
 facet normal  0.000000e+00  1.000000e+00 -0.000000e+00
   outer loop
     vertex  2.230000e+00  2.230000e+00  1.000000e-01
     vertex  7.700000e-01  2.230000e+00  0.000000e+00
     vertex  7.700000e-01  2.230000e+00  1.000000e-01
   endloop
 endfacet
 facet normal  0.000000e+00  0.000000e+00 -1.000000e+00
   outer loop
     vertex  7.700000e-01  1.720000e+00  0.000000e+00
     vertex  7.700000e-01  2.230000e+00  0.000000e+00
     vertex  2.230000e+00  2.230000e+00  0.000000e+00
   endloop
 endfacet
 facet normal  0.000000e+00  0.000000e+00 -1.000000e+00
   outer loop
     vertex  2.230000e+00  1.720000e+00  0.000000e+00
     vertex  7.700000e-01  1.720000e+00  0.000000e+00
     vertex  2.230000e+00  2.230000e+00  0.000000e+00
   endloop
 endfacet
 facet normal  0.000000e+00  0.000000e+00  1.000000e+00
   outer loop
     vertex  2.230000e+00  2.230000e+00  1.000000e-01
     vertex  7.700000e-01  2.230000e+00  1.000000e-01
     vertex  7.700000e-01  1.720000e+00  1.000000e-01
   endloop
 endfacet
 facet normal -0.000000e+00  0.000000e+00  1.000000e+00
   outer loop
     vertex  2.230000e+00  2.230000e+00  1.000000e-01
     vertex  7.700000e-01  1.720000e+00  1.000000e-01
     vertex  2.230000e+00  1.720000e+00  1.000000e-01
   endloop
 endfacet
 facet normal -1.000000e+00 -0.000000e+00 -0.000000e+00
   outer loop
     vertex -2.230000e+00  2.230000e+00  1.000000e-01
     vertex -2.230000e+00  2.230000e+00  0.000000e+00
     vertex -2.230000e+00  1.720000e+00  1.000000e-01
   endloop
 endfacet
 facet normal -1.000000e+00  0.000000e+00  0.000000e+00
   outer loop
     vertex -2.230000e+00  2.230000e+00  0.000000e+00
     vertex -2.230000e+00  1.720000e+00  0.000000e+00
     vertex -2.230000e+00  1.720000e+00  1.000000e-01
   endloop
 endfacet
 facet normal  1.000000e+00 -0.000000e+00  0.000000e+00
   outer loop
     vertex -7.700000e-01  1.720000e+00  1.000000e-01
     vertex -7.700000e-01  2.230000e+00  0.000000e+00
     vertex -7.700000e-01  2.230000e+00  1.000000e-01
   endloop
 endfacet
 facet normal  1.000000e+00 -0.000000e+00  0.000000e+00
   outer loop
     vertex -7.700000e-01  1.720000e+00  1.000000e-01
     vertex -7.700000e-01  1.720000e+00  0.000000e+00
     vertex -7.700000e-01  2.230000e+00  0.000000e+00
   endloop
 endfacet
 facet normal  0.000000e+00 -1.000000e+00  0.000000e+00
   outer loop
     vertex -2.230000e+00  1.720000e+00  0.000000e+00
     vertex -7.700000e-01  1.720000e+00  0.000000e+00
     vertex -7.700000e-01  1.720000e+00  1.000000e-01
   endloop
 endfacet
 facet normal  0.000000e+00 -1.000000e+00  0.000000e+00
   outer loop
     vertex -2.230000e+00  1.720000e+00  1.000000e-01
     vertex -2.230000e+00  1.720000e+00  0.000000e+00
     vertex -7.700000e-01  1.720000e+00  1.000000e-01
   endloop
 endfacet
 facet normal  0.000000e+00  1.000000e+00  0.000000e+00
   outer loop
     vertex -7.700000e-01  2.230000e+00  1.000000e-01
     vertex -7.700000e-01  2.230000e+00  0.000000e+00
     vertex -2.230000e+00  2.230000e+00  0.000000e+00
   endloop
 endfacet
 facet normal  0.000000e+00  1.000000e+00 -0.000000e+00
   outer loop
     vertex -7.700000e-01  2.230000e+00  1.000000e-01
     vertex -2.230000e+00  2.230000e+00  0.000000e+00
     vertex -2.230000e+00  2.230000e+00  1.000000e-01
   endloop
 endfacet
 facet normal  0.000000e+00  0.000000e+00 -1.000000e+00
   outer loop
     vertex -2.230000e+00  1.720000e+00  0.000000e+00
     vertex -2.230000e+00  2.230000e+00  0.000000e+00
     vertex -7.700000e-01  2.230000e+00  0.000000e+00
   endloop
 endfacet
 facet normal  0.000000e+00  0.000000e+00 -1.000000e+00
   outer loop
     vertex -7.700000e-01  1.720000e+00  0.000000e+00
     vertex -2.230000e+00  1.720000e+00  0.000000e+00
     vertex -7.700000e-01  2.230000e+00  0.000000e+00
   endloop
 endfacet
 facet normal  0.000000e+00  0.000000e+00  1.000000e+00
   outer loop
     vertex -7.700000e-01  2.230000e+00  1.000000e-01
     vertex -2.230000e+00  2.230000e+00  1.000000e-01
     vertex -2.230000e+00  1.720000e+00  1.000000e-01
   endloop
 endfacet
 facet normal -0.000000e+00  0.000000e+00  1.000000e+00
   outer loop
     vertex -7.700000e-01  2.230000e+00  1.000000e-01
     vertex -2.230000e+00  1.720000e+00  1.000000e-01
     vertex -7.700000e-01  1.720000e+00  1.000000e-01
   endloop
 endfacet
 facet normal -1.000000e+00 -0.000000e+00 -0.000000e+00
   outer loop
     vertex -3.140000e+00  2.400000e-01  1.000000e-01
     vertex -3.140000e+00  2.400000e-01  0.000000e+00
     vertex -3.140000e+00 -2.400000e-01  1.000000e-01
   endloop
 endfacet
 facet normal -1.000000e+00  0.000000e+00  0.000000e+00
   outer loop
     vertex -3.140000e+00  2.400000e-01  0.000000e+00
     vertex -3.140000e+00 -2.400000e-01  0.000000e+00
     vertex -3.140000e+00 -2.400000e-01  1.000000e-01
   endloop
 endfacet
 facet normal  1.000000e+00 -0.000000e+00  0.000000e+00
   outer loop
     vertex -2.410000e+00 -2.400000e-01  1.000000e-01
     vertex -2.410000e+00  2.400000e-01  0.000000e+00
     vertex -2.410000e+00  2.400000e-01  1.000000e-01
   endloop
 endfacet
 facet normal  1.000000e+00 -0.000000e+00  0.000000e+00
   outer loop
     vertex -2.410000e+00 -2.400000e-01  1.000000e-01
     vertex -2.410000e+00 -2.400000e-01  0.000000e+00
     vertex -2.410000e+00  2.400000e-01  0.000000e+00
   endloop
 endfacet
 facet normal  0.000000e+00 -1.000000e+00  0.000000e+00
   outer loop
     vertex -3.140000e+00 -2.400000e-01  1.000000e-01
     vertex -3.140000e+00 -2.400000e-01  0.000000e+00
     vertex -2.410000e+00 -2.400000e-01  0.000000e+00
   endloop
 endfacet
 facet normal  0.000000e+00 -1.000000e+00  0.000000e+00
   outer loop
     vertex -3.140000e+00 -2.400000e-01  1.000000e-01
     vertex -2.410000e+00 -2.400000e-01  0.000000e+00
     vertex -2.410000e+00 -2.400000e-01  1.000000e-01
   endloop
 endfacet
 facet normal  0.000000e+00  1.000000e+00 -0.000000e+00
   outer loop
     vertex -2.410000e+00  2.400000e-01  0.000000e+00
     vertex -3.140000e+00  2.400000e-01  0.000000e+00
     vertex -3.140000e+00  2.400000e-01  1.000000e-01
   endloop
 endfacet
 facet normal  0.000000e+00  1.000000e+00  0.000000e+00
   outer loop
     vertex -2.410000e+00  2.400000e-01  1.000000e-01
     vertex -2.410000e+00  2.400000e-01  0.000000e+00
     vertex -3.140000e+00  2.400000e-01  1.000000e-01
   endloop
 endfacet
 facet normal  0.000000e+00  0.000000e+00 -1.000000e+00
   outer loop
     vertex -3.140000e+00 -2.400000e-01  0.000000e+00
     vertex -3.140000e+00  2.400000e-01  0.000000e+00
     vertex -2.410000e+00  2.400000e-01  0.000000e+00
   endloop
 endfacet
 facet normal  0.000000e+00  0.000000e+00 -1.000000e+00
   outer loop
     vertex -2.410000e+00 -2.400000e-01  0.000000e+00
     vertex -3.140000e+00 -2.400000e-01  0.000000e+00
     vertex -2.410000e+00  2.400000e-01  0.000000e+00
   endloop
 endfacet
 facet normal  0.000000e+00  0.000000e+00  1.000000e+00
   outer loop
     vertex -2.410000e+00  2.400000e-01  1.000000e-01
     vertex -3.140000e+00  2.400000e-01  1.000000e-01
     vertex -3.140000e+00 -2.400000e-01  1.000000e-01
   endloop
 endfacet
 facet normal -0.000000e+00  0.000000e+00  1.000000e+00
   outer loop
     vertex -2.410000e+00  2.400000e-01  1.000000e-01
     vertex -3.140000e+00 -2.400000e-01  1.000000e-01
     vertex -2.410000e+00 -2.400000e-01  1.000000e-01
   endloop
 endfacet
endsolid
